<?xml version="1.0" encoding="UTF-8" standalone="no"?>
<svg
   xmlns:dc="http://purl.org/dc/elements/1.1/"
   xmlns:cc="http://creativecommons.org/ns#"
   xmlns:rdf="http://www.w3.org/1999/02/22-rdf-syntax-ns#"
   xmlns:svg="http://www.w3.org/2000/svg"
   xmlns="http://www.w3.org/2000/svg"
   xmlns:sodipodi="http://sodipodi.sourceforge.net/DTD/sodipodi-0.dtd"
   xmlns:inkscape="http://www.inkscape.org/namespaces/inkscape"
   width="40.639999mm"
   height="128.5mm"
   viewBox="0 0 40.639999 128.5"
   version="1.1"
   id="svg8"
   inkscape:version="1.0.1 (3bc2e813f5, 2020-09-07)"
   sodipodi:docname="chance.svg">
  <defs
     id="defs2" />
  <sodipodi:namedview
     id="base"
     pagecolor="#ffffff"
     bordercolor="#666666"
     borderopacity="1.0"
     inkscape:pageopacity="0.0"
     inkscape:pageshadow="2"
     inkscape:zoom="1.9298576"
     inkscape:cx="-18.036645"
     inkscape:cy="263.606"
     inkscape:document-units="mm"
     inkscape:current-layer="layer1"
     inkscape:document-rotation="0"
     showgrid="true"
     inkscape:snap-page="false"
     inkscape:window-width="1858"
     inkscape:window-height="1057"
     inkscape:window-x="-8"
     inkscape:window-y="-8"
     inkscape:window-maximized="1"
     inkscape:snap-center="true"
     inkscape:object-nodes="false">
    <inkscape:grid
       type="xygrid"
       id="grid833"
       units="mm"
       spacingx="2.5399999"
       spacingy="2.00781"
       empspacing="4"
       originx="20.319998"
       originy="64.250001" />
  </sodipodi:namedview>
  <metadata
     id="metadata5">
    <rdf:RDF>
      <cc:Work
         rdf:about="">
        <dc:format>image/svg+xml</dc:format>
        <dc:type
           rdf:resource="http://purl.org/dc/dcmitype/StillImage" />
        <dc:title />
      </cc:Work>
    </rdf:RDF>
  </metadata>
  <g
     inkscape:label="Layer 1"
     inkscape:groupmode="layer"
     id="layer1">
    <rect
       style="fill:#e6e6e6;fill-opacity:1"
       id="rect835"
       width="40.639996"
       height="128.49985"
       x="-1.2e-06"
       y="8.0999998e-05"
       rx="0.49999899"
       ry="0.49999899"
       inkscape:label="bg"
       sodipodi:insensitive="true" />
    <g
       aria-label="chance"
       id="text840"
       style="font-style:normal;font-variant:normal;font-weight:normal;font-stretch:normal;font-size:4.23333px;line-height:1.25;font-family:'Berlin Sans FB';-inkscape-font-specification:'Berlin Sans FB';fill:#e8617a;fill-opacity:1;stroke:none;stroke-width:0.264583"
       inkscape:label="title">
      <path
         d="m 15.870662,7.6003403 q 0,0.045475 -0.04754,0.2025714 -0.04754,0.1570962 -0.06615,0.1570962 -0.09302,-0.041341 -0.188102,-0.082682 -0.09302,-0.041341 -0.204639,-0.041341 -0.254248,0 -0.423746,0.188102 -0.169499,0.1881021 -0.169499,0.444417 0,0.2521808 0.169499,0.4361487 0.173632,0.1901691 0.423746,0.1901691 0.138493,0 0.272851,-0.068213 0.134359,-0.068213 0.117823,-0.068213 0.02687,0 0.05994,0.1736326 0.03101,0.1570962 0.03101,0.2170409 0,0.064079 -0.241846,0.1260903 -0.202571,0.051676 -0.299723,0.051676 -0.425813,0 -0.719335,-0.3183265 -0.287321,-0.3100584 -0.287321,-0.7400059 0,-0.4382158 0.28112,-0.74414 0.289388,-0.3141925 0.721402,-0.3141925 0.289388,0 0.529167,0.146761 0.04134,0.024805 0.04134,0.043408 z"
         style="font-style:normal;font-variant:normal;font-weight:normal;font-stretch:normal;font-size:4.23333px;font-family:'Berlin Sans FB';-inkscape-font-specification:'Berlin Sans FB';fill:#e8617a;fill-opacity:1;stroke-width:0.264583"
         id="path1497" />
      <path
         d="m 17.933583,9.4028127 q 0,0.076481 -0.04341,0.076481 -0.06408,0 -0.194303,-0.00207 -0.130225,-0.00207 -0.194303,-0.00207 -0.05168,0 -0.05168,-0.068213 0,-0.099219 0.0062,-0.299723 0.0083,-0.2005044 0.0083,-0.3017902 0,-0.095085 -0.0083,-0.2873207 -0.0062,-0.1943032 -0.0062,-0.2914548 0,-0.37207 -0.351399,-0.37207 -0.113688,0 -0.297656,0.113688 -0.196371,0.1219563 -0.196371,0.223242 v 1.227831 q 0,0.059945 -0.04341,0.059945 -0.06408,0 -0.192236,-0.00207 -0.128157,-0.00207 -0.192236,-0.00207 -0.04754,0 -0.04754,-0.05581 V 8.4209613 q 0,-0.2439125 -0.02687,-1.0376619 -0.0041,-0.2459796 -0.03514,-0.7276035 -0.0041,-0.024805 -0.0041,-0.033073 0,-0.03514 0.02481,-0.043408 0.03514,-0.012402 0.233577,-0.012402 0.04341,0 0.130224,-0.014469 0.08682,-0.016536 0.126091,-0.016536 0.02687,0 0.02687,0.039274 0,0.1943032 -0.01654,0.5849767 -0.01447,0.3886065 -0.01447,0.5829097 0,0.047542 0.01654,0.049609 0.10542,-0.088883 0.272851,-0.2149738 0.202572,-0.1260903 0.427881,-0.1260903 0.388606,0 0.535367,0.2315102 0.10542,0.1694985 0.10542,0.5374344 0,0.064079 -0.0041,0.1984374 -0.0021,0.1322915 -0.0021,0.1963702 0,0.1322916 0.0041,0.3948076 0.0041,0.2625161 0.0041,0.3927406 z"
         style="font-style:normal;font-variant:normal;font-weight:normal;font-stretch:normal;font-size:4.23333px;font-family:'Berlin Sans FB';-inkscape-font-specification:'Berlin Sans FB';fill:#e8617a;fill-opacity:1;stroke-width:0.264583"
         id="path1499" />
      <path
         d="m 20.339636,7.6044744 q 0,0.00827 -0.0062,0.037207 -0.08062,0.4733557 -0.08062,0.8164869 0,0.020671 0.05168,0.928108 l 0.0021,0.028939 q 0.0021,0.059945 -0.05581,0.059945 -0.05581,0 -0.171565,0.012402 -0.113688,0.014469 -0.169499,0.014469 -0.03927,0 -0.05994,-0.1446939 -0.02067,-0.1446939 -0.03927,-0.1446939 -0.0124,0 -0.111621,0.080615 -0.121956,0.099219 -0.227376,0.150895 -0.163297,0.082682 -0.326595,0.082682 -0.401008,0 -0.675927,-0.3203936 -0.260449,-0.3059242 -0.260449,-0.7131341 0,-0.4588864 0.262516,-0.7586094 0.274919,-0.3121254 0.72347,-0.3121254 0.316259,0 0.551904,0.2191079 0.03514,0.041341 0.109554,0.1198892 0.0062,0.0062 0.0124,0.0062 0.0124,0 0.03514,-0.1302245 0.02274,-0.1302245 0.05788,-0.1302245 0.05581,0 0.208773,0.031006 0.169499,0.037207 0.169499,0.066146 z m -0.5271,0.8640292 q 0,-0.2542478 -0.150895,-0.4361487 -0.159163,-0.1963703 -0.40721,-0.1963703 -0.248046,0 -0.413411,0.1943032 -0.159163,0.186035 -0.159163,0.4382158 0,0.2501137 0.159163,0.4340817 0.165365,0.1922361 0.413411,0.1922361 0.241846,0 0.405143,-0.1963703 0.152962,-0.1839679 0.152962,-0.4299475 z"
         style="font-style:normal;font-variant:normal;font-weight:normal;font-stretch:normal;font-size:4.23333px;font-family:'Berlin Sans FB';-inkscape-font-specification:'Berlin Sans FB';fill:#e8617a;fill-opacity:1;stroke-width:0.264583"
         id="path1501" />
      <path
         d="m 22.497642,9.4338185 q 0,0.045475 -0.04134,0.045475 -0.06821,0 -0.204638,-0.00207 -0.134359,-0.00207 -0.202572,-0.00207 -0.03721,0 -0.03721,-0.059945 0,-0.1012857 0.0062,-0.3079912 0.0062,-0.2067056 0.0062,-0.3100584 0,-0.082682 -0.0021,-0.2459796 -0.0021,-0.1653644 -0.0021,-0.2480467 0,-0.2356443 -0.06821,-0.3327959 -0.08268,-0.1157551 -0.305924,-0.1157551 -0.103353,0 -0.287321,0.1157551 -0.194303,0.1219563 -0.194303,0.2170408 v 1.2402334 q 0,0.051676 -0.03927,0.051676 -0.06615,0 -0.198438,-0.00207 -0.132291,-0.00207 -0.198437,-0.00207 -0.04341,0 -0.04341,-0.047542 0,-0.1632974 0.0041,-0.4898922 0.0062,-0.3265948 0.0062,-0.4919592 0,-0.4402829 -0.09302,-0.8123529 -0.0062,-0.018604 -0.0062,-0.026872 0,-0.020671 0.02687,-0.028939 0.01447,-0.00207 0.235644,-0.037207 0.223242,-0.037207 0.233578,-0.037207 0.0124,0 0.01654,0.033073 0.01034,0.1281575 0.04754,0.258382 0.107487,-0.084749 0.283187,-0.2108397 0.217041,-0.1322915 0.419612,-0.1322915 0.388607,0 0.531234,0.225309 0.105419,0.1653645 0.105419,0.5353674 0,0.064079 -0.0041,0.1963703 -0.0021,0.1322915 -0.0021,0.1984373 0,0.1384927 0.0041,0.4134111 0.0041,0.2749184 0.0041,0.4134111 z"
         style="font-style:normal;font-variant:normal;font-weight:normal;font-stretch:normal;font-size:4.23333px;font-family:'Berlin Sans FB';-inkscape-font-specification:'Berlin Sans FB';fill:#e8617a;fill-opacity:1;stroke-width:0.264583"
         id="path1503" />
      <path
         d="m 24.333187,7.6003403 q 0,0.045475 -0.04754,0.2025714 -0.04754,0.1570962 -0.06615,0.1570962 -0.09302,-0.041341 -0.188102,-0.082682 -0.09302,-0.041341 -0.204639,-0.041341 -0.254247,0 -0.423746,0.188102 -0.169499,0.1881021 -0.169499,0.444417 0,0.2521808 0.169499,0.4361487 0.173633,0.1901691 0.423746,0.1901691 0.138493,0 0.272852,-0.068213 0.134358,-0.068213 0.117822,-0.068213 0.02687,0 0.05994,0.1736326 0.03101,0.1570962 0.03101,0.2170409 0,0.064079 -0.241845,0.1260903 -0.202572,0.051676 -0.299723,0.051676 -0.425814,0 -0.719336,-0.3183265 -0.28732,-0.3100584 -0.28732,-0.7400059 0,-0.4382158 0.281119,-0.74414 0.289388,-0.3141925 0.721403,-0.3141925 0.289387,0 0.529166,0.146761 0.04134,0.024805 0.04134,0.043408 z"
         style="font-style:normal;font-variant:normal;font-weight:normal;font-stretch:normal;font-size:4.23333px;font-family:'Berlin Sans FB';-inkscape-font-specification:'Berlin Sans FB';fill:#e8617a;fill-opacity:1;stroke-width:0.264583"
         id="path1505" />
      <path
         d="m 26.342364,8.3651508 q 0,0.1529621 -0.132291,0.2046385 -0.08888,0.033073 -1.279508,0.1219563 0.02687,0.1819009 0.200505,0.3100583 0.165364,0.1219563 0.355533,0.1219563 0.326595,0 0.599447,-0.2108397 0.03307,-0.026872 0.06614,-0.053743 0.01654,0 0.02067,0.00413 0.0062,0.00413 0.07855,0.1446939 0.07235,0.1384927 0.07235,0.148828 0,0.012402 -0.03307,0.047542 -0.303857,0.3224606 -0.77928,0.3224606 -0.479557,0 -0.76481,-0.2852536 -0.285254,-0.2873208 -0.285254,-0.7648106 0,-0.4258134 0.272851,-0.7420729 0.287321,-0.3286619 0.704866,-0.3286619 0.388607,0 0.649056,0.2852537 0.254247,0.2769854 0.254247,0.6738601 z M 25.850405,8.2390604 q 0,-0.1715656 -0.136425,-0.3038571 -0.134359,-0.1322916 -0.303858,-0.1322916 -0.190169,0 -0.338997,0.1529621 -0.146761,0.1529621 -0.146761,0.3431312 0,0.043408 0.07441,0.043408 0.305925,0 0.731738,-0.062012 0.119889,-0.016536 0.119889,-0.041341 z"
         style="font-style:normal;font-variant:normal;font-weight:normal;font-stretch:normal;font-size:4.23333px;font-family:'Berlin Sans FB';-inkscape-font-specification:'Berlin Sans FB';fill:#e8617a;fill-opacity:1;stroke-width:0.264583"
         id="path1507" />
    </g>
    <g
       aria-label="by pat"
       id="text840-6"
       style="font-style:normal;font-variant:normal;font-weight:normal;font-stretch:normal;font-size:3.52778px;line-height:1.25;font-family:'Berlin Sans FB';-inkscape-font-specification:'Berlin Sans FB';fill:#e8617a;fill-opacity:1;stroke:none;stroke-width:0.264583"
       inkscape:label="footer">
      <path
         d="m 7.1825727,120.5884 q 0,0.34106 -0.2118735,0.59428 -0.2256539,0.26871 -0.5615509,0.26871 -0.2239314,0 -0.3944637,-0.11369 -0.068902,-0.0586 -0.1378039,-0.11541 -0.018948,0.005 -0.025838,0.10336 -0.00517,0.0982 -0.027561,0.0982 H 5.4600239 q -0.020671,0 -0.020671,-0.0224 0,0.002 0.00345,-0.031 0.027561,-0.2756 0.027561,-1.0542 0,-0.31867 -0.027561,-0.93534 -0.017226,-0.39274 -0.017226,-0.34451 0,-0.0448 0.044786,-0.0499 0.062012,-0.002 0.1843127,-0.007 0.024116,-0.002 0.098185,-0.0121 0.062012,-0.0103 0.099908,-0.0103 0.027561,0 0.027561,0.0396 0,0.0586 -0.00861,0.17915 -0.00861,0.12057 -0.00861,0.18086 0,0.0896 -0.00861,0.27044 -0.00689,0.17915 -0.00689,0.26872 0,0.0655 0.024116,0.0655 0.012058,0 0.025838,-0.0189 0.1894804,-0.23599 0.5012617,-0.23599 0.3565676,0 0.5770539,0.267 0.2067058,0.25149 0.2067058,0.61495 z m -0.389296,-0.0155 q 0,-0.20498 -0.1291912,-0.36173 -0.1378039,-0.16709 -0.3393421,-0.16709 -0.2067059,0 -0.3445098,0.16364 -0.1326362,0.15503 -0.1326362,0.36518 0,0.2136 0.1326362,0.36863 0.1378039,0.16192 0.3479549,0.16192 0.2032608,0 0.3393421,-0.16709 0.1257461,-0.15503 0.1257461,-0.36346 z"
         style="font-style:normal;font-variant:normal;font-weight:normal;font-stretch:normal;font-size:3.52778px;font-family:'Berlin Sans FB';-inkscape-font-specification:'Berlin Sans FB';fill:#e8617a;fill-opacity:1;stroke-width:0.264583"
         id="path885" />
      <path
         d="m 8.8792833,120.22149 q 0,0.29111 -0.017226,0.3514 -0.022393,0.0775 -0.4271921,0.67696 -0.4030764,0.59773 -0.4788686,0.66835 -0.068902,0.062 -0.4444176,0.062 -0.044786,0 -0.058567,-0.0103 -0.012058,-0.009 -0.058567,-0.12402 -0.044786,-0.11541 -0.044786,-0.13781 0,-0.0379 0.091295,-0.0379 0.1929255,0 0.2842206,-0.0551 0.031006,-0.0189 0.093018,-0.11886 0.063734,-0.0999 0.063734,-0.13436 0,-0.0465 -0.2497696,-0.36346 -0.2635499,-0.33589 -0.2945558,-0.42547 -0.024116,-0.0706 -0.024116,-0.33762 0,-0.0654 0.00172,-0.19637 0.00172,-0.13263 0.00172,-0.19981 0,-0.0379 0.041341,-0.0379 0.055122,0 0.1619196,0.007 0.1085205,0.007 0.1636421,0.007 0.027561,0 0.027561,0.0362 0,0.0482 -0.00517,0.14469 -0.00517,0.0965 -0.00517,0.14469 0,0.21015 0.01378,0.31351 0.010335,0.0654 0.1877578,0.32556 0.1774225,0.2601 0.2187637,0.2601 0.029283,0 0.1860353,-0.25493 0.1567519,-0.25666 0.1670872,-0.31695 0.01378,-0.0861 0.01378,-0.31351 0,-0.0499 -0.010335,-0.14641 -0.010335,-0.0982 -0.010335,-0.14642 0,-0.0431 0.027561,-0.0431 0.055122,0 0.1653647,-0.007 0.1119657,-0.009 0.1670872,-0.009 0.051677,0 0.051677,0.41858 z"
         style="font-style:normal;font-variant:normal;font-weight:normal;font-stretch:normal;font-size:3.52778px;font-family:'Berlin Sans FB';-inkscape-font-specification:'Berlin Sans FB';fill:#e8617a;fill-opacity:1;stroke-width:0.264583"
         id="path887" />
      <path
         d="m 11.712876,120.59184 q 0,0.34796 -0.220486,0.60462 -0.230822,0.27044 -0.573609,0.27044 -0.213596,0 -0.373793,-0.13264 -0.07235,-0.0672 -0.144694,-0.13608 -0.01034,0.005 -0.01378,0.0276 -0.0017,0.0103 -0.0017,0.19292 l -0.0017,0.48576 q 0,0.0551 -0.03962,0.0551 -0.265273,0 -0.313504,-0.007 -0.039619,-0.005 -0.039619,-0.0448 0,-0.22049 0.00345,-0.66146 0.00345,-0.44097 0.00345,-0.66146 0,-0.4048 -0.051676,-0.75964 -0.00345,-0.0207 -0.00345,-0.0276 0,-0.0189 0.017225,-0.0241 0.065457,-0.003 0.191203,-0.019 0.16881,-0.031 0.189481,-0.031 0.02928,0 0.0379,0.10335 0.0052,0.0689 0.0086,0.13608 0,0.0138 0.01034,0.0276 0.01206,-0.007 0.02756,-0.0241 0.241157,-0.24633 0.487482,-0.24633 0.341064,0 0.575331,0.267 0.225654,0.25666 0.225654,0.60461 z m -0.403076,-0.007 q 0,-0.2067 -0.129192,-0.36346 -0.136081,-0.16708 -0.339342,-0.16708 -0.199815,0 -0.327284,0.17225 -0.117133,0.15503 -0.117133,0.36174 0,0.21015 0.120578,0.36518 0.132636,0.16708 0.33762,0.16708 0.19637,0 0.330729,-0.17397 0.124024,-0.16192 0.124024,-0.36174 z"
         style="font-style:normal;font-variant:normal;font-weight:normal;font-stretch:normal;font-size:3.52778px;font-family:'Berlin Sans FB';-inkscape-font-specification:'Berlin Sans FB';fill:#e8617a;fill-opacity:1;stroke-width:0.264583"
         id="path889" />
      <path
         d="m 13.654189,119.86148 q 0,0.007 -0.0052,0.031 -0.06718,0.39446 -0.06718,0.6804 0,0.0172 0.04306,0.77343 l 0.0017,0.0241 q 0.0017,0.05 -0.04651,0.05 -0.04651,0 -0.142972,0.0103 -0.09474,0.0121 -0.141249,0.0121 -0.03273,0 -0.04995,-0.12058 -0.01722,-0.12058 -0.03273,-0.12058 -0.01033,0 -0.09302,0.0672 -0.10163,0.0827 -0.18948,0.12575 -0.136081,0.0689 -0.272163,0.0689 -0.334174,0 -0.563273,-0.26699 -0.217041,-0.25494 -0.217041,-0.59428 0,-0.38241 0.218763,-0.63218 0.229099,-0.2601 0.602892,-0.2601 0.26355,0 0.459921,0.18259 0.02928,0.0345 0.09129,0.0999 0.0052,0.005 0.01034,0.005 0.01034,0 0.02928,-0.10852 0.01895,-0.10852 0.04823,-0.10852 0.04651,0 0.173978,0.0258 0.141249,0.031 0.141249,0.0551 z m -0.43925,0.72003 q 0,-0.21188 -0.125746,-0.36346 -0.132637,-0.16364 -0.339343,-0.16364 -0.206705,0 -0.344509,0.16192 -0.132637,0.15503 -0.132637,0.36518 0,0.20842 0.132637,0.36173 0.137804,0.1602 0.344509,0.1602 0.201539,0 0.33762,-0.16364 0.127469,-0.15331 0.127469,-0.35829 z"
         style="font-style:normal;font-variant:normal;font-weight:normal;font-stretch:normal;font-size:3.52778px;font-family:'Berlin Sans FB';-inkscape-font-specification:'Berlin Sans FB';fill:#e8617a;fill-opacity:1;stroke-width:0.264583"
         id="path891" />
      <path
         d="m 14.894424,121.10344 q 0,0.0379 -0.0069,0.10335 -0.0086,0.081 -0.01033,0.10508 -0.0017,0.031 -0.0052,0.0379 -0.0069,0.0121 -0.03273,0.0241 -0.141249,0.0672 -0.444417,0.0672 -0.403077,0 -0.403077,-0.36518 0,-0.14642 0.0069,-0.43925 0.0069,-0.29456 0.0069,-0.44097 0,-0.0706 -0.07062,-0.0758 -0.06373,0 -0.125746,-0.002 -0.03617,-0.009 -0.03617,-0.14125 0,-0.0499 0.0069,-0.10507 0.0052,-0.0413 0.05512,-0.05 0.04306,0 0.08441,-0.002 0.07924,-0.003 0.07924,-0.0706 0,-0.0689 -0.0052,-0.21015 -0.0034,-0.14125 -0.0034,-0.21187 0,-0.12575 0.04823,-0.12575 0.0155,0 0.323839,0.0534 0.03962,0.005 0.03962,0.0379 0,0.0758 -0.01206,0.22738 -0.01033,0.15158 -0.01033,0.22737 0,0.05 0.04651,0.05 h 0.413412 q 0.02928,0 0.02928,0.0207 0,0.0207 -0.0069,0.0672 -0.0052,0.0448 -0.0052,0.0672 0,0.0258 0.0017,0.0792 0.0017,0.0534 0.0017,0.0792 0,0.0327 -0.04823,0.0327 -0.0689,0 -0.208428,-0.009 -0.139527,-0.0103 -0.208428,-0.0103 -0.01378,0 -0.02067,0.0982 -0.0086,0.1223 -0.0086,0.34278 v 0.25666 q 0,0.14814 0.02756,0.20671 0.04134,0.0896 0.170532,0.0896 0.0534,0 0.156752,-0.0224 0.103353,-0.0241 0.153307,-0.0241 0.02067,0 0.02067,0.031 z"
         style="font-style:normal;font-variant:normal;font-weight:normal;font-stretch:normal;font-size:3.52778px;font-family:'Berlin Sans FB';-inkscape-font-specification:'Berlin Sans FB';fill:#e8617a;fill-opacity:1;stroke-width:0.264583"
         id="path893" />
    </g>
    <g
       aria-label=":^)"
       id="text840-6-7"
       style="font-style:normal;font-variant:normal;font-weight:bold;font-stretch:normal;font-size:3.52777px;line-height:1.25;font-family:Calibri;-inkscape-font-specification:'Calibri Bold';fill:#e8617a;fill-opacity:1;stroke:none;stroke-width:0.264583"
       inkscape:label="smiley">
      <path
         d="m 29.484368,120.07767 q 0,0.0723 -0.01206,0.12057 -0.01206,0.0482 -0.04134,0.0792 -0.02756,0.031 -0.07407,0.0448 -0.04651,0.0121 -0.117133,0.0121 -0.07062,0 -0.117133,-0.0121 -0.04651,-0.0138 -0.07579,-0.0448 -0.02756,-0.031 -0.0379,-0.0792 -0.01034,-0.0482 -0.01034,-0.12057 0,-0.0741 0.01034,-0.12403 0.01033,-0.0499 0.0379,-0.081 0.02928,-0.031 0.07579,-0.0448 0.04651,-0.0138 0.117133,-0.0138 0.07062,0 0.117133,0.0138 0.04651,0.0138 0.07407,0.0448 0.02928,0.031 0.04134,0.081 0.01206,0.05 0.01206,0.12403 z m 0,1.12482 q 0,0.0723 -0.01206,0.1223 -0.01206,0.0482 -0.04134,0.0792 -0.02756,0.031 -0.07407,0.0431 -0.04651,0.0138 -0.117133,0.0138 -0.07062,0 -0.117133,-0.0138 -0.04651,-0.0121 -0.07579,-0.0431 -0.02756,-0.031 -0.0379,-0.0792 -0.01034,-0.05 -0.01034,-0.1223 0,-0.0724 0.01034,-0.1223 0.01033,-0.0517 0.0379,-0.0827 0.02928,-0.031 0.07579,-0.0431 0.04651,-0.0138 0.117133,-0.0138 0.07062,0 0.117133,0.0138 0.04651,0.0121 0.07407,0.0431 0.02928,0.031 0.04134,0.0827 0.01206,0.0499 0.01206,0.1223 z"
         style="font-style:normal;font-variant:normal;font-weight:bold;font-stretch:normal;font-size:3.52777px;font-family:Calibri;-inkscape-font-specification:'Calibri Bold';fill:#e8617a;fill-opacity:1;stroke-width:0.264583"
         id="path878" />
      <path
         d="m 31.363663,120.41184 q 0.02239,0.0482 0.02756,0.0775 0.0052,0.0293 -0.01378,0.0448 -0.01723,0.0155 -0.06201,0.0207 -0.04306,0.003 -0.118855,0.003 -0.06718,0 -0.111966,-0.003 -0.04306,-0.005 -0.07235,-0.0138 -0.02756,-0.0103 -0.04306,-0.0241 -0.01378,-0.0155 -0.02239,-0.0362 l -0.380683,-0.93189 -0.0086,0.002 -0.36518,0.93017 q -0.0086,0.0207 -0.02412,0.0362 -0.01378,0.0138 -0.04134,0.0241 -0.02756,0.009 -0.07235,0.0138 -0.04306,0.003 -0.110243,0.003 -0.07579,0 -0.118855,-0.003 -0.04134,-0.005 -0.06029,-0.0207 -0.01722,-0.0155 -0.01206,-0.0448 0.0052,-0.0293 0.02756,-0.0775 l 0.496093,-1.12999 q 0.01033,-0.0224 0.03101,-0.0379 0.02067,-0.0172 0.05512,-0.0276 0.03617,-0.0121 0.08613,-0.0172 0.04995,-0.007 0.118856,-0.007 0.0689,0 0.118856,0.007 0.05168,0.005 0.08613,0.0172 0.03445,0.0103 0.05512,0.0276 0.02067,0.0155 0.03101,0.0379 z"
         style="font-style:normal;font-variant:normal;font-weight:bold;font-stretch:normal;font-size:3.52777px;font-family:Calibri;-inkscape-font-specification:'Calibri Bold';fill:#e8617a;fill-opacity:1;stroke-width:0.264583"
         id="path880" />
      <path
         d="m 32.366184,120.51175 q 0,0.19465 -0.02239,0.38413 -0.02239,0.18775 -0.0689,0.37379 -0.04479,0.18431 -0.113688,0.36518 -0.06718,0.18259 -0.160196,0.36173 -0.0052,0.0121 -0.01895,0.0207 -0.01206,0.0103 -0.03617,0.0155 -0.02239,0.007 -0.05684,0.0103 -0.03445,0.003 -0.08268,0.003 -0.07062,0 -0.110243,-0.007 -0.0379,-0.007 -0.05684,-0.0207 -0.01895,-0.0138 -0.01895,-0.0344 0,-0.0189 0.01034,-0.0465 0.142971,-0.33761 0.21704,-0.69418 0.07579,-0.35829 0.07579,-0.73553 0,-0.37551 -0.07407,-0.73208 -0.07407,-0.35829 -0.220486,-0.69418 -0.0086,-0.0224 -0.0069,-0.0413 0.0034,-0.019 0.02412,-0.031 0.02239,-0.0121 0.06029,-0.0172 0.03962,-0.007 0.103352,-0.007 0.0534,0 0.08785,0.003 0.03445,0.002 0.05684,0.009 0.02239,0.005 0.03101,0.0121 0.01034,0.007 0.0155,0.0155 0.179144,0.36174 0.272162,0.73208 0.09302,0.36863 0.09302,0.75448 z"
         style="font-style:normal;font-variant:normal;font-weight:bold;font-stretch:normal;font-size:3.52777px;font-family:Calibri;-inkscape-font-specification:'Calibri Bold';fill:#e8617a;fill-opacity:1;stroke-width:0.264583"
         id="path882" />
    </g>
    <g
       aria-label="ch"
       id="text2183-7"
       style="font-size:3.175px;line-height:1.25;font-family:sans-serif;fill:#e8617a;fill-opacity:1;stroke-width:0.264583"
       transform="translate(-1.6050474e-6,8.0313413)">
      <path
         d="m 7.4362898,19.754945 q 0,0.03411 -0.035657,0.151928 -0.035657,0.117823 -0.049609,0.117823 -0.069763,-0.03101 -0.1410767,-0.06201 -0.069763,-0.03101 -0.153479,-0.03101 -0.190686,0 -0.3178101,0.141077 -0.127124,0.141076 -0.127124,0.333313 0,0.189135 0.127124,0.327111 0.1302247,0.142627 0.3178101,0.142627 0.1038696,0 0.2046387,-0.05116 0.100769,-0.05116 0.088367,-0.05116 0.020154,0 0.044958,0.130225 0.023254,0.117822 0.023254,0.16278 0,0.04806 -0.1813843,0.09457 -0.1519287,0.03876 -0.2247925,0.03876 -0.3193603,0 -0.5395019,-0.238745 -0.2154908,-0.232544 -0.2154908,-0.555005 0,-0.328662 0.2108399,-0.558106 0.217041,-0.235644 0.5410522,-0.235644 0.217041,0 0.396875,0.11007 0.031006,0.0186 0.031006,0.03256 z"
         style="font-style:normal;font-variant:normal;font-weight:normal;font-stretch:normal;font-family:'Berlin Sans FB';-inkscape-font-specification:'Berlin Sans FB';fill:#e8617a;fill-opacity:1;stroke-width:0.264583"
         id="path2339" />
      <path
         d="m 8.9834821,21.1068 q 0,0.05736 -0.032556,0.05736 -0.048059,0 -0.1457275,-0.0016 -0.097668,-0.0016 -0.1457275,-0.0016 -0.038757,0 -0.038757,-0.05116 0,-0.07441 0.00465,-0.224793 0.0062,-0.150378 0.0062,-0.226343 0,-0.07131 -0.0062,-0.21549 -0.00465,-0.145728 -0.00465,-0.218592 0,-0.279052 -0.2635499,-0.279052 -0.085266,0 -0.2232421,0.08527 -0.1472779,0.09147 -0.1472779,0.167431 v 0.920874 q 0,0.04496 -0.032556,0.04496 -0.048059,0 -0.1441773,-0.0016 -0.096118,-0.0016 -0.1441772,-0.0016 -0.035657,0 -0.035657,-0.04186 v -0.748791 q 0,-0.182935 -0.020154,-0.778247 -0.0031,-0.184485 -0.026355,-0.545703 -0.0031,-0.0186 -0.0031,-0.02481 0,-0.02635 0.018604,-0.03256 0.026355,-0.0093 0.1751831,-0.0093 0.032556,0 0.097669,-0.01085 0.065112,-0.0124 0.094568,-0.0124 0.020154,0 0.020154,0.02945 0,0.145728 -0.012402,0.438733 -0.010852,0.291455 -0.010852,0.437183 0,0.03566 0.012402,0.03721 0.079065,-0.06666 0.2046387,-0.161231 0.1519287,-0.09457 0.3209106,-0.09457 0.2914551,0 0.4015259,0.173632 0.079065,0.127124 0.079065,0.403077 0,0.04806 -0.0031,0.148828 -0.00155,0.09922 -0.00155,0.147277 0,0.09922 0.0031,0.296106 0.0031,0.196888 0.0031,0.294556 z"
         style="font-style:normal;font-variant:normal;font-weight:normal;font-stretch:normal;font-family:'Berlin Sans FB';-inkscape-font-specification:'Berlin Sans FB';fill:#e8617a;fill-opacity:1;stroke-width:0.264583"
         id="path2341" />
    </g>
    <g
       aria-label="cv"
       id="text2183-8"
       style="font-size:3.52777px;line-height:1.25;font-family:sans-serif;fill:#e8617a;stroke-width:0.264583"
       transform="translate(-1.6050474e-6,8.0313413)">
      <path
         d="m 22.66449,19.354712 q 0,0.0379 -0.03962,0.168809 -0.03962,0.130913 -0.05512,0.130913 -0.07751,-0.03445 -0.156751,-0.0689 -0.07751,-0.03445 -0.170532,-0.03445 -0.211873,0 -0.353121,0.156751 -0.141249,0.156752 -0.141249,0.370347 0,0.21015 0.141249,0.363457 0.144693,0.158474 0.353121,0.158474 0.115411,0 0.227376,-0.05684 0.111965,-0.05684 0.09819,-0.05684 0.02239,0 0.04995,0.144694 0.02584,0.130913 0.02584,0.180867 0,0.0534 -0.201538,0.105075 -0.168809,0.04306 -0.249769,0.04306 -0.354844,0 -0.599445,-0.265272 -0.239434,-0.258382 -0.239434,-0.616671 0,-0.365179 0.234266,-0.620116 0.241157,-0.261826 0.601168,-0.261826 0.241156,0 0.440971,0.1223 0.03445,0.02067 0.03445,0.03617 z"
         style="font-style:normal;font-variant:normal;font-weight:normal;font-stretch:normal;font-size:3.52777px;font-family:'Berlin Sans FB';-inkscape-font-specification:'Berlin Sans FB';fill:#e8617a;stroke-width:0.264583"
         id="path2344" />
      <path
         d="m 24.366364,19.776735 q 0,0.242879 -0.0155,0.282497 -0.02584,0.07751 -0.279052,0.453029 -0.260104,0.384127 -0.310058,0.404798 -0.02412,0.01034 -0.144694,0.01034 -0.11541,0 -0.151584,-0.01034 -0.04823,-0.0155 -0.315225,-0.389295 -0.260104,-0.363457 -0.29111,-0.442694 -0.04134,-0.10852 -0.04134,-0.335896 0,-0.07062 0.0034,-0.211873 0.0034,-0.141248 0.0034,-0.211873 0,-0.0379 0.0379,-0.0379 0.05684,0 0.168809,0.0052 0.113688,0.0052 0.170532,0.0052 0.03101,0 0.03101,0.03445 0,0.05512 -0.0069,0.163642 -0.0069,0.106798 -0.0069,0.161919 0,0.158474 0.01723,0.289388 0.0086,0.06546 0.173977,0.320393 0.167087,0.254936 0.206705,0.254936 0.0379,0 0.187757,-0.249768 0.148139,-0.244602 0.158474,-0.308336 0.01378,-0.08613 0.01378,-0.296277 0,-0.05684 -0.01206,-0.170532 -0.01034,-0.113688 -0.01034,-0.170532 0,-0.02584 0.02584,-0.02584 0.05684,0 0.167087,-0.0052 0.110242,-0.0069 0.165364,-0.0069 0.0534,0 0.0534,0.48748 z"
         style="font-style:normal;font-variant:normal;font-weight:normal;font-stretch:normal;font-size:3.52777px;font-family:'Berlin Sans FB';-inkscape-font-specification:'Berlin Sans FB';fill:#e8617a;stroke-width:0.264583"
         id="path2346" />
    </g>
    <g
       aria-label="gate"
       id="text2183-8-1"
       style="font-size:3.52777px;line-height:1.25;font-family:sans-serif;fill:#e8617a;stroke-width:0.264583"
       transform="translate(-2.5400017,8.0313392)">
      <path
         d="m 33.904633,19.358157 q 0,0.206705 -0.0034,0.621838 -0.0034,0.413411 -0.0034,0.620116 0,0.409965 -0.1757,0.604613 -0.184312,0.206705 -0.58911,0.206705 -0.391017,0 -0.632173,-0.148139 -0.0379,-0.02412 -0.0379,-0.04134 0,0.01895 0.05168,-0.254936 0.0052,-0.02928 0.02412,-0.02928 0.0086,0 0.02239,0.0086 0.258381,0.148139 0.518486,0.148139 0.170531,0 0.282497,-0.07579 0.129191,-0.08613 0.129191,-0.249769 0,-0.03617 -0.0069,-0.161919 -0.191202,0.232544 -0.485757,0.232544 -0.318671,0 -0.523653,-0.229099 -0.19637,-0.220485 -0.19637,-0.542601 0,-0.327283 0.189479,-0.556382 0.201538,-0.244601 0.523654,-0.244601 0.28422,0 0.451306,0.218763 0.02756,0.03617 0.03962,0.03617 0.01378,0 0.01378,-0.03101 0,-0.02239 -0.0034,-0.07062 -0.0034,-0.04995 -0.0034,-0.07407 0,-0.103353 0.02067,-0.103353 0.01723,0 0.186034,0.03273 0.16881,0.03101 0.184312,0.0379 0.02412,0.0086 0.02412,0.04479 z m -0.41341,0.709688 q 0,-0.192925 -0.105076,-0.327283 -0.11541,-0.146417 -0.303167,-0.146417 -0.186035,0 -0.301446,0.148139 -0.105075,0.134358 -0.105075,0.325561 0,0.187757 0.106798,0.323838 0.11541,0.148139 0.299723,0.148139 0.182589,0 0.299722,-0.148139 0.108521,-0.136081 0.108521,-0.323838 z"
         style="font-style:normal;font-variant:normal;font-weight:normal;font-stretch:normal;font-size:3.52777px;font-family:'Berlin Sans FB';-inkscape-font-specification:'Berlin Sans FB';fill:#e8617a;stroke-width:0.264583"
         id="path2349" />
      <path
         d="m 35.895894,19.404665 q 0,0.0069 -0.0052,0.03101 -0.06718,0.394463 -0.06718,0.680405 0,0.01723 0.04306,0.773422 l 0.0017,0.02412 q 0.0017,0.04995 -0.04651,0.04995 -0.04651,0 -0.142972,0.01034 -0.09474,0.01206 -0.141248,0.01206 -0.03273,0 -0.04995,-0.120578 -0.01722,-0.120578 -0.03273,-0.120578 -0.01034,0 -0.09302,0.06718 -0.10163,0.08268 -0.189479,0.125746 -0.136081,0.0689 -0.272162,0.0689 -0.334174,0 -0.563272,-0.266994 -0.217041,-0.254936 -0.217041,-0.594278 0,-0.382404 0.218763,-0.632173 0.229099,-0.260104 0.602891,-0.260104 0.263549,0 0.459919,0.182589 0.02928,0.03445 0.09129,0.09991 0.0052,0.0052 0.01034,0.0052 0.01033,0 0.02928,-0.10852 0.01895,-0.10852 0.04823,-0.10852 0.04651,0 0.173977,0.02584 0.141249,0.03101 0.141249,0.05512 z m -0.439249,0.720024 q 0,-0.211873 -0.125745,-0.363457 -0.132636,-0.163642 -0.339342,-0.163642 -0.206705,0 -0.344508,0.16192 -0.132636,0.155028 -0.132636,0.365179 0,0.208428 0.132636,0.361734 0.137803,0.160197 0.344508,0.160197 0.201538,0 0.337619,-0.163642 0.127468,-0.153306 0.127468,-0.358289 z"
         style="font-style:normal;font-variant:normal;font-weight:normal;font-stretch:normal;font-size:3.52777px;font-family:'Berlin Sans FB';-inkscape-font-specification:'Berlin Sans FB';fill:#e8617a;stroke-width:0.264583"
         id="path2351" />
      <path
         d="m 37.136126,20.64662 q 0,0.0379 -0.0069,0.103352 -0.0086,0.08096 -0.01034,0.105075 -0.0017,0.03101 -0.0052,0.0379 -0.0069,0.01206 -0.03273,0.02412 -0.141248,0.06718 -0.444416,0.06718 -0.403075,0 -0.403075,-0.365179 0,-0.146416 0.0069,-0.439249 0.0069,-0.294555 0.0069,-0.440971 0,-0.07062 -0.07062,-0.07579 -0.06373,0 -0.125746,-0.0017 -0.03617,-0.0086 -0.03617,-0.141248 0,-0.04995 0.0069,-0.105075 0.0052,-0.04134 0.05512,-0.04995 0.04306,0 0.08441,-0.0017 0.07924,-0.0034 0.07924,-0.07062 0,-0.0689 -0.0052,-0.21015 -0.0034,-0.141249 -0.0034,-0.211873 0,-0.125746 0.04823,-0.125746 0.0155,0 0.323839,0.0534 0.03962,0.0052 0.03962,0.0379 0,0.07579 -0.01206,0.227376 -0.01033,0.151584 -0.01033,0.227376 0,0.04995 0.04651,0.04995 h 0.41341 q 0.02928,0 0.02928,0.02067 0,0.02067 -0.0069,0.06718 -0.0052,0.04479 -0.0052,0.06718 0,0.02584 0.0017,0.07924 0.0017,0.0534 0.0017,0.07924 0,0.03273 -0.04823,0.03273 -0.0689,0 -0.208428,-0.0086 -0.139526,-0.01034 -0.208428,-0.01034 -0.01378,0 -0.02067,0.09819 -0.0086,0.1223 -0.0086,0.342786 v 0.256659 q 0,0.148139 0.02756,0.206705 0.04134,0.08957 0.170532,0.08957 0.0534,0 0.156752,-0.02239 0.103352,-0.02411 0.153306,-0.02411 0.02067,0 0.02067,0.03101 z"
         style="font-style:normal;font-variant:normal;font-weight:normal;font-stretch:normal;font-size:3.52777px;font-family:'Berlin Sans FB';-inkscape-font-specification:'Berlin Sans FB';fill:#e8617a;stroke-width:0.264583"
         id="path2353" />
      <path
         d="m 38.841444,20.038562 q 0,0.127468 -0.110243,0.170531 -0.07407,0.02756 -1.066254,0.101631 0.02239,0.151583 0.167086,0.258381 0.137804,0.10163 0.296278,0.10163 0.272162,0 0.499538,-0.175699 0.02756,-0.02239 0.05512,-0.04479 0.01378,0 0.01723,0.0034 0.0052,0.0034 0.06546,0.120578 0.06029,0.11541 0.06029,0.124023 0,0.01034 -0.02756,0.03962 -0.253214,0.268717 -0.6494,0.268717 -0.39963,0 -0.637341,-0.237711 -0.237711,-0.239433 -0.237711,-0.637341 0,-0.354844 0.227376,-0.618393 0.239434,-0.273885 0.587387,-0.273885 0.323839,0 0.540879,0.237711 0.211873,0.230821 0.211873,0.56155 z m -0.409965,-0.105076 q 0,-0.142971 -0.113688,-0.253214 -0.111966,-0.110242 -0.253214,-0.110242 -0.158474,0 -0.282497,0.127468 -0.122301,0.127468 -0.122301,0.285942 0,0.03617 0.06201,0.03617 0.254936,0 0.60978,-0.05168 0.09991,-0.01378 0.09991,-0.03445 z"
         style="font-style:normal;font-variant:normal;font-weight:normal;font-stretch:normal;font-size:3.52777px;font-family:'Berlin Sans FB';-inkscape-font-specification:'Berlin Sans FB';fill:#e8617a;stroke-width:0.264583"
         id="path2355" />
    </g>
    <g
       aria-label="ch"
       id="text2183-7-2"
       style="font-size:3.175px;line-height:1.25;font-family:sans-serif;fill:#e8617a;fill-opacity:1;stroke-width:0.264583"
       transform="translate(-1.6050474e-6,32.125061)">
      <path
         d="m 7.4362898,19.754945 q 0,0.03411 -0.035657,0.151928 -0.035657,0.117823 -0.049609,0.117823 -0.069763,-0.03101 -0.1410767,-0.06201 -0.069763,-0.03101 -0.153479,-0.03101 -0.190686,0 -0.3178101,0.141077 -0.127124,0.141076 -0.127124,0.333313 0,0.189135 0.127124,0.327111 0.1302247,0.142627 0.3178101,0.142627 0.1038696,0 0.2046387,-0.05116 0.100769,-0.05116 0.088367,-0.05116 0.020154,0 0.044958,0.130225 0.023254,0.117822 0.023254,0.16278 0,0.04806 -0.1813843,0.09457 -0.1519287,0.03876 -0.2247925,0.03876 -0.3193603,0 -0.5395019,-0.238745 -0.2154908,-0.232544 -0.2154908,-0.555005 0,-0.328662 0.2108399,-0.558106 0.217041,-0.235644 0.5410522,-0.235644 0.217041,0 0.396875,0.11007 0.031006,0.0186 0.031006,0.03256 z"
         style="font-style:normal;font-variant:normal;font-weight:normal;font-stretch:normal;font-family:'Berlin Sans FB';-inkscape-font-specification:'Berlin Sans FB';fill:#e8617a;fill-opacity:1;stroke-width:0.264583"
         id="path2339-6" />
      <path
         d="m 8.9834821,21.1068 q 0,0.05736 -0.032556,0.05736 -0.048059,0 -0.1457275,-0.0016 -0.097668,-0.0016 -0.1457275,-0.0016 -0.038757,0 -0.038757,-0.05116 0,-0.07441 0.00465,-0.224793 0.0062,-0.150378 0.0062,-0.226343 0,-0.07131 -0.0062,-0.21549 -0.00465,-0.145728 -0.00465,-0.218592 0,-0.279052 -0.2635499,-0.279052 -0.085266,0 -0.2232421,0.08527 -0.1472779,0.09147 -0.1472779,0.167431 v 0.920874 q 0,0.04496 -0.032556,0.04496 -0.048059,0 -0.1441773,-0.0016 -0.096118,-0.0016 -0.1441772,-0.0016 -0.035657,0 -0.035657,-0.04186 v -0.748791 q 0,-0.182935 -0.020154,-0.778247 -0.0031,-0.184485 -0.026355,-0.545703 -0.0031,-0.0186 -0.0031,-0.02481 0,-0.02635 0.018604,-0.03256 0.026355,-0.0093 0.1751831,-0.0093 0.032556,0 0.097669,-0.01085 0.065112,-0.0124 0.094568,-0.0124 0.020154,0 0.020154,0.02945 0,0.145728 -0.012402,0.438733 -0.010852,0.291455 -0.010852,0.437183 0,0.03566 0.012402,0.03721 0.079065,-0.06666 0.2046387,-0.161231 0.1519287,-0.09457 0.3209106,-0.09457 0.2914551,0 0.4015259,0.173632 0.079065,0.127124 0.079065,0.403077 0,0.04806 -0.0031,0.148828 -0.00155,0.09922 -0.00155,0.147277 0,0.09922 0.0031,0.296106 0.0031,0.196888 0.0031,0.294556 z"
         style="font-style:normal;font-variant:normal;font-weight:normal;font-stretch:normal;font-family:'Berlin Sans FB';-inkscape-font-specification:'Berlin Sans FB';fill:#e8617a;fill-opacity:1;stroke-width:0.264583"
         id="path2341-0" />
    </g>
    <g
       aria-label="cv"
       id="text2183-8-6"
       style="font-size:3.52777px;line-height:1.25;font-family:sans-serif;fill:#e8617a;stroke-width:0.264583"
       transform="translate(-1.6050474e-6,32.125061)">
      <path
         d="m 22.66449,19.354712 q 0,0.0379 -0.03962,0.168809 -0.03962,0.130913 -0.05512,0.130913 -0.07751,-0.03445 -0.156751,-0.0689 -0.07751,-0.03445 -0.170532,-0.03445 -0.211873,0 -0.353121,0.156751 -0.141249,0.156752 -0.141249,0.370347 0,0.21015 0.141249,0.363457 0.144693,0.158474 0.353121,0.158474 0.115411,0 0.227376,-0.05684 0.111965,-0.05684 0.09819,-0.05684 0.02239,0 0.04995,0.144694 0.02584,0.130913 0.02584,0.180867 0,0.0534 -0.201538,0.105075 -0.168809,0.04306 -0.249769,0.04306 -0.354844,0 -0.599445,-0.265272 -0.239434,-0.258382 -0.239434,-0.616671 0,-0.365179 0.234266,-0.620116 0.241157,-0.261826 0.601168,-0.261826 0.241156,0 0.440971,0.1223 0.03445,0.02067 0.03445,0.03617 z"
         style="font-style:normal;font-variant:normal;font-weight:normal;font-stretch:normal;font-size:3.52777px;font-family:'Berlin Sans FB';-inkscape-font-specification:'Berlin Sans FB';fill:#e8617a;stroke-width:0.264583"
         id="path2344-8" />
      <path
         d="m 24.366364,19.776735 q 0,0.242879 -0.0155,0.282497 -0.02584,0.07751 -0.279052,0.453029 -0.260104,0.384127 -0.310058,0.404798 -0.02412,0.01034 -0.144694,0.01034 -0.11541,0 -0.151584,-0.01034 -0.04823,-0.0155 -0.315225,-0.389295 -0.260104,-0.363457 -0.29111,-0.442694 -0.04134,-0.10852 -0.04134,-0.335896 0,-0.07062 0.0034,-0.211873 0.0034,-0.141248 0.0034,-0.211873 0,-0.0379 0.0379,-0.0379 0.05684,0 0.168809,0.0052 0.113688,0.0052 0.170532,0.0052 0.03101,0 0.03101,0.03445 0,0.05512 -0.0069,0.163642 -0.0069,0.106798 -0.0069,0.161919 0,0.158474 0.01723,0.289388 0.0086,0.06546 0.173977,0.320393 0.167087,0.254936 0.206705,0.254936 0.0379,0 0.187757,-0.249768 0.148139,-0.244602 0.158474,-0.308336 0.01378,-0.08613 0.01378,-0.296277 0,-0.05684 -0.01206,-0.170532 -0.01034,-0.113688 -0.01034,-0.170532 0,-0.02584 0.02584,-0.02584 0.05684,0 0.167087,-0.0052 0.110242,-0.0069 0.165364,-0.0069 0.0534,0 0.0534,0.48748 z"
         style="font-style:normal;font-variant:normal;font-weight:normal;font-stretch:normal;font-size:3.52777px;font-family:'Berlin Sans FB';-inkscape-font-specification:'Berlin Sans FB';fill:#e8617a;stroke-width:0.264583"
         id="path2346-5" />
    </g>
    <g
       aria-label="gate"
       id="text2183-8-1-9"
       style="font-size:3.52777px;line-height:1.25;font-family:sans-serif;fill:#e8617a;stroke-width:0.264583"
       transform="translate(-2.5400017,32.125059)">
      <path
         d="m 33.904633,19.358157 q 0,0.206705 -0.0034,0.621838 -0.0034,0.413411 -0.0034,0.620116 0,0.409965 -0.1757,0.604613 -0.184312,0.206705 -0.58911,0.206705 -0.391017,0 -0.632173,-0.148139 -0.0379,-0.02412 -0.0379,-0.04134 0,0.01895 0.05168,-0.254936 0.0052,-0.02928 0.02412,-0.02928 0.0086,0 0.02239,0.0086 0.258381,0.148139 0.518486,0.148139 0.170531,0 0.282497,-0.07579 0.129191,-0.08613 0.129191,-0.249769 0,-0.03617 -0.0069,-0.161919 -0.191202,0.232544 -0.485757,0.232544 -0.318671,0 -0.523653,-0.229099 -0.19637,-0.220485 -0.19637,-0.542601 0,-0.327283 0.189479,-0.556382 0.201538,-0.244601 0.523654,-0.244601 0.28422,0 0.451306,0.218763 0.02756,0.03617 0.03962,0.03617 0.01378,0 0.01378,-0.03101 0,-0.02239 -0.0034,-0.07062 -0.0034,-0.04995 -0.0034,-0.07407 0,-0.103353 0.02067,-0.103353 0.01723,0 0.186034,0.03273 0.16881,0.03101 0.184312,0.0379 0.02412,0.0086 0.02412,0.04479 z m -0.41341,0.709688 q 0,-0.192925 -0.105076,-0.327283 -0.11541,-0.146417 -0.303167,-0.146417 -0.186035,0 -0.301446,0.148139 -0.105075,0.134358 -0.105075,0.325561 0,0.187757 0.106798,0.323838 0.11541,0.148139 0.299723,0.148139 0.182589,0 0.299722,-0.148139 0.108521,-0.136081 0.108521,-0.323838 z"
         style="font-style:normal;font-variant:normal;font-weight:normal;font-stretch:normal;font-size:3.52777px;font-family:'Berlin Sans FB';-inkscape-font-specification:'Berlin Sans FB';fill:#e8617a;stroke-width:0.264583"
         id="path2349-1" />
      <path
         d="m 35.895894,19.404665 q 0,0.0069 -0.0052,0.03101 -0.06718,0.394463 -0.06718,0.680405 0,0.01723 0.04306,0.773422 l 0.0017,0.02412 q 0.0017,0.04995 -0.04651,0.04995 -0.04651,0 -0.142972,0.01034 -0.09474,0.01206 -0.141248,0.01206 -0.03273,0 -0.04995,-0.120578 -0.01722,-0.120578 -0.03273,-0.120578 -0.01034,0 -0.09302,0.06718 -0.10163,0.08268 -0.189479,0.125746 -0.136081,0.0689 -0.272162,0.0689 -0.334174,0 -0.563272,-0.266994 -0.217041,-0.254936 -0.217041,-0.594278 0,-0.382404 0.218763,-0.632173 0.229099,-0.260104 0.602891,-0.260104 0.263549,0 0.459919,0.182589 0.02928,0.03445 0.09129,0.09991 0.0052,0.0052 0.01034,0.0052 0.01033,0 0.02928,-0.10852 0.01895,-0.10852 0.04823,-0.10852 0.04651,0 0.173977,0.02584 0.141249,0.03101 0.141249,0.05512 z m -0.439249,0.720024 q 0,-0.211873 -0.125745,-0.363457 -0.132636,-0.163642 -0.339342,-0.163642 -0.206705,0 -0.344508,0.16192 -0.132636,0.155028 -0.132636,0.365179 0,0.208428 0.132636,0.361734 0.137803,0.160197 0.344508,0.160197 0.201538,0 0.337619,-0.163642 0.127468,-0.153306 0.127468,-0.358289 z"
         style="font-style:normal;font-variant:normal;font-weight:normal;font-stretch:normal;font-size:3.52777px;font-family:'Berlin Sans FB';-inkscape-font-specification:'Berlin Sans FB';fill:#e8617a;stroke-width:0.264583"
         id="path2351-9" />
      <path
         d="m 37.136126,20.64662 q 0,0.0379 -0.0069,0.103352 -0.0086,0.08096 -0.01034,0.105075 -0.0017,0.03101 -0.0052,0.0379 -0.0069,0.01206 -0.03273,0.02412 -0.141248,0.06718 -0.444416,0.06718 -0.403075,0 -0.403075,-0.365179 0,-0.146416 0.0069,-0.439249 0.0069,-0.294555 0.0069,-0.440971 0,-0.07062 -0.07062,-0.07579 -0.06373,0 -0.125746,-0.0017 -0.03617,-0.0086 -0.03617,-0.141248 0,-0.04995 0.0069,-0.105075 0.0052,-0.04134 0.05512,-0.04995 0.04306,0 0.08441,-0.0017 0.07924,-0.0034 0.07924,-0.07062 0,-0.0689 -0.0052,-0.21015 -0.0034,-0.141249 -0.0034,-0.211873 0,-0.125746 0.04823,-0.125746 0.0155,0 0.323839,0.0534 0.03962,0.0052 0.03962,0.0379 0,0.07579 -0.01206,0.227376 -0.01033,0.151584 -0.01033,0.227376 0,0.04995 0.04651,0.04995 h 0.41341 q 0.02928,0 0.02928,0.02067 0,0.02067 -0.0069,0.06718 -0.0052,0.04479 -0.0052,0.06718 0,0.02584 0.0017,0.07924 0.0017,0.0534 0.0017,0.07924 0,0.03273 -0.04823,0.03273 -0.0689,0 -0.208428,-0.0086 -0.139526,-0.01034 -0.208428,-0.01034 -0.01378,0 -0.02067,0.09819 -0.0086,0.1223 -0.0086,0.342786 v 0.256659 q 0,0.148139 0.02756,0.206705 0.04134,0.08957 0.170532,0.08957 0.0534,0 0.156752,-0.02239 0.103352,-0.02411 0.153306,-0.02411 0.02067,0 0.02067,0.03101 z"
         style="font-style:normal;font-variant:normal;font-weight:normal;font-stretch:normal;font-size:3.52777px;font-family:'Berlin Sans FB';-inkscape-font-specification:'Berlin Sans FB';fill:#e8617a;stroke-width:0.264583"
         id="path2353-7" />
      <path
         d="m 38.841444,20.038562 q 0,0.127468 -0.110243,0.170531 -0.07407,0.02756 -1.066254,0.101631 0.02239,0.151583 0.167086,0.258381 0.137804,0.10163 0.296278,0.10163 0.272162,0 0.499538,-0.175699 0.02756,-0.02239 0.05512,-0.04479 0.01378,0 0.01723,0.0034 0.0052,0.0034 0.06546,0.120578 0.06029,0.11541 0.06029,0.124023 0,0.01034 -0.02756,0.03962 -0.253214,0.268717 -0.6494,0.268717 -0.39963,0 -0.637341,-0.237711 -0.237711,-0.239433 -0.237711,-0.637341 0,-0.354844 0.227376,-0.618393 0.239434,-0.273885 0.587387,-0.273885 0.323839,0 0.540879,0.237711 0.211873,0.230821 0.211873,0.56155 z m -0.409965,-0.105076 q 0,-0.142971 -0.113688,-0.253214 -0.111966,-0.110242 -0.253214,-0.110242 -0.158474,0 -0.282497,0.127468 -0.122301,0.127468 -0.122301,0.285942 0,0.03617 0.06201,0.03617 0.254936,0 0.60978,-0.05168 0.09991,-0.01378 0.09991,-0.03445 z"
         style="font-style:normal;font-variant:normal;font-weight:normal;font-stretch:normal;font-size:3.52777px;font-family:'Berlin Sans FB';-inkscape-font-specification:'Berlin Sans FB';fill:#e8617a;stroke-width:0.264583"
         id="path2355-8" />
    </g>
    <g
       aria-label="ch"
       id="text2183-7-2-5"
       style="font-size:3.175px;line-height:1.25;font-family:sans-serif;fill:#e8617a;fill-opacity:1;stroke-width:0.264583"
       transform="translate(-1.6050474e-6,56.218781)">
      <path
         d="m 7.4362898,19.754945 q 0,0.03411 -0.035657,0.151928 -0.035657,0.117823 -0.049609,0.117823 -0.069763,-0.03101 -0.1410767,-0.06201 -0.069763,-0.03101 -0.153479,-0.03101 -0.190686,0 -0.3178101,0.141077 -0.127124,0.141076 -0.127124,0.333313 0,0.189135 0.127124,0.327111 0.1302247,0.142627 0.3178101,0.142627 0.1038696,0 0.2046387,-0.05116 0.100769,-0.05116 0.088367,-0.05116 0.020154,0 0.044958,0.130225 0.023254,0.117822 0.023254,0.16278 0,0.04806 -0.1813843,0.09457 -0.1519287,0.03876 -0.2247925,0.03876 -0.3193603,0 -0.5395019,-0.238745 -0.2154908,-0.232544 -0.2154908,-0.555005 0,-0.328662 0.2108399,-0.558106 0.217041,-0.235644 0.5410522,-0.235644 0.217041,0 0.396875,0.11007 0.031006,0.0186 0.031006,0.03256 z"
         style="font-style:normal;font-variant:normal;font-weight:normal;font-stretch:normal;font-family:'Berlin Sans FB';-inkscape-font-specification:'Berlin Sans FB';fill:#e8617a;fill-opacity:1;stroke-width:0.264583"
         id="path2339-6-2" />
      <path
         d="m 8.9834821,21.1068 q 0,0.05736 -0.032556,0.05736 -0.048059,0 -0.1457275,-0.0016 -0.097668,-0.0016 -0.1457275,-0.0016 -0.038757,0 -0.038757,-0.05116 0,-0.07441 0.00465,-0.224793 0.0062,-0.150378 0.0062,-0.226343 0,-0.07131 -0.0062,-0.21549 -0.00465,-0.145728 -0.00465,-0.218592 0,-0.279052 -0.2635499,-0.279052 -0.085266,0 -0.2232421,0.08527 -0.1472779,0.09147 -0.1472779,0.167431 v 0.920874 q 0,0.04496 -0.032556,0.04496 -0.048059,0 -0.1441773,-0.0016 -0.096118,-0.0016 -0.1441772,-0.0016 -0.035657,0 -0.035657,-0.04186 v -0.748791 q 0,-0.182935 -0.020154,-0.778247 -0.0031,-0.184485 -0.026355,-0.545703 -0.0031,-0.0186 -0.0031,-0.02481 0,-0.02635 0.018604,-0.03256 0.026355,-0.0093 0.1751831,-0.0093 0.032556,0 0.097669,-0.01085 0.065112,-0.0124 0.094568,-0.0124 0.020154,0 0.020154,0.02945 0,0.145728 -0.012402,0.438733 -0.010852,0.291455 -0.010852,0.437183 0,0.03566 0.012402,0.03721 0.079065,-0.06666 0.2046387,-0.161231 0.1519287,-0.09457 0.3209106,-0.09457 0.2914551,0 0.4015259,0.173632 0.079065,0.127124 0.079065,0.403077 0,0.04806 -0.0031,0.148828 -0.00155,0.09922 -0.00155,0.147277 0,0.09922 0.0031,0.296106 0.0031,0.196888 0.0031,0.294556 z"
         style="font-style:normal;font-variant:normal;font-weight:normal;font-stretch:normal;font-family:'Berlin Sans FB';-inkscape-font-specification:'Berlin Sans FB';fill:#e8617a;fill-opacity:1;stroke-width:0.264583"
         id="path2341-0-1" />
    </g>
    <g
       aria-label="cv"
       id="text2183-8-6-5"
       style="font-size:3.52777px;line-height:1.25;font-family:sans-serif;fill:#e8617a;stroke-width:0.264583"
       transform="translate(-1.6050474e-6,56.218781)">
      <path
         d="m 22.66449,19.354712 q 0,0.0379 -0.03962,0.168809 -0.03962,0.130913 -0.05512,0.130913 -0.07751,-0.03445 -0.156751,-0.0689 -0.07751,-0.03445 -0.170532,-0.03445 -0.211873,0 -0.353121,0.156751 -0.141249,0.156752 -0.141249,0.370347 0,0.21015 0.141249,0.363457 0.144693,0.158474 0.353121,0.158474 0.115411,0 0.227376,-0.05684 0.111965,-0.05684 0.09819,-0.05684 0.02239,0 0.04995,0.144694 0.02584,0.130913 0.02584,0.180867 0,0.0534 -0.201538,0.105075 -0.168809,0.04306 -0.249769,0.04306 -0.354844,0 -0.599445,-0.265272 -0.239434,-0.258382 -0.239434,-0.616671 0,-0.365179 0.234266,-0.620116 0.241157,-0.261826 0.601168,-0.261826 0.241156,0 0.440971,0.1223 0.03445,0.02067 0.03445,0.03617 z"
         style="font-style:normal;font-variant:normal;font-weight:normal;font-stretch:normal;font-size:3.52777px;font-family:'Berlin Sans FB';-inkscape-font-specification:'Berlin Sans FB';fill:#e8617a;stroke-width:0.264583"
         id="path2344-8-7" />
      <path
         d="m 24.366364,19.776735 q 0,0.242879 -0.0155,0.282497 -0.02584,0.07751 -0.279052,0.453029 -0.260104,0.384127 -0.310058,0.404798 -0.02412,0.01034 -0.144694,0.01034 -0.11541,0 -0.151584,-0.01034 -0.04823,-0.0155 -0.315225,-0.389295 -0.260104,-0.363457 -0.29111,-0.442694 -0.04134,-0.10852 -0.04134,-0.335896 0,-0.07062 0.0034,-0.211873 0.0034,-0.141248 0.0034,-0.211873 0,-0.0379 0.0379,-0.0379 0.05684,0 0.168809,0.0052 0.113688,0.0052 0.170532,0.0052 0.03101,0 0.03101,0.03445 0,0.05512 -0.0069,0.163642 -0.0069,0.106798 -0.0069,0.161919 0,0.158474 0.01723,0.289388 0.0086,0.06546 0.173977,0.320393 0.167087,0.254936 0.206705,0.254936 0.0379,0 0.187757,-0.249768 0.148139,-0.244602 0.158474,-0.308336 0.01378,-0.08613 0.01378,-0.296277 0,-0.05684 -0.01206,-0.170532 -0.01034,-0.113688 -0.01034,-0.170532 0,-0.02584 0.02584,-0.02584 0.05684,0 0.167087,-0.0052 0.110242,-0.0069 0.165364,-0.0069 0.0534,0 0.0534,0.48748 z"
         style="font-style:normal;font-variant:normal;font-weight:normal;font-stretch:normal;font-size:3.52777px;font-family:'Berlin Sans FB';-inkscape-font-specification:'Berlin Sans FB';fill:#e8617a;stroke-width:0.264583"
         id="path2346-5-6" />
    </g>
    <g
       aria-label="gate"
       id="text2183-8-1-9-1"
       style="font-size:3.52777px;line-height:1.25;font-family:sans-serif;fill:#e8617a;stroke-width:0.264583"
       transform="translate(-2.5400017,56.218779)">
      <path
         d="m 33.904633,19.358157 q 0,0.206705 -0.0034,0.621838 -0.0034,0.413411 -0.0034,0.620116 0,0.409965 -0.1757,0.604613 -0.184312,0.206705 -0.58911,0.206705 -0.391017,0 -0.632173,-0.148139 -0.0379,-0.02412 -0.0379,-0.04134 0,0.01895 0.05168,-0.254936 0.0052,-0.02928 0.02412,-0.02928 0.0086,0 0.02239,0.0086 0.258381,0.148139 0.518486,0.148139 0.170531,0 0.282497,-0.07579 0.129191,-0.08613 0.129191,-0.249769 0,-0.03617 -0.0069,-0.161919 -0.191202,0.232544 -0.485757,0.232544 -0.318671,0 -0.523653,-0.229099 -0.19637,-0.220485 -0.19637,-0.542601 0,-0.327283 0.189479,-0.556382 0.201538,-0.244601 0.523654,-0.244601 0.28422,0 0.451306,0.218763 0.02756,0.03617 0.03962,0.03617 0.01378,0 0.01378,-0.03101 0,-0.02239 -0.0034,-0.07062 -0.0034,-0.04995 -0.0034,-0.07407 0,-0.103353 0.02067,-0.103353 0.01723,0 0.186034,0.03273 0.16881,0.03101 0.184312,0.0379 0.02412,0.0086 0.02412,0.04479 z m -0.41341,0.709688 q 0,-0.192925 -0.105076,-0.327283 -0.11541,-0.146417 -0.303167,-0.146417 -0.186035,0 -0.301446,0.148139 -0.105075,0.134358 -0.105075,0.325561 0,0.187757 0.106798,0.323838 0.11541,0.148139 0.299723,0.148139 0.182589,0 0.299722,-0.148139 0.108521,-0.136081 0.108521,-0.323838 z"
         style="font-style:normal;font-variant:normal;font-weight:normal;font-stretch:normal;font-size:3.52777px;font-family:'Berlin Sans FB';-inkscape-font-specification:'Berlin Sans FB';fill:#e8617a;stroke-width:0.264583"
         id="path2349-1-8" />
      <path
         d="m 35.895894,19.404665 q 0,0.0069 -0.0052,0.03101 -0.06718,0.394463 -0.06718,0.680405 0,0.01723 0.04306,0.773422 l 0.0017,0.02412 q 0.0017,0.04995 -0.04651,0.04995 -0.04651,0 -0.142972,0.01034 -0.09474,0.01206 -0.141248,0.01206 -0.03273,0 -0.04995,-0.120578 -0.01722,-0.120578 -0.03273,-0.120578 -0.01034,0 -0.09302,0.06718 -0.10163,0.08268 -0.189479,0.125746 -0.136081,0.0689 -0.272162,0.0689 -0.334174,0 -0.563272,-0.266994 -0.217041,-0.254936 -0.217041,-0.594278 0,-0.382404 0.218763,-0.632173 0.229099,-0.260104 0.602891,-0.260104 0.263549,0 0.459919,0.182589 0.02928,0.03445 0.09129,0.09991 0.0052,0.0052 0.01034,0.0052 0.01033,0 0.02928,-0.10852 0.01895,-0.10852 0.04823,-0.10852 0.04651,0 0.173977,0.02584 0.141249,0.03101 0.141249,0.05512 z m -0.439249,0.720024 q 0,-0.211873 -0.125745,-0.363457 -0.132636,-0.163642 -0.339342,-0.163642 -0.206705,0 -0.344508,0.16192 -0.132636,0.155028 -0.132636,0.365179 0,0.208428 0.132636,0.361734 0.137803,0.160197 0.344508,0.160197 0.201538,0 0.337619,-0.163642 0.127468,-0.153306 0.127468,-0.358289 z"
         style="font-style:normal;font-variant:normal;font-weight:normal;font-stretch:normal;font-size:3.52777px;font-family:'Berlin Sans FB';-inkscape-font-specification:'Berlin Sans FB';fill:#e8617a;stroke-width:0.264583"
         id="path2351-9-2" />
      <path
         d="m 37.136126,20.64662 q 0,0.0379 -0.0069,0.103352 -0.0086,0.08096 -0.01034,0.105075 -0.0017,0.03101 -0.0052,0.0379 -0.0069,0.01206 -0.03273,0.02412 -0.141248,0.06718 -0.444416,0.06718 -0.403075,0 -0.403075,-0.365179 0,-0.146416 0.0069,-0.439249 0.0069,-0.294555 0.0069,-0.440971 0,-0.07062 -0.07062,-0.07579 -0.06373,0 -0.125746,-0.0017 -0.03617,-0.0086 -0.03617,-0.141248 0,-0.04995 0.0069,-0.105075 0.0052,-0.04134 0.05512,-0.04995 0.04306,0 0.08441,-0.0017 0.07924,-0.0034 0.07924,-0.07062 0,-0.0689 -0.0052,-0.21015 -0.0034,-0.141249 -0.0034,-0.211873 0,-0.125746 0.04823,-0.125746 0.0155,0 0.323839,0.0534 0.03962,0.0052 0.03962,0.0379 0,0.07579 -0.01206,0.227376 -0.01033,0.151584 -0.01033,0.227376 0,0.04995 0.04651,0.04995 h 0.41341 q 0.02928,0 0.02928,0.02067 0,0.02067 -0.0069,0.06718 -0.0052,0.04479 -0.0052,0.06718 0,0.02584 0.0017,0.07924 0.0017,0.0534 0.0017,0.07924 0,0.03273 -0.04823,0.03273 -0.0689,0 -0.208428,-0.0086 -0.139526,-0.01034 -0.208428,-0.01034 -0.01378,0 -0.02067,0.09819 -0.0086,0.1223 -0.0086,0.342786 v 0.256659 q 0,0.148139 0.02756,0.206705 0.04134,0.08957 0.170532,0.08957 0.0534,0 0.156752,-0.02239 0.103352,-0.02411 0.153306,-0.02411 0.02067,0 0.02067,0.03101 z"
         style="font-style:normal;font-variant:normal;font-weight:normal;font-stretch:normal;font-size:3.52777px;font-family:'Berlin Sans FB';-inkscape-font-specification:'Berlin Sans FB';fill:#e8617a;stroke-width:0.264583"
         id="path2353-7-2" />
      <path
         d="m 38.841444,20.038562 q 0,0.127468 -0.110243,0.170531 -0.07407,0.02756 -1.066254,0.101631 0.02239,0.151583 0.167086,0.258381 0.137804,0.10163 0.296278,0.10163 0.272162,0 0.499538,-0.175699 0.02756,-0.02239 0.05512,-0.04479 0.01378,0 0.01723,0.0034 0.0052,0.0034 0.06546,0.120578 0.06029,0.11541 0.06029,0.124023 0,0.01034 -0.02756,0.03962 -0.253214,0.268717 -0.6494,0.268717 -0.39963,0 -0.637341,-0.237711 -0.237711,-0.239433 -0.237711,-0.637341 0,-0.354844 0.227376,-0.618393 0.239434,-0.273885 0.587387,-0.273885 0.323839,0 0.540879,0.237711 0.211873,0.230821 0.211873,0.56155 z m -0.409965,-0.105076 q 0,-0.142971 -0.113688,-0.253214 -0.111966,-0.110242 -0.253214,-0.110242 -0.158474,0 -0.282497,0.127468 -0.122301,0.127468 -0.122301,0.285942 0,0.03617 0.06201,0.03617 0.254936,0 0.60978,-0.05168 0.09991,-0.01378 0.09991,-0.03445 z"
         style="font-style:normal;font-variant:normal;font-weight:normal;font-stretch:normal;font-size:3.52777px;font-family:'Berlin Sans FB';-inkscape-font-specification:'Berlin Sans FB';fill:#e8617a;stroke-width:0.264583"
         id="path2355-8-2" />
    </g>
    <g
       aria-label="ch"
       id="text2183-7-2-4"
       style="font-size:3.175px;line-height:1.25;font-family:sans-serif;fill:#e8617a;fill-opacity:1;stroke-width:0.264583"
       transform="translate(-1.6050472e-6,80.312501)">
      <path
         d="m 7.4362898,19.754945 q 0,0.03411 -0.035657,0.151928 -0.035657,0.117823 -0.049609,0.117823 -0.069763,-0.03101 -0.1410767,-0.06201 -0.069763,-0.03101 -0.153479,-0.03101 -0.190686,0 -0.3178101,0.141077 -0.127124,0.141076 -0.127124,0.333313 0,0.189135 0.127124,0.327111 0.1302247,0.142627 0.3178101,0.142627 0.1038696,0 0.2046387,-0.05116 0.100769,-0.05116 0.088367,-0.05116 0.020154,0 0.044958,0.130225 0.023254,0.117822 0.023254,0.16278 0,0.04806 -0.1813843,0.09457 -0.1519287,0.03876 -0.2247925,0.03876 -0.3193603,0 -0.5395019,-0.238745 -0.2154908,-0.232544 -0.2154908,-0.555005 0,-0.328662 0.2108399,-0.558106 0.217041,-0.235644 0.5410522,-0.235644 0.217041,0 0.396875,0.11007 0.031006,0.0186 0.031006,0.03256 z"
         style="font-style:normal;font-variant:normal;font-weight:normal;font-stretch:normal;font-family:'Berlin Sans FB';-inkscape-font-specification:'Berlin Sans FB';fill:#e8617a;fill-opacity:1;stroke-width:0.264583"
         id="path2339-6-24" />
      <path
         d="m 8.9834821,21.1068 q 0,0.05736 -0.032556,0.05736 -0.048059,0 -0.1457275,-0.0016 -0.097668,-0.0016 -0.1457275,-0.0016 -0.038757,0 -0.038757,-0.05116 0,-0.07441 0.00465,-0.224793 0.0062,-0.150378 0.0062,-0.226343 0,-0.07131 -0.0062,-0.21549 -0.00465,-0.145728 -0.00465,-0.218592 0,-0.279052 -0.2635499,-0.279052 -0.085266,0 -0.2232421,0.08527 -0.1472779,0.09147 -0.1472779,0.167431 v 0.920874 q 0,0.04496 -0.032556,0.04496 -0.048059,0 -0.1441773,-0.0016 -0.096118,-0.0016 -0.1441772,-0.0016 -0.035657,0 -0.035657,-0.04186 v -0.748791 q 0,-0.182935 -0.020154,-0.778247 -0.0031,-0.184485 -0.026355,-0.545703 -0.0031,-0.0186 -0.0031,-0.02481 0,-0.02635 0.018604,-0.03256 0.026355,-0.0093 0.1751831,-0.0093 0.032556,0 0.097669,-0.01085 0.065112,-0.0124 0.094568,-0.0124 0.020154,0 0.020154,0.02945 0,0.145728 -0.012402,0.438733 -0.010852,0.291455 -0.010852,0.437183 0,0.03566 0.012402,0.03721 0.079065,-0.06666 0.2046387,-0.161231 0.1519287,-0.09457 0.3209106,-0.09457 0.2914551,0 0.4015259,0.173632 0.079065,0.127124 0.079065,0.403077 0,0.04806 -0.0031,0.148828 -0.00155,0.09922 -0.00155,0.147277 0,0.09922 0.0031,0.296106 0.0031,0.196888 0.0031,0.294556 z"
         style="font-style:normal;font-variant:normal;font-weight:normal;font-stretch:normal;font-family:'Berlin Sans FB';-inkscape-font-specification:'Berlin Sans FB';fill:#e8617a;fill-opacity:1;stroke-width:0.264583"
         id="path2341-0-7" />
    </g>
    <g
       aria-label="cv"
       id="text2183-8-6-0"
       style="font-size:3.52777px;line-height:1.25;font-family:sans-serif;fill:#e8617a;stroke-width:0.264583"
       transform="translate(-1.6050472e-6,80.312501)">
      <path
         d="m 22.66449,19.354712 q 0,0.0379 -0.03962,0.168809 -0.03962,0.130913 -0.05512,0.130913 -0.07751,-0.03445 -0.156751,-0.0689 -0.07751,-0.03445 -0.170532,-0.03445 -0.211873,0 -0.353121,0.156751 -0.141249,0.156752 -0.141249,0.370347 0,0.21015 0.141249,0.363457 0.144693,0.158474 0.353121,0.158474 0.115411,0 0.227376,-0.05684 0.111965,-0.05684 0.09819,-0.05684 0.02239,0 0.04995,0.144694 0.02584,0.130913 0.02584,0.180867 0,0.0534 -0.201538,0.105075 -0.168809,0.04306 -0.249769,0.04306 -0.354844,0 -0.599445,-0.265272 -0.239434,-0.258382 -0.239434,-0.616671 0,-0.365179 0.234266,-0.620116 0.241157,-0.261826 0.601168,-0.261826 0.241156,0 0.440971,0.1223 0.03445,0.02067 0.03445,0.03617 z"
         style="font-style:normal;font-variant:normal;font-weight:normal;font-stretch:normal;font-size:3.52777px;font-family:'Berlin Sans FB';-inkscape-font-specification:'Berlin Sans FB';fill:#e8617a;stroke-width:0.264583"
         id="path2344-8-8" />
      <path
         d="m 24.366364,19.776735 q 0,0.242879 -0.0155,0.282497 -0.02584,0.07751 -0.279052,0.453029 -0.260104,0.384127 -0.310058,0.404798 -0.02412,0.01034 -0.144694,0.01034 -0.11541,0 -0.151584,-0.01034 -0.04823,-0.0155 -0.315225,-0.389295 -0.260104,-0.363457 -0.29111,-0.442694 -0.04134,-0.10852 -0.04134,-0.335896 0,-0.07062 0.0034,-0.211873 0.0034,-0.141248 0.0034,-0.211873 0,-0.0379 0.0379,-0.0379 0.05684,0 0.168809,0.0052 0.113688,0.0052 0.170532,0.0052 0.03101,0 0.03101,0.03445 0,0.05512 -0.0069,0.163642 -0.0069,0.106798 -0.0069,0.161919 0,0.158474 0.01723,0.289388 0.0086,0.06546 0.173977,0.320393 0.167087,0.254936 0.206705,0.254936 0.0379,0 0.187757,-0.249768 0.148139,-0.244602 0.158474,-0.308336 0.01378,-0.08613 0.01378,-0.296277 0,-0.05684 -0.01206,-0.170532 -0.01034,-0.113688 -0.01034,-0.170532 0,-0.02584 0.02584,-0.02584 0.05684,0 0.167087,-0.0052 0.110242,-0.0069 0.165364,-0.0069 0.0534,0 0.0534,0.48748 z"
         style="font-style:normal;font-variant:normal;font-weight:normal;font-stretch:normal;font-size:3.52777px;font-family:'Berlin Sans FB';-inkscape-font-specification:'Berlin Sans FB';fill:#e8617a;stroke-width:0.264583"
         id="path2346-5-4" />
    </g>
    <g
       aria-label="gate"
       id="text2183-8-1-9-4"
       style="font-size:3.52777px;line-height:1.25;font-family:sans-serif;fill:#e8617a;stroke-width:0.264583"
       transform="translate(-2.5400017,80.312499)">
      <path
         d="m 33.904633,19.358157 q 0,0.206705 -0.0034,0.621838 -0.0034,0.413411 -0.0034,0.620116 0,0.409965 -0.1757,0.604613 -0.184312,0.206705 -0.58911,0.206705 -0.391017,0 -0.632173,-0.148139 -0.0379,-0.02412 -0.0379,-0.04134 0,0.01895 0.05168,-0.254936 0.0052,-0.02928 0.02412,-0.02928 0.0086,0 0.02239,0.0086 0.258381,0.148139 0.518486,0.148139 0.170531,0 0.282497,-0.07579 0.129191,-0.08613 0.129191,-0.249769 0,-0.03617 -0.0069,-0.161919 -0.191202,0.232544 -0.485757,0.232544 -0.318671,0 -0.523653,-0.229099 -0.19637,-0.220485 -0.19637,-0.542601 0,-0.327283 0.189479,-0.556382 0.201538,-0.244601 0.523654,-0.244601 0.28422,0 0.451306,0.218763 0.02756,0.03617 0.03962,0.03617 0.01378,0 0.01378,-0.03101 0,-0.02239 -0.0034,-0.07062 -0.0034,-0.04995 -0.0034,-0.07407 0,-0.103353 0.02067,-0.103353 0.01723,0 0.186034,0.03273 0.16881,0.03101 0.184312,0.0379 0.02412,0.0086 0.02412,0.04479 z m -0.41341,0.709688 q 0,-0.192925 -0.105076,-0.327283 -0.11541,-0.146417 -0.303167,-0.146417 -0.186035,0 -0.301446,0.148139 -0.105075,0.134358 -0.105075,0.325561 0,0.187757 0.106798,0.323838 0.11541,0.148139 0.299723,0.148139 0.182589,0 0.299722,-0.148139 0.108521,-0.136081 0.108521,-0.323838 z"
         style="font-style:normal;font-variant:normal;font-weight:normal;font-stretch:normal;font-size:3.52777px;font-family:'Berlin Sans FB';-inkscape-font-specification:'Berlin Sans FB';fill:#e8617a;stroke-width:0.264583"
         id="path2349-1-86" />
      <path
         d="m 35.895894,19.404665 q 0,0.0069 -0.0052,0.03101 -0.06718,0.394463 -0.06718,0.680405 0,0.01723 0.04306,0.773422 l 0.0017,0.02412 q 0.0017,0.04995 -0.04651,0.04995 -0.04651,0 -0.142972,0.01034 -0.09474,0.01206 -0.141248,0.01206 -0.03273,0 -0.04995,-0.120578 -0.01722,-0.120578 -0.03273,-0.120578 -0.01034,0 -0.09302,0.06718 -0.10163,0.08268 -0.189479,0.125746 -0.136081,0.0689 -0.272162,0.0689 -0.334174,0 -0.563272,-0.266994 -0.217041,-0.254936 -0.217041,-0.594278 0,-0.382404 0.218763,-0.632173 0.229099,-0.260104 0.602891,-0.260104 0.263549,0 0.459919,0.182589 0.02928,0.03445 0.09129,0.09991 0.0052,0.0052 0.01034,0.0052 0.01033,0 0.02928,-0.10852 0.01895,-0.10852 0.04823,-0.10852 0.04651,0 0.173977,0.02584 0.141249,0.03101 0.141249,0.05512 z m -0.439249,0.720024 q 0,-0.211873 -0.125745,-0.363457 -0.132636,-0.163642 -0.339342,-0.163642 -0.206705,0 -0.344508,0.16192 -0.132636,0.155028 -0.132636,0.365179 0,0.208428 0.132636,0.361734 0.137803,0.160197 0.344508,0.160197 0.201538,0 0.337619,-0.163642 0.127468,-0.153306 0.127468,-0.358289 z"
         style="font-style:normal;font-variant:normal;font-weight:normal;font-stretch:normal;font-size:3.52777px;font-family:'Berlin Sans FB';-inkscape-font-specification:'Berlin Sans FB';fill:#e8617a;stroke-width:0.264583"
         id="path2351-9-7" />
      <path
         d="m 37.136126,20.64662 q 0,0.0379 -0.0069,0.103352 -0.0086,0.08096 -0.01034,0.105075 -0.0017,0.03101 -0.0052,0.0379 -0.0069,0.01206 -0.03273,0.02412 -0.141248,0.06718 -0.444416,0.06718 -0.403075,0 -0.403075,-0.365179 0,-0.146416 0.0069,-0.439249 0.0069,-0.294555 0.0069,-0.440971 0,-0.07062 -0.07062,-0.07579 -0.06373,0 -0.125746,-0.0017 -0.03617,-0.0086 -0.03617,-0.141248 0,-0.04995 0.0069,-0.105075 0.0052,-0.04134 0.05512,-0.04995 0.04306,0 0.08441,-0.0017 0.07924,-0.0034 0.07924,-0.07062 0,-0.0689 -0.0052,-0.21015 -0.0034,-0.141249 -0.0034,-0.211873 0,-0.125746 0.04823,-0.125746 0.0155,0 0.323839,0.0534 0.03962,0.0052 0.03962,0.0379 0,0.07579 -0.01206,0.227376 -0.01033,0.151584 -0.01033,0.227376 0,0.04995 0.04651,0.04995 h 0.41341 q 0.02928,0 0.02928,0.02067 0,0.02067 -0.0069,0.06718 -0.0052,0.04479 -0.0052,0.06718 0,0.02584 0.0017,0.07924 0.0017,0.0534 0.0017,0.07924 0,0.03273 -0.04823,0.03273 -0.0689,0 -0.208428,-0.0086 -0.139526,-0.01034 -0.208428,-0.01034 -0.01378,0 -0.02067,0.09819 -0.0086,0.1223 -0.0086,0.342786 v 0.256659 q 0,0.148139 0.02756,0.206705 0.04134,0.08957 0.170532,0.08957 0.0534,0 0.156752,-0.02239 0.103352,-0.02411 0.153306,-0.02411 0.02067,0 0.02067,0.03101 z"
         style="font-style:normal;font-variant:normal;font-weight:normal;font-stretch:normal;font-size:3.52777px;font-family:'Berlin Sans FB';-inkscape-font-specification:'Berlin Sans FB';fill:#e8617a;stroke-width:0.264583"
         id="path2353-7-9" />
      <path
         d="m 38.841444,20.038562 q 0,0.127468 -0.110243,0.170531 -0.07407,0.02756 -1.066254,0.101631 0.02239,0.151583 0.167086,0.258381 0.137804,0.10163 0.296278,0.10163 0.272162,0 0.499538,-0.175699 0.02756,-0.02239 0.05512,-0.04479 0.01378,0 0.01723,0.0034 0.0052,0.0034 0.06546,0.120578 0.06029,0.11541 0.06029,0.124023 0,0.01034 -0.02756,0.03962 -0.253214,0.268717 -0.6494,0.268717 -0.39963,0 -0.637341,-0.237711 -0.237711,-0.239433 -0.237711,-0.637341 0,-0.354844 0.227376,-0.618393 0.239434,-0.273885 0.587387,-0.273885 0.323839,0 0.540879,0.237711 0.211873,0.230821 0.211873,0.56155 z m -0.409965,-0.105076 q 0,-0.142971 -0.113688,-0.253214 -0.111966,-0.110242 -0.253214,-0.110242 -0.158474,0 -0.282497,0.127468 -0.122301,0.127468 -0.122301,0.285942 0,0.03617 0.06201,0.03617 0.254936,0 0.60978,-0.05168 0.09991,-0.01378 0.09991,-0.03445 z"
         style="font-style:normal;font-variant:normal;font-weight:normal;font-stretch:normal;font-size:3.52777px;font-family:'Berlin Sans FB';-inkscape-font-specification:'Berlin Sans FB';fill:#e8617a;stroke-width:0.264583"
         id="path2355-8-1" />
    </g>
    <rect
       style="fill:#e8617a;fill-opacity:1;stroke:none;stroke-width:0.499999;stroke-miterlimit:4;stroke-dasharray:none;stroke-dashoffset:0"
       id="rect2489"
       width="12.7"
       height="2.0078101"
       x="8.8899984"
       y="35.136757"
       rx="0.49999899"
       ry="0.49999899" />
    <rect
       style="fill:#e8617a;fill-opacity:1;stroke:none;stroke-width:0.499999;stroke-miterlimit:4;stroke-dasharray:none;stroke-dashoffset:0"
       id="rect2489-7"
       width="12.7"
       height="2.0078101"
       x="8.8899984"
       y="59.23048"
       rx="0.49999899"
       ry="0.49999899" />
    <rect
       style="fill:#e8617a;fill-opacity:1;stroke:none;stroke-width:0.499999;stroke-miterlimit:4;stroke-dasharray:none;stroke-dashoffset:0"
       id="rect2489-0"
       width="12.7"
       height="2.0078101"
       x="8.8899984"
       y="83.324196"
       rx="0.49999899"
       ry="0.49999899" />
    <rect
       style="fill:#e8617a;fill-opacity:1;stroke:none;stroke-width:0.499999;stroke-miterlimit:4;stroke-dasharray:none;stroke-dashoffset:0"
       id="rect2489-70"
       width="12.7"
       height="2.0078101"
       x="8.8899984"
       y="107.41792"
       rx="0.49999899"
       ry="0.49999899" />
    <g
       aria-label="gate"
       id="text2183-8-1-4"
       style="font-size:3.52777px;line-height:1.25;font-family:sans-serif;fill:#e8617a;stroke-width:0.264583"
       transform="translate(-25.400044,-2.0078385)">
      <path
         d="m 28.824633,21.365964 q 0,0.206705 -0.0034,0.621838 -0.0034,0.413411 -0.0034,0.620116 0,0.409965 -0.1757,0.604613 -0.184312,0.206705 -0.58911,0.206705 -0.391017,0 -0.632173,-0.148139 -0.0379,-0.02412 -0.0379,-0.04134 0,0.01895 0.05168,-0.254936 0.0052,-0.02928 0.02412,-0.02928 0.0086,0 0.02239,0.0086 0.258381,0.148139 0.518486,0.148139 0.170531,0 0.282497,-0.07579 0.129191,-0.08613 0.129191,-0.249769 0,-0.03617 -0.0069,-0.161919 -0.191202,0.232544 -0.485757,0.232544 -0.318671,0 -0.523653,-0.229099 -0.19637,-0.220485 -0.19637,-0.542601 0,-0.327283 0.189479,-0.556382 0.201538,-0.244601 0.523654,-0.244601 0.28422,0 0.451306,0.218763 0.02756,0.03617 0.03962,0.03617 0.01378,0 0.01378,-0.03101 0,-0.02239 -0.0034,-0.07062 -0.0034,-0.04995 -0.0034,-0.07407 0,-0.103353 0.02067,-0.103353 0.01723,0 0.186034,0.03273 0.16881,0.03101 0.184312,0.0379 0.02412,0.0086 0.02412,0.04479 z m -0.41341,0.709688 q 0,-0.192925 -0.105076,-0.327283 -0.11541,-0.146417 -0.303167,-0.146417 -0.186035,0 -0.301446,0.148139 -0.105075,0.134358 -0.105075,0.325561 0,0.187757 0.106798,0.323838 0.11541,0.148139 0.299723,0.148139 0.182589,0 0.299722,-0.148139 0.108521,-0.136081 0.108521,-0.323838 z"
         style="font-style:normal;font-variant:normal;font-weight:normal;font-stretch:normal;font-size:3.52777px;font-family:'Berlin Sans FB';-inkscape-font-specification:'Berlin Sans FB';fill:#e8617a;stroke-width:0.264583"
         id="path2349-5" />
      <path
         d="m 30.815894,21.412472 q 0,0.0069 -0.0052,0.03101 -0.06718,0.394463 -0.06718,0.680405 0,0.01723 0.04306,0.773422 l 0.0017,0.02412 q 0.0017,0.04995 -0.04651,0.04995 -0.04651,0 -0.142972,0.01034 -0.09474,0.01206 -0.141248,0.01206 -0.03273,0 -0.04995,-0.120578 -0.01722,-0.120578 -0.03273,-0.120578 -0.01034,0 -0.09302,0.06718 -0.10163,0.08268 -0.189479,0.125746 -0.136081,0.0689 -0.272162,0.0689 -0.334174,0 -0.563272,-0.266994 -0.217041,-0.254936 -0.217041,-0.594278 0,-0.382404 0.218763,-0.632173 0.229099,-0.260104 0.602891,-0.260104 0.263549,0 0.459919,0.182589 0.02928,0.03445 0.09129,0.09991 0.0052,0.0052 0.01034,0.0052 0.01033,0 0.02928,-0.10852 0.01895,-0.10852 0.04823,-0.10852 0.04651,0 0.173977,0.02584 0.141249,0.03101 0.141249,0.05512 z m -0.439249,0.720024 q 0,-0.211873 -0.125745,-0.363457 -0.132636,-0.163642 -0.339342,-0.163642 -0.206705,0 -0.344508,0.16192 -0.132636,0.155028 -0.132636,0.365179 0,0.208428 0.132636,0.361734 0.137803,0.160197 0.344508,0.160197 0.201538,0 0.337619,-0.163642 0.127468,-0.153306 0.127468,-0.358289 z"
         style="font-style:normal;font-variant:normal;font-weight:normal;font-stretch:normal;font-size:3.52777px;font-family:'Berlin Sans FB';-inkscape-font-specification:'Berlin Sans FB';fill:#e8617a;stroke-width:0.264583"
         id="path2351-7" />
      <path
         d="m 32.056126,22.654427 q 0,0.0379 -0.0069,0.103352 -0.0086,0.08096 -0.01034,0.105075 -0.0017,0.03101 -0.0052,0.0379 -0.0069,0.01206 -0.03273,0.02412 -0.141248,0.06718 -0.444416,0.06718 -0.403075,0 -0.403075,-0.365179 0,-0.146416 0.0069,-0.439249 0.0069,-0.294555 0.0069,-0.440971 0,-0.07062 -0.07062,-0.07579 -0.06373,0 -0.125746,-0.0017 -0.03617,-0.0086 -0.03617,-0.141248 0,-0.04995 0.0069,-0.105075 0.0052,-0.04134 0.05512,-0.04995 0.04306,0 0.08441,-0.0017 0.07924,-0.0034 0.07924,-0.07062 0,-0.0689 -0.0052,-0.21015 -0.0034,-0.141249 -0.0034,-0.211873 0,-0.125746 0.04823,-0.125746 0.0155,0 0.323839,0.0534 0.03962,0.0052 0.03962,0.0379 0,0.07579 -0.01206,0.227376 -0.01033,0.151584 -0.01033,0.227376 0,0.04995 0.04651,0.04995 h 0.41341 q 0.02928,0 0.02928,0.02067 0,0.02067 -0.0069,0.06718 -0.0052,0.04479 -0.0052,0.06718 0,0.02584 0.0017,0.07924 0.0017,0.0534 0.0017,0.07924 0,0.03273 -0.04823,0.03273 -0.0689,0 -0.208428,-0.0086 -0.139526,-0.01034 -0.208428,-0.01034 -0.01378,0 -0.02067,0.09819 -0.0086,0.1223 -0.0086,0.342786 v 0.256659 q 0,0.148139 0.02756,0.206705 0.04134,0.08957 0.170532,0.08957 0.0534,0 0.156752,-0.02239 0.103352,-0.02411 0.153306,-0.02411 0.02067,0 0.02067,0.03101 z"
         style="font-style:normal;font-variant:normal;font-weight:normal;font-stretch:normal;font-size:3.52777px;font-family:'Berlin Sans FB';-inkscape-font-specification:'Berlin Sans FB';fill:#e8617a;stroke-width:0.264583"
         id="path2353-9" />
      <path
         d="m 33.761444,22.046369 q 0,0.127468 -0.110243,0.170531 -0.07407,0.02756 -1.066254,0.101631 0.02239,0.151583 0.167086,0.258381 0.137804,0.10163 0.296278,0.10163 0.272162,0 0.499538,-0.175699 0.02756,-0.02239 0.05512,-0.04479 0.01378,0 0.01723,0.0034 0.0052,0.0034 0.06546,0.120578 0.06029,0.11541 0.06029,0.124023 0,0.01034 -0.02756,0.03962 -0.253214,0.268717 -0.6494,0.268717 -0.39963,0 -0.637341,-0.237711 -0.237711,-0.239433 -0.237711,-0.637341 0,-0.354844 0.227376,-0.618393 0.239434,-0.273885 0.587387,-0.273885 0.323839,0 0.540879,0.237711 0.211873,0.230821 0.211873,0.56155 z m -0.409965,-0.105076 q 0,-0.142971 -0.113688,-0.253214 -0.111966,-0.110242 -0.253214,-0.110242 -0.158474,0 -0.282497,0.127468 -0.122301,0.127468 -0.122301,0.285942 0,0.03617 0.06201,0.03617 0.254936,0 0.60978,-0.05168 0.09991,-0.01378 0.09991,-0.03445 z"
         style="font-style:normal;font-variant:normal;font-weight:normal;font-stretch:normal;font-size:3.52777px;font-family:'Berlin Sans FB';-inkscape-font-specification:'Berlin Sans FB';fill:#e8617a;stroke-width:0.264583"
         id="path2355-7" />
    </g>
  </g>
  <g
     inkscape:groupmode="layer"
     id="layer2"
     inkscape:label="components"
     style="display:none"
     sodipodi:insensitive="true">
    <circle
       style="fill:#ff0000;stroke-width:0.648899"
       id="path2113-6"
       cx="7.6199985"
       cy="36.140663"
       r="5.5384998"
       inkscape:label="one" />
    <circle
       style="fill:#00ff00;stroke-width:0.4895"
       id="path2113"
       cx="22.860001"
       cy="36.140663"
       r="4.178"
       inkscape:label="one" />
    <circle
       style="fill:#0000ff;stroke-width:0.4895"
       id="path2113-3"
       cx="33.019997"
       cy="36.140659"
       r="4.178"
       inkscape:label="one" />
    <circle
       style="fill:#ff0000;stroke-width:0.648899"
       id="path2113-6-6"
       cx="7.6199985"
       cy="60.234383"
       r="5.5384998"
       inkscape:label="two" />
    <circle
       style="fill:#00ff00;stroke-width:0.4895"
       id="path2113-0"
       cx="22.860001"
       cy="60.234383"
       r="4.178"
       inkscape:label="two" />
    <circle
       style="fill:#0000ff;stroke-width:0.4895"
       id="path2113-3-2"
       cx="33.019997"
       cy="60.234379"
       r="4.178"
       inkscape:label="two" />
    <circle
       style="fill:#ff0000;stroke-width:0.648899"
       id="path2113-6-0"
       cx="7.6199985"
       cy="84.328102"
       r="5.5384998"
       inkscape:label="three" />
    <circle
       style="fill:#00ff00;stroke-width:0.4895"
       id="path2113-5"
       cx="22.860001"
       cy="84.328102"
       r="4.178"
       inkscape:label="three" />
    <circle
       style="fill:#0000ff;stroke-width:0.4895"
       id="path2113-3-6"
       cx="33.019997"
       cy="84.328102"
       r="4.178"
       inkscape:label="three" />
    <circle
       style="fill:#ff0000;stroke-width:0.648899"
       id="path2113-6-05"
       cx="7.6199985"
       cy="108.42182"
       r="5.5384998"
       inkscape:label="four" />
    <circle
       style="fill:#00ff00;stroke-width:0.4895"
       id="path2113-2"
       cx="22.860001"
       cy="108.42182"
       r="4.178"
       inkscape:label="four" />
    <circle
       style="fill:#0000ff;stroke-width:0.4895"
       id="path2113-3-21"
       cx="33.019997"
       cy="108.42182"
       r="4.178"
       inkscape:label="four" />
    <circle
       style="display:inline;fill:#00ff00;stroke-width:0.4895"
       id="path2113-3-1"
       cx="14.70546"
       cy="20.07818"
       r="4.178"
       inkscape:label="gate" />
    <circle
       style="display:inline;fill:#ff00ff;stroke-width:0.24475"
       id="path2113-3-1-5"
       cx="22.325453"
       cy="20.07818"
       inkscape:label="one"
       r="2.089" />
    <circle
       style="display:inline;fill:#ff00ff;stroke-width:0.24475"
       id="path2113-3-1-5-3"
       cx="27.405453"
       cy="20.07818"
       inkscape:label="two"
       r="2.089" />
    <circle
       style="display:inline;fill:#ff00ff;stroke-width:0.24475"
       id="path2113-3-1-5-5"
       cx="32.485451"
       cy="20.07818"
       inkscape:label="three"
       r="2.089" />
    <circle
       style="display:inline;fill:#ff00ff;stroke-width:0.24475"
       id="path2113-3-1-5-50"
       cx="37.565453"
       cy="20.07818"
       inkscape:label="four"
       r="2.089" />
  </g>
</svg>
