<?xml version="1.0" encoding="UTF-8" standalone="no"?>
<svg
   xmlns:dc="http://purl.org/dc/elements/1.1/"
   xmlns:cc="http://creativecommons.org/ns#"
   xmlns:rdf="http://www.w3.org/1999/02/22-rdf-syntax-ns#"
   xmlns:svg="http://www.w3.org/2000/svg"
   xmlns="http://www.w3.org/2000/svg"
   xmlns:sodipodi="http://sodipodi.sourceforge.net/DTD/sodipodi-0.dtd"
   xmlns:inkscape="http://www.inkscape.org/namespaces/inkscape"
   width="20.319998mm"
   height="128.49985mm"
   viewBox="0 0 20.319998 128.49985"
   version="1.1"
   id="svg8"
   inkscape:version="1.0.1 (3bc2e813f5, 2020-09-07)"
   sodipodi:docname="Chance.svg">
  <defs
     id="defs2" />
  <sodipodi:namedview
     id="base"
     pagecolor="#ffffff"
     bordercolor="#666666"
     borderopacity="1.0"
     inkscape:pageopacity="0.0"
     inkscape:pageshadow="2"
     inkscape:zoom="3.959798"
     inkscape:cx="-4.5878259"
     inkscape:cy="423.85145"
     inkscape:document-units="mm"
     inkscape:current-layer="layer1"
     inkscape:document-rotation="0"
     showgrid="true"
     inkscape:window-width="1827"
     inkscape:window-height="1051"
     inkscape:window-x="-9"
     inkscape:window-y="-9"
     inkscape:window-maximized="1"
     inkscape:snap-object-midpoints="true"
     inkscape:snap-center="true">
    <inkscape:grid
       type="xygrid"
       id="grid10"
       units="mm"
       spacingx="5.0800002"
       spacingy="4.0156202"
       empspacing="4"
       originx="-3.0125242e-06"
       originy="0" />
  </sodipodi:namedview>
  <metadata
     id="metadata5">
    <rdf:RDF>
      <cc:Work
         rdf:about="">
        <dc:format>image/svg+xml</dc:format>
        <dc:type
           rdf:resource="http://purl.org/dc/dcmitype/StillImage" />
        <dc:title></dc:title>
      </cc:Work>
    </rdf:RDF>
  </metadata>
  <g
     inkscape:label="Layer 1"
     inkscape:groupmode="layer"
     id="layer1">
    <rect
       style="fill:#e6e6e6;fill-opacity:1;stroke-width:0.264583"
       id="rect12"
       width="20.319998"
       height="128.49985"
       x="3.0125243e-06"
       y="0"
       ry="0" />
    <g
       aria-label="chance"
       id="text1655"
       style="font-size:3.175px;line-height:1.25;font-family:sans-serif;stroke-width:0.264583">
      <path
         d="M 6.161017,5.0891981 Q 6.0152895,5.1589613 5.8835146,5.1977186 5.75329,5.2364759 5.6060121,5.2364759 q -0.1875854,0 -0.344165,-0.05426 Q 5.1052675,5.1264051 4.9936464,5.0147841 4.880475,4.903163 4.8184633,4.7326307 4.7564516,4.5620985 4.7564516,4.3342054 q 0,-0.4247802 0.2325439,-0.6666259 0.2340943,-0.2418457 0.6170166,-0.2418457 0.1488282,0 0.2914551,0.041858 0.1441773,0.041858 0.2635498,0.1023193 V 3.8939223 H 6.1455141 Q 6.0121889,3.7900526 5.8695619,3.7342421 5.7284853,3.6784315 5.5936098,3.6784315 q -0.2480469,0 -0.3922241,0.1674317 -0.142627,0.1658813 -0.142627,0.4883422 0,0.3131592 0.1395264,0.4821412 0.1410767,0.1674316 0.3953247,0.1674316 0.088367,0 0.179834,-0.023254 0.091467,-0.023254 0.164331,-0.060461 0.063562,-0.032556 0.1193726,-0.068213 0.05581,-0.037207 0.088367,-0.063562 h 0.015503 z"
         style="font-size:3.175px;stroke-width:0.264583"
         id="path1748" />
      <path
         d="M 7.9826112,5.1977186 H 7.6911561 V 4.2117323 q 0,-0.1193725 -0.013953,-0.2232422 -0.013953,-0.1054199 -0.05116,-0.164331 -0.038757,-0.065112 -0.1116211,-0.096118 -0.072864,-0.032556 -0.1891357,-0.032556 -0.1193726,0 -0.2495972,0.058911 Q 6.9454652,3.813307 6.8260926,3.9047743 V 5.1977186 H 6.5346376 V 2.7854628 h 0.291455 V 3.6582777 Q 6.9625184,3.5451063 7.108246,3.4815443 q 0.1457275,-0.063562 0.2992065,-0.063562 0.280603,0 0.4278808,0.1689819 0.1472779,0.168982 0.1472779,0.486792 z"
         style="font-size:3.175px;stroke-width:0.264583"
         id="path1750" />
      <path
         d="M 9.8894713,5.1977186 H 9.5995665 V 5.0132338 q -0.038757,0.026355 -0.1054199,0.074414 -0.065112,0.046509 -0.127124,0.074414 -0.072864,0.035657 -0.1674316,0.058911 -0.094568,0.024805 -0.2216919,0.024805 -0.2340943,0 -0.396875,-0.1550293 -0.1627808,-0.1550293 -0.1627808,-0.3953247 0,-0.1968872 0.083716,-0.31781 0.085266,-0.1224732 0.2418457,-0.1922364 0.1581299,-0.069763 0.3798218,-0.094568 0.2216919,-0.024805 0.4759399,-0.037207 v -0.044958 q 0,-0.099219 -0.035657,-0.164331 Q 9.5298037,3.7792014 9.4646907,3.741994 9.4026787,3.706337 9.3158626,3.693935 9.2290466,3.681533 9.1344784,3.681533 9.0197567,3.681533 8.87868,3.712539 8.7376034,3.741995 8.5872249,3.799355 H 8.5717219 V 3.503249 q 0.085266,-0.023254 0.2464966,-0.05116 0.1612305,-0.027905 0.31781,-0.027905 0.1829346,0 0.3178101,0.031006 0.1364258,0.029456 0.2356445,0.1023194 0.097669,0.071314 0.1488281,0.1844848 0.05116,0.1131714 0.05116,0.2806031 z M 9.5995665,4.7713881 V 4.289247 Q 9.4662413,4.296997 9.2848571,4.312501 9.1050231,4.328004 8.9996032,4.357459 8.8740294,4.393116 8.7965148,4.4690801 q -0.077515,0.074414 -0.077515,0.206189 0,0.1488281 0.089917,0.2247925 0.089917,0.074414 0.2744019,0.074414 0.153479,0 0.280603,-0.058911 0.127124,-0.060461 0.2356448,-0.1441765 z"
         style="font-size:3.175px;stroke-width:0.264583"
         id="path1752" />
      <path
         d="M 11.898651,5.1977186 H 11.607196 V 4.2117323 q 0,-0.1193725 -0.01395,-0.2232422 -0.01395,-0.1054199 -0.05116,-0.164331 -0.03876,-0.065112 -0.111621,-0.096118 -0.07286,-0.032556 -0.189136,-0.032556 -0.119373,0 -0.249597,0.058911 -0.130225,0.058911 -0.249598,0.1503784 V 5.1977186 H 10.450677 V 3.4660414 h 0.291455 v 0.1922363 q 0.136426,-0.1131714 0.282154,-0.1767334 0.145727,-0.063562 0.299206,-0.063562 0.280603,0 0.427881,0.1689819 0.147278,0.168982 0.147278,0.486792 z"
         style="font-size:3.175px;stroke-width:0.264583"
         id="path1754" />
      <path
         d="m 13.740399,5.0891981 q -0.145728,0.069763 -0.277502,0.1085205 -0.130225,0.038757 -0.277503,0.038757 -0.187585,0 -0.344165,-0.05426 -0.15658,-0.055811 -0.268201,-0.1674316 -0.113171,-0.1116211 -0.175183,-0.2821534 -0.06201,-0.1705322 -0.06201,-0.3984253 0,-0.4247802 0.232543,-0.6666259 0.234095,-0.2418457 0.617017,-0.2418457 0.148828,0 0.291455,0.041858 0.144177,0.041858 0.26355,0.1023193 v 0.3240113 h -0.0155 q -0.133325,-0.1038697 -0.275952,-0.1596802 -0.141077,-0.055811 -0.275952,-0.055811 -0.248047,0 -0.392224,0.1674317 -0.142627,0.1658813 -0.142627,0.4883422 0,0.3131592 0.139526,0.4821412 0.141077,0.1674316 0.395325,0.1674316 0.08837,0 0.179834,-0.023254 0.09147,-0.023254 0.164331,-0.060461 0.06356,-0.032556 0.119372,-0.068213 0.05581,-0.037207 0.08837,-0.063562 h 0.0155 z"
         style="font-size:3.175px;stroke-width:0.264583"
         id="path1756" />
      <path
         d="m 15.563543,4.3621107 h -1.275891 q 0,0.1596802 0.04806,0.2790528 0.04806,0.1178222 0.131775,0.1937866 0.08062,0.074414 0.190686,0.1116211 0.111621,0.037207 0.244946,0.037207 0.176734,0 0.355018,-0.069763 0.179834,-0.071313 0.255798,-0.1395264 h 0.0155 v 0.3178101 q -0.147278,0.062012 -0.300757,0.1038696 -0.153479,0.041858 -0.322461,0.041858 -0.430981,0 -0.672827,-0.2325439 -0.241846,-0.2340942 -0.241846,-0.6635254 0,-0.4247803 0.230994,-0.6743774 0.232544,-0.2495972 0.610815,-0.2495972 0.350367,0 0.539502,0.2046387 0.190686,0.2046387 0.190686,0.5813598 z M 15.27984,4.1388685 q -0.0016,-0.2294433 -0.116272,-0.355017 -0.113172,-0.1255738 -0.345716,-0.1255738 -0.234094,0 -0.37362,0.1379761 -0.137976,0.1379761 -0.15658,0.3426147 z"
         style="font-size:3.175px;stroke-width:0.264583"
         id="path1758" />
    </g>
    <g
       aria-label="one"
       id="text1659"
       style="font-size:2.11667px;line-height:1.25;font-family:sans-serif;stroke-width:0.264583">
      <path
         d="m 4.3095004,32.125477 q 0,0.282153 -0.1446942,0.445451 -0.1446943,0.163298 -0.3875739,0.163298 -0.2449466,0 -0.3896409,-0.163298 -0.1436607,-0.163298 -0.1436607,-0.445451 0,-0.282154 0.1436607,-0.445452 0.1446943,-0.164331 0.3896409,-0.164331 0.2428796,0 0.3875739,0.164331 0.1446942,0.163298 0.1446942,0.445452 z m -0.2005049,0 q 0,-0.224276 -0.08785,-0.332797 -0.08785,-0.109554 -0.2439132,-0.109554 -0.1581301,0 -0.2459802,0.109554 -0.086817,0.108521 -0.086817,0.332797 0,0.217041 0.08785,0.329696 0.08785,0.111621 0.2449466,0.111621 0.1550296,0 0.2428796,-0.110588 0.088884,-0.111621 0.088884,-0.330729 z"
         style="stroke-width:0.264583"
         id="path1770" />
      <path
         d="M 5.5755749,32.702187 H 5.3812713 v -0.657326 q 0,-0.07958 -0.0093,-0.148828 -0.0093,-0.07028 -0.034107,-0.109554 -0.025838,-0.04341 -0.074414,-0.06408 -0.048576,-0.0217 -0.1260907,-0.0217 -0.079582,0 -0.1663983,0.03927 -0.086817,0.03927 -0.1663984,0.100252 v 0.861965 H 4.6102577 v -1.154454 h 0.1943037 v 0.128158 q 0.090951,-0.07545 0.1881025,-0.117822 0.097152,-0.04237 0.1994713,-0.04237 0.187069,0 0.2852544,0.112655 0.098185,0.112654 0.098185,0.324528 z"
         style="stroke-width:0.264583"
         id="path1772" />
      <path
         d="M 6.9160635,32.145114 H 6.0654681 q 0,0.106453 0.032039,0.186035 0.032039,0.07855 0.08785,0.129192 0.053744,0.04961 0.1271242,0.07441 0.074414,0.0248 0.1632978,0.0248 0.1178225,0 0.2366784,-0.04651 0.1198895,-0.04754 0.1705325,-0.09302 h 0.010335 v 0.211874 q -0.098185,0.04134 -0.2005048,0.06925 -0.1023195,0.02791 -0.2149743,0.02791 -0.2873214,0 -0.4485521,-0.155029 -0.1612308,-0.156063 -0.1612308,-0.442351 0,-0.283187 0.153996,-0.449586 0.1550296,-0.166398 0.4072109,-0.166398 0.2335779,0 0.3596686,0.136426 0.1271242,0.136426 0.1271242,0.387574 z m -0.189136,-0.148829 q -0.00103,-0.152962 -0.077515,-0.236678 -0.075448,-0.08372 -0.2304773,-0.08372 -0.156063,0 -0.2490807,0.09198 -0.091984,0.09198 -0.1043866,0.22841 z"
         style="stroke-width:0.264583"
         id="path1774" />
    </g>
    <g
       aria-label="two"
       id="text1663"
       style="font-size:2.11667px;line-height:1.25;font-family:sans-serif;stroke-width:0.264583">
      <path
         d="m 3.9679186,60.951056 q -0.054777,0.01447 -0.1198895,0.02377 -0.064079,0.0093 -0.1147218,0.0093 -0.1767337,0 -0.2687179,-0.09509 -0.091984,-0.09508 -0.091984,-0.304891 V 59.970236 H 3.2413469 v -0.163298 h 0.1312583 v -0.331763 h 0.1943037 v 0.331763 h 0.4010097 v 0.163298 H 3.5669089 v 0.526067 q 0,0.09095 0.00413,0.142627 0.00413,0.05064 0.028939,0.09508 0.022738,0.04134 0.062012,0.06098 0.040308,0.0186 0.1219566,0.0186 0.047542,0 0.099219,-0.01344 0.051676,-0.01447 0.074414,-0.02377 h 0.010335 z"
         style="stroke-width:0.264583"
         id="path1777" />
      <path
         d="M 5.65464,59.806938 5.3538827,60.961391 H 5.1740484 L 4.8774252,60.071522 4.5828691,60.961391 H 4.4040684 L 4.1002105,59.806938 h 0.2025719 l 0.2118737,0.894004 0.288355,-0.894004 h 0.1601971 l 0.2955897,0.894004 0.2005048,-0.894004 z"
         style="stroke-width:0.264583"
         id="path1779" />
      <path
         d="m 6.9186475,60.384682 q 0,0.282153 -0.1446943,0.445451 -0.1446942,0.163298 -0.3875738,0.163298 -0.2449467,0 -0.3896409,-0.163298 -0.1436607,-0.163298 -0.1436607,-0.445451 0,-0.282154 0.1436607,-0.445452 0.1446942,-0.164331 0.3896409,-0.164331 0.2428796,0 0.3875738,0.164331 0.1446943,0.163298 0.1446943,0.445452 z m -0.2005049,0 q 0,-0.224276 -0.08785,-0.332797 -0.08785,-0.109554 -0.2439131,-0.109554 -0.1581301,0 -0.2459802,0.109554 -0.086817,0.108521 -0.086817,0.332797 0,0.217041 0.08785,0.329696 0.08785,0.111621 0.2449467,0.111621 0.1550295,0 0.2428796,-0.110588 0.088884,-0.111621 0.088884,-0.330729 z"
         style="stroke-width:0.264583"
         id="path1781" />
    </g>
    <g
       aria-label="three"
       id="text1667"
       style="font-size:2.11667px;line-height:1.25;font-family:sans-serif;stroke-width:0.264583">
      <path
         d="m 3.0909684,89.123957 q -0.054777,0.01447 -0.1198895,0.02377 -0.064079,0.0093 -0.1147219,0.0093 -0.1767336,0 -0.2687178,-0.09509 -0.091984,-0.09508 -0.091984,-0.304891 V 88.143137 H 2.3643966 V 87.979839 H 2.495655 v -0.331763 h 0.1943037 v 0.331763 h 0.4010097 v 0.163298 H 2.6899587 v 0.526067 q 0,0.09095 0.00413,0.142627 0.00413,0.05064 0.028939,0.09508 0.022738,0.04134 0.062012,0.06098 0.040308,0.0186 0.1219566,0.0186 0.047542,0 0.099219,-0.01344 0.051677,-0.01447 0.074414,-0.02377 h 0.010335 z"
         style="stroke-width:0.264583"
         id="path1784" />
      <path
         d="M 4.290897,89.134293 H 4.0965933 v -0.657326 q 0,-0.07958 -0.0093,-0.148828 -0.0093,-0.07028 -0.034107,-0.109554 -0.025838,-0.04341 -0.074414,-0.06408 -0.048576,-0.0217 -0.1260907,-0.0217 -0.079582,0 -0.1663983,0.03927 -0.086817,0.03927 -0.1663984,0.100252 v 0.861965 H 3.3255797 V 87.52612 h 0.1943037 v 0.581877 q 0.090951,-0.07545 0.1881025,-0.117822 0.097152,-0.04237 0.1994714,-0.04237 0.1870689,0 0.2852543,0.112655 0.098185,0.112654 0.098185,0.324528 z"
         style="stroke-width:0.264583"
         id="path1786" />
      <path
         d="M 5.3854053,88.191713 H 5.37507 q -0.043408,-0.01033 -0.08475,-0.01447 -0.040308,-0.0052 -0.096118,-0.0052 -0.089917,0 -0.1736331,0.04031 -0.083716,0.03927 -0.1612307,0.102319 v 0.81959 H 4.6650347 v -1.154454 h 0.1943037 v 0.170533 q 0.1157554,-0.09302 0.2036055,-0.131259 0.088884,-0.03927 0.1808678,-0.03927 0.050643,0 0.073381,0.0031 0.022738,0.0021 0.068213,0.0093 z"
         style="stroke-width:0.264583"
         id="path1788" />
      <path
         d="M 6.534691,88.57722 H 5.6840957 q 0,0.106453 0.032039,0.186035 0.032039,0.07855 0.08785,0.129192 0.053744,0.04961 0.1271242,0.07441 0.074414,0.0248 0.1632978,0.0248 0.1178224,0 0.2366784,-0.04651 0.1198895,-0.04754 0.1705325,-0.09302 h 0.010335 v 0.211874 q -0.098185,0.04134 -0.2005049,0.06925 -0.1023195,0.02791 -0.2149743,0.02791 -0.2873214,0 -0.4485521,-0.155029 -0.1612307,-0.156063 -0.1612307,-0.442351 0,-0.283187 0.153996,-0.449586 0.1550295,-0.166398 0.4072109,-0.166398 0.2335778,0 0.3596685,0.136426 0.127125,0.136429 0.127125,0.387577 z M 6.345555,88.428391 q -0.00103,-0.152962 -0.077515,-0.236678 -0.075448,-0.08372 -0.2304772,-0.08372 -0.1560631,0 -0.2490808,0.09198 -0.091984,0.09198 -0.1043865,0.22841 z"
         style="stroke-width:0.264583"
         id="path1790" />
      <path
         d="M 7.7955977,88.57722 H 6.9450024 q 0,0.106453 0.032039,0.186035 0.032039,0.07855 0.08785,0.129192 0.053743,0.04961 0.1271242,0.07441 0.074414,0.0248 0.1632978,0.0248 0.1178224,0 0.2366784,-0.04651 0.1198895,-0.04754 0.1705325,-0.09302 h 0.010335 v 0.211874 q -0.098185,0.04134 -0.2005049,0.06925 -0.1023195,0.02791 -0.2149743,0.02791 -0.2873214,0 -0.4485521,-0.155029 -0.1612307,-0.156063 -0.1612307,-0.442351 0,-0.283187 0.153996,-0.449586 Q 7.0566236,87.9478 7.308805,87.9478 q 0.2335778,0 0.3596685,0.136426 0.1271242,0.136426 0.1271242,0.387574 z m -0.189136,-0.148829 q -0.00103,-0.152962 -0.077515,-0.236678 -0.075448,-0.08372 -0.2304772,-0.08372 -0.1560631,0 -0.2490808,0.09198 -0.091984,0.09198 -0.1043865,0.22841 z"
         style="stroke-width:0.264583"
         id="path1792" />
    </g>
    <g
       aria-label="three+1"
       id="text1671"
       style="font-size:2.11667px;line-height:1.25;font-family:sans-serif;stroke-width:0.264583">
      <path
         d="m 1.6130202,117.2333 q -0.054777,0.0145 -0.1198895,0.0238 -0.064079,0.009 -0.1147219,0.009 -0.1767336,0 -0.2687178,-0.0951 -0.091984,-0.0951 -0.091984,-0.30489 v -0.61392 H 0.88644845 v -0.1633 H 1.0177068 v -0.33176 h 0.1943037 v 0.33176 h 0.4010097 v 0.1633 H 1.2120105 v 0.52607 q 0,0.091 0.00413,0.14263 0.00413,0.0506 0.028939,0.0951 0.022738,0.0413 0.062012,0.061 0.040308,0.0186 0.1219566,0.0186 0.047542,0 0.099219,-0.0134 0.051677,-0.0145 0.074414,-0.0238 h 0.010335 z"
         style="stroke-width:0.264583"
         id="path1795" />
      <path
         d="M 2.8129488,117.24364 H 2.6186451 v -0.65733 q 0,-0.0796 -0.0093,-0.14883 -0.0093,-0.0703 -0.034107,-0.10955 -0.025838,-0.0434 -0.074414,-0.0641 -0.048576,-0.0217 -0.1260906,-0.0217 -0.079582,0 -0.1663984,0.0393 -0.086816,0.0393 -0.1663984,0.10025 v 0.86197 H 1.8476315 v -1.60818 h 0.1943037 v 0.58188 q 0.090951,-0.0754 0.1881025,-0.11782 0.097152,-0.0424 0.1994714,-0.0424 0.1870689,0 0.2852543,0.11266 0.098185,0.11265 0.098185,0.32453 z"
         style="stroke-width:0.264583"
         id="path1797" />
      <path
         d="m 3.9074571,116.30106 h -0.010335 q -0.043408,-0.0103 -0.08475,-0.0145 -0.040308,-0.005 -0.096118,-0.005 -0.089917,0 -0.173633,0.0403 -0.083716,0.0393 -0.1612308,0.10232 v 0.81959 H 3.1870866 v -1.15446 h 0.1943036 v 0.17054 q 0.1157554,-0.093 0.2036055,-0.13126 0.088884,-0.0393 0.1808678,-0.0393 0.050643,0 0.073381,0.003 0.022738,0.002 0.068213,0.009 z"
         style="stroke-width:0.264583"
         id="path1799" />
      <path
         d="M 5.0567428,116.68656 H 4.2061475 q 0,0.10646 0.032039,0.18604 0.032039,0.0785 0.08785,0.12919 0.053743,0.0496 0.1271242,0.0744 0.074414,0.0248 0.1632978,0.0248 0.1178224,0 0.2366784,-0.0465 0.1198895,-0.0475 0.1705325,-0.093 h 0.010335 v 0.21188 q -0.098185,0.0413 -0.2005049,0.0692 -0.1023195,0.0279 -0.2149743,0.0279 -0.2873214,0 -0.4485521,-0.15503 -0.1612307,-0.15606 -0.1612307,-0.44235 0,-0.28319 0.153996,-0.44959 0.1550295,-0.1664 0.4072109,-0.1664 0.2335778,0 0.3596685,0.13643 0.1271242,0.13643 0.1271242,0.38757 z m -0.189136,-0.14882 q -0.00103,-0.15297 -0.077515,-0.23668 -0.075448,-0.0837 -0.2304772,-0.0837 -0.1560631,0 -0.2490808,0.092 -0.091984,0.092 -0.1043865,0.22841 z"
         style="stroke-width:0.264583"
         id="path1801" />
      <path
         d="M 6.3176495,116.68656 H 5.4670542 q 0,0.10646 0.032039,0.18604 0.032039,0.0785 0.08785,0.12919 0.053744,0.0496 0.1271242,0.0744 0.074414,0.0248 0.1632978,0.0248 0.1178224,0 0.2366784,-0.0465 0.1198895,-0.0475 0.1705325,-0.093 h 0.010335 v 0.21188 q -0.098185,0.0413 -0.2005049,0.0692 -0.1023195,0.0279 -0.2149743,0.0279 -0.2873214,0 -0.4485521,-0.15503 -0.1612307,-0.15606 -0.1612307,-0.44235 0,-0.28319 0.153996,-0.44959 0.1550295,-0.1664 0.4072109,-0.1664 0.2335778,0 0.3596685,0.13643 0.1271242,0.13643 0.1271242,0.38757 z m -0.189136,-0.14882 q -0.00103,-0.15297 -0.077515,-0.23668 -0.075448,-0.0837 -0.2304772,-0.0837 -0.1560631,0 -0.2490808,0.092 -0.091984,0.092 -0.1043865,0.22841 z"
         style="stroke-width:0.264583"
         id="path1803" />
      <path
         d="m 7.9361577,116.65246 h -0.563274 v 0.56327 h -0.171566 v -0.56327 h -0.563274 v -0.16537 h 0.563274 v -0.56327 h 0.171566 v 0.56327 h 0.563274 z"
         style="stroke-width:0.264583"
         id="path1805" />
      <path
         d="M 9.273546,117.24364 H 8.4405206 v -0.1571 H 8.760915 v -1.03146 H 8.4405206 v -0.14056 q 0.065112,0 0.1395266,-0.0103 0.074414,-0.0114 0.1126548,-0.032 0.047542,-0.0258 0.074414,-0.0651 0.027905,-0.0403 0.032039,-0.10749 h 0.1601972 v 1.387 H 9.273546 Z"
         style="stroke-width:0.264583"
         id="path1807" />
    </g>
    <g
       aria-label="gate"
       id="text1659-7"
       style="font-size:2.11667px;line-height:1.25;font-family:sans-serif;stroke-width:0.264583">
      <path
         d="m 4.261958,12.492827 q 0,0.293523 -0.1333254,0.430982 -0.1333254,0.13746 -0.4103115,0.13746 -0.091984,0 -0.1798343,-0.01344 -0.086816,-0.0124 -0.171566,-0.03617 v -0.198438 h 0.010335 q 0.047542,0.0186 0.1508954,0.04548 0.1033531,0.02791 0.2067061,0.02791 0.099219,0 0.1643313,-0.02377 0.065112,-0.02377 0.101286,-0.06615 0.036173,-0.04031 0.051676,-0.09715 0.015503,-0.05684 0.015503,-0.127124 v -0.10542 q -0.08785,0.07028 -0.1684654,0.10542 -0.079582,0.03411 -0.2036055,0.03411 -0.206706,0 -0.3286626,-0.148828 -0.120923,-0.149862 -0.120923,-0.42168 0,-0.148829 0.041341,-0.256316 0.042375,-0.10852 0.1147219,-0.187069 0.067179,-0.07338 0.1632977,-0.113688 0.096118,-0.04134 0.1912031,-0.04134 0.1002525,0 0.1674319,0.02067 0.068213,0.01964 0.1436607,0.06098 l 0.012402,-0.04961 H 4.261958 Z M 4.0676543,12.306792 v -0.62942 q -0.077515,-0.03514 -0.1446942,-0.04961 -0.066146,-0.0155 -0.1322919,-0.0155 -0.1601972,0 -0.2521814,0.107487 -0.091984,0.107488 -0.091984,0.312127 0,0.194303 0.068213,0.294556 0.068213,0.100252 0.2263432,0.100252 0.084749,0 0.1694989,-0.03204 0.085783,-0.03307 0.1570966,-0.08785 z"
         style="stroke-width:0.264583"
         id="path1761" />
      <path
         d="M 5.5414684,12.624085 H 5.3481983 v -0.12299 q -0.025838,0.01757 -0.07028,0.04961 -0.043408,0.03101 -0.084749,0.04961 -0.048576,0.02377 -0.1116213,0.03927 -0.063045,0.01654 -0.1477948,0.01654 -0.1560631,0 -0.2645838,-0.103353 -0.1085206,-0.103353 -0.1085206,-0.26355 0,-0.131259 0.055811,-0.211874 0.056844,-0.08165 0.1612307,-0.128158 0.1054201,-0.04651 0.2532149,-0.06304 0.1477948,-0.01654 0.3172938,-0.02481 v -0.02997 q 0,-0.06615 -0.023771,-0.109554 -0.022738,-0.04341 -0.066146,-0.06821 -0.041341,-0.02377 -0.099219,-0.03204 -0.057878,-0.0083 -0.1209231,-0.0083 -0.076481,0 -0.1705325,0.02067 -0.094051,0.01964 -0.1943036,0.05788 H 4.662969 v -0.197404 q 0.056844,-0.0155 0.1643313,-0.03411 0.1074871,-0.0186 0.2118737,-0.0186 0.1219565,0 0.2118737,0.02067 0.090951,0.01964 0.1570965,0.06821 0.065112,0.04754 0.099219,0.122991 0.034107,0.07545 0.034107,0.187069 z m -0.1932701,-0.28422 v -0.321428 q -0.088884,0.0052 -0.2098066,0.0155 -0.1198895,0.01034 -0.1901696,0.02997 -0.083716,0.02377 -0.1353925,0.07441 -0.051677,0.04961 -0.051677,0.13746 0,0.09922 0.059945,0.149862 0.059945,0.04961 0.1829348,0.04961 0.1023195,0 0.187069,-0.03927 0.08475,-0.04031 0.1570966,-0.09612 z"
         style="stroke-width:0.264583"
         id="path1763" />
      <path
         d="m 6.515054,12.61375 q -0.054777,0.01447 -0.1198895,0.02377 -0.064079,0.0093 -0.1147219,0.0093 -0.1767336,0 -0.2687178,-0.09508 -0.091984,-0.09508 -0.091984,-0.304891 V 11.63293 H 5.7884823 v -0.163298 h 0.1312583 v -0.331763 h 0.1943037 v 0.331763 H 6.515054 V 11.63293 H 6.1140443 v 0.526067 q 0,0.09095 0.00413,0.142627 0.00413,0.05064 0.028939,0.09508 0.022738,0.04134 0.062012,0.06098 0.040308,0.0186 0.1219565,0.0186 0.047542,0 0.099219,-0.01344 0.051677,-0.01447 0.074414,-0.02377 h 0.010335 z"
         style="stroke-width:0.264583"
         id="path1765" />
      <path
         d="M 7.716016,12.067013 H 6.8654206 q 0,0.106453 0.032039,0.186035 0.032039,0.07855 0.08785,0.129191 0.053744,0.04961 0.1271242,0.07442 0.074414,0.0248 0.1632978,0.0248 0.1178225,0 0.2366784,-0.04651 0.1198895,-0.04754 0.1705325,-0.09302 h 0.010335 v 0.211873 q -0.098185,0.04134 -0.2005048,0.06925 -0.1023195,0.02791 -0.2149743,0.02791 -0.2873214,0 -0.4485521,-0.155029 -0.1612308,-0.156063 -0.1612308,-0.442351 0,-0.283188 0.153996,-0.449586 0.1550296,-0.166398 0.407211,-0.166398 0.2335778,0 0.3596685,0.136426 0.1271242,0.136426 0.1271242,0.387574 z M 7.52688,11.918184 q -0.00103,-0.152962 -0.077515,-0.236678 -0.075448,-0.08372 -0.2304772,-0.08372 -0.1560631,0 -0.2490808,0.09198 -0.091984,0.09198 -0.1043866,0.22841 z"
         style="stroke-width:0.264583"
         id="path1767" />
    </g>
    <g
       aria-label="by pat"
       id="text1742"
       style="font-size:2.11667px;line-height:1.25;font-family:sans-serif;stroke-width:0.264583">
      <path
         d="m 2.8460216,124.4894 q 0,0.14469 -0.041341,0.26045 -0.040308,0.11575 -0.1095542,0.1943 -0.073381,0.0817 -0.1612307,0.12299 -0.08785,0.0403 -0.1932702,0.0403 -0.098185,0 -0.171566,-0.0238 -0.073381,-0.0227 -0.1446942,-0.062 l -0.012402,0.0537 H 1.8300614 v -1.60817 h 0.1943037 v 0.57464 q 0.081649,-0.0672 0.1736331,-0.10956 0.091984,-0.0434 0.206706,-0.0434 0.204639,0 0.3224614,0.15709 0.118856,0.1571 0.118856,0.44339 z m -0.2005048,0.005 q 0,-0.2067 -0.068213,-0.31315 -0.068213,-0.10749 -0.220142,-0.10749 -0.08475,0 -0.171566,0.0372 -0.086817,0.0362 -0.1612307,0.094 v 0.66146 q 0.082682,0.0372 0.1415936,0.0517 0.059945,0.0145 0.1353925,0.0145 0.1612307,0 0.2521814,-0.10542 0.091984,-0.10645 0.091984,-0.3328 z"
         style="stroke-width:0.264583"
         id="path1810" />
      <path
         d="m 4.1420685,123.92096 -0.6738617,1.58026 H 3.2604672 l 0.2149743,-0.48162 -0.459921,-1.09864 h 0.2108402 l 0.3545009,0.85576 0.3576014,-0.85576 z"
         style="stroke-width:0.264583"
         id="path1812" />
      <path
         d="m 6.1564188,124.48423 q 0,0.14056 -0.040308,0.25735 -0.040308,0.11575 -0.1136883,0.19637 -0.068213,0.0765 -0.1612308,0.11886 -0.091984,0.0413 -0.1953372,0.0413 -0.089917,0 -0.1632977,-0.0196 -0.072347,-0.0196 -0.1477949,-0.061 v 0.48369 H 5.1404586 v -1.58026 h 0.1943036 v 0.12092 q 0.077515,-0.0651 0.1736331,-0.10852 0.097152,-0.0444 0.2067061,-0.0444 0.2087731,0 0.3245284,0.15813 0.116789,0.15709 0.116789,0.43718 z m -0.2005049,0.005 q 0,-0.20878 -0.071314,-0.31213 -0.071314,-0.10335 -0.2191084,-0.10335 -0.083716,0 -0.1684654,0.0362 -0.08475,0.0362 -0.1622643,0.0951 v 0.65422 q 0.082682,0.0372 0.1415937,0.0506 0.059945,0.0134 0.1353924,0.0134 0.1622643,0 0.2532149,-0.10955 0.090951,-0.10956 0.090951,-0.32453 z"
         style="stroke-width:0.264583"
         id="path1814" />
      <path
         d="M 7.3563475,125.07541 H 7.1630774 v -0.12299 q -0.025838,0.0176 -0.07028,0.0496 -0.043408,0.031 -0.08475,0.0496 -0.048576,0.0238 -0.1116212,0.0393 -0.063045,0.0165 -0.1477949,0.0165 -0.156063,0 -0.2645837,-0.10335 -0.1085207,-0.10336 -0.1085207,-0.26355 0,-0.13126 0.055811,-0.21188 0.056844,-0.0817 0.1612307,-0.12816 0.1054201,-0.0465 0.2532149,-0.063 0.1477948,-0.0165 0.3172938,-0.0248 v -0.03 q 0,-0.0661 -0.023771,-0.10955 -0.022738,-0.0434 -0.066146,-0.0682 -0.041341,-0.0238 -0.099219,-0.032 -0.057878,-0.008 -0.120923,-0.008 -0.076481,0 -0.1705325,0.0207 -0.094051,0.0196 -0.1943037,0.0579 h -0.010335 v -0.1974 q 0.056844,-0.0155 0.1643313,-0.0341 0.1074872,-0.0186 0.2118737,-0.0186 0.1219566,0 0.2118737,0.0207 0.090951,0.0196 0.1570966,0.0682 0.065112,0.0476 0.099219,0.12299 0.034107,0.0754 0.034107,0.18707 z m -0.1932701,-0.28422 v -0.32143 q -0.088884,0.005 -0.2098067,0.0155 -0.1198895,0.0103 -0.1901695,0.03 -0.083716,0.0238 -0.1353925,0.0744 -0.051677,0.0496 -0.051677,0.13746 0,0.0992 0.059945,0.14986 0.059945,0.0496 0.1829349,0.0496 0.1023195,0 0.187069,-0.0393 0.084749,-0.0403 0.1570966,-0.0961 z"
         style="stroke-width:0.264583"
         id="path1816" />
      <path
         d="m 8.3299329,125.06507 q -0.054777,0.0145 -0.1198895,0.0238 -0.064079,0.009 -0.1147218,0.009 -0.1767337,0 -0.2687179,-0.0951 -0.091984,-0.0951 -0.091984,-0.30489 v -0.61392 H 7.6033612 v -0.16329 h 0.1312583 v -0.33177 h 0.1943037 v 0.33177 h 0.4010097 v 0.16329 H 7.9289232 v 0.52607 q 0,0.0909 0.00413,0.14263 0.00413,0.0506 0.028939,0.0951 0.022738,0.0413 0.062012,0.061 0.040308,0.0186 0.1219566,0.0186 0.047542,0 0.099219,-0.0134 0.051677,-0.0145 0.074414,-0.0238 h 0.010335 z"
         style="stroke-width:0.264583"
         id="path1818" />
    </g>
    <g
       aria-label=":)"
       id="text1746"
       style="font-size:2.11667px;line-height:1.25;font-family:sans-serif;stroke-width:0.264583">
      <path
         d="M 14.798163,124.21551 H 14.55115 v -0.29455 h 0.247013 z m 0,0.8599 H 14.55115 v -0.29456 h 0.247013 z"
         style="stroke-width:0.264583"
         id="path1821" />
      <path
         d="m 15.928845,124.48423 q 0,0.31109 -0.101285,0.55914 -0.101286,0.24805 -0.284221,0.45785 H 15.30666 v -0.0103 q 0.07958,-0.0713 0.159164,-0.17467 0.08061,-0.10232 0.141594,-0.22944 0.06408,-0.13229 0.101286,-0.27906 0.03824,-0.14676 0.03824,-0.32349 0,-0.1695 -0.03824,-0.32246 -0.03824,-0.15296 -0.101286,-0.28009 -0.06511,-0.13126 -0.141594,-0.22944 -0.07545,-0.0992 -0.159164,-0.17467 v -0.0103 h 0.236679 q 0.182935,0.2098 0.284221,0.45785 0.101285,0.24805 0.101285,0.55914 z"
         style="stroke-width:0.264583"
         id="path1823" />
    </g>
  </g>
  <g
     inkscape:groupmode="layer"
     id="layer2"
     inkscape:label="components"
     style="display:inline">
    <circle
       style="fill:#ff0000;fill-opacity:1;stroke-width:0.264583"
       id="path1581"
       cx="5.0799971"
       cy="20.0781"
       r="2.0078101"
       inkscape:label="input1" />
    <circle
       style="fill:#00ff00;fill-opacity:1;stroke-width:0.264583"
       id="path1581-2"
       cx="15.239998"
       cy="20.0781"
       r="2.0078101"
       inkscape:label="cv_1" />
    <circle
       style="fill:#0000ff;fill-opacity:1;stroke-width:0.264583"
       id="path1581-22"
       cx="15.239998"
       cy="32.124962"
       r="2.0078101"
       inkscape:label="output1" />
    <circle
       style="fill:#ff0000;fill-opacity:1;stroke-width:0.264583"
       id="path1581-9"
       cx="5.0799971"
       cy="48.187443"
       r="2.0078101"
       inkscape:label="input2" />
    <circle
       style="fill:#00ff00;fill-opacity:1;stroke-width:0.264583"
       id="path1581-1"
       cx="15.239998"
       cy="48.187443"
       r="2.0078101"
       inkscape:label="cv_2" />
    <circle
       style="fill:#0000ff;fill-opacity:1;stroke-width:0.264583"
       id="path1581-225"
       cx="15.239998"
       cy="60.234303"
       r="2.0078101"
       inkscape:label="output2" />
    <circle
       style="fill:#ff0000;fill-opacity:1;stroke-width:0.264583"
       id="path1581-7"
       cx="5.0799971"
       cy="76.296783"
       r="2.0078101"
       inkscape:label="input3" />
    <circle
       style="fill:#00ff00;fill-opacity:1;stroke-width:0.264583"
       id="path1581-2-7"
       cx="15.239998"
       cy="76.296783"
       r="2.0078101"
       inkscape:label="cv_3" />
    <circle
       style="fill:#0000ff;fill-opacity:1;stroke-width:0.264583"
       id="path1581-22-9"
       cx="15.239998"
       cy="88.343643"
       r="2.0078101"
       inkscape:label="output3" />
    <circle
       style="fill:#ff0000;fill-opacity:1;stroke-width:0.264583"
       id="path1581-8"
       cx="5.0799971"
       cy="104.40612"
       r="2.0078101"
       inkscape:label="input4" />
    <circle
       style="fill:#00ff00;fill-opacity:1;stroke-width:0.264583"
       id="path1581-2-3"
       cx="15.239998"
       cy="104.40612"
       r="2.0078101"
       inkscape:label="cv_4" />
    <circle
       style="fill:#0000ff;fill-opacity:1;stroke-width:0.264583"
       id="path1581-22-3"
       cx="15.239998"
       cy="116.45298"
       r="2.0078101"
       inkscape:label="output4" />
    <circle
       style="fill:#00ff00;fill-opacity:1;stroke-width:0.264583"
       id="path1581-17"
       cx="15.239998"
       cy="12.04686"
       r="2.0078101"
       inkscape:label="gate" />
  </g>
</svg>
