<?xml version="1.0" encoding="UTF-8" standalone="no"?>
<svg
   xmlns:dc="http://purl.org/dc/elements/1.1/"
   xmlns:cc="http://creativecommons.org/ns#"
   xmlns:rdf="http://www.w3.org/1999/02/22-rdf-syntax-ns#"
   xmlns:svg="http://www.w3.org/2000/svg"
   xmlns="http://www.w3.org/2000/svg"
   xmlns:sodipodi="http://sodipodi.sourceforge.net/DTD/sodipodi-0.dtd"
   xmlns:inkscape="http://www.inkscape.org/namespaces/inkscape"
   width="40.639999mm"
   height="128.5mm"
   viewBox="0 0 40.639999 128.5"
   version="1.1"
   id="svg8"
   inkscape:version="1.0.1 (3bc2e813f5, 2020-09-07)"
   sodipodi:docname="holdme.svg">
  <defs
     id="defs2">
    <marker
       style="overflow:visible"
       id="DotS"
       refX="0.0"
       refY="0.0"
       orient="auto"
       inkscape:stockid="DotS"
       inkscape:isstock="true">
      <path
         transform="scale(0.2) translate(7.4, 1)"
         style="fill-rule:evenodd;stroke:#e8617a;stroke-width:1pt;stroke-opacity:1;fill:#e8617a;fill-opacity:1"
         d="M -2.5,-1.0 C -2.5,1.7600000 -4.7400000,4.0 -7.5,4.0 C -10.260000,4.0 -12.5,1.7600000 -12.5,-1.0 C -12.5,-3.7600000 -10.260000,-6.0 -7.5,-6.0 C -4.7400000,-6.0 -2.5,-3.7600000 -2.5,-1.0 z "
         id="path2688" />
    </marker>
    <marker
       style="overflow:visible"
       id="DotL"
       refX="0.0"
       refY="0.0"
       orient="auto"
       inkscape:stockid="DotL"
       inkscape:isstock="true">
      <path
         transform="scale(0.8) translate(7.4, 1)"
         style="fill-rule:evenodd;stroke:#e8617a;stroke-width:1pt;stroke-opacity:1;fill:#e8617a;fill-opacity:1"
         d="M -2.5,-1.0 C -2.5,1.7600000 -4.7400000,4.0 -7.5,4.0 C -10.260000,4.0 -12.5,1.7600000 -12.5,-1.0 C -12.5,-3.7600000 -10.260000,-6.0 -7.5,-6.0 C -4.7400000,-6.0 -2.5,-3.7600000 -2.5,-1.0 z "
         id="path2682" />
    </marker>
    <marker
       style="overflow:visible"
       id="EmptyDiamondLend"
       refX="0.0"
       refY="0.0"
       orient="auto"
       inkscape:stockid="EmptyDiamondLend"
       inkscape:isstock="true">
      <path
         transform="scale(0.8) translate(-7,0)"
         style="fill-rule:evenodd;fill:#e8617a;stroke:#e8617a;stroke-width:1pt;stroke-opacity:1;fill-opacity:1"
         d="M 0,-7.0710768 L -7.0710894,0 L 0,7.0710589 L 7.0710462,0 L 0,-7.0710768 z "
         id="path2745" />
    </marker>
  </defs>
  <sodipodi:namedview
     id="base"
     pagecolor="#ffffff"
     bordercolor="#666666"
     borderopacity="1.0"
     inkscape:pageopacity="0.0"
     inkscape:pageshadow="2"
     inkscape:zoom="1.6593825"
     inkscape:cx="-18.950466"
     inkscape:cy="223.97244"
     inkscape:document-units="mm"
     inkscape:current-layer="layer1"
     inkscape:document-rotation="0"
     showgrid="true"
     inkscape:snap-page="false"
     inkscape:window-width="1858"
     inkscape:window-height="1057"
     inkscape:window-x="-8"
     inkscape:window-y="-8"
     inkscape:window-maximized="1"
     inkscape:snap-center="true"
     inkscape:object-nodes="false"
     inkscape:snap-text-baseline="false">
    <inkscape:grid
       type="xygrid"
       id="grid833"
       units="mm"
       spacingx="2.5399999"
       spacingy="2.00781"
       empspacing="4"
       originx="20.319998"
       originy="64.250001"
       visible="true" />
  </sodipodi:namedview>
  <metadata
     id="metadata5">
    <rdf:RDF>
      <cc:Work
         rdf:about="">
        <dc:format>image/svg+xml</dc:format>
        <dc:type
           rdf:resource="http://purl.org/dc/dcmitype/StillImage" />
        <dc:title></dc:title>
      </cc:Work>
    </rdf:RDF>
  </metadata>
  <g
     inkscape:label="Layer 1"
     inkscape:groupmode="layer"
     id="layer1">
    <rect
       style="fill:#e6e6e6;fill-opacity:1"
       id="rect835"
       width="40.639996"
       height="128.49985"
       x="-1.2e-06"
       y="8.0999998e-05"
       rx="0.49999899"
       ry="0.49999899"
       inkscape:label="bg"
       sodipodi:insensitive="true" />
    <g
       aria-label="hold me"
       id="text840"
       style="font-style:normal;font-variant:normal;font-weight:normal;font-stretch:normal;font-size:4.23333px;line-height:1.25;font-family:'Berlin Sans FB';-inkscape-font-specification:'Berlin Sans FB';fill:#e8617a;fill-opacity:1;stroke:none;stroke-width:0.264583"
       inkscape:label="title">
      <path
         d="m 15.151325,9.4028127 q 0,0.076481 -0.04341,0.076481 -0.06408,0 -0.194303,-0.00207 -0.130224,-0.00207 -0.194303,-0.00207 -0.05168,0 -0.05168,-0.068213 0,-0.099219 0.0062,-0.299723 0.0083,-0.2005044 0.0083,-0.3017902 0,-0.095085 -0.0083,-0.2873207 -0.0062,-0.1943032 -0.0062,-0.2914548 0,-0.37207 -0.351399,-0.37207 -0.113688,0 -0.297656,0.113688 -0.19637,0.1219563 -0.19637,0.223242 v 1.227831 q 0,0.059945 -0.04341,0.059945 -0.06408,0 -0.192237,-0.00207 -0.128157,-0.00207 -0.192236,-0.00207 -0.04754,0 -0.04754,-0.05581 V 8.4209613 q 0,-0.2439125 -0.02687,-1.0376619 -0.0041,-0.2459796 -0.03514,-0.7276035 -0.0041,-0.024805 -0.0041,-0.033073 0,-0.03514 0.02481,-0.043408 0.03514,-0.012402 0.233577,-0.012402 0.04341,0 0.130225,-0.014469 0.08682,-0.016536 0.12609,-0.016536 0.02687,0 0.02687,0.039274 0,0.1943032 -0.01654,0.5849767 -0.01447,0.3886065 -0.01447,0.5829097 0,0.047542 0.01654,0.049609 0.10542,-0.088883 0.272852,-0.2149738 0.202571,-0.1260903 0.42788,-0.1260903 0.388607,0 0.535368,0.2315102 0.105419,0.1694985 0.105419,0.5374344 0,0.064079 -0.0041,0.1984374 -0.0021,0.1322915 -0.0021,0.1963702 0,0.1322916 0.0041,0.3948076 0.0041,0.2625161 0.0041,0.3927406 z"
         style="font-style:normal;font-variant:normal;font-weight:normal;font-stretch:normal;font-size:4.23333px;font-family:'Berlin Sans FB';-inkscape-font-specification:'Berlin Sans FB';fill:#e8617a;fill-opacity:1;stroke-width:0.264583"
         id="path1482" />
      <path
         d="m 17.420952,8.4685036 q 0,0.4320146 -0.283186,0.7379388 -0.289388,0.3162595 -0.717269,0.3162595 -0.429947,0 -0.719335,-0.3141924 -0.283186,-0.3038572 -0.283186,-0.7358718 0,-0.4320146 0.283186,-0.7358718 0.291455,-0.3100583 0.719335,-0.3100583 0.425814,0 0.715202,0.3100583 0.285253,0.3017901 0.285253,0.7317377 z m -0.436148,0.00413 q 0,-0.2521808 -0.15503,-0.4299476 -0.16123,-0.188102 -0.409277,-0.188102 -0.248046,0 -0.411344,0.186035 -0.155029,0.1798338 -0.155029,0.4320146 0,0.2480467 0.157096,0.4299476 0.165365,0.1922361 0.409277,0.1922361 0.24598,0 0.409277,-0.1922361 0.15503,-0.1819009 0.15503,-0.4299476 z"
         style="font-style:normal;font-variant:normal;font-weight:normal;font-stretch:normal;font-size:4.23333px;font-family:'Berlin Sans FB';-inkscape-font-specification:'Berlin Sans FB';fill:#e8617a;fill-opacity:1;stroke-width:0.264583"
         id="path1484" />
      <path
         d="m 18.235373,6.6081536 -0.0021,0.026872 q -0.04548,0.7689447 -0.04548,1.3208485 0,0.2459796 0.0083,0.7379388 0.0083,0.4898922 0.0083,0.7338048 0,0.047542 -0.03307,0.047542 h -0.394808 q -0.03721,0 -0.03721,-0.047542 0,-0.2439126 0.0041,-0.7338048 0.0041,-0.4919592 0.0041,-0.7379388 0,-0.223242 -0.02274,-0.669726 -0.02067,-0.448551 -0.02067,-0.669726 0,-0.041341 0.04341,-0.041341 0.03721,0 0.111621,0.0062 0.07441,0.0062 0.111621,0.0062 0.03927,0 0.115756,-0.0062 0.07648,-0.0062 0.113688,-0.0062 0.03721,0 0.03514,0.033073 z"
         style="font-style:normal;font-variant:normal;font-weight:normal;font-stretch:normal;font-size:4.23333px;font-family:'Berlin Sans FB';-inkscape-font-specification:'Berlin Sans FB';fill:#e8617a;fill-opacity:1;stroke-width:0.264583"
         id="path1486" />
      <path
         d="m 20.63109,6.5916171 q 0,0.2666502 -0.02481,0.7999505 -0.02274,0.5312333 -0.02274,0.7958164 0,0.816487 0.03514,1.2360993 l 0.0021,0.026872 q 0.0021,0.02067 -0.05581,0.026872 -0.03927,0.00413 -0.111621,0 -0.08682,-0.0062 -0.08062,-0.0062 -0.03101,0 -0.09095,0.0062 -0.05994,0.0062 -0.09095,0.0062 -0.02894,0 -0.03514,-0.1426269 -0.0041,-0.1446939 -0.01447,-0.1467609 -0.0124,0.0062 -0.03101,0.026872 -0.283187,0.3059242 -0.651123,0.3059242 -0.417545,0 -0.686262,-0.3183265 -0.254248,-0.2997231 -0.254248,-0.7234695 0,-0.4402828 0.256315,-0.7400059 0.268717,-0.3141924 0.700732,-0.3141924 0.260449,0 0.454752,0.1529621 0.08888,0.076481 0.1757,0.1550292 0.01654,-0.0062 0.01654,-0.028939 v -0.669726 q 0,-0.068213 -0.0062,-0.2067056 -0.0062,-0.1384927 -0.0062,-0.2087726 0,-0.049609 0.03307,-0.049609 0.07648,0 0.227376,-0.012402 0.150895,-0.014469 0.225309,-0.014469 0.03514,0 0.03514,0.043408 z m -0.516764,1.8810206 q 0,-0.2480467 -0.152962,-0.4361487 -0.163298,-0.2005044 -0.405143,-0.2005044 -0.254248,0 -0.419612,0.1984373 -0.157097,0.186035 -0.157097,0.446484 0,0.2480467 0.163298,0.4320146 0.167431,0.1943033 0.413411,0.1943033 0.248047,0 0.409277,-0.1963703 0.148828,-0.183968 0.148828,-0.4382158 z"
         style="font-style:normal;font-variant:normal;font-weight:normal;font-stretch:normal;font-size:4.23333px;font-family:'Berlin Sans FB';-inkscape-font-specification:'Berlin Sans FB';fill:#e8617a;fill-opacity:1;stroke-width:0.264583"
         id="path1488" />
      <path
         d="m 25.199283,9.3986786 q 0,0.080615 -0.04754,0.080615 -0.03101,0 -0.09508,-0.0062 -0.06201,-0.0062 -0.09509,-0.0062 -0.03514,0 -0.10542,0.00413 -0.07028,0.00413 -0.105419,0.00413 -0.04341,0 -0.04341,-0.097152 0,-0.095084 0.0062,-0.2831866 0.0083,-0.1901691 0.0083,-0.2852536 0,-0.5229651 -0.0041,-0.5829097 -0.01654,-0.2129067 -0.08682,-0.2935219 -0.08062,-0.086816 -0.28732,-0.086816 -0.130225,0 -0.293522,0.1240233 -0.169499,0.1302245 -0.1757,0.2563149 -0.0083,0.1612303 -0.0083,0.5891108 0,0.1012857 0.0083,0.3038572 0.0083,0.2025714 0.0083,0.3038572 0,0.055811 -0.03721,0.055811 -0.03721,0 -0.109554,-0.0062 -0.07028,-0.0062 -0.107487,-0.0062 -0.03307,0 -0.09715,0.00413 -0.06408,0.00413 -0.09715,0.00413 -0.04134,0 -0.04134,-0.059945 0,-0.099219 0.0062,-0.297656 0.0062,-0.2005044 0.0062,-0.299723 V 8.3196756 q 0,-0.2335773 -0.05581,-0.332796 -0.07855,-0.1405597 -0.299723,-0.1405597 -0.130225,0 -0.310058,0.1095539 -0.198438,0.1198892 -0.198438,0.2418455 v 0.6035802 q 0,0.1033528 0.0021,0.3079913 0.0021,0.2046385 0.0021,0.3059242 0,0.059945 -0.04754,0.059945 H 22.11333 q -0.04134,0 -0.04134,-0.05581 0,-0.1674315 0.0021,-0.5022945 0.0021,-0.33693 0.0021,-0.5043615 0,-0.3782712 -0.08062,-0.7544753 -0.0062,-0.026872 -0.0062,-0.043408 0,-0.026872 0.0186,-0.031006 0.07648,-0.00827 0.223242,-0.031006 0.06821,-0.020671 0.204638,-0.045475 l 0.01654,-0.00207 q 0.0248,0 0.04548,0.1467609 0.02274,0.1446939 0.03927,0.1446939 0,0 0.103353,-0.09095 0.121956,-0.1054198 0.243912,-0.1674315 0.1757,-0.09095 0.3514,-0.09095 0.475423,0 0.605647,0.3886065 Q 23.96961,7.670619 24.159779,7.5631322 24.36235,7.447377 24.560787,7.447377 q 0.382406,0 0.529167,0.223242 0.10542,0.1653645 0.10542,0.5229651 0,0.068213 -0.0041,0.2108397 -0.0041,0.1426268 -0.0041,0.2108396 0,0.1302245 0.0062,0.3927406 0.0062,0.260449 0.0062,0.3906735 z"
         style="font-style:normal;font-variant:normal;font-weight:normal;font-stretch:normal;font-size:4.23333px;font-family:'Berlin Sans FB';-inkscape-font-specification:'Berlin Sans FB';fill:#e8617a;fill-opacity:1;stroke-width:0.264583"
         id="path1490" />
      <path
         d="m 27.359355,8.3651508 q 0,0.1529621 -0.132291,0.2046385 -0.08888,0.033073 -1.279508,0.1219563 0.02687,0.1819009 0.200505,0.3100583 0.165364,0.1219563 0.355533,0.1219563 0.326595,0 0.599446,-0.2108397 0.03307,-0.026872 0.06615,-0.053743 0.01654,0 0.02067,0.00413 0.0062,0.00413 0.07855,0.1446939 0.07235,0.1384927 0.07235,0.148828 0,0.012402 -0.03307,0.047542 -0.303857,0.3224606 -0.77928,0.3224606 -0.479557,0 -0.764811,-0.2852536 -0.285253,-0.2873208 -0.285253,-0.7648106 0,-0.4258134 0.272851,-0.7420729 0.287321,-0.3286619 0.704866,-0.3286619 0.388606,0 0.649055,0.2852537 0.254248,0.2769854 0.254248,0.6738601 z M 26.867396,8.2390604 q 0,-0.1715656 -0.136426,-0.3038571 -0.134358,-0.1322916 -0.303857,-0.1322916 -0.190169,0 -0.338997,0.1529621 -0.146761,0.1529621 -0.146761,0.3431312 0,0.043408 0.07441,0.043408 0.305924,0 0.731738,-0.062012 0.119889,-0.016536 0.119889,-0.041341 z"
         style="font-style:normal;font-variant:normal;font-weight:normal;font-stretch:normal;font-size:4.23333px;font-family:'Berlin Sans FB';-inkscape-font-specification:'Berlin Sans FB';fill:#e8617a;fill-opacity:1;stroke-width:0.264583"
         id="path1492" />
    </g>
    <g
       aria-label="by pat"
       id="text840-6"
       style="font-style:normal;font-variant:normal;font-weight:normal;font-stretch:normal;font-size:3.52778px;line-height:1.25;font-family:'Berlin Sans FB';-inkscape-font-specification:'Berlin Sans FB';fill:#e8617a;fill-opacity:1;stroke:none;stroke-width:0.264583"
       inkscape:label="footer">
      <path
         d="m 7.1825727,120.5884 q 0,0.34106 -0.2118735,0.59428 -0.2256539,0.26871 -0.5615509,0.26871 -0.2239314,0 -0.3944637,-0.11369 -0.068902,-0.0586 -0.1378039,-0.11541 -0.018948,0.005 -0.025838,0.10336 -0.00517,0.0982 -0.027561,0.0982 H 5.4600239 q -0.020671,0 -0.020671,-0.0224 0,0.002 0.00345,-0.031 0.027561,-0.2756 0.027561,-1.0542 0,-0.31867 -0.027561,-0.93534 -0.017226,-0.39274 -0.017226,-0.34451 0,-0.0448 0.044786,-0.0499 0.062012,-0.002 0.1843127,-0.007 0.024116,-0.002 0.098185,-0.0121 0.062012,-0.0103 0.099908,-0.0103 0.027561,0 0.027561,0.0396 0,0.0586 -0.00861,0.17915 -0.00861,0.12057 -0.00861,0.18086 0,0.0896 -0.00861,0.27044 -0.00689,0.17915 -0.00689,0.26872 0,0.0655 0.024116,0.0655 0.012058,0 0.025838,-0.0189 0.1894804,-0.23599 0.5012617,-0.23599 0.3565676,0 0.5770539,0.267 0.2067058,0.25149 0.2067058,0.61495 z m -0.389296,-0.0155 q 0,-0.20498 -0.1291912,-0.36173 -0.1378039,-0.16709 -0.3393421,-0.16709 -0.2067059,0 -0.3445098,0.16364 -0.1326362,0.15503 -0.1326362,0.36518 0,0.2136 0.1326362,0.36863 0.1378039,0.16192 0.3479549,0.16192 0.2032608,0 0.3393421,-0.16709 0.1257461,-0.15503 0.1257461,-0.36346 z"
         style="font-style:normal;font-variant:normal;font-weight:normal;font-stretch:normal;font-size:3.52778px;font-family:'Berlin Sans FB';-inkscape-font-specification:'Berlin Sans FB';fill:#e8617a;fill-opacity:1;stroke-width:0.264583"
         id="path885" />
      <path
         d="m 8.8792833,120.22149 q 0,0.29111 -0.017226,0.3514 -0.022393,0.0775 -0.4271921,0.67696 -0.4030764,0.59773 -0.4788686,0.66835 -0.068902,0.062 -0.4444176,0.062 -0.044786,0 -0.058567,-0.0103 -0.012058,-0.009 -0.058567,-0.12402 -0.044786,-0.11541 -0.044786,-0.13781 0,-0.0379 0.091295,-0.0379 0.1929255,0 0.2842206,-0.0551 0.031006,-0.0189 0.093018,-0.11886 0.063734,-0.0999 0.063734,-0.13436 0,-0.0465 -0.2497696,-0.36346 -0.2635499,-0.33589 -0.2945558,-0.42547 -0.024116,-0.0706 -0.024116,-0.33762 0,-0.0654 0.00172,-0.19637 0.00172,-0.13263 0.00172,-0.19981 0,-0.0379 0.041341,-0.0379 0.055122,0 0.1619196,0.007 0.1085205,0.007 0.1636421,0.007 0.027561,0 0.027561,0.0362 0,0.0482 -0.00517,0.14469 -0.00517,0.0965 -0.00517,0.14469 0,0.21015 0.01378,0.31351 0.010335,0.0654 0.1877578,0.32556 0.1774225,0.2601 0.2187637,0.2601 0.029283,0 0.1860353,-0.25493 0.1567519,-0.25666 0.1670872,-0.31695 0.01378,-0.0861 0.01378,-0.31351 0,-0.0499 -0.010335,-0.14641 -0.010335,-0.0982 -0.010335,-0.14642 0,-0.0431 0.027561,-0.0431 0.055122,0 0.1653647,-0.007 0.1119657,-0.009 0.1670872,-0.009 0.051677,0 0.051677,0.41858 z"
         style="font-style:normal;font-variant:normal;font-weight:normal;font-stretch:normal;font-size:3.52778px;font-family:'Berlin Sans FB';-inkscape-font-specification:'Berlin Sans FB';fill:#e8617a;fill-opacity:1;stroke-width:0.264583"
         id="path887" />
      <path
         d="m 11.712876,120.59184 q 0,0.34796 -0.220486,0.60462 -0.230822,0.27044 -0.573609,0.27044 -0.213596,0 -0.373793,-0.13264 -0.07235,-0.0672 -0.144694,-0.13608 -0.01034,0.005 -0.01378,0.0276 -0.0017,0.0103 -0.0017,0.19292 l -0.0017,0.48576 q 0,0.0551 -0.03962,0.0551 -0.265273,0 -0.313504,-0.007 -0.039619,-0.005 -0.039619,-0.0448 0,-0.22049 0.00345,-0.66146 0.00345,-0.44097 0.00345,-0.66146 0,-0.4048 -0.051676,-0.75964 -0.00345,-0.0207 -0.00345,-0.0276 0,-0.0189 0.017225,-0.0241 0.065457,-0.003 0.191203,-0.019 0.16881,-0.031 0.189481,-0.031 0.02928,0 0.0379,0.10335 0.0052,0.0689 0.0086,0.13608 0,0.0138 0.01034,0.0276 0.01206,-0.007 0.02756,-0.0241 0.241157,-0.24633 0.487482,-0.24633 0.341064,0 0.575331,0.267 0.225654,0.25666 0.225654,0.60461 z m -0.403076,-0.007 q 0,-0.2067 -0.129192,-0.36346 -0.136081,-0.16708 -0.339342,-0.16708 -0.199815,0 -0.327284,0.17225 -0.117133,0.15503 -0.117133,0.36174 0,0.21015 0.120578,0.36518 0.132636,0.16708 0.33762,0.16708 0.19637,0 0.330729,-0.17397 0.124024,-0.16192 0.124024,-0.36174 z"
         style="font-style:normal;font-variant:normal;font-weight:normal;font-stretch:normal;font-size:3.52778px;font-family:'Berlin Sans FB';-inkscape-font-specification:'Berlin Sans FB';fill:#e8617a;fill-opacity:1;stroke-width:0.264583"
         id="path889" />
      <path
         d="m 13.654189,119.86148 q 0,0.007 -0.0052,0.031 -0.06718,0.39446 -0.06718,0.6804 0,0.0172 0.04306,0.77343 l 0.0017,0.0241 q 0.0017,0.05 -0.04651,0.05 -0.04651,0 -0.142972,0.0103 -0.09474,0.0121 -0.141249,0.0121 -0.03273,0 -0.04995,-0.12058 -0.01722,-0.12058 -0.03273,-0.12058 -0.01033,0 -0.09302,0.0672 -0.10163,0.0827 -0.18948,0.12575 -0.136081,0.0689 -0.272163,0.0689 -0.334174,0 -0.563273,-0.26699 -0.217041,-0.25494 -0.217041,-0.59428 0,-0.38241 0.218763,-0.63218 0.229099,-0.2601 0.602892,-0.2601 0.26355,0 0.459921,0.18259 0.02928,0.0345 0.09129,0.0999 0.0052,0.005 0.01034,0.005 0.01034,0 0.02928,-0.10852 0.01895,-0.10852 0.04823,-0.10852 0.04651,0 0.173978,0.0258 0.141249,0.031 0.141249,0.0551 z m -0.43925,0.72003 q 0,-0.21188 -0.125746,-0.36346 -0.132637,-0.16364 -0.339343,-0.16364 -0.206705,0 -0.344509,0.16192 -0.132637,0.15503 -0.132637,0.36518 0,0.20842 0.132637,0.36173 0.137804,0.1602 0.344509,0.1602 0.201539,0 0.33762,-0.16364 0.127469,-0.15331 0.127469,-0.35829 z"
         style="font-style:normal;font-variant:normal;font-weight:normal;font-stretch:normal;font-size:3.52778px;font-family:'Berlin Sans FB';-inkscape-font-specification:'Berlin Sans FB';fill:#e8617a;fill-opacity:1;stroke-width:0.264583"
         id="path891" />
      <path
         d="m 14.894424,121.10344 q 0,0.0379 -0.0069,0.10335 -0.0086,0.081 -0.01033,0.10508 -0.0017,0.031 -0.0052,0.0379 -0.0069,0.0121 -0.03273,0.0241 -0.141249,0.0672 -0.444417,0.0672 -0.403077,0 -0.403077,-0.36518 0,-0.14642 0.0069,-0.43925 0.0069,-0.29456 0.0069,-0.44097 0,-0.0706 -0.07062,-0.0758 -0.06373,0 -0.125746,-0.002 -0.03617,-0.009 -0.03617,-0.14125 0,-0.0499 0.0069,-0.10507 0.0052,-0.0413 0.05512,-0.05 0.04306,0 0.08441,-0.002 0.07924,-0.003 0.07924,-0.0706 0,-0.0689 -0.0052,-0.21015 -0.0034,-0.14125 -0.0034,-0.21187 0,-0.12575 0.04823,-0.12575 0.0155,0 0.323839,0.0534 0.03962,0.005 0.03962,0.0379 0,0.0758 -0.01206,0.22738 -0.01033,0.15158 -0.01033,0.22737 0,0.05 0.04651,0.05 h 0.413412 q 0.02928,0 0.02928,0.0207 0,0.0207 -0.0069,0.0672 -0.0052,0.0448 -0.0052,0.0672 0,0.0258 0.0017,0.0792 0.0017,0.0534 0.0017,0.0792 0,0.0327 -0.04823,0.0327 -0.0689,0 -0.208428,-0.009 -0.139527,-0.0103 -0.208428,-0.0103 -0.01378,0 -0.02067,0.0982 -0.0086,0.1223 -0.0086,0.34278 v 0.25666 q 0,0.14814 0.02756,0.20671 0.04134,0.0896 0.170532,0.0896 0.0534,0 0.156752,-0.0224 0.103353,-0.0241 0.153307,-0.0241 0.02067,0 0.02067,0.031 z"
         style="font-style:normal;font-variant:normal;font-weight:normal;font-stretch:normal;font-size:3.52778px;font-family:'Berlin Sans FB';-inkscape-font-specification:'Berlin Sans FB';fill:#e8617a;fill-opacity:1;stroke-width:0.264583"
         id="path893" />
    </g>
    <g
       aria-label=":^)"
       id="text840-6-7"
       style="font-style:normal;font-variant:normal;font-weight:bold;font-stretch:normal;font-size:3.52777px;line-height:1.25;font-family:Calibri;-inkscape-font-specification:'Calibri Bold';fill:#e8617a;fill-opacity:1;stroke:none;stroke-width:0.264583"
       inkscape:label="smiley">
      <path
         d="m 29.484368,120.07767 q 0,0.0723 -0.01206,0.12057 -0.01206,0.0482 -0.04134,0.0792 -0.02756,0.031 -0.07407,0.0448 -0.04651,0.0121 -0.117133,0.0121 -0.07062,0 -0.117133,-0.0121 -0.04651,-0.0138 -0.07579,-0.0448 -0.02756,-0.031 -0.0379,-0.0792 -0.01034,-0.0482 -0.01034,-0.12057 0,-0.0741 0.01034,-0.12403 0.01033,-0.0499 0.0379,-0.081 0.02928,-0.031 0.07579,-0.0448 0.04651,-0.0138 0.117133,-0.0138 0.07062,0 0.117133,0.0138 0.04651,0.0138 0.07407,0.0448 0.02928,0.031 0.04134,0.081 0.01206,0.05 0.01206,0.12403 z m 0,1.12482 q 0,0.0723 -0.01206,0.1223 -0.01206,0.0482 -0.04134,0.0792 -0.02756,0.031 -0.07407,0.0431 -0.04651,0.0138 -0.117133,0.0138 -0.07062,0 -0.117133,-0.0138 -0.04651,-0.0121 -0.07579,-0.0431 -0.02756,-0.031 -0.0379,-0.0792 -0.01034,-0.05 -0.01034,-0.1223 0,-0.0724 0.01034,-0.1223 0.01033,-0.0517 0.0379,-0.0827 0.02928,-0.031 0.07579,-0.0431 0.04651,-0.0138 0.117133,-0.0138 0.07062,0 0.117133,0.0138 0.04651,0.0121 0.07407,0.0431 0.02928,0.031 0.04134,0.0827 0.01206,0.0499 0.01206,0.1223 z"
         style="font-style:normal;font-variant:normal;font-weight:bold;font-stretch:normal;font-size:3.52777px;font-family:Calibri;-inkscape-font-specification:'Calibri Bold';fill:#e8617a;fill-opacity:1;stroke-width:0.264583"
         id="path878" />
      <path
         d="m 31.363663,120.41184 q 0.02239,0.0482 0.02756,0.0775 0.0052,0.0293 -0.01378,0.0448 -0.01723,0.0155 -0.06201,0.0207 -0.04306,0.003 -0.118855,0.003 -0.06718,0 -0.111966,-0.003 -0.04306,-0.005 -0.07235,-0.0138 -0.02756,-0.0103 -0.04306,-0.0241 -0.01378,-0.0155 -0.02239,-0.0362 l -0.380683,-0.93189 -0.0086,0.002 -0.36518,0.93017 q -0.0086,0.0207 -0.02412,0.0362 -0.01378,0.0138 -0.04134,0.0241 -0.02756,0.009 -0.07235,0.0138 -0.04306,0.003 -0.110243,0.003 -0.07579,0 -0.118855,-0.003 -0.04134,-0.005 -0.06029,-0.0207 -0.01722,-0.0155 -0.01206,-0.0448 0.0052,-0.0293 0.02756,-0.0775 l 0.496093,-1.12999 q 0.01033,-0.0224 0.03101,-0.0379 0.02067,-0.0172 0.05512,-0.0276 0.03617,-0.0121 0.08613,-0.0172 0.04995,-0.007 0.118856,-0.007 0.0689,0 0.118856,0.007 0.05168,0.005 0.08613,0.0172 0.03445,0.0103 0.05512,0.0276 0.02067,0.0155 0.03101,0.0379 z"
         style="font-style:normal;font-variant:normal;font-weight:bold;font-stretch:normal;font-size:3.52777px;font-family:Calibri;-inkscape-font-specification:'Calibri Bold';fill:#e8617a;fill-opacity:1;stroke-width:0.264583"
         id="path880" />
      <path
         d="m 32.366184,120.51175 q 0,0.19465 -0.02239,0.38413 -0.02239,0.18775 -0.0689,0.37379 -0.04479,0.18431 -0.113688,0.36518 -0.06718,0.18259 -0.160196,0.36173 -0.0052,0.0121 -0.01895,0.0207 -0.01206,0.0103 -0.03617,0.0155 -0.02239,0.007 -0.05684,0.0103 -0.03445,0.003 -0.08268,0.003 -0.07062,0 -0.110243,-0.007 -0.0379,-0.007 -0.05684,-0.0207 -0.01895,-0.0138 -0.01895,-0.0344 0,-0.0189 0.01034,-0.0465 0.142971,-0.33761 0.21704,-0.69418 0.07579,-0.35829 0.07579,-0.73553 0,-0.37551 -0.07407,-0.73208 -0.07407,-0.35829 -0.220486,-0.69418 -0.0086,-0.0224 -0.0069,-0.0413 0.0034,-0.019 0.02412,-0.031 0.02239,-0.0121 0.06029,-0.0172 0.03962,-0.007 0.103352,-0.007 0.0534,0 0.08785,0.003 0.03445,0.002 0.05684,0.009 0.02239,0.005 0.03101,0.0121 0.01034,0.007 0.0155,0.0155 0.179144,0.36174 0.272162,0.73208 0.09302,0.36863 0.09302,0.75448 z"
         style="font-style:normal;font-variant:normal;font-weight:bold;font-stretch:normal;font-size:3.52777px;font-family:Calibri;-inkscape-font-specification:'Calibri Bold';fill:#e8617a;fill-opacity:1;stroke-width:0.264583"
         id="path882" />
    </g>
    <g
       aria-label="in"
       id="text1810"
       style="font-size:3.175px;line-height:1.25;font-family:'Berlin Sans FB';-inkscape-font-specification:'Berlin Sans FB';fill:#e8617a;stroke-width:0.264583">
      <path
         d="m 4.4629821,103.57447 q 0,0.19069 -0.2123901,0.19069 -0.2154907,0 -0.2154907,-0.19069 0,-0.0853 0.066663,-0.14108 0.062012,-0.0527 0.1488281,-0.0527 0.086816,0 0.1488281,0.0543 0.063562,0.0543 0.063562,0.13953 z m -0.010852,0.42013 q 0,0.11937 -0.015503,0.36122 -0.013953,0.24029 -0.013953,0.36121 0,0.11318 0.00465,0.33952 0.00465,0.22479 0.00465,0.33641 0,0.0326 -0.027905,0.0326 H 4.1017639 q -0.032556,0 -0.032556,-0.0636 0,-0.10697 0.00465,-0.32091 0.0062,-0.21549 0.0062,-0.32402 0,-0.12092 -0.018604,-0.36276 -0.017053,-0.24185 -0.017053,-0.36277 0,-0.0264 0.032556,-0.0264 0.027905,0 0.085266,0.008 0.058911,0.008 0.088367,0.008 0.029456,0 0.086816,-0.008 0.058911,-0.008 0.088367,-0.008 0.026355,0 0.026355,0.0295 z"
         style="fill:#e8617a;stroke-width:0.264583"
         id="path3115" />
      <path
         d="m 6.1248961,105.39761 q 0,0.0341 -0.031006,0.0341 -0.05116,0 -0.153479,-0.002 -0.1007691,-0.002 -0.1519287,-0.002 -0.027905,0 -0.027905,-0.045 0,-0.076 0.00465,-0.23099 0.00465,-0.15503 0.00465,-0.23255 0,-0.062 -0.00155,-0.18448 -0.00155,-0.12402 -0.00155,-0.18604 0,-0.17673 -0.05116,-0.24959 -0.062012,-0.0868 -0.2294434,-0.0868 -0.077515,0 -0.2154907,0.0868 -0.1457275,0.0915 -0.1457275,0.16278 v 0.93017 q 0,0.0388 -0.029456,0.0388 -0.049609,0 -0.1488281,-0.002 -0.099219,-0.002 -0.1488281,-0.002 -0.032556,0 -0.032556,-0.0357 0,-0.12247 0.0031,-0.36742 0.00465,-0.24494 0.00465,-0.36897 0,-0.33021 -0.069763,-0.60926 -0.00465,-0.0139 -0.00465,-0.0202 0,-0.0155 0.020154,-0.0217 0.010852,-0.002 0.1767334,-0.0279 0.1674317,-0.0279 0.1751831,-0.0279 0.0093,0 0.012402,0.0248 0.00775,0.0961 0.035657,0.19379 0.080615,-0.0636 0.2123901,-0.15813 0.1627808,-0.0992 0.3147095,-0.0992 0.2914551,0 0.3984253,0.16898 0.079065,0.12403 0.079065,0.40153 0,0.0481 -0.0031,0.14728 -0.00155,0.0992 -0.00155,0.14883 0,0.10387 0.0031,0.31005 0.0031,0.20619 0.0031,0.31006 z"
         style="fill:#e8617a;stroke-width:0.264583"
         id="path3117" />
    </g>
    <g
       aria-label="out"
       id="text1810-4"
       style="font-size:3.175px;line-height:1.25;font-family:'Berlin Sans FB';-inkscape-font-specification:'Berlin Sans FB';fill:#e8617a;stroke-width:0.264583">
      <path
         d="m 34.894147,104.63177 q 0,0.32401 -0.21239,0.55346 -0.217041,0.23719 -0.537952,0.23719 -0.322461,0 -0.539502,-0.23564 -0.21239,-0.2279 -0.21239,-0.55191 0,-0.32401 0.21239,-0.5519 0.218591,-0.23255 0.539502,-0.23255 0.31936,0 0.536401,0.23255 0.213941,0.22634 0.213941,0.5488 z m -0.327112,0.003 q 0,-0.18913 -0.116272,-0.32246 -0.120923,-0.14108 -0.306958,-0.14108 -0.186035,0 -0.308508,0.13953 -0.116272,0.13488 -0.116272,0.32401 0,0.18604 0.117822,0.32246 0.124023,0.14418 0.306958,0.14418 0.184485,0 0.306958,-0.14418 0.116272,-0.13642 0.116272,-0.32246 z"
         style="fill:#e8617a;stroke-width:0.264583"
         id="path3120" />
      <path
         d="m 36.548309,103.98065 q 0,0.11317 -0.0093,0.34261 -0.0093,0.2279 -0.0093,0.34262 0,0.11317 0.0062,0.33951 0.0078,0.22479 0.0078,0.33797 0,0.031 -0.02945,0.0403 -0.0124,0.003 -0.31471,0.003 -0.0186,0 -0.02325,-0.11627 -0.0031,-0.11627 -0.01705,-0.11627 -0.0078,0 -0.02325,0.014 -0.258899,0.2248 -0.511596,0.2248 -0.342615,0 -0.452686,-0.24805 -0.06821,-0.15348 -0.06821,-0.55191 0,-0.35966 0.05736,-0.60926 0.01395,-0.0605 0.05116,-0.0605 0.04496,0 0.134875,0.002 0.08992,0.002 0.134876,0.002 0.03101,0 0.03101,0.0341 0,0.0605 -0.02015,0.20153 -0.0217,0.15038 -0.02325,0.21239 -0.0047,0.093 -0.0047,0.20464 0,0.2713 0.03876,0.36432 0.06666,0.16743 0.296106,0.16743 0.09767,0 0.230993,-0.0961 0.141077,-0.10076 0.145728,-0.19378 0.0078,-0.11627 0.0078,-0.81856 0,-0.076 0.06356,-0.076 h 0.255799 q 0.04496,0 0.04496,0.0543 z"
         style="fill:#e8617a;stroke-width:0.264583"
         id="path3122" />
      <path
         d="m 37.728082,105.10151 q 0,0.0341 -0.0062,0.093 -0.0078,0.0729 -0.0093,0.0946 -0.0015,0.0279 -0.0047,0.0341 -0.0062,0.0109 -0.02946,0.0217 -0.127124,0.0605 -0.399976,0.0605 -0.362768,0 -0.362768,-0.32866 0,-0.13178 0.0062,-0.39533 0.0062,-0.2651 0.0062,-0.39687 0,-0.0636 -0.06356,-0.0682 -0.05736,0 -0.113171,-0.002 -0.03256,-0.008 -0.03256,-0.12712 0,-0.045 0.0062,-0.0946 0.0046,-0.0372 0.04961,-0.045 0.03876,0 0.07596,-0.002 0.07131,-0.003 0.07131,-0.0636 0,-0.062 -0.0047,-0.18914 -0.0031,-0.12712 -0.0031,-0.19068 0,-0.11317 0.04341,-0.11317 0.01395,0 0.291456,0.0481 0.03566,0.005 0.03566,0.0341 0,0.0682 -0.01085,0.20464 -0.0093,0.13643 -0.0093,0.20464 0,0.045 0.04186,0.045 h 0.372071 q 0.02636,0 0.02636,0.0186 0,0.0186 -0.0062,0.0605 -0.0047,0.0403 -0.0047,0.0605 0,0.0233 0.0016,0.0713 0.0016,0.0481 0.0016,0.0713 0,0.0295 -0.04341,0.0295 -0.06201,0 -0.187585,-0.008 -0.125574,-0.009 -0.187586,-0.009 -0.0124,0 -0.0186,0.0884 -0.0078,0.11007 -0.0078,0.30851 v 0.23099 q 0,0.13333 0.02481,0.18604 0.03721,0.0806 0.153479,0.0806 0.04806,0 0.141076,-0.0202 0.09302,-0.0217 0.137977,-0.0217 0.0186,0 0.0186,0.0279 z"
         style="fill:#e8617a;stroke-width:0.264583"
         id="path3124" />
    </g>
    <path
       style="fill:#e8617a;stroke:#e8617a;stroke-width:0.5;stroke-linecap:round;stroke-linejoin:miter;stroke-opacity:1"
       d="M 2.5399987,62.242191 H 38.099997"
       id="path2619" />
    <g
       aria-label="min"
       id="text1810-0"
       style="font-size:3.175px;line-height:1.25;font-family:'Berlin Sans FB';-inkscape-font-specification:'Berlin Sans FB';fill:#e8617a;stroke-width:0.264583">
      <path
         d="m 7.6378271,25.058858 q 0,0.06046 -0.035657,0.06046 -0.023254,0 -0.071313,-0.0047 -0.046509,-0.0047 -0.071313,-0.0047 -0.026355,0 -0.079065,0.0031 -0.05271,0.0031 -0.079065,0.0031 -0.032556,0 -0.032556,-0.07286 0,-0.07131 0.00465,-0.21239 0.0062,-0.142627 0.0062,-0.213941 0,-0.392224 -0.0031,-0.437182 -0.012402,-0.159681 -0.065112,-0.220142 -0.060461,-0.06511 -0.2154907,-0.06511 -0.097669,0 -0.2201416,0.09302 -0.127124,0.09767 -0.1317749,0.192237 -0.0062,0.120922 -0.0062,0.441833 0,0.07596 0.0062,0.227893 0.0062,0.151929 0.0062,0.227893 0,0.04186 -0.027905,0.04186 -0.027905,0 -0.082166,-0.0047 -0.05271,-0.0047 -0.080615,-0.0047 -0.024805,0 -0.072864,0.0031 -0.048059,0.0031 -0.072864,0.0031 -0.031006,0 -0.031006,-0.04496 0,-0.07441 0.00465,-0.223242 0.00465,-0.150379 0.00465,-0.224793 v -0.37362 q 0,-0.175183 -0.041858,-0.249597 -0.058911,-0.10542 -0.2247925,-0.10542 -0.097668,0 -0.2325439,0.08216 -0.1488282,0.08992 -0.1488282,0.181385 v 0.452685 q 0,0.07752 0.00155,0.230994 0.00155,0.153479 0.00155,0.229443 0,0.04496 -0.035657,0.04496 H 5.3232397 q -0.031006,0 -0.031006,-0.04186 0,-0.125574 0.00155,-0.376722 0.00155,-0.252697 0.00155,-0.378271 0,-0.283704 -0.060461,-0.565857 -0.00465,-0.02015 -0.00465,-0.03256 0,-0.02015 0.013953,-0.02325 0.057361,-0.0062 0.1674316,-0.02325 0.05116,-0.0155 0.153479,-0.03411 l 0.012402,-0.0016 q 0.018604,0 0.034107,0.110071 0.017053,0.108521 0.029456,0.108521 0,0 0.077515,-0.06821 0.091467,-0.07906 0.1829346,-0.125574 0.1317749,-0.06821 0.2635498,-0.06821 0.3565674,0 0.4542358,0.291455 0.096118,-0.124023 0.2387451,-0.204638 0.1519287,-0.08682 0.3007569,-0.08682 0.2868041,0 0.3968749,0.167432 0.079065,0.124023 0.079065,0.392224 0,0.05116 -0.0031,0.15813 -0.0031,0.10697 -0.0031,0.15813 0,0.09767 0.00465,0.294555 0.00465,0.195337 0.00465,0.293006 z"
         style="fill:#e8617a;stroke-width:0.264583"
         id="path3063" />
      <path
         d="m 8.3478612,23.262068 q 0,0.190686 -0.2123901,0.190686 -0.2154907,0 -0.2154907,-0.190686 0,-0.08527 0.066663,-0.141076 0.062012,-0.05271 0.1488281,-0.05271 0.086816,0 0.1488281,0.05426 0.063562,0.05426 0.063562,0.139526 z m -0.010852,0.42013 q 0,0.119372 -0.015503,0.361218 -0.013953,0.240295 -0.013953,0.361218 0,0.113171 0.00465,0.339514 0.00465,0.224793 0.00465,0.336414 0,0.03256 -0.027905,0.03256 H 7.986643 q -0.032556,0 -0.032556,-0.06356 0,-0.10697 0.00465,-0.320911 0.0062,-0.21549 0.0062,-0.324011 0,-0.120923 -0.018604,-0.362768 -0.017053,-0.241846 -0.017053,-0.362769 0,-0.02635 0.032556,-0.02635 0.027905,0 0.085266,0.0078 0.058911,0.0078 0.088367,0.0078 0.029456,0 0.086816,-0.0078 0.058911,-0.0078 0.088367,-0.0078 0.026355,0 0.026355,0.02946 z"
         style="fill:#e8617a;stroke-width:0.264583"
         id="path3065" />
      <path
         d="m 10.009775,25.085213 q 0,0.03411 -0.031006,0.03411 -0.05116,0 -0.153479,-0.0016 -0.100769,-0.0015 -0.1519287,-0.0015 -0.027905,0 -0.027905,-0.04496 0,-0.07596 0.00465,-0.230994 0.00465,-0.155029 0.00465,-0.232544 0,-0.06201 -0.00155,-0.184484 -0.00155,-0.124024 -0.00155,-0.186036 0,-0.176733 -0.05116,-0.249597 -0.062012,-0.08682 -0.2294433,-0.08682 -0.077515,0 -0.2154907,0.08682 -0.1457276,0.09147 -0.1457276,0.162781 v 0.930176 q 0,0.03876 -0.029456,0.03876 -0.049609,0 -0.1488282,-0.0016 -0.099219,-0.0015 -0.1488281,-0.0015 -0.032556,0 -0.032556,-0.03566 0,-0.122473 0.0031,-0.36742 0.00465,-0.244946 0.00465,-0.368969 0,-0.330213 -0.069763,-0.609265 -0.00465,-0.01395 -0.00465,-0.02015 0,-0.0155 0.020154,-0.0217 0.010852,-0.0016 0.1767334,-0.02791 0.1674316,-0.02791 0.1751831,-0.02791 0.0093,0 0.012402,0.02481 0.00775,0.09612 0.035657,0.193786 0.080615,-0.06356 0.2123901,-0.158129 0.1627808,-0.09922 0.3147095,-0.09922 0.291455,0 0.3984253,0.168982 0.079065,0.124023 0.079065,0.401526 0,0.04806 -0.0031,0.147277 -0.0015,0.09922 -0.0015,0.148829 0,0.103869 0.0031,0.310058 0.0031,0.206189 0.0031,0.310059 z"
         style="fill:#e8617a;stroke-width:0.264583"
         id="path3067" />
    </g>
    <g
       aria-label="max"
       id="text1810-0-5"
       style="font-size:3.175px;line-height:1.25;font-family:'Berlin Sans FB';-inkscape-font-specification:'Berlin Sans FB';fill:#e8617a;stroke-width:0.264583">
      <path
         d="m 7.209171,34.825833 q 0,0.06046 -0.035657,0.06046 -0.023254,0 -0.071313,-0.0047 -0.046509,-0.0047 -0.071314,-0.0047 -0.026355,0 -0.079065,0.0031 -0.05271,0.0031 -0.079065,0.0031 -0.032556,0 -0.032556,-0.07286 0,-0.07131 0.00465,-0.21239 0.0062,-0.142627 0.0062,-0.21394 0,-0.392224 -0.0031,-0.437183 -0.012402,-0.15968 -0.065112,-0.220142 -0.060461,-0.06511 -0.2154907,-0.06511 -0.097669,0 -0.2201416,0.09302 -0.127124,0.09767 -0.1317749,0.192236 -0.0062,0.120923 -0.0062,0.441834 0,0.07596 0.0062,0.227893 0.0062,0.151928 0.0062,0.227893 0,0.04186 -0.027905,0.04186 -0.027905,0 -0.082165,-0.0047 -0.05271,-0.0047 -0.080615,-0.0047 -0.024805,0 -0.072864,0.0031 -0.048059,0.0031 -0.072864,0.0031 -0.031006,0 -0.031006,-0.04496 0,-0.07441 0.00465,-0.223242 0.00465,-0.150378 0.00465,-0.224792 v -0.37343 q 0,-0.175183 -0.041858,-0.249597 -0.058911,-0.10542 -0.2247925,-0.10542 -0.097668,0 -0.2325439,0.08217 -0.1488282,0.08992 -0.1488282,0.181384 v 0.452685 q 0,0.07751 0.00155,0.230994 0.00155,0.153479 0.00155,0.229443 0,0.04496 -0.035657,0.04496 H 4.8945836 q -0.031006,0 -0.031006,-0.04186 0,-0.125574 0.00155,-0.376721 0.00155,-0.252698 0.00155,-0.378272 0,-0.283703 -0.060461,-0.565857 -0.00465,-0.02015 -0.00465,-0.03256 0,-0.02015 0.013953,-0.02325 0.057361,-0.0062 0.1674316,-0.02325 0.05116,-0.0155 0.153479,-0.03411 l 0.012402,-0.0015 q 0.018604,0 0.034107,0.110071 0.017053,0.10852 0.029456,0.10852 0,0 0.077515,-0.06821 0.091467,-0.07906 0.1829346,-0.125574 0.1317749,-0.06821 0.2635498,-0.06821 0.3565674,0 0.4542358,0.291455 0.096118,-0.124024 0.2387451,-0.204639 0.1519287,-0.08682 0.3007569,-0.08682 0.2868041,0 0.3968749,0.167431 0.079065,0.124024 0.079065,0.392224 0,0.05116 -0.0031,0.15813 -0.0031,0.10697 -0.0031,0.15813 0,0.09767 0.00465,0.294556 0.00465,0.195337 0.00465,0.293005 z"
         style="fill:#e8617a;stroke-width:0.264583"
         id="path3070" />
      <path
         d="m 9.0230137,33.480179 q 0,0.0062 -0.00465,0.0279 -0.060461,0.355017 -0.060461,0.612366 0,0.0155 0.038757,0.696081 l 0.00155,0.0217 q 0.00155,0.04496 -0.041858,0.04496 -0.041858,0 -0.1286743,0.0093 -0.085266,0.01085 -0.127124,0.01085 -0.029456,0 -0.044958,-0.108521 -0.015503,-0.10852 -0.029456,-0.10852 -0.0093,0 -0.083716,0.06046 -0.091467,0.07441 -0.1705322,0.113172 -0.1224732,0.06201 -0.2449463,0.06201 -0.3007568,0 -0.5069458,-0.240295 -0.1953369,-0.229443 -0.1953369,-0.534851 0,-0.344165 0.1968872,-0.568958 0.2061889,-0.234094 0.5426025,-0.234094 0.2371948,0 0.4139282,0.164331 0.026355,0.03101 0.082166,0.08992 0.00465,0.0047 0.0093,0.0047 0.0093,0 0.026355,-0.09767 0.017053,-0.09767 0.043408,-0.09767 0.041858,0 0.1565796,0.02325 0.127124,0.02791 0.127124,0.04961 z M 8.627689,34.128201 q 0,-0.190686 -0.1131714,-0.327112 -0.1193725,-0.147277 -0.3054077,-0.147277 -0.1860351,0 -0.3100586,0.145727 -0.1193725,0.139527 -0.1193725,0.328662 0,0.187586 0.1193725,0.325562 0.1240235,0.144177 0.3100586,0.144177 0.1813843,0 0.3038574,-0.147278 0.1147217,-0.137976 0.1147217,-0.322461 z"
         style="fill:#e8617a;stroke-width:0.264583"
         id="path3072" />
      <path
         d="m 10.438431,34.855289 q 0,0.0217 -0.03256,0.02945 -0.02325,0.0047 -0.06666,0.0016 -0.06356,-0.0031 -0.05581,-0.0031 -0.122473,0 -0.147278,-0.02791 -0.09457,-0.141077 -0.2883542,-0.413929 -0.037207,-0.04961 -0.041858,-0.04961 -0.013953,0 -0.1736328,0.237195 -0.1627808,0.241846 -0.1968872,0.248047 -0.034106,0.0062 -0.2201416,0.0062 -0.037207,0 -0.037207,-0.02791 V 34.68634 q 0,-0.01705 0.2061889,-0.266651 0.206189,-0.249597 0.206189,-0.274401 0,-0.02325 -0.206189,-0.271302 -0.2061878,-0.24808 -0.2061878,-0.272884 V 33.43522 q 0,-0.03101 0.037207,-0.03101 0.038757,0 0.116272,0.0062 0.077515,0.0062 0.1162719,0.0062 0.021704,0 0.038757,0.0217 0.091467,0.141077 0.2790527,0.415478 0.037207,0.05116 0.040308,0.05116 0.00465,0 0.034107,-0.04031 0.089917,-0.122474 0.2961061,-0.432532 0.0155,-0.0217 0.03566,-0.0217 0.03876,0 0.114722,-0.0031 0.07596,-0.0031 0.113171,-0.0031 0.03876,0 0.03876,0.03101 v 0.162781 q 0,0.02791 -0.207739,0.275952 -0.206189,0.248047 -0.206189,0.272852 0,0.0155 0.206189,0.2651 0.207739,0.249597 0.207739,0.277502 z"
         style="fill:#e8617a;stroke-width:0.264583"
         id="path3074" />
    </g>
    <g
       aria-label="start"
       id="text3021"
       style="font-size:3.175px;line-height:1.25;font-family:'Berlin Sans FB';-inkscape-font-specification:'Berlin Sans FB';fill:#e8617a;stroke-width:0.264583">
      <path
         d="m 5.5325289,44.673419 q 0,0.230994 -0.1844849,0.37052 -0.1674316,0.127124 -0.407727,0.127124 -0.093018,0 -0.10542,-0.0047 -0.026355,-0.0124 -0.026355,-0.07596 0,-0.03411 -0.0093,-0.102319 -0.00775,-0.06821 -0.00775,-0.100769 0,-0.02015 0.027905,-0.02636 0.020154,-0.0047 0.057361,0 0.048059,0.0047 0.046509,0.0047 0.2930054,0 0.2930054,-0.179834 0,-0.08527 -0.1286743,-0.15658 Q 4.8783052,44.41452 4.8472994,44.388165 4.7186251,44.278094 4.7186251,44.099811 q 0,-0.232544 0.1751831,-0.362769 0.1581299,-0.116272 0.3999756,-0.116272 0.021704,0 0.031006,0.02015 0.010852,0.02015 0.038757,0.125574 0.029456,0.10542 0.029456,0.127124 0,0.01705 -0.029456,0.0217 -0.099219,0.01395 -0.1999878,0.02636 -0.1193725,0.03256 -0.1193725,0.130225 0,0.06976 0.1255737,0.141076 0.1860352,0.10387 0.2356445,0.150379 0.1271241,0.120922 0.1271241,0.310058 z"
         style="fill:#e8617a;stroke-width:0.264583"
         id="path3077" />
      <path
         d="m 6.6192842,44.865656 q 0,0.03411 -0.0062,0.09302 -0.00775,0.07286 -0.0093,0.09457 -0.00155,0.0279 -0.00465,0.03411 -0.0062,0.01085 -0.029456,0.0217 -0.127124,0.06046 -0.3999755,0.06046 -0.3627686,0 -0.3627686,-0.328662 0,-0.131775 0.0062,-0.395325 0.0062,-0.2651 0.0062,-0.396875 0,-0.06356 -0.063562,-0.06821 -0.057361,0 -0.1131714,-0.0016 -0.032556,-0.0078 -0.032556,-0.127124 0,-0.04496 0.0062,-0.09457 0.00465,-0.03721 0.049609,-0.04496 0.038757,0 0.075964,-0.0016 0.071314,-0.0031 0.071314,-0.06356 0,-0.06201 -0.00465,-0.189135 -0.0031,-0.127124 -0.0031,-0.190687 0,-0.113171 0.043408,-0.113171 0.013953,0 0.2914551,0.04806 0.035657,0.0047 0.035657,0.03411 0,0.06821 -0.010852,0.204638 -0.0093,0.136426 -0.0093,0.204639 0,0.04496 0.041858,0.04496 h 0.3720703 q 0.026355,0 0.026355,0.0186 0,0.0186 -0.0062,0.06046 -0.00465,0.04031 -0.00465,0.06046 0,0.02325 0.00155,0.07131 0.00155,0.04806 0.00155,0.07131 0,0.02945 -0.043408,0.02945 -0.062012,0 -0.1875855,-0.0078 -0.1255737,-0.0093 -0.1875854,-0.0093 -0.012402,0 -0.018604,0.08837 -0.00775,0.110071 -0.00775,0.308508 v 0.230994 q 0,0.133325 0.024805,0.186035 0.037207,0.08061 0.153479,0.08061 0.048059,0 0.1410766,-0.02015 0.093018,-0.0217 0.1379761,-0.0217 0.018604,0 0.018604,0.02791 z"
         style="fill:#e8617a;stroke-width:0.264583"
         id="path3079" />
      <path
         d="m 8.3478609,43.747894 q 0,0.0062 -0.00465,0.02791 -0.060462,0.355017 -0.060462,0.612365 0,0.0155 0.038757,0.696082 l 0.00155,0.0217 q 0.00155,0.04496 -0.041858,0.04496 -0.041858,0 -0.1286743,0.0093 -0.085266,0.01085 -0.127124,0.01085 -0.029456,0 -0.044958,-0.10852 -0.015503,-0.108521 -0.029456,-0.108521 -0.0093,0 -0.083716,0.06046 -0.091467,0.07441 -0.1705322,0.113171 -0.1224731,0.06201 -0.2449463,0.06201 -0.3007568,0 -0.5069458,-0.240296 -0.1953369,-0.229443 -0.1953369,-0.534851 0,-0.344165 0.1968872,-0.568957 0.206189,-0.234094 0.5426025,-0.234094 0.2371949,0 0.4139283,0.164331 0.026355,0.03101 0.082166,0.08992 0.00465,0.0047 0.0093,0.0047 0.0093,0 0.026355,-0.09767 0.017053,-0.09767 0.043408,-0.09767 0.041858,0 0.1565796,0.02325 0.127124,0.02791 0.127124,0.04961 z m -0.3953247,0.648023 q 0,-0.190686 -0.1131714,-0.327112 -0.1193725,-0.147278 -0.3054077,-0.147278 -0.1860351,0 -0.3100586,0.145728 -0.1193725,0.139526 -0.1193725,0.328662 0,0.187585 0.1193725,0.325561 0.1240235,0.144178 0.3100586,0.144178 0.1813843,0 0.3038575,-0.147278 0.1147216,-0.137976 0.1147216,-0.322461 z"
         style="fill:#e8617a;stroke-width:0.264583"
         id="path3081" />
      <path
         d="m 9.4873263,43.695184 q 0,0.170533 -0.023254,0.310059 -0.00465,0.03566 -0.031006,0.03566 -0.032556,0 -0.099219,-0.0062 -0.065112,-0.0078 -0.099219,-0.0078 -0.1953369,0 -0.2495971,0.110071 -0.032556,0.06666 -0.032556,0.277502 v 0.170532 q 0,0.08682 0.0062,0.26355 0.00775,0.176734 0.00775,0.26355 0,0.04186 -0.035657,0.04186 -0.048059,0 -0.1457275,-0.0016 -0.097668,-0.0016 -0.1457276,-0.0016 -0.035657,0 -0.035657,-0.03876 0,-0.125574 0.0031,-0.378271 0.00465,-0.252698 0.00465,-0.379822 0,-0.382923 -0.071314,-0.615466 -0.0031,-0.0124 -0.0031,-0.0186 0,-0.0186 0.020154,-0.02635 0.057361,-0.0062 0.1612305,-0.0186 0.1674316,-0.03101 0.1550293,-0.03101 0.024805,0 0.032556,0.09147 0.00775,0.09147 0.027905,0.09147 0.0031,0 0.00775,-0.0031 0.063562,-0.04031 0.127124,-0.08062 0.069763,-0.04186 0.1426269,-0.06201 0.060461,-0.0186 0.1550293,-0.0186 0.1209229,0 0.1209229,0.03256 z"
         style="fill:#e8617a;stroke-width:0.264583"
         id="path3083" />
      <path
         d="m 10.521372,44.865656 q 0,0.03411 -0.0062,0.09302 -0.0078,0.07286 -0.0093,0.09457 -0.0015,0.0279 -0.0047,0.03411 -0.0062,0.01085 -0.02946,0.0217 -0.127124,0.06046 -0.399975,0.06046 -0.3627688,0 -0.3627688,-0.328662 0,-0.131775 0.0062,-0.395325 0.0062,-0.2651 0.0062,-0.396875 0,-0.06356 -0.063562,-0.06821 -0.057361,0 -0.1131714,-0.0016 -0.032556,-0.0078 -0.032556,-0.127124 0,-0.04496 0.0062,-0.09457 0.00465,-0.03721 0.049609,-0.04496 0.038757,0 0.075964,-0.0016 0.071314,-0.0031 0.071314,-0.06356 0,-0.06201 -0.00465,-0.189135 -0.0031,-0.127124 -0.0031,-0.190687 0,-0.113171 0.043408,-0.113171 0.013953,0 0.2914552,0.04806 0.03566,0.0047 0.03566,0.03411 0,0.06821 -0.01085,0.204638 -0.0093,0.136426 -0.0093,0.204639 0,0.04496 0.04186,0.04496 h 0.37207 q 0.02636,0 0.02636,0.0186 0,0.0186 -0.0062,0.06046 -0.0047,0.04031 -0.0047,0.06046 0,0.02325 0.0016,0.07131 0.0015,0.04806 0.0015,0.07131 0,0.02945 -0.04341,0.02945 -0.06201,0 -0.187586,-0.0078 -0.125574,-0.0093 -0.187585,-0.0093 -0.0124,0 -0.0186,0.08837 -0.0078,0.110071 -0.0078,0.308508 v 0.230994 q 0,0.133325 0.0248,0.186035 0.03721,0.08061 0.153479,0.08061 0.04806,0 0.141077,-0.02015 0.09302,-0.0217 0.137976,-0.0217 0.0186,0 0.0186,0.02791 z"
         style="fill:#e8617a;stroke-width:0.264583"
         id="path3085" />
    </g>
    <g
       aria-label="end"
       id="text3025"
       style="font-size:3.175px;line-height:1.25;font-family:'Berlin Sans FB';-inkscape-font-specification:'Berlin Sans FB';fill:#e8617a;stroke-width:0.264583">
      <path
         d="m 6.6417636,54.456673 q 0,0.114722 -0.099219,0.153479 -0.066663,0.02481 -0.9596313,0.09147 0.020154,0.136426 0.1503784,0.232544 0.1240234,0.09147 0.2666504,0.09147 0.2449463,0 0.4495849,-0.15813 0.024805,-0.02015 0.049609,-0.04031 0.012402,0 0.015503,0.0031 0.00465,0.0031 0.058911,0.108521 0.05426,0.103869 0.05426,0.111621 0,0.0093 -0.024805,0.03566 -0.227893,0.241846 -0.5844604,0.241846 -0.359668,0 -0.5736084,-0.21394 -0.2139404,-0.215491 -0.2139404,-0.573609 0,-0.31936 0.2046387,-0.556555 0.2154907,-0.246496 0.5286499,-0.246496 0.291455,0 0.4867919,0.21394 0.1906861,0.207739 0.1906861,0.505395 z m -0.3689698,-0.09457 q 0,-0.128675 -0.1023193,-0.227893 -0.100769,-0.09922 -0.227893,-0.09922 -0.142627,0 -0.2542481,0.114721 -0.1100708,0.114722 -0.1100708,0.257349 0,0.03256 0.055811,0.03256 0.2294433,0 0.5488037,-0.04651 0.089917,-0.0124 0.089917,-0.03101 z"
         style="fill:#e8617a;stroke-width:0.264583"
         id="path3088" />
      <path
         d="m 8.2246126,55.258175 q 0,0.03411 -0.031006,0.03411 -0.05116,0 -0.153479,-0.0016 -0.1007691,-0.0016 -0.1519288,-0.0016 -0.027905,0 -0.027905,-0.04496 0,-0.07596 0.00465,-0.230993 0.00465,-0.15503 0.00465,-0.232544 0,-0.06201 -0.00155,-0.184485 -0.00155,-0.124024 -0.00155,-0.186035 0,-0.176734 -0.05116,-0.249598 -0.062012,-0.08682 -0.2294434,-0.08682 -0.077515,0 -0.2154907,0.08682 -0.1457275,0.09147 -0.1457275,0.162781 v 0.930176 q 0,0.03876 -0.029456,0.03876 -0.049609,0 -0.1488281,-0.0016 -0.099219,-0.0016 -0.1488281,-0.0016 -0.032556,0 -0.032556,-0.03566 0,-0.122473 0.0031,-0.367419 0.00465,-0.244947 0.00465,-0.36897 0,-0.330213 -0.069763,-0.609265 -0.00465,-0.01395 -0.00465,-0.02015 0,-0.0155 0.020154,-0.0217 0.010852,-0.0015 0.1767334,-0.0279 0.1674317,-0.02791 0.1751831,-0.02791 0.0093,0 0.012402,0.02481 0.00775,0.09612 0.035657,0.193787 0.080615,-0.06356 0.2123901,-0.15813 0.1627808,-0.09922 0.3147095,-0.09922 0.2914551,0 0.3984253,0.168982 0.079065,0.124023 0.079065,0.401526 0,0.04806 -0.0031,0.147278 -0.00155,0.09922 -0.00155,0.148828 0,0.103869 0.0031,0.310058 0.0031,0.206189 0.0031,0.310059 z"
         style="fill:#e8617a;stroke-width:0.264583"
         id="path3090" />
      <path
         d="m 10.009,53.126522 q 0,0.199988 -0.018604,0.599963 -0.017053,0.398426 -0.017053,0.596863 0,0.612366 0.026355,0.927075 l 0.00155,0.02015 q 0.0016,0.0155 -0.041858,0.02015 -0.029456,0.0031 -0.083716,0 -0.065112,-0.0047 -0.060461,-0.0047 -0.023254,0 -0.068213,0.0047 -0.044958,0.0047 -0.068213,0.0047 -0.021704,0 -0.026355,-0.10697 -0.0031,-0.108521 -0.010852,-0.110071 -0.0093,0.0047 -0.023254,0.02015 -0.2123901,0.229443 -0.4883423,0.229443 -0.3131591,0 -0.5146972,-0.238745 -0.190686,-0.224793 -0.190686,-0.542603 0,-0.330212 0.1922363,-0.555004 0.2015381,-0.235645 0.5255493,-0.235645 0.1953369,0 0.3410644,0.114722 0.066663,0.05736 0.1317749,0.116272 0.012402,-0.0047 0.012402,-0.0217 v -0.502295 q 0,-0.05116 -0.00465,-0.15503 -0.00465,-0.103869 -0.00465,-0.156579 0,-0.03721 0.024805,-0.03721 0.057361,0 0.1705322,-0.0093 0.1131714,-0.01085 0.168982,-0.01085 0.026355,0 0.026355,0.03256 z m -0.3875734,1.410767 q 0,-0.186035 -0.1147217,-0.327112 -0.1224731,-0.150379 -0.3038574,-0.150379 -0.190686,0 -0.3147095,0.148829 -0.1178222,0.139526 -0.1178222,0.334863 0,0.186035 0.1224731,0.324011 0.1255738,0.145728 0.3100586,0.145728 0.1860352,0 0.306958,-0.147278 0.1116211,-0.137976 0.1116211,-0.328662 z"
         style="fill:#e8617a;stroke-width:0.264583"
         id="path3092" />
    </g>
    <g
       aria-label="gate?"
       id="text3025-4"
       style="font-size:3.175px;line-height:1.25;font-family:'Berlin Sans FB';-inkscape-font-specification:'Berlin Sans FB';fill:#e8617a;stroke-width:0.264583">
      <path
         d="m 5.5022984,69.709897 q 0,0.186035 -0.0031,0.559656 -0.0031,0.37207 -0.0031,0.558105 0,0.36897 -0.1581299,0.544153 -0.1658813,0.186035 -0.5302002,0.186035 -0.3519165,0 -0.5689575,-0.133325 -0.034106,-0.0217 -0.034106,-0.03721 0,0.01705 0.046509,-0.229444 0.00465,-0.02635 0.021704,-0.02635 0.00775,0 0.020154,0.0078 0.2325439,0.133325 0.4666382,0.133325 0.153479,0 0.254248,-0.06821 0.116272,-0.07751 0.116272,-0.224792 0,-0.03256 -0.0062,-0.145728 -0.1720825,0.20929 -0.4371826,0.20929 -0.2868042,0 -0.4712891,-0.206189 -0.1767334,-0.198438 -0.1767334,-0.488342 0,-0.294556 0.1705323,-0.500745 0.1813842,-0.220142 0.471289,-0.220142 0.2557984,0 0.4061768,0.196888 0.024805,0.03256 0.035657,0.03256 0.012402,0 0.012402,-0.02791 0,-0.02015 -0.0031,-0.06356 -0.0031,-0.04496 -0.0031,-0.06666 0,-0.09302 0.018604,-0.09302 0.015503,0 0.1674316,0.02946 0.1519287,0.02791 0.1658814,0.03411 0.021704,0.0078 0.021704,0.04031 z m -0.3720703,0.638721 q 0,-0.173633 -0.094568,-0.294556 -0.1038696,-0.131775 -0.2728516,-0.131775 -0.1674316,0 -0.2713012,0.133325 -0.094568,0.120923 -0.094568,0.293006 0,0.168981 0.096118,0.291455 0.1038696,0.133325 0.2697509,0.133325 0.1643311,0 0.269751,-0.133325 0.097669,-0.122474 0.097669,-0.291455 z"
         style="fill:#e8617a;stroke-width:0.264583"
         id="path3095" />
      <path
         d="m 7.294437,69.751755 q 0,0.0062 -0.00465,0.02791 -0.060461,0.355017 -0.060461,0.612366 0,0.0155 0.038757,0.696081 l 0.00155,0.0217 q 0.00155,0.04496 -0.041858,0.04496 -0.041858,0 -0.1286744,0.0093 -0.085266,0.01085 -0.127124,0.01085 -0.029456,0 -0.044958,-0.108521 -0.015503,-0.10852 -0.029456,-0.10852 -0.0093,0 -0.083716,0.06046 -0.091467,0.07441 -0.1705322,0.113172 -0.1224731,0.06201 -0.2449463,0.06201 -0.3007568,0 -0.5069458,-0.240295 -0.1953369,-0.229444 -0.1953369,-0.534851 0,-0.344165 0.1968872,-0.568958 0.206189,-0.234094 0.5426026,-0.234094 0.2371948,0 0.4139282,0.164331 0.026355,0.03101 0.082165,0.08992 0.00465,0.0047 0.0093,0.0047 0.0093,0 0.026355,-0.09767 0.017053,-0.09767 0.043408,-0.09767 0.041858,0 0.1565796,0.02325 0.127124,0.02791 0.127124,0.04961 z m -0.3953247,0.648022 q 0,-0.190686 -0.1131713,-0.327112 -0.1193726,-0.147277 -0.3054077,-0.147277 -0.1860352,0 -0.3100586,0.145727 -0.1193726,0.139526 -0.1193726,0.328662 0,0.187586 0.1193726,0.325562 0.1240234,0.144177 0.3100586,0.144177 0.1813842,0 0.3038574,-0.147278 0.1147216,-0.137976 0.1147216,-0.322461 z"
         style="fill:#e8617a;stroke-width:0.264583"
         id="path3097" />
      <path
         d="m 8.410648,70.869516 q 0,0.03411 -0.0062,0.09302 -0.00775,0.07286 -0.0093,0.09457 -0.00155,0.02791 -0.00465,0.03411 -0.0062,0.01085 -0.029456,0.0217 -0.127124,0.06046 -0.3999756,0.06046 -0.3627685,0 -0.3627685,-0.328662 0,-0.131775 0.0062,-0.395324 0.0062,-0.2651 0.0062,-0.396875 0,-0.06356 -0.063562,-0.06821 -0.057361,0 -0.1131714,-0.0016 -0.032556,-0.0078 -0.032556,-0.127124 0,-0.04496 0.0062,-0.09457 0.00465,-0.03721 0.049609,-0.04496 0.038757,0 0.075964,-0.0016 0.071314,-0.0031 0.071314,-0.06356 0,-0.06201 -0.00465,-0.189136 -0.0031,-0.127124 -0.0031,-0.190686 0,-0.113171 0.043408,-0.113171 0.013953,0 0.2914551,0.04806 0.035657,0.0047 0.035657,0.03411 0,0.06821 -0.010852,0.204639 -0.0093,0.136426 -0.0093,0.204638 0,0.04496 0.041858,0.04496 h 0.3720703 q 0.026355,0 0.026355,0.0186 0,0.0186 -0.0062,0.06046 -0.00465,0.04031 -0.00465,0.06046 0,0.02325 0.00155,0.07131 0.00155,0.04806 0.00155,0.07131 0,0.02946 -0.043408,0.02946 -0.062012,0 -0.1875854,-0.0078 -0.1255737,-0.0093 -0.1875855,-0.0093 -0.012402,0 -0.018604,0.08837 -0.00775,0.110071 -0.00775,0.308509 v 0.230993 q 0,0.133325 0.024805,0.186035 0.037207,0.08062 0.1534791,0.08062 0.048059,0 0.1410766,-0.02015 0.093018,-0.0217 0.1379761,-0.0217 0.018603,0 0.018603,0.02791 z"
         style="fill:#e8617a;stroke-width:0.264583"
         id="path3099" />
      <path
         d="m 9.945438,70.322263 q 0,0.114721 -0.099219,0.153479 -0.066663,0.0248 -0.9596314,0.09147 0.020154,0.136426 0.1503785,0.232544 0.1240234,0.09147 0.2666503,0.09147 0.2449463,0 0.449585,-0.15813 0.024805,-0.02015 0.049609,-0.04031 0.012402,0 0.015503,0.0031 0.00465,0.0031 0.058911,0.108521 0.05426,0.103869 0.05426,0.111621 0,0.0093 -0.024805,0.03566 -0.2278931,0.241845 -0.5844604,0.241845 -0.359668,0 -0.5736084,-0.21394 -0.2139405,-0.215491 -0.2139405,-0.573609 0,-0.31936 0.2046387,-0.556555 0.2154907,-0.246496 0.5286499,-0.246496 0.2914551,0 0.486792,0.21394 0.190686,0.207739 0.190686,0.505396 z m -0.3689697,-0.09457 q 0,-0.128675 -0.1023193,-0.227893 -0.1007691,-0.09922 -0.2278931,-0.09922 -0.1426269,0 -0.254248,0.114722 -0.1100708,0.114721 -0.1100708,0.257348 0,0.03256 0.05581,0.03256 0.2294434,0 0.5488037,-0.04651 0.089917,-0.0124 0.089917,-0.03101 z"
         style="fill:#e8617a;stroke-width:0.264583"
         id="path3101" />
      <path
         d="m 11.201175,69.573471 q 0,0.224793 -0.133325,0.398425 -0.01705,0.02015 -0.254248,0.254248 -0.142627,0.137976 -0.155029,0.271302 -0.0031,0.03411 -0.0062,0.06821 -0.0062,0.02636 -0.04496,0.04031 -0.04496,0.0155 -0.06976,0.0155 -0.07906,0 -0.09302,-0.0047 -0.03721,-0.01395 -0.03721,-0.07441 0,-0.186035 0.06356,-0.296106 0.10232,-0.133325 0.203089,-0.2682 0.120922,-0.161231 0.120922,-0.308509 0,-0.144177 -0.08371,-0.232544 -0.08217,-0.08837 -0.224793,-0.08837 -0.114722,0 -0.255798,0.08061 -0.139527,0.08061 -0.133325,0.08061 -0.04806,0 -0.04806,-0.297656 0,-0.0217 0.04651,-0.05426 0.243396,-0.168982 0.511597,-0.168982 0.261999,0 0.427881,0.16123 0.165881,0.161231 0.165881,0.42323 z m -0.441833,1.406116 q 0,0.08682 -0.05736,0.151929 -0.05736,0.06511 -0.142627,0.06511 -0.08372,0 -0.141077,-0.06511 -0.05581,-0.06511 -0.05581,-0.151929 0,-0.08682 0.05581,-0.148828 0.05581,-0.06356 0.141077,-0.06356 0.08682,0 0.142627,0.06356 0.05736,0.06201 0.05736,0.148828 z"
         style="fill:#e8617a;stroke-width:0.264583"
         id="path3103" />
    </g>
    <g
       aria-label="gate"
       id="text3025-4-4"
       style="font-size:3.175px;line-height:1.25;font-family:'Berlin Sans FB';-inkscape-font-specification:'Berlin Sans FB';fill:#e8617a;stroke-width:0.264583">
      <path
         d="m 6.1301668,79.664456 q 0,0.186035 -0.0031,0.559656 -0.0031,0.37207 -0.0031,0.558105 0,0.36897 -0.1581299,0.544153 -0.1658813,0.186035 -0.5302001,0.186035 -0.3519165,0 -0.5689576,-0.133325 -0.034106,-0.0217 -0.034106,-0.03721 0,0.01705 0.046509,-0.229443 0.00465,-0.02636 0.021704,-0.02636 0.00775,0 0.020154,0.0078 0.2325439,0.133325 0.4666382,0.133325 0.153479,0 0.254248,-0.06821 0.116272,-0.07752 0.116272,-0.224793 0,-0.03256 -0.0062,-0.145727 -0.1720825,0.209289 -0.4371826,0.209289 -0.2868042,0 -0.4712891,-0.206189 -0.1767333,-0.198437 -0.1767333,-0.488342 0,-0.294556 0.1705322,-0.500745 0.1813843,-0.220141 0.471289,-0.220141 0.2557984,0 0.4061768,0.196887 0.024805,0.03256 0.035657,0.03256 0.012402,0 0.012402,-0.02791 0,-0.02015 -0.0031,-0.06356 -0.0031,-0.04496 -0.0031,-0.06666 0,-0.09302 0.018604,-0.09302 0.015503,0 0.1674316,0.02945 0.1519288,0.02791 0.1658814,0.03411 0.021704,0.0078 0.021704,0.04031 z m -0.3720703,0.638721 q 0,-0.173633 -0.094568,-0.294556 -0.1038696,-0.131775 -0.2728515,-0.131775 -0.1674317,0 -0.2713013,0.133326 -0.094568,0.120922 -0.094568,0.293005 0,0.168982 0.096118,0.291455 0.1038696,0.133325 0.269751,0.133325 0.164331,0 0.2697509,-0.133325 0.097669,-0.122473 0.097669,-0.291455 z"
         style="fill:#e8617a;stroke-width:0.264583"
         id="path3106" />
      <path
         d="m 7.9223055,79.706314 q 0,0.0062 -0.00465,0.0279 -0.060461,0.355017 -0.060461,0.612366 0,0.0155 0.038757,0.696082 l 0.00155,0.0217 q 0.00155,0.04496 -0.041858,0.04496 -0.041858,0 -0.1286743,0.0093 -0.085266,0.01085 -0.1271241,0.01085 -0.029456,0 -0.044958,-0.10852 -0.015503,-0.108521 -0.029456,-0.108521 -0.0093,0 -0.083716,0.06046 -0.091467,0.07442 -0.1705323,0.113172 -0.1224731,0.06201 -0.2449463,0.06201 -0.3007568,0 -0.5069458,-0.240296 -0.1953369,-0.229443 -0.1953369,-0.534851 0,-0.344165 0.1968872,-0.568957 0.206189,-0.234095 0.5426026,-0.234095 0.2371948,0 0.4139282,0.164331 0.026355,0.03101 0.082166,0.08992 0.00465,0.0047 0.0093,0.0047 0.0093,0 0.026355,-0.09767 0.017053,-0.09767 0.043408,-0.09767 0.041858,0 0.1565795,0.02326 0.1271241,0.02791 0.1271241,0.04961 z m -0.3953247,0.648023 q 0,-0.190686 -0.1131714,-0.327112 -0.1193726,-0.147278 -0.3054077,-0.147278 -0.1860352,0 -0.3100586,0.145727 -0.1193726,0.139527 -0.1193726,0.328663 0,0.187585 0.1193726,0.325561 0.1240234,0.144177 0.3100586,0.144177 0.1813842,0 0.3038574,-0.147278 0.1147217,-0.137976 0.1147217,-0.32246 z"
         style="fill:#e8617a;stroke-width:0.264583"
         id="path3108" />
      <path
         d="m 9.0385164,80.824075 q 0,0.03411 -0.0062,0.09302 -0.00775,0.07286 -0.0093,0.09457 -0.00155,0.0279 -0.00465,0.03411 -0.0062,0.01085 -0.029456,0.0217 -0.127124,0.06046 -0.3999755,0.06046 -0.3627686,0 -0.3627686,-0.328662 0,-0.131775 0.0062,-0.395325 0.0062,-0.2651 0.0062,-0.396875 0,-0.06356 -0.063562,-0.06821 -0.057361,0 -0.1131713,-0.0015 -0.032556,-0.0078 -0.032556,-0.127124 0,-0.04496 0.0062,-0.09457 0.00465,-0.03721 0.049609,-0.04496 0.038757,0 0.075964,-0.0016 0.071314,-0.0031 0.071314,-0.06356 0,-0.06201 -0.00465,-0.189136 -0.0031,-0.127124 -0.0031,-0.190686 0,-0.113171 0.043408,-0.113171 0.013953,0 0.2914551,0.04806 0.035657,0.0047 0.035657,0.03411 0,0.06821 -0.010852,0.204639 -0.0093,0.136426 -0.0093,0.204639 0,0.04496 0.041858,0.04496 H 8.988907 q 0.026355,0 0.026355,0.0186 0,0.0186 -0.0062,0.06046 -0.00465,0.04031 -0.00465,0.06046 0,0.02325 0.00155,0.07131 0.00155,0.04806 0.00155,0.07131 0,0.02945 -0.043408,0.02945 -0.062012,0 -0.1875854,-0.0078 -0.1255737,-0.0093 -0.1875854,-0.0093 -0.012402,0 -0.018604,0.08837 -0.00775,0.11007 -0.00775,0.308508 v 0.230994 q 0,0.133325 0.024805,0.186035 0.037207,0.08061 0.153479,0.08061 0.048059,0 0.1410766,-0.02015 0.093018,-0.0217 0.1379761,-0.0217 0.018604,0 0.018604,0.0279 z"
         style="fill:#e8617a;stroke-width:0.264583"
         id="path3110" />
      <path
         d="m 10.573306,80.276822 q 0,0.114722 -0.09922,0.153479 -0.06666,0.02481 -0.9596316,0.09147 0.020154,0.136426 0.1503784,0.232544 0.1240234,0.09147 0.2666504,0.09147 0.2449458,0 0.4495848,-0.158129 0.02481,-0.02015 0.04961,-0.04031 0.0124,0 0.0155,0.0031 0.0047,0.0031 0.05891,0.10852 0.05426,0.10387 0.05426,0.111621 0,0.0093 -0.02481,0.03566 -0.227893,0.241846 -0.5844603,0.241846 -0.359668,0 -0.5736084,-0.213941 -0.2139404,-0.215491 -0.2139404,-0.573608 0,-0.319361 0.2046386,-0.556555 0.2154908,-0.246497 0.5286499,-0.246497 0.2914546,0 0.4867916,0.21394 0.190686,0.20774 0.190686,0.505396 z m -0.368969,-0.09457 q 0,-0.128674 -0.10232,-0.227893 -0.100769,-0.09922 -0.2278927,-0.09922 -0.1426269,0 -0.254248,0.114722 -0.1100708,0.114722 -0.1100708,0.257349 0,0.03256 0.05581,0.03256 0.2294434,0 0.5488035,-0.04651 0.08992,-0.0124 0.08992,-0.03101 z"
         style="fill:#e8617a;stroke-width:0.264583"
         id="path3112" />
    </g>
    <circle
       style="fill:#e8617a;stroke-width:0.148794"
       id="path950"
       cx="15.239998"
       cy="20.07818"
       r="0.63499999" />
    <circle
       style="fill:#e8617a;stroke-width:0.148794"
       id="path950-2"
       cx="15.239998"
       cy="30.117229"
       r="0.63500005" />
    <circle
       style="fill:#e8617a;stroke-width:0.148794"
       id="path950-0"
       cx="15.239998"
       cy="40.156281"
       r="0.63500005" />
    <circle
       style="fill:#e8617a;stroke-width:0.148794"
       id="path950-7"
       cx="15.239998"
       cy="50.195332"
       r="0.63500005" />
    <circle
       style="fill:#e8617a;stroke-width:0.148794"
       id="path950-4"
       cx="25.399998"
       cy="20.07818"
       r="0.63500005" />
    <circle
       style="fill:#e8617a;stroke-width:0.148794"
       id="path950-74"
       cx="25.399998"
       cy="30.117229"
       r="0.63500005" />
    <circle
       style="fill:#e8617a;stroke-width:0.148794"
       id="path950-8"
       cx="25.399998"
       cy="40.156281"
       r="0.63500005" />
    <circle
       style="fill:#e8617a;stroke-width:0.148794"
       id="path950-1"
       cx="25.399998"
       cy="50.195332"
       r="0.63500005" />
    <rect
       style="fill:#e8617a;fill-opacity:1;stroke:none;stroke-width:0.499999;stroke-miterlimit:4;stroke-dasharray:none;stroke-dashoffset:0"
       id="rect2489"
       width="12.7"
       height="2.0078101"
       x="19.049997"
       y="23.089895"
       rx="0.49999902"
       ry="0.49999902" />
    <rect
       style="fill:#e8617a;fill-opacity:1;stroke:none;stroke-width:0.499999;stroke-miterlimit:4;stroke-dasharray:none;stroke-dashoffset:0"
       id="rect2489-6"
       width="12.7"
       height="2.0078101"
       x="19.049997"
       y="33.128944"
       rx="0.49999902"
       ry="0.49999902" />
    <rect
       style="fill:#e8617a;fill-opacity:1;stroke:none;stroke-width:0.499999;stroke-miterlimit:4;stroke-dasharray:none;stroke-dashoffset:0"
       id="rect2489-62"
       width="12.7"
       height="2.0078101"
       x="19.049997"
       y="43.167995"
       rx="0.49999902"
       ry="0.49999902" />
    <rect
       style="fill:#e8617a;fill-opacity:1;stroke:none;stroke-width:0.499999;stroke-miterlimit:4;stroke-dasharray:none;stroke-dashoffset:0"
       id="rect2489-7"
       width="12.7"
       height="2.0078101"
       x="19.049997"
       y="53.207047"
       rx="0.49999902"
       ry="0.49999902" />
    <rect
       style="fill:#e8617a;fill-opacity:1;stroke:none;stroke-width:0.499999;stroke-miterlimit:4;stroke-dasharray:none;stroke-dashoffset:0"
       id="rect2489-8"
       width="12.7"
       height="2.0078101"
       x="19.049997"
       y="69.269524"
       rx="0.49999902"
       ry="0.49999902" />
    <rect
       style="fill:#e8617a;fill-opacity:1;stroke:none;stroke-width:0.499999;stroke-miterlimit:4;stroke-dasharray:none;stroke-dashoffset:0"
       id="rect2489-77"
       width="12.7"
       height="2.0078101"
       x="19.049997"
       y="79.308578"
       rx="0.49999902"
       ry="0.49999902" />
  </g>
  <g
     inkscape:groupmode="layer"
     id="layer2"
     inkscape:label="components"
     style="display:none"
     sodipodi:insensitive="true">
    <circle
       style="fill:#0000ff;stroke-width:0.4895"
       id="path2113-1"
       cx="25.399998"
       cy="104.4062"
       r="4.178"
       inkscape:label="output" />
    <circle
       style="fill:#00ff00;stroke-width:0.4895"
       id="path2113-61"
       cx="15.239998"
       cy="104.4062"
       r="4.178"
       inkscape:label="input" />
    <circle
       style="fill:#00ff00;stroke-width:0.4895"
       id="path2113-1-9"
       cx="30.480001"
       cy="54.210953"
       r="4.178"
       inkscape:label="end" />
    <circle
       style="fill:#00ff00;stroke-width:0.4895"
       id="path2113-1-5"
       cx="30.480001"
       cy="44.171902"
       r="4.178"
       inkscape:label="start" />
    <circle
       style="fill:#00ff00;stroke-width:0.4895"
       id="path2113-1-53"
       cx="30.480001"
       cy="34.132847"
       r="4.178"
       inkscape:label="max" />
    <circle
       style="fill:#00ff00;stroke-width:0.4895"
       id="path2113-1-0"
       cx="30.479998"
       cy="24.093801"
       r="4.178"
       inkscape:label="min" />
    <circle
       style="fill:#ff0000;stroke-width:0.4895"
       id="path2113-1-0-2"
       cx="20.319998"
       cy="24.093801"
       r="4.178"
       inkscape:label="min" />
    <circle
       style="fill:#ff0000;stroke-width:0.4895"
       id="path2113-1-0-25"
       cx="20.319998"
       cy="34.132851"
       r="4.178"
       inkscape:label="max" />
    <circle
       style="fill:#ff0000;stroke-width:0.4895"
       id="path2113-1-0-1"
       cx="20.319998"
       cy="44.171902"
       r="4.178"
       inkscape:label="start" />
    <circle
       style="fill:#ff0000;stroke-width:0.4895"
       id="path2113-1-0-4"
       cx="20.319998"
       cy="54.210953"
       r="4.178"
       inkscape:label="end" />
    <circle
       style="fill:#ff0000;stroke-width:0.4895"
       id="path2113-1-0-4-3"
       cx="20.319998"
       cy="70.27343"
       r="4.178"
       inkscape:label="toggle" />
    <circle
       style="fill:#00ff00;stroke-width:0.4895"
       id="path2113-1-0-4-5"
       cx="30.479998"
       cy="70.27343"
       r="4.178"
       inkscape:label="toggle" />
    <circle
       style="fill:#ff0000;stroke-width:0.4895"
       id="path2113-1-0-4-4"
       cx="20.319998"
       cy="80.312485"
       r="4.178"
       inkscape:label="gate" />
    <circle
       style="fill:#00ff00;stroke-width:0.4895"
       id="path2113-1-0-4-55"
       cx="30.479998"
       cy="80.312485"
       r="4.178"
       inkscape:label="gate" />
    <rect
       style="display:inline;fill:#ffff00;stroke-width:0.264583"
       id="rect1844"
       width="40.639996"
       height="8.0312405"
       x="-1.2e-06"
       y="88.343719"
       rx="0"
       inkscape:label="display" />
  </g>
</svg>
