<?xml version="1.0" encoding="UTF-8" standalone="no"?>
<svg
   xmlns:dc="http://purl.org/dc/elements/1.1/"
   xmlns:cc="http://creativecommons.org/ns#"
   xmlns:rdf="http://www.w3.org/1999/02/22-rdf-syntax-ns#"
   xmlns:svg="http://www.w3.org/2000/svg"
   xmlns="http://www.w3.org/2000/svg"
   xmlns:sodipodi="http://sodipodi.sourceforge.net/DTD/sodipodi-0.dtd"
   xmlns:inkscape="http://www.inkscape.org/namespaces/inkscape"
   width="20.32mm"
   height="128.49985mm"
   viewBox="0 0 20.32 128.49985"
   version="1.1"
   id="svg8"
   inkscape:version="1.0.1 (3bc2e813f5, 2020-09-07)"
   sodipodi:docname="pete.svg">
  <defs
     id="defs2" />
  <sodipodi:namedview
     id="base"
     pagecolor="#ffffff"
     bordercolor="#666666"
     borderopacity="1.0"
     inkscape:pageopacity="0.0"
     inkscape:pageshadow="2"
     inkscape:zoom="1.2965066"
     inkscape:cx="-45.975595"
     inkscape:cy="216.33175"
     inkscape:document-units="mm"
     inkscape:current-layer="layer2"
     inkscape:document-rotation="0"
     showgrid="false"
     inkscape:snap-page="false"
     inkscape:window-width="1858"
     inkscape:window-height="1057"
     inkscape:window-x="-8"
     inkscape:window-y="-8"
     inkscape:window-maximized="1"
     inkscape:snap-center="true"
     inkscape:object-nodes="false">
    <inkscape:grid
       type="xygrid"
       id="grid833"
       units="mm"
       spacingx="2.5399999"
       spacingy="2.00781"
       empspacing="4"
       originx="20.32"
       originy="64.249923" />
  </sodipodi:namedview>
  <metadata
     id="metadata5">
    <rdf:RDF>
      <cc:Work
         rdf:about="">
        <dc:format>image/svg+xml</dc:format>
        <dc:type
           rdf:resource="http://purl.org/dc/dcmitype/StillImage" />
        <dc:title />
      </cc:Work>
    </rdf:RDF>
  </metadata>
  <g
     inkscape:label="Layer 1"
     inkscape:groupmode="layer"
     id="layer1"
     transform="translate(1.2e-6,-8.0999998e-5)">
    <rect
       style="fill:#e6e6e6;fill-opacity:1;stroke-width:0.707107"
       id="rect835"
       width="20.32"
       height="128.49985"
       x="-1.2e-06"
       y="8.0999998e-05"
       rx="0.24999951"
       ry="0.49999899"
       inkscape:label="bg"
       sodipodi:insensitive="true" />
    <g
       aria-label="pete"
       id="text840"
       style="font-style:normal;font-variant:normal;font-weight:normal;font-stretch:normal;font-size:4.23333px;line-height:1.25;font-family:'Berlin Sans FB';-inkscape-font-specification:'Berlin Sans FB';fill:#e8617a;fill-opacity:1;stroke:none;stroke-width:0.264583"
       inkscape:label="title"
       transform="translate(-10.159951)">
      <path
         d="m 18.603308,8.0447573 q 0,0.4175452 -0.264583,0.7255365 -0.276986,0.3245277 -0.68833,0.3245277 -0.256315,0 -0.448551,-0.1591633 -0.08682,-0.080615 -0.173632,-0.1632974 -0.0124,0.0062 -0.01654,0.033073 -0.0021,0.012402 -0.0021,0.2315102 l -0.0021,0.5829097 q 0,0.066146 -0.04754,0.066146 -0.318327,0 -0.376204,-0.00827 -0.04754,-0.0062 -0.04754,-0.053743 0,-0.2645831 0.0041,-0.7937493 0.0041,-0.5291662 0.0041,-0.7937493 0,-0.4857581 -0.06201,-0.9115715 -0.0041,-0.024805 -0.0041,-0.033073 0,-0.022738 0.02067,-0.028939 0.07855,-0.00413 0.229444,-0.022738 0.202571,-0.037207 0.227376,-0.037207 0.03514,0 0.04547,0.1240233 0.0062,0.082682 0.01034,0.1632974 0,0.016536 0.0124,0.033073 0.01447,-0.00827 0.03307,-0.028939 0.289388,-0.2955889 0.584977,-0.2955889 0.409277,0 0.690397,0.3203936 0.270784,0.3079913 0.270784,0.7255365 z m -0.483691,-0.00827 q 0,-0.2480467 -0.155029,-0.4361488 -0.163298,-0.2005044 -0.40721,-0.2005044 -0.239779,0 -0.392741,0.2067056 -0.140559,0.186035 -0.140559,0.4340817 0,0.2521807 0.144693,0.4382157 0.159164,0.2005044 0.405143,0.2005044 0.235645,0 0.396875,-0.2087726 0.148828,-0.1943032 0.148828,-0.4340816 z"
         style="font-style:normal;font-variant:normal;font-weight:normal;font-stretch:normal;font-size:4.23333px;font-family:'Berlin Sans FB';-inkscape-font-specification:'Berlin Sans FB';fill:#e8617a;fill-opacity:1;stroke-width:0.264583"
         id="path26" />
      <path
         d="m 20.674498,7.9290022 q 0,0.1529621 -0.132292,0.2046385 -0.08888,0.033073 -1.279507,0.1219562 0.02687,0.1819009 0.200504,0.3100584 0.165365,0.1219563 0.355534,0.1219563 0.326595,0 0.599446,-0.2108397 0.03307,-0.026872 0.06615,-0.053743 0.01654,0 0.02067,0.00413 0.0062,0.00413 0.07855,0.1446938 0.07235,0.1384928 0.07235,0.148828 0,0.012402 -0.03307,0.047542 -0.303857,0.3224607 -0.77928,0.3224607 -0.479556,0 -0.76481,-0.2852537 -0.285254,-0.2873207 -0.285254,-0.7648105 0,-0.4258135 0.272852,-0.742073 0.28732,-0.3286618 0.704865,-0.3286618 0.388607,0 0.649056,0.2852537 0.254248,0.2769854 0.254248,0.6738601 z M 20.182539,7.8029118 q 0,-0.1715656 -0.136426,-0.3038572 -0.134359,-0.1322915 -0.303857,-0.1322915 -0.190169,0 -0.338997,0.1529621 -0.146761,0.1529621 -0.146761,0.3431312 0,0.043408 0.07441,0.043408 0.305924,0 0.731737,-0.062012 0.11989,-0.016536 0.11989,-0.041341 z"
         style="font-style:normal;font-variant:normal;font-weight:normal;font-stretch:normal;font-size:4.23333px;font-family:'Berlin Sans FB';-inkscape-font-specification:'Berlin Sans FB';fill:#e8617a;fill-opacity:1;stroke-width:0.264583"
         id="path28" />
      <path
         d="m 22.115236,8.6586728 q 0,0.045475 -0.0083,0.1240233 -0.01034,0.097152 -0.0124,0.1260904 -0.0021,0.037207 -0.0062,0.045475 -0.0083,0.014469 -0.03927,0.028939 -0.169499,0.080615 -0.5333,0.080615 -0.483691,0 -0.483691,-0.4382158 0,-0.1756997 0.0083,-0.5270992 0.0083,-0.3534665 0.0083,-0.5291662 0,-0.084749 -0.08475,-0.09095 -0.07648,0 -0.150895,-0.00207 -0.04341,-0.010335 -0.04341,-0.1694986 0,-0.059945 0.0083,-0.1260903 0.0062,-0.049609 0.06615,-0.059945 0.05168,0 0.101286,-0.00207 0.09509,-0.00413 0.09509,-0.084749 0,-0.082682 -0.0062,-0.2521808 -0.0041,-0.1694985 -0.0041,-0.2542478 0,-0.1508951 0.05788,-0.1508951 0.0186,0 0.388606,0.064079 0.04754,0.0062 0.04754,0.045475 0,0.09095 -0.01447,0.2728513 -0.0124,0.1819009 -0.0124,0.2728514 0,0.059945 0.05581,0.059945 h 0.496093 q 0.03514,0 0.03514,0.024805 0,0.024805 -0.0083,0.080615 -0.0062,0.053743 -0.0062,0.080615 0,0.031006 0.0021,0.095085 0.0021,0.064079 0.0021,0.095085 0,0.039274 -0.05788,0.039274 -0.08268,0 -0.250114,-0.010335 -0.167431,-0.012402 -0.250113,-0.012402 -0.01654,0 -0.02481,0.1178222 -0.01033,0.1467609 -0.01033,0.411344 v 0.3079913 q 0,0.1777668 0.03307,0.2480467 0.04961,0.1074869 0.204639,0.1074869 0.06408,0 0.188102,-0.026872 0.124023,-0.028939 0.183968,-0.028939 0.02481,0 0.02481,0.037207 z"
         style="font-style:normal;font-variant:normal;font-weight:normal;font-stretch:normal;font-size:4.23333px;font-family:'Berlin Sans FB';-inkscape-font-specification:'Berlin Sans FB';fill:#e8617a;fill-opacity:1;stroke-width:0.264583"
         id="path30" />
      <path
         d="m 24.16162,7.9290022 q 0,0.1529621 -0.132291,0.2046385 -0.08888,0.033073 -1.279508,0.1219562 0.02687,0.1819009 0.200505,0.3100584 0.165364,0.1219563 0.355533,0.1219563 0.326595,0 0.599446,-0.2108397 0.03307,-0.026872 0.06615,-0.053743 0.01654,0 0.02067,0.00413 0.0062,0.00413 0.07855,0.1446938 0.07235,0.1384928 0.07235,0.148828 0,0.012402 -0.03307,0.047542 -0.303857,0.3224607 -0.77928,0.3224607 -0.479557,0 -0.764811,-0.2852537 Q 22.2806,8.518113 22.2806,8.0406232 q 0,-0.4258135 0.272851,-0.742073 0.287321,-0.3286618 0.704866,-0.3286618 0.388606,0 0.649055,0.2852537 0.254248,0.2769854 0.254248,0.6738601 z M 23.669661,7.8029118 q 0,-0.1715656 -0.136426,-0.3038572 -0.134358,-0.1322915 -0.303857,-0.1322915 -0.190169,0 -0.338997,0.1529621 -0.146761,0.1529621 -0.146761,0.3431312 0,0.043408 0.07441,0.043408 0.305924,0 0.731738,-0.062012 0.119889,-0.016536 0.119889,-0.041341 z"
         style="font-style:normal;font-variant:normal;font-weight:normal;font-stretch:normal;font-size:4.23333px;font-family:'Berlin Sans FB';-inkscape-font-specification:'Berlin Sans FB';fill:#e8617a;fill-opacity:1;stroke-width:0.264583"
         id="path32" />
    </g>
    <g
       aria-label="by pat"
       id="text840-6"
       style="font-style:normal;font-variant:normal;font-weight:normal;font-stretch:normal;font-size:3.52778px;line-height:1.25;font-family:'Berlin Sans FB';-inkscape-font-specification:'Berlin Sans FB';fill:#e8617a;fill-opacity:1;stroke:none;stroke-width:0.264583"
       inkscape:label="footer">
      <path
         d="m 7.1825727,120.5884 q 0,0.34106 -0.2118735,0.59428 -0.2256539,0.26871 -0.5615509,0.26871 -0.2239314,0 -0.3944637,-0.11369 -0.068902,-0.0586 -0.1378039,-0.11541 -0.018948,0.005 -0.025838,0.10336 -0.00517,0.0982 -0.027561,0.0982 H 5.4600239 q -0.020671,0 -0.020671,-0.0224 0,0.002 0.00345,-0.031 0.027561,-0.2756 0.027561,-1.0542 0,-0.31867 -0.027561,-0.93534 -0.017226,-0.39274 -0.017226,-0.34451 0,-0.0448 0.044786,-0.0499 0.062012,-0.002 0.1843127,-0.007 0.024116,-0.002 0.098185,-0.0121 0.062012,-0.0103 0.099908,-0.0103 0.027561,0 0.027561,0.0396 0,0.0586 -0.00861,0.17915 -0.00861,0.12057 -0.00861,0.18086 0,0.0896 -0.00861,0.27044 -0.00689,0.17915 -0.00689,0.26872 0,0.0655 0.024116,0.0655 0.012058,0 0.025838,-0.0189 0.1894804,-0.23599 0.5012617,-0.23599 0.3565676,0 0.5770539,0.267 0.2067058,0.25149 0.2067058,0.61495 z m -0.389296,-0.0155 q 0,-0.20498 -0.1291912,-0.36173 -0.1378039,-0.16709 -0.3393421,-0.16709 -0.2067059,0 -0.3445098,0.16364 -0.1326362,0.15503 -0.1326362,0.36518 0,0.2136 0.1326362,0.36863 0.1378039,0.16192 0.3479549,0.16192 0.2032608,0 0.3393421,-0.16709 0.1257461,-0.15503 0.1257461,-0.36346 z"
         style="font-style:normal;font-variant:normal;font-weight:normal;font-stretch:normal;font-size:3.52778px;font-family:'Berlin Sans FB';-inkscape-font-specification:'Berlin Sans FB';fill:#e8617a;fill-opacity:1;stroke-width:0.264583"
         id="path885" />
      <path
         d="m 8.8792833,120.22149 q 0,0.29111 -0.017226,0.3514 -0.022393,0.0775 -0.4271921,0.67696 -0.4030764,0.59773 -0.4788686,0.66835 -0.068902,0.062 -0.4444176,0.062 -0.044786,0 -0.058567,-0.0103 -0.012058,-0.009 -0.058567,-0.12402 -0.044786,-0.11541 -0.044786,-0.13781 0,-0.0379 0.091295,-0.0379 0.1929255,0 0.2842206,-0.0551 0.031006,-0.0189 0.093018,-0.11886 0.063734,-0.0999 0.063734,-0.13436 0,-0.0465 -0.2497696,-0.36346 -0.2635499,-0.33589 -0.2945558,-0.42547 -0.024116,-0.0706 -0.024116,-0.33762 0,-0.0654 0.00172,-0.19637 0.00172,-0.13263 0.00172,-0.19981 0,-0.0379 0.041341,-0.0379 0.055122,0 0.1619196,0.007 0.1085205,0.007 0.1636421,0.007 0.027561,0 0.027561,0.0362 0,0.0482 -0.00517,0.14469 -0.00517,0.0965 -0.00517,0.14469 0,0.21015 0.01378,0.31351 0.010335,0.0654 0.1877578,0.32556 0.1774225,0.2601 0.2187637,0.2601 0.029283,0 0.1860353,-0.25493 0.1567519,-0.25666 0.1670872,-0.31695 0.01378,-0.0861 0.01378,-0.31351 0,-0.0499 -0.010335,-0.14641 -0.010335,-0.0982 -0.010335,-0.14642 0,-0.0431 0.027561,-0.0431 0.055122,0 0.1653647,-0.007 0.1119657,-0.009 0.1670872,-0.009 0.051677,0 0.051677,0.41858 z"
         style="font-style:normal;font-variant:normal;font-weight:normal;font-stretch:normal;font-size:3.52778px;font-family:'Berlin Sans FB';-inkscape-font-specification:'Berlin Sans FB';fill:#e8617a;fill-opacity:1;stroke-width:0.264583"
         id="path887" />
      <path
         d="m 11.712876,120.59184 q 0,0.34796 -0.220486,0.60462 -0.230822,0.27044 -0.573609,0.27044 -0.213596,0 -0.373793,-0.13264 -0.07235,-0.0672 -0.144694,-0.13608 -0.01034,0.005 -0.01378,0.0276 -0.0017,0.0103 -0.0017,0.19292 l -0.0017,0.48576 q 0,0.0551 -0.03962,0.0551 -0.265273,0 -0.313504,-0.007 -0.039619,-0.005 -0.039619,-0.0448 0,-0.22049 0.00345,-0.66146 0.00345,-0.44097 0.00345,-0.66146 0,-0.4048 -0.051676,-0.75964 -0.00345,-0.0207 -0.00345,-0.0276 0,-0.0189 0.017225,-0.0241 0.065457,-0.003 0.191203,-0.019 0.16881,-0.031 0.189481,-0.031 0.02928,0 0.0379,0.10335 0.0052,0.0689 0.0086,0.13608 0,0.0138 0.01034,0.0276 0.01206,-0.007 0.02756,-0.0241 0.241157,-0.24633 0.487482,-0.24633 0.341064,0 0.575331,0.267 0.225654,0.25666 0.225654,0.60461 z m -0.403076,-0.007 q 0,-0.2067 -0.129192,-0.36346 -0.136081,-0.16708 -0.339342,-0.16708 -0.199815,0 -0.327284,0.17225 -0.117133,0.15503 -0.117133,0.36174 0,0.21015 0.120578,0.36518 0.132636,0.16708 0.33762,0.16708 0.19637,0 0.330729,-0.17397 0.124024,-0.16192 0.124024,-0.36174 z"
         style="font-style:normal;font-variant:normal;font-weight:normal;font-stretch:normal;font-size:3.52778px;font-family:'Berlin Sans FB';-inkscape-font-specification:'Berlin Sans FB';fill:#e8617a;fill-opacity:1;stroke-width:0.264583"
         id="path889" />
      <path
         d="m 13.654189,119.86148 q 0,0.007 -0.0052,0.031 -0.06718,0.39446 -0.06718,0.6804 0,0.0172 0.04306,0.77343 l 0.0017,0.0241 q 0.0017,0.05 -0.04651,0.05 -0.04651,0 -0.142972,0.0103 -0.09474,0.0121 -0.141249,0.0121 -0.03273,0 -0.04995,-0.12058 -0.01722,-0.12058 -0.03273,-0.12058 -0.01033,0 -0.09302,0.0672 -0.10163,0.0827 -0.18948,0.12575 -0.136081,0.0689 -0.272163,0.0689 -0.334174,0 -0.563273,-0.26699 -0.217041,-0.25494 -0.217041,-0.59428 0,-0.38241 0.218763,-0.63218 0.229099,-0.2601 0.602892,-0.2601 0.26355,0 0.459921,0.18259 0.02928,0.0345 0.09129,0.0999 0.0052,0.005 0.01034,0.005 0.01034,0 0.02928,-0.10852 0.01895,-0.10852 0.04823,-0.10852 0.04651,0 0.173978,0.0258 0.141249,0.031 0.141249,0.0551 z m -0.43925,0.72003 q 0,-0.21188 -0.125746,-0.36346 -0.132637,-0.16364 -0.339343,-0.16364 -0.206705,0 -0.344509,0.16192 -0.132637,0.15503 -0.132637,0.36518 0,0.20842 0.132637,0.36173 0.137804,0.1602 0.344509,0.1602 0.201539,0 0.33762,-0.16364 0.127469,-0.15331 0.127469,-0.35829 z"
         style="font-style:normal;font-variant:normal;font-weight:normal;font-stretch:normal;font-size:3.52778px;font-family:'Berlin Sans FB';-inkscape-font-specification:'Berlin Sans FB';fill:#e8617a;fill-opacity:1;stroke-width:0.264583"
         id="path891" />
      <path
         d="m 14.894424,121.10344 q 0,0.0379 -0.0069,0.10335 -0.0086,0.081 -0.01033,0.10508 -0.0017,0.031 -0.0052,0.0379 -0.0069,0.0121 -0.03273,0.0241 -0.141249,0.0672 -0.444417,0.0672 -0.403077,0 -0.403077,-0.36518 0,-0.14642 0.0069,-0.43925 0.0069,-0.29456 0.0069,-0.44097 0,-0.0706 -0.07062,-0.0758 -0.06373,0 -0.125746,-0.002 -0.03617,-0.009 -0.03617,-0.14125 0,-0.0499 0.0069,-0.10507 0.0052,-0.0413 0.05512,-0.05 0.04306,0 0.08441,-0.002 0.07924,-0.003 0.07924,-0.0706 0,-0.0689 -0.0052,-0.21015 -0.0034,-0.14125 -0.0034,-0.21187 0,-0.12575 0.04823,-0.12575 0.0155,0 0.323839,0.0534 0.03962,0.005 0.03962,0.0379 0,0.0758 -0.01206,0.22738 -0.01033,0.15158 -0.01033,0.22737 0,0.05 0.04651,0.05 h 0.413412 q 0.02928,0 0.02928,0.0207 0,0.0207 -0.0069,0.0672 -0.0052,0.0448 -0.0052,0.0672 0,0.0258 0.0017,0.0792 0.0017,0.0534 0.0017,0.0792 0,0.0327 -0.04823,0.0327 -0.0689,0 -0.208428,-0.009 -0.139527,-0.0103 -0.208428,-0.0103 -0.01378,0 -0.02067,0.0982 -0.0086,0.1223 -0.0086,0.34278 v 0.25666 q 0,0.14814 0.02756,0.20671 0.04134,0.0896 0.170532,0.0896 0.0534,0 0.156752,-0.0224 0.103353,-0.0241 0.153307,-0.0241 0.02067,0 0.02067,0.031 z"
         style="font-style:normal;font-variant:normal;font-weight:normal;font-stretch:normal;font-size:3.52778px;font-family:'Berlin Sans FB';-inkscape-font-specification:'Berlin Sans FB';fill:#e8617a;fill-opacity:1;stroke-width:0.264583"
         id="path893" />
    </g>
    <g
       aria-label=":^)"
       id="text840-6-7"
       style="font-style:normal;font-variant:normal;font-weight:bold;font-stretch:normal;font-size:3.52777px;line-height:1.25;font-family:Calibri;-inkscape-font-specification:'Calibri Bold';fill:#e8617a;fill-opacity:1;stroke:none;stroke-width:0.264583"
       inkscape:label="smiley"
       transform="translate(-20.5224,3.968756)">
      <path
         d="m 29.484368,120.07767 q 0,0.0723 -0.01206,0.12057 -0.01206,0.0482 -0.04134,0.0792 -0.02756,0.031 -0.07407,0.0448 -0.04651,0.0121 -0.117133,0.0121 -0.07062,0 -0.117133,-0.0121 -0.04651,-0.0138 -0.07579,-0.0448 -0.02756,-0.031 -0.0379,-0.0792 -0.01034,-0.0482 -0.01034,-0.12057 0,-0.0741 0.01034,-0.12403 0.01033,-0.0499 0.0379,-0.081 0.02928,-0.031 0.07579,-0.0448 0.04651,-0.0138 0.117133,-0.0138 0.07062,0 0.117133,0.0138 0.04651,0.0138 0.07407,0.0448 0.02928,0.031 0.04134,0.081 0.01206,0.05 0.01206,0.12403 z m 0,1.12482 q 0,0.0723 -0.01206,0.1223 -0.01206,0.0482 -0.04134,0.0792 -0.02756,0.031 -0.07407,0.0431 -0.04651,0.0138 -0.117133,0.0138 -0.07062,0 -0.117133,-0.0138 -0.04651,-0.0121 -0.07579,-0.0431 -0.02756,-0.031 -0.0379,-0.0792 -0.01034,-0.05 -0.01034,-0.1223 0,-0.0724 0.01034,-0.1223 0.01033,-0.0517 0.0379,-0.0827 0.02928,-0.031 0.07579,-0.0431 0.04651,-0.0138 0.117133,-0.0138 0.07062,0 0.117133,0.0138 0.04651,0.0121 0.07407,0.0431 0.02928,0.031 0.04134,0.0827 0.01206,0.0499 0.01206,0.1223 z"
         style="font-style:normal;font-variant:normal;font-weight:bold;font-stretch:normal;font-size:3.52777px;font-family:Calibri;-inkscape-font-specification:'Calibri Bold';fill:#e8617a;fill-opacity:1;stroke-width:0.264583"
         id="path878" />
      <path
         d="m 31.363663,120.41184 q 0.02239,0.0482 0.02756,0.0775 0.0052,0.0293 -0.01378,0.0448 -0.01723,0.0155 -0.06201,0.0207 -0.04306,0.003 -0.118855,0.003 -0.06718,0 -0.111966,-0.003 -0.04306,-0.005 -0.07235,-0.0138 -0.02756,-0.0103 -0.04306,-0.0241 -0.01378,-0.0155 -0.02239,-0.0362 l -0.380683,-0.93189 -0.0086,0.002 -0.36518,0.93017 q -0.0086,0.0207 -0.02412,0.0362 -0.01378,0.0138 -0.04134,0.0241 -0.02756,0.009 -0.07235,0.0138 -0.04306,0.003 -0.110243,0.003 -0.07579,0 -0.118855,-0.003 -0.04134,-0.005 -0.06029,-0.0207 -0.01722,-0.0155 -0.01206,-0.0448 0.0052,-0.0293 0.02756,-0.0775 l 0.496093,-1.12999 q 0.01033,-0.0224 0.03101,-0.0379 0.02067,-0.0172 0.05512,-0.0276 0.03617,-0.0121 0.08613,-0.0172 0.04995,-0.007 0.118856,-0.007 0.0689,0 0.118856,0.007 0.05168,0.005 0.08613,0.0172 0.03445,0.0103 0.05512,0.0276 0.02067,0.0155 0.03101,0.0379 z"
         style="font-style:normal;font-variant:normal;font-weight:bold;font-stretch:normal;font-size:3.52777px;font-family:Calibri;-inkscape-font-specification:'Calibri Bold';fill:#e8617a;fill-opacity:1;stroke-width:0.264583"
         id="path880" />
      <path
         d="m 32.366184,120.51175 q 0,0.19465 -0.02239,0.38413 -0.02239,0.18775 -0.0689,0.37379 -0.04479,0.18431 -0.113688,0.36518 -0.06718,0.18259 -0.160196,0.36173 -0.0052,0.0121 -0.01895,0.0207 -0.01206,0.0103 -0.03617,0.0155 -0.02239,0.007 -0.05684,0.0103 -0.03445,0.003 -0.08268,0.003 -0.07062,0 -0.110243,-0.007 -0.0379,-0.007 -0.05684,-0.0207 -0.01895,-0.0138 -0.01895,-0.0344 0,-0.0189 0.01034,-0.0465 0.142971,-0.33761 0.21704,-0.69418 0.07579,-0.35829 0.07579,-0.73553 0,-0.37551 -0.07407,-0.73208 -0.07407,-0.35829 -0.220486,-0.69418 -0.0086,-0.0224 -0.0069,-0.0413 0.0034,-0.019 0.02412,-0.031 0.02239,-0.0121 0.06029,-0.0172 0.03962,-0.007 0.103352,-0.007 0.0534,0 0.08785,0.003 0.03445,0.002 0.05684,0.009 0.02239,0.005 0.03101,0.0121 0.01034,0.007 0.0155,0.0155 0.179144,0.36174 0.272162,0.73208 0.09302,0.36863 0.09302,0.75448 z"
         style="font-style:normal;font-variant:normal;font-weight:bold;font-stretch:normal;font-size:3.52777px;font-family:Calibri;-inkscape-font-specification:'Calibri Bold';fill:#e8617a;fill-opacity:1;stroke-width:0.264583"
         id="path882" />
    </g>
    <circle
       style="fill:#00ff00;stroke-width:0.4895"
       id="path2113"
       cx="-28.841997"
       cy="2.1702719"
       r="4.178" />
    <circle
       style="fill:#ff0000;stroke-width:0.648899"
       id="path2113-6"
       cx="-30.021498"
       cy="23.60887"
       r="5.5384998" />
    <rect
       style="fill:#e8617a;fill-opacity:1;stroke:none;stroke-width:0.499999;stroke-miterlimit:4;stroke-dasharray:none;stroke-dashoffset:0"
       id="rect2489-9"
       width="12.7"
       height="2.0078101"
       x="-16.509998"
       y="-47.183601"
       rx="0.49999905"
       ry="0.49999905"
       transform="scale(-1)" />
    <g
       aria-label="out"
       id="text231"
       style="font-size:3.175px;line-height:1.25;font-family:'Berlin Sans FB';-inkscape-font-specification:'Berlin Sans FB';fill:#e8617a;stroke-width:0.264583"
       transform="translate(1.8255603e-7,-2.0078259)">
      <path
         d="m 4.4141486,30.342801 q 0,0.324011 -0.2123901,0.553454 -0.2170411,0.237195 -0.5379517,0.237195 -0.3224609,0 -0.5395019,-0.235644 -0.2123902,-0.227893 -0.2123902,-0.551904 0,-0.324012 0.2123902,-0.551905 0.2185913,-0.232544 0.5395019,-0.232544 0.3193604,0 0.5364014,0.232544 0.2139404,0.226343 0.2139404,0.548804 z m -0.3271118,0.0031 q 0,-0.189136 -0.116272,-0.322461 -0.1209228,-0.141077 -0.306958,-0.141077 -0.1860351,0 -0.3085083,0.139526 -0.116272,0.134876 -0.116272,0.324012 0,0.186035 0.1178223,0.32246 0.1240234,0.144178 0.306958,0.144178 0.1844849,0 0.306958,-0.144178 0.116272,-0.136425 0.116272,-0.32246 z"
         style="fill:#e8617a;stroke-width:0.264583"
         id="path482" />
      <path
         d="m 6.0683111,29.691678 q 0,0.113171 -0.0093,0.342615 -0.0093,0.227893 -0.0093,0.342614 0,0.113172 0.0062,0.339515 0.00775,0.224792 0.00775,0.337963 0,0.03101 -0.029456,0.04031 -0.012402,0.0031 -0.3147095,0.0031 -0.018604,0 -0.023254,-0.116272 -0.0031,-0.116272 -0.017053,-0.116272 -0.00775,0 -0.023254,0.01395 -0.2588989,0.224793 -0.5115967,0.224793 -0.3426147,0 -0.4526855,-0.248047 -0.068213,-0.153479 -0.068213,-0.551904 0,-0.359668 0.057361,-0.609266 0.013953,-0.06046 0.05116,-0.06046 0.044959,0 0.1348755,0.0016 0.089917,0.0016 0.1348755,0.0016 0.031006,0 0.031006,0.03411 0,0.06046 -0.020154,0.201538 -0.021704,0.150379 -0.023254,0.21239 -0.00465,0.09302 -0.00465,0.204639 0,0.271301 0.038757,0.364319 0.066663,0.167431 0.2961059,0.167431 0.097669,0 0.2309937,-0.09612 0.1410766,-0.100769 0.1457275,-0.193786 0.00775,-0.116272 0.00775,-0.818555 0,-0.07596 0.063562,-0.07596 h 0.2557983 q 0.044958,0 0.044958,0.05426 z"
         style="fill:#e8617a;stroke-width:0.264583"
         id="path484" />
      <path
         d="m 7.248084,30.81254 q 0,0.03411 -0.0062,0.09302 -0.00775,0.07286 -0.0093,0.09457 -0.00155,0.02791 -0.00465,0.03411 -0.0062,0.01085 -0.029456,0.0217 -0.127124,0.06046 -0.3999756,0.06046 -0.3627685,0 -0.3627685,-0.328662 0,-0.131775 0.0062,-0.395325 0.0062,-0.2651 0.0062,-0.396875 0,-0.06356 -0.063562,-0.06821 -0.057361,0 -0.1131714,-0.0016 -0.032556,-0.0078 -0.032556,-0.127124 0,-0.04496 0.0062,-0.09457 0.00465,-0.03721 0.049609,-0.04496 0.038757,0 0.075964,-0.0016 0.071313,-0.0031 0.071313,-0.06356 0,-0.06201 -0.00465,-0.189135 -0.0031,-0.127124 -0.0031,-0.190686 0,-0.113172 0.043408,-0.113172 0.013953,0 0.291455,0.04806 0.035657,0.0047 0.035657,0.03411 0,0.06821 -0.010852,0.204638 -0.0093,0.136426 -0.0093,0.204639 0,0.04496 0.041858,0.04496 h 0.3720703 q 0.026355,0 0.026355,0.0186 0,0.0186 -0.0062,0.06046 -0.00465,0.04031 -0.00465,0.06046 0,0.02325 0.00155,0.07131 0.00155,0.04806 0.00155,0.07131 0,0.02946 -0.043408,0.02946 -0.062012,0 -0.1875855,-0.0078 -0.1255737,-0.0093 -0.1875854,-0.0093 -0.012402,0 -0.018603,0.08837 -0.00775,0.110071 -0.00775,0.308508 V 30.5597 q 0,0.133325 0.024805,0.186035 0.037207,0.08061 0.153479,0.08061 0.048059,0 0.1410767,-0.02015 0.093018,-0.02171 0.137976,-0.02171 0.018604,0 0.018604,0.02791 z"
         style="fill:#e8617a;stroke-width:0.264583"
         id="path486" />
    </g>
    <g
       aria-label="in"
       id="text227"
       style="font-size:3.175px;line-height:1.25;font-family:'Berlin Sans FB';-inkscape-font-specification:'Berlin Sans FB';fill:#e8617a;stroke-width:0.264583"
       transform="translate(1.8255603e-7,-2.0078259)">
      <path
         d="m 4.4629828,19.246453 q 0,0.190686 -0.2123901,0.190686 -0.2154907,0 -0.2154907,-0.190686 0,-0.08527 0.066663,-0.141077 0.062012,-0.05271 0.1488281,-0.05271 0.086816,0 0.1488281,0.05426 0.063562,0.05426 0.063562,0.139527 z m -0.010852,0.420129 q 0,0.119373 -0.015503,0.361218 -0.013953,0.240296 -0.013953,0.361219 0,0.113171 0.00465,0.339514 0.00465,0.224792 0.00465,0.336413 0,0.03256 -0.027905,0.03256 H 4.1017646 q -0.032556,0 -0.032556,-0.06356 0,-0.106971 0.00465,-0.320911 0.0062,-0.215491 0.0062,-0.324011 0,-0.120923 -0.018604,-0.362769 -0.017053,-0.241846 -0.017053,-0.362768 0,-0.02635 0.032556,-0.02635 0.027905,0 0.085266,0.0078 0.058911,0.0078 0.088367,0.0078 0.029456,0 0.086816,-0.0078 0.058911,-0.0078 0.088367,-0.0078 0.026355,0 0.026355,0.02945 z"
         style="fill:#e8617a;stroke-width:0.264583"
         id="path477" />
      <path
         d="m 6.1248968,21.069597 q 0,0.03411 -0.031006,0.03411 -0.05116,0 -0.153479,-0.0016 -0.1007691,-0.0016 -0.1519287,-0.0016 -0.027905,0 -0.027905,-0.04496 0,-0.07597 0.00465,-0.230994 0.00465,-0.155029 0.00465,-0.232544 0,-0.06201 -0.00155,-0.184485 -0.00155,-0.124023 -0.00155,-0.186035 0,-0.176733 -0.05116,-0.249597 -0.062012,-0.08682 -0.2294433,-0.08682 -0.077515,0 -0.2154908,0.08682 -0.1457275,0.09147 -0.1457275,0.162781 v 0.930175 q 0,0.03876 -0.029456,0.03876 -0.049609,0 -0.1488281,-0.0016 -0.099219,-0.0016 -0.1488281,-0.0016 -0.032556,0 -0.032556,-0.03566 0,-0.122473 0.0031,-0.367419 0.00465,-0.244946 0.00465,-0.36897 0,-0.330212 -0.069763,-0.609265 -0.00465,-0.01395 -0.00465,-0.02015 0,-0.0155 0.020154,-0.0217 0.010852,-0.0016 0.1767334,-0.02791 0.1674317,-0.02791 0.1751831,-0.02791 0.0093,0 0.012402,0.0248 0.00775,0.09612 0.035657,0.193787 0.080615,-0.06356 0.2123902,-0.15813 0.1627807,-0.09922 0.3147094,-0.09922 0.2914551,0 0.3984253,0.168982 0.079065,0.124024 0.079065,0.401526 0,0.04806 -0.0031,0.147278 -0.00155,0.09922 -0.00155,0.148828 0,0.10387 0.0031,0.310059 0.0031,0.206189 0.0031,0.310058 z"
         style="fill:#e8617a;stroke-width:0.264583"
         id="path479" />
    </g>
    <g
       aria-label="bpm"
       id="text235"
       style="font-size:3.175px;line-height:1.25;font-family:'Berlin Sans FB';-inkscape-font-specification:'Berlin Sans FB';fill:#e8617a;stroke-width:0.264583"
       transform="translate(1.8255603e-7,-2.0078259)">
      <path
         d="m 8.7662858,40.27333 q 0,0.306958 -0.1906861,0.534851 -0.2030883,0.241846 -0.5053955,0.241846 -0.201538,0 -0.355017,-0.10232 -0.062012,-0.05271 -0.1240235,-0.103869 -0.017053,0.0047 -0.023254,0.09302 -0.00465,0.08837 -0.024805,0.08837 H 7.2159928 q -0.018604,0 -0.018604,-0.02015 0,0.0016 0.0031,-0.02791 0.024805,-0.248047 0.024805,-0.948779 0,-0.286805 -0.024805,-0.841809 -0.015503,-0.353467 -0.015503,-0.310059 0,-0.04031 0.040308,-0.04496 0.055811,-0.0015 0.1658813,-0.0062 0.021704,-0.0016 0.088367,-0.01085 0.055811,-0.0093 0.089917,-0.0093 0.024805,0 0.024805,0.03566 0,0.05271 -0.00775,0.161231 -0.00775,0.10852 -0.00775,0.16278 0,0.08062 -0.00775,0.243396 -0.0062,0.161231 -0.0062,0.241846 0,0.05891 0.021704,0.05891 0.010852,0 0.023254,-0.01705 0.1705323,-0.21239 0.4511353,-0.21239 0.3209106,0 0.5193481,0.240295 0.1860352,0.226343 0.1860352,0.553455 z M 8.4159196,40.25938 q 0,-0.184485 -0.116272,-0.325561 -0.1240234,-0.150379 -0.3054077,-0.150379 -0.1860352,0 -0.3100586,0.147278 -0.1193726,0.139527 -0.1193726,0.328662 0,0.192237 0.1193726,0.331763 0.1240234,0.145728 0.3131592,0.145728 0.1829345,0 0.3054077,-0.150379 0.1131714,-0.139526 0.1131714,-0.327112 z"
         style="fill:#e8617a;stroke-width:0.264583"
         id="path489" />
      <path
         d="m 10.538271,40.276431 q 0,0.313159 -0.198438,0.544152 -0.207739,0.243396 -0.5162474,0.243396 -0.1922363,0 -0.3364136,-0.119372 -0.065112,-0.06046 -0.1302246,-0.122473 -0.0093,0.0047 -0.012402,0.0248 -0.00155,0.0093 -0.00155,0.173633 l -0.00155,0.437183 q 0,0.04961 -0.035657,0.04961 -0.2387451,0 -0.2821533,-0.0062 -0.035657,-0.0047 -0.035657,-0.04031 0,-0.198437 0.0031,-0.595312 0.0031,-0.396875 0.0031,-0.595313 0,-0.364318 -0.046509,-0.683679 -0.0031,-0.0186 -0.0031,-0.02481 0,-0.01705 0.015503,-0.0217 0.058911,-0.0031 0.1720825,-0.01705 0.1519287,-0.0279 0.1705323,-0.0279 0.026355,0 0.034106,0.09302 0.00465,0.06201 0.00775,0.122474 0,0.0124 0.0093,0.0248 0.010852,-0.0062 0.024805,-0.0217 0.217041,-0.221692 0.4387329,-0.221692 0.3069572,0 0.5177972,0.240296 0.203089,0.230993 0.203089,0.544153 z m -0.362769,-0.0062 q 0,-0.186035 -0.116272,-0.327111 -0.122473,-0.150379 -0.3054076,-0.150379 -0.179834,0 -0.2945557,0.155029 -0.1054199,0.139527 -0.1054199,0.325562 0,0.189136 0.1085205,0.328662 0.1193726,0.150378 0.3038575,0.150378 0.1767333,0 0.2976562,-0.156579 0.111621,-0.145728 0.111621,-0.325562 z"
         style="fill:#e8617a;stroke-width:0.264583"
         id="path491" />
      <path
         d="m 13.135011,40.964761 q 0,0.06046 -0.03566,0.06046 -0.02325,0 -0.07131,-0.0047 -0.04651,-0.0047 -0.07131,-0.0047 -0.02636,0 -0.07906,0.0031 -0.05271,0.0031 -0.07906,0.0031 -0.03256,0 -0.03256,-0.07286 0,-0.07131 0.0047,-0.21239 0.0062,-0.142627 0.0062,-0.213941 0,-0.392224 -0.0031,-0.437183 -0.0124,-0.15968 -0.06511,-0.220141 -0.06046,-0.06511 -0.215491,-0.06511 -0.09767,0 -0.220142,0.09302 -0.127124,0.09767 -0.131774,0.192236 -0.0062,0.120923 -0.0062,0.441834 0,0.07596 0.0062,0.227893 0.0062,0.151929 0.0062,0.227893 0,0.04186 -0.02791,0.04186 -0.02791,0 -0.08216,-0.0047 -0.05271,-0.0047 -0.08061,-0.0047 -0.02481,0 -0.07286,0.0031 -0.04806,0.0031 -0.07286,0.0031 -0.03101,0 -0.03101,-0.04496 0,-0.07441 0.0047,-0.223242 0.0047,-0.150379 0.0047,-0.224793 v -0.37362 q 0,-0.175183 -0.04186,-0.249597 -0.05891,-0.10542 -0.224792,-0.10542 -0.09767,0 -0.232544,0.08216 -0.148828,0.08992 -0.148828,0.181384 v 0.452686 q 0,0.07751 0.0015,0.230994 0.0015,0.153479 0.0015,0.229443 0,0.04496 -0.03566,0.04496 h -0.288354 q -0.03101,0 -0.03101,-0.04186 0,-0.125574 0.0015,-0.376722 0.0016,-0.252697 0.0016,-0.378271 0,-0.283704 -0.06046,-0.565857 -0.0047,-0.02015 -0.0047,-0.03256 0,-0.02015 0.01395,-0.02325 0.05736,-0.0062 0.167432,-0.02325 0.05116,-0.0155 0.153479,-0.03411 l 0.0124,-0.0016 q 0.0186,0 0.03411,0.110071 0.01705,0.108521 0.02946,0.108521 0,0 0.07752,-0.06821 0.09147,-0.07906 0.182934,-0.125574 0.131775,-0.06821 0.26355,-0.06821 0.356567,0 0.454236,0.291455 0.09612,-0.124023 0.238745,-0.204639 0.151929,-0.08682 0.300757,-0.08682 0.286804,0 0.396875,0.167432 0.07906,0.124023 0.07906,0.392224 0,0.05116 -0.0031,0.15813 -0.0031,0.10697 -0.0031,0.15813 0,0.09767 0.0046,0.294555 0.0047,0.195337 0.0047,0.293006 z"
         style="fill:#e8617a;stroke-width:0.264583"
         id="path493" />
    </g>
    <g
       aria-label="on?"
       id="text239"
       style="font-size:3.175px;line-height:1.25;font-family:'Berlin Sans FB';-inkscape-font-specification:'Berlin Sans FB';fill:#e8617a;stroke-width:0.264583"
       transform="translate(1.8255603e-7,-2.0078259)">
      <path
         d="m 9.4522903,56.525723 q 0,0.324012 -0.2123901,0.553455 -0.217041,0.237195 -0.5379517,0.237195 -0.3224609,0 -0.5395019,-0.235645 -0.2123901,-0.227893 -0.2123901,-0.551904 0,-0.324011 0.2123901,-0.551904 0.2185913,-0.232544 0.5395019,-0.232544 0.3193604,0 0.5364014,0.232544 0.2139404,0.226342 0.2139404,0.548803 z m -0.3271118,0.0031 q 0,-0.189136 -0.116272,-0.322461 -0.1209228,-0.141077 -0.306958,-0.141077 -0.1860351,0 -0.3085083,0.139527 -0.1162719,0.134875 -0.1162719,0.324011 0,0.186035 0.1178222,0.322461 0.1240235,0.144177 0.306958,0.144177 0.1844849,0 0.306958,-0.144177 0.116272,-0.136426 0.116272,-0.322461 z"
         style="fill:#e8617a;stroke-width:0.264583"
         id="path496" />
      <path
         d="m 11.03669,57.24971 q 0,0.03411 -0.03101,0.03411 -0.05116,0 -0.153479,-0.0016 -0.100769,-0.0016 -0.151929,-0.0016 -0.02791,0 -0.02791,-0.04496 0,-0.07596 0.0047,-0.230993 0.0047,-0.155029 0.0047,-0.232544 0,-0.06201 -0.0016,-0.184485 -0.0015,-0.124023 -0.0015,-0.186035 0,-0.176734 -0.05116,-0.249597 -0.06201,-0.08682 -0.229443,-0.08682 -0.07752,0 -0.215491,0.08682 -0.145727,0.09147 -0.145727,0.16278 v 0.930176 q 0,0.03876 -0.02946,0.03876 -0.049609,0 -0.148828,-0.0016 -0.099219,-0.0016 -0.1488281,-0.0016 -0.032556,0 -0.032556,-0.03566 0,-0.122473 0.0031,-0.367419 0.00465,-0.244947 0.00465,-0.36897 0,-0.330212 -0.069763,-0.609265 -0.00465,-0.01395 -0.00465,-0.02015 0,-0.0155 0.020154,-0.0217 0.010852,-0.0015 0.1767334,-0.0279 0.1674316,-0.02791 0.1751831,-0.02791 0.0093,0 0.012402,0.02481 0.00775,0.09612 0.035657,0.193787 0.08061,-0.06356 0.21239,-0.15813 0.16278,-0.09922 0.314709,-0.09922 0.291455,0 0.398425,0.168982 0.07906,0.124024 0.07906,0.401526 0,0.04806 -0.0031,0.147278 -0.0016,0.09922 -0.0016,0.148828 0,0.10387 0.0031,0.310058 0.0031,0.206189 0.0031,0.310059 z"
         style="fill:#e8617a;stroke-width:0.264583"
         id="path498" />
      <path
         d="m 12.369942,55.699417 q 0,0.224793 -0.133326,0.398425 -0.01705,0.02015 -0.254248,0.254248 -0.142627,0.137977 -0.155029,0.271302 -0.0031,0.03411 -0.0062,0.06821 -0.0062,0.02635 -0.04496,0.04031 -0.04496,0.0155 -0.06976,0.0155 -0.07906,0 -0.09302,-0.0047 -0.03721,-0.01395 -0.03721,-0.07441 0,-0.186035 0.06356,-0.296106 0.102319,-0.133325 0.203088,-0.2682 0.120923,-0.161231 0.120923,-0.308509 0,-0.144177 -0.08372,-0.232544 -0.08216,-0.08837 -0.224792,-0.08837 -0.114722,0 -0.255799,0.08061 -0.139526,0.08062 -0.133325,0.08062 -0.04806,0 -0.04806,-0.297656 0,-0.0217 0.04651,-0.05426 0.243396,-0.168982 0.511596,-0.168982 0.262,0 0.427881,0.16123 0.165882,0.161231 0.165882,0.42323 z m -0.441834,1.406116 q 0,0.08682 -0.05736,0.151929 -0.05736,0.06511 -0.142627,0.06511 -0.08371,0 -0.141076,-0.06511 -0.05581,-0.06511 -0.05581,-0.151929 0,-0.08682 0.05581,-0.148828 0.05581,-0.06356 0.141076,-0.06356 0.08682,0 0.142627,0.06356 0.05736,0.06201 0.05736,0.148828 z"
         style="fill:#e8617a;stroke-width:0.264583"
         id="path500" />
    </g>
    <g
       aria-label="div"
       id="text243"
       style="font-size:3.175px;line-height:1.25;font-family:'Berlin Sans FB';-inkscape-font-specification:'Berlin Sans FB';fill:#e8617a;stroke-width:0.264583"
       transform="translate(1.8255603e-7,-2.0078259)">
      <path
         d="m 9.7956808,71.196816 q 0,0.199987 -0.018603,0.599963 -0.017053,0.398425 -0.017053,0.596863 0,0.612365 0.026355,0.927075 l 0.00155,0.02015 q 0.00155,0.0155 -0.041858,0.02015 -0.029456,0.0031 -0.083716,0 -0.065112,-0.0046 -0.060461,-0.0046 -0.023254,0 -0.068213,0.0046 -0.044958,0.0047 -0.068213,0.0047 -0.021704,0 -0.026355,-0.10697 -0.0031,-0.10852 -0.010852,-0.110071 -0.0093,0.0047 -0.023254,0.02015 -0.2123902,0.229444 -0.4883423,0.229444 -0.3131592,0 -0.5146973,-0.238746 -0.190686,-0.224792 -0.190686,-0.542602 0,-0.330213 0.1922363,-0.555005 0.2015381,-0.235645 0.5255493,-0.235645 0.1953369,0 0.3410645,0.114722 0.066663,0.05736 0.1317749,0.116272 0.012402,-0.0047 0.012402,-0.0217 v -0.502295 q 0,-0.05116 -0.00465,-0.155029 -0.00465,-0.10387 -0.00465,-0.15658 0,-0.03721 0.024805,-0.03721 0.057361,0 0.1705323,-0.0093 0.1131714,-0.01085 0.1689819,-0.01085 0.026355,0 0.026355,0.03256 z m -0.3875733,1.410766 q 0,-0.186035 -0.1147216,-0.327112 -0.1224732,-0.150378 -0.3038574,-0.150378 -0.1906861,0 -0.3147095,0.148828 -0.1178223,0.139526 -0.1178223,0.334863 0,0.186035 0.1224732,0.324012 0.1255737,0.145727 0.3100586,0.145727 0.1860351,0 0.306958,-0.147278 0.111621,-0.137976 0.111621,-0.328662 z"
         style="fill:#e8617a;stroke-width:0.264583"
         id="path503" />
      <path
         d="m 10.474709,71.505324 q 0,0.190686 -0.21239,0.190686 -0.215491,0 -0.215491,-0.190686 0,-0.08527 0.06666,-0.141077 0.06201,-0.05271 0.148828,-0.05271 0.08682,0 0.148828,0.05426 0.06356,0.05426 0.06356,0.139527 z m -0.01085,0.420129 q 0,0.119373 -0.0155,0.361218 -0.01395,0.240296 -0.01395,0.361219 0,0.113171 0.0047,0.339514 0.0047,0.224792 0.0047,0.336413 0,0.03256 -0.0279,0.03256 h -0.302307 q -0.03256,0 -0.03256,-0.06356 0,-0.106971 0.0047,-0.320911 0.0062,-0.215491 0.0062,-0.324011 0,-0.120923 -0.0186,-0.362769 -0.01705,-0.241846 -0.01705,-0.362768 0,-0.02635 0.03256,-0.02635 0.02791,0 0.08527,0.0078 0.05891,0.0078 0.08837,0.0078 0.02946,0 0.08682,-0.0078 0.05891,-0.0078 0.08837,-0.0078 0.02636,0 0.02636,0.02945 z"
         style="fill:#e8617a;stroke-width:0.264583"
         id="path505" />
      <path
         d="m 12.108718,72.33318 q 0,0.218592 -0.01395,0.254248 -0.02325,0.06976 -0.251147,0.407727 -0.234094,0.345716 -0.279053,0.364319 -0.0217,0.0093 -0.130225,0.0093 -0.103869,0 -0.136425,-0.0093 -0.04341,-0.01395 -0.283704,-0.350366 -0.234094,-0.327112 -0.261999,-0.398425 -0.03721,-0.09767 -0.03721,-0.302307 0,-0.06356 0.0031,-0.190686 0.0031,-0.127124 0.0031,-0.190686 0,-0.03411 0.03411,-0.03411 0.05116,0 0.151929,0.0047 0.102319,0.0047 0.153479,0.0047 0.02791,0 0.02791,0.03101 0,0.04961 -0.0062,0.147278 -0.0062,0.09612 -0.0062,0.145727 0,0.142627 0.0155,0.260449 0.0078,0.05891 0.156579,0.288355 0.150379,0.229443 0.186035,0.229443 0.03411,0 0.168982,-0.224792 0.133326,-0.220142 0.142627,-0.277503 0.0124,-0.07751 0.0124,-0.26665 0,-0.05116 -0.01085,-0.153479 -0.0093,-0.10232 -0.0093,-0.153479 0,-0.02326 0.02325,-0.02326 0.05116,0 0.150379,-0.0046 0.09922,-0.0062 0.148828,-0.0062 0.04806,0 0.04806,0.438733 z"
         style="fill:#e8617a;stroke-width:0.264583"
         id="path507" />
    </g>
    <g
       aria-label="speed"
       id="text243-7"
       style="font-size:3.175px;line-height:1.25;font-family:'Berlin Sans FB';-inkscape-font-specification:'Berlin Sans FB';fill:#e8617a;stroke-width:0.264583"
       transform="translate(1.8255603e-7,-2.0078259)">
      <path
         d="m 7.2849808,88.721217 q 0,0.230994 -0.1844849,0.37052 -0.1674316,0.127124 -0.407727,0.127124 -0.093018,0 -0.10542,-0.0046 -0.026355,-0.0124 -0.026355,-0.07597 0,-0.03411 -0.0093,-0.102319 -0.00775,-0.06821 -0.00775,-0.100769 0,-0.02015 0.027905,-0.02635 0.020154,-0.0047 0.057361,0 0.048059,0.0047 0.046509,0.0047 0.2930054,0 0.2930054,-0.179834 0,-0.08527 -0.1286743,-0.15658 Q 6.6307571,88.462318 6.5997513,88.435963 6.471077,88.325893 6.471077,88.147609 q 0,-0.232544 0.1751831,-0.362769 0.1581298,-0.116272 0.3999755,-0.116272 0.021704,0 0.031006,0.02015 0.010852,0.02015 0.038757,0.125574 0.029456,0.10542 0.029456,0.127124 0,0.01705 -0.029456,0.0217 -0.099219,0.01395 -0.1999878,0.02636 -0.1193725,0.03256 -0.1193725,0.130225 0,0.06976 0.1255737,0.141076 0.1860352,0.10387 0.2356445,0.150379 0.1271241,0.120923 0.1271241,0.310058 z"
         style="fill:#e8617a;stroke-width:0.264583"
         id="path510" />
      <path
         d="m 9.0585159,88.453017 q 0,0.313159 -0.1984375,0.544152 -0.2077393,0.243396 -0.5162476,0.243396 -0.1922363,0 -0.3364135,-0.119372 -0.065112,-0.06046 -0.1302246,-0.122473 -0.0093,0.0047 -0.012402,0.0248 -0.00155,0.0093 -0.00155,0.173633 l -0.00155,0.437183 q 0,0.04961 -0.035657,0.04961 -0.2387451,0 -0.2821533,-0.0062 -0.035657,-0.0047 -0.035657,-0.04031 0,-0.198437 0.0031,-0.595312 0.0031,-0.396875 0.0031,-0.595312 0,-0.364319 -0.046509,-0.68368 -0.0031,-0.0186 -0.0031,-0.0248 0,-0.01705 0.015503,-0.0217 0.058911,-0.0031 0.1720825,-0.01705 0.1519287,-0.02791 0.1705322,-0.02791 0.026355,0 0.034107,0.09302 0.00465,0.06201 0.00775,0.122473 0,0.0124 0.0093,0.0248 0.010852,-0.0062 0.024805,-0.0217 0.217041,-0.221692 0.4387329,-0.221692 0.306958,0 0.5177978,0.240296 0.2030884,0.230993 0.2030884,0.544153 z m -0.3627686,-0.0062 q 0,-0.186036 -0.1162719,-0.327112 -0.1224732,-0.150379 -0.3054077,-0.150379 -0.179834,0 -0.2945557,0.15503 -0.1054199,0.139526 -0.1054199,0.325561 0,0.189136 0.1085205,0.328662 0.1193725,0.150379 0.3038574,0.150379 0.1767334,0 0.2976563,-0.15658 0.111621,-0.145728 0.111621,-0.325561 z"
         style="fill:#e8617a;stroke-width:0.264583"
         id="path512" />
      <path
         d="m 10.61191,88.3662 q 0,0.114722 -0.09922,0.153479 -0.06666,0.02481 -0.9596316,0.09147 0.020154,0.136425 0.1503784,0.232543 0.1240235,0.09147 0.2666504,0.09147 0.2449468,0 0.4495848,-0.15813 0.02481,-0.02015 0.04961,-0.04031 0.0124,0 0.0155,0.0031 0.0047,0.0031 0.05891,0.10852 0.05426,0.10387 0.05426,0.111621 0,0.0093 -0.0248,0.03566 -0.227893,0.241846 -0.5844603,0.241846 -0.3596679,0 -0.5736083,-0.213941 -0.2139405,-0.21549 -0.2139405,-0.573608 0,-0.31936 0.2046387,-0.556555 0.2154907,-0.246497 0.5286499,-0.246497 0.2914555,0 0.4867915,0.213941 0.190687,0.207739 0.190687,0.505395 z m -0.36897,-0.09457 q 0,-0.128674 -0.10232,-0.227893 -0.100769,-0.09922 -0.2278926,-0.09922 -0.142627,0 -0.2542481,0.114721 -0.1100708,0.114722 -0.1100708,0.257349 0,0.03256 0.055811,0.03256 0.2294434,0 0.5488035,-0.04651 0.08992,-0.0124 0.08992,-0.03101 z"
         style="fill:#e8617a;stroke-width:0.264583"
         id="path514" />
      <path
         d="m 12.142049,88.3662 q 0,0.114722 -0.09922,0.153479 -0.06666,0.02481 -0.959631,0.09147 0.02015,0.136425 0.150378,0.232543 0.124023,0.09147 0.26665,0.09147 0.244947,0 0.449585,-0.15813 0.02481,-0.02015 0.04961,-0.04031 0.0124,0 0.0155,0.0031 0.0047,0.0031 0.05891,0.10852 0.05426,0.10387 0.05426,0.111621 0,0.0093 -0.0248,0.03566 -0.227893,0.241846 -0.58446,0.241846 -0.359668,0 -0.573608,-0.213941 -0.213941,-0.21549 -0.213941,-0.573608 0,-0.31936 0.204639,-0.556555 0.215491,-0.246497 0.52865,-0.246497 0.291455,0 0.486792,0.213941 0.190686,0.207739 0.190686,0.505395 z m -0.36897,-0.09457 q 0,-0.128674 -0.102319,-0.227893 -0.100769,-0.09922 -0.227893,-0.09922 -0.142627,0 -0.254248,0.114721 -0.110071,0.114722 -0.110071,0.257349 0,0.03256 0.05581,0.03256 0.229444,0 0.548804,-0.04651 0.08992,-0.0124 0.08992,-0.03101 z"
         style="fill:#e8617a;stroke-width:0.264583"
         id="path516" />
      <path
         d="m 13.848921,87.036049 q 0,0.199988 -0.0186,0.599963 -0.01705,0.398426 -0.01705,0.596863 0,0.612366 0.02636,0.927075 l 0.0016,0.02015 q 0.0015,0.0155 -0.04186,0.02015 -0.02946,0.0031 -0.08372,0 -0.06511,-0.0047 -0.06046,-0.0047 -0.02325,0 -0.06821,0.0047 -0.04496,0.0047 -0.06821,0.0047 -0.0217,0 -0.02635,-0.10697 -0.0031,-0.108521 -0.01085,-0.110071 -0.0093,0.0047 -0.02326,0.02015 -0.21239,0.229443 -0.488342,0.229443 -0.313159,0 -0.514697,-0.238745 -0.190686,-0.224793 -0.190686,-0.542603 0,-0.330212 0.192236,-0.555005 0.201538,-0.235644 0.525549,-0.235644 0.195337,0 0.341065,0.114722 0.06666,0.05736 0.131775,0.116272 0.0124,-0.0047 0.0124,-0.0217 v -0.502295 q 0,-0.05116 -0.0047,-0.155029 -0.0047,-0.103869 -0.0047,-0.156579 0,-0.03721 0.02481,-0.03721 0.05736,0 0.170532,-0.0093 0.113172,-0.01085 0.168982,-0.01085 0.02636,0 0.02636,0.03256 z m -0.387573,1.410767 q 0,-0.186036 -0.114722,-0.327112 -0.122473,-0.150379 -0.303857,-0.150379 -0.190686,0 -0.31471,0.148828 -0.117822,0.139527 -0.117822,0.334864 0,0.186035 0.122473,0.324011 0.125574,0.145727 0.310059,0.145727 0.186035,0 0.306958,-0.147277 0.111621,-0.137976 0.111621,-0.328662 z"
         style="fill:#e8617a;stroke-width:0.264583"
         id="path518" />
    </g>
    <g
       aria-label="mul"
       id="text407"
       style="font-size:3.175px;line-height:1.25;font-family:'Berlin Sans FB';-inkscape-font-specification:'Berlin Sans FB';fill:#e8617a;stroke-width:0.264583"
       transform="translate(1.8255603e-7,-2.0078259)">
      <path
         d="m 10.138254,105.43327 q 0,0.0605 -0.03566,0.0605 -0.02326,0 -0.07131,-0.005 -0.046509,-0.005 -0.071313,-0.005 -0.026355,0 -0.079065,0.003 -0.05271,0.003 -0.079065,0.003 -0.032556,0 -0.032556,-0.0729 0,-0.0713 0.00465,-0.21239 0.0062,-0.14263 0.0062,-0.21394 0,-0.39223 -0.0031,-0.43719 -0.012402,-0.15968 -0.065112,-0.22014 -0.060461,-0.0651 -0.2154908,-0.0651 -0.097668,0 -0.2201416,0.093 -0.127124,0.0977 -0.1317749,0.19223 -0.0062,0.12093 -0.0062,0.44184 0,0.076 0.0062,0.22789 0.0062,0.15193 0.0062,0.22789 0,0.0419 -0.027905,0.0419 -0.027905,0 -0.082166,-0.005 -0.05271,-0.005 -0.080615,-0.005 -0.024805,0 -0.072864,0.003 -0.048059,0.003 -0.072864,0.003 -0.031006,0 -0.031006,-0.045 0,-0.0744 0.00465,-0.22324 0.00465,-0.15038 0.00465,-0.22479 v -0.37362 q 0,-0.17519 -0.041858,-0.2496 -0.058911,-0.10542 -0.2247924,-0.10542 -0.097668,0 -0.232544,0.0822 -0.1488281,0.0899 -0.1488281,0.18138 v 0.45269 q 0,0.0775 0.00155,0.23099 0.00155,0.15348 0.00155,0.22944 0,0.045 -0.035657,0.045 H 7.823667 q -0.031006,0 -0.031006,-0.0419 0,-0.12557 0.00155,-0.37672 0.00155,-0.2527 0.00155,-0.37827 0,-0.2837 -0.060461,-0.56586 -0.00465,-0.0202 -0.00465,-0.0326 0,-0.0202 0.013953,-0.0233 0.057361,-0.006 0.1674316,-0.0232 0.05116,-0.0155 0.1534791,-0.0341 l 0.012402,-0.002 q 0.018603,0 0.034106,0.11007 0.017053,0.10852 0.029456,0.10852 0,0 0.077515,-0.0682 0.091467,-0.0791 0.1829345,-0.12557 0.1317749,-0.0682 0.2635498,-0.0682 0.3565674,0 0.4542359,0.29146 0.096118,-0.12402 0.2387451,-0.20464 0.1519287,-0.0868 0.3007568,-0.0868 0.2868042,0 0.3968752,0.16744 0.07906,0.12402 0.07906,0.39222 0,0.0512 -0.0031,0.15813 -0.0031,0.10697 -0.0031,0.15813 0,0.0977 0.0047,0.29455 0.0047,0.19534 0.0047,0.29301 z"
         style="fill:#e8617a;stroke-width:0.264583"
         id="path521" />
      <path
         d="m 11.880784,104.08452 q 0,0.11317 -0.0093,0.34261 -0.0093,0.22789 -0.0093,0.34261 0,0.11318 0.0062,0.33952 0.0078,0.22479 0.0078,0.33796 0,0.031 -0.02946,0.0403 -0.0124,0.003 -0.314709,0.003 -0.0186,0 -0.02326,-0.11627 -0.0031,-0.11627 -0.01705,-0.11627 -0.0078,0 -0.02325,0.014 -0.258899,0.22479 -0.511597,0.22479 -0.342615,0 -0.452686,-0.24804 -0.06821,-0.15348 -0.06821,-0.55191 0,-0.35967 0.05736,-0.60926 0.01395,-0.0605 0.05116,-0.0605 0.04496,0 0.134876,0.002 0.08992,0.002 0.134875,0.002 0.03101,0 0.03101,0.0341 0,0.0605 -0.02015,0.20154 -0.0217,0.15038 -0.02325,0.21239 -0.0047,0.093 -0.0047,0.20464 0,0.2713 0.03876,0.36432 0.06666,0.16743 0.296106,0.16743 0.09767,0 0.230994,-0.0961 0.141076,-0.10077 0.145727,-0.19379 0.0078,-0.11627 0.0078,-0.81855 0,-0.076 0.06356,-0.076 h 0.255798 q 0.04496,0 0.04496,0.0543 z"
         style="fill:#e8617a;stroke-width:0.264583"
         id="path523" />
      <path
         d="m 12.589268,103.34037 -0.0016,0.0202 q -0.03411,0.57671 -0.03411,0.99064 0,0.18448 0.0062,0.55345 0.0062,0.36742 0.0062,0.55035 0,0.0357 -0.0248,0.0357 h -0.296106 q -0.02791,0 -0.02791,-0.0357 0,-0.18293 0.0031,-0.55035 0.0031,-0.36897 0.0031,-0.55345 0,-0.16744 -0.01705,-0.5023 -0.0155,-0.33641 -0.0155,-0.50229 0,-0.031 0.03256,-0.031 0.0279,0 0.08371,0.005 0.05581,0.005 0.08372,0.005 0.02946,0 0.08682,-0.005 0.05736,-0.005 0.08527,-0.005 0.02791,0 0.02636,0.0248 z"
         style="fill:#e8617a;stroke-width:0.264583"
         id="path525" />
    </g>
    <rect
       style="fill:#e8617a;fill-opacity:1;stroke:none;stroke-width:0.499999;stroke-miterlimit:4;stroke-dasharray:none;stroke-dashoffset:0"
       id="rect2489-9-5"
       width="12.7"
       height="2.0078101"
       x="-16.509998"
       y="-63.246078"
       rx="0.49999905"
       ry="0.49999905"
       transform="scale(-1)" />
    <rect
       style="fill:#e8617a;fill-opacity:1;stroke:none;stroke-width:0.499999;stroke-miterlimit:4;stroke-dasharray:none;stroke-dashoffset:0"
       id="rect2489-9-4"
       width="12.7"
       height="2.0078101"
       x="-16.509998"
       y="-79.308563"
       rx="0.49999905"
       ry="0.49999905"
       transform="scale(-1)" />
    <rect
       style="fill:#e8617a;fill-opacity:1;stroke:none;stroke-width:0.499999;stroke-miterlimit:4;stroke-dasharray:none;stroke-dashoffset:0"
       id="rect2489-9-3"
       width="12.7"
       height="2.0078101"
       x="-16.509998"
       y="-95.37104"
       rx="0.49999905"
       ry="0.49999905"
       transform="scale(-1)" />
    <rect
       style="fill:#e8617a;fill-opacity:1;stroke:none;stroke-width:0.499999;stroke-miterlimit:4;stroke-dasharray:none;stroke-dashoffset:0"
       id="rect2489-9-6"
       width="12.7"
       height="2.0078101"
       x="-16.509998"
       y="-111.43354"
       rx="0.49999905"
       ry="0.49999905"
       transform="scale(-1)" />
  </g>
  <g
     inkscape:groupmode="layer"
     id="layer2"
     inkscape:label="components"
     transform="translate(1.2e-6,-8.0999998e-5)"
     style="display:none">
    <circle
       style="fill:#ff0000;stroke-width:0.4895"
       id="path2113-9"
       cx="5.0799994"
       cy="46.179695"
       r="4.178"
       inkscape:label="bpm" />
    <circle
       style="fill:#00ff00;stroke-width:0.4895"
       id="path2113-9-2-4-9"
       cx="12.699999"
       cy="18.070356"
       r="4.178"
       inkscape:label="input" />
    <circle
       style="fill:#0000ff;stroke-width:0.4895"
       id="path2113-9-6"
       cx="12.699999"
       cy="28.109406"
       r="4.178"
       inkscape:label="output" />
    <circle
       style="fill:#00ff00;stroke-width:0.4895"
       id="path2113-9-8"
       cx="15.239999"
       cy="46.179695"
       r="4.178"
       inkscape:label="bpm" />
    <circle
       style="fill:#ff0000;stroke-width:0.4895"
       id="path2113-9-3"
       cx="5.0799994"
       cy="78.304657"
       r="4.178"
       inkscape:label="div" />
    <circle
       style="fill:#00ff00;stroke-width:0.4895"
       id="path2113-9-8-5"
       cx="15.239999"
       cy="78.304657"
       r="4.178"
       inkscape:label="div" />
    <circle
       style="fill:#ff0000;stroke-width:0.4895"
       id="path2113-9-5"
       cx="5.0799994"
       cy="94.367134"
       r="4.178"
       inkscape:label="speed" />
    <circle
       style="fill:#00ff00;stroke-width:0.4895"
       id="path2113-9-8-4"
       cx="15.239999"
       cy="94.367134"
       r="4.178"
       inkscape:label="speed" />
    <circle
       style="fill:#ff0000;stroke-width:0.4895"
       id="path2113-9-5-3"
       cx="5.0799994"
       cy="110.42963"
       r="4.178"
       inkscape:label="mul" />
    <circle
       style="fill:#00ff00;stroke-width:0.4895"
       id="path2113-9-8-4-2"
       cx="15.239999"
       cy="110.42963"
       r="4.178"
       inkscape:label="mul" />
    <circle
       style="fill:#ff0000;stroke-width:0.4895"
       id="path2113-9-2"
       cx="5.0799985"
       cy="62.24218"
       r="4.178"
       inkscape:label="on" />
    <circle
       style="fill:#00ff00;stroke-width:0.4895"
       id="path2113-9-8-7"
       cx="15.239999"
       cy="62.24218"
       r="4.178"
       inkscape:label="on" />
  </g>
</svg>
