<?xml version="1.0" encoding="UTF-8" standalone="no"?>
<svg
   xmlns:dc="http://purl.org/dc/elements/1.1/"
   xmlns:cc="http://creativecommons.org/ns#"
   xmlns:rdf="http://www.w3.org/1999/02/22-rdf-syntax-ns#"
   xmlns:svg="http://www.w3.org/2000/svg"
   xmlns="http://www.w3.org/2000/svg"
   xmlns:sodipodi="http://sodipodi.sourceforge.net/DTD/sodipodi-0.dtd"
   xmlns:inkscape="http://www.inkscape.org/namespaces/inkscape"
   width="35.560001mm"
   height="128.5mm"
   viewBox="0 0 35.560001 128.5"
   version="1.1"
   id="svg8"
   inkscape:version="1.0.1 (3bc2e813f5, 2020-09-07)"
   sodipodi:docname="Renick.svg">
  <defs
     id="defs2" />
  <sodipodi:namedview
     id="base"
     pagecolor="#ffffff"
     bordercolor="#666666"
     borderopacity="1.0"
     inkscape:pageopacity="0.0"
     inkscape:pageshadow="2"
     inkscape:zoom="4.9560297"
     inkscape:cx="72.403475"
     inkscape:cy="154.25378"
     inkscape:document-units="mm"
     inkscape:current-layer="layer2"
     inkscape:document-rotation="0"
     showgrid="true"
     inkscape:window-width="1827"
     inkscape:window-height="1051"
     inkscape:window-x="-9"
     inkscape:window-y="-9"
     inkscape:window-maximized="1"
     inkscape:snap-object-midpoints="true"
     inkscape:snap-center="true"
     showguides="true"
     inkscape:guide-bbox="true"
     inkscape:snap-grids="true"
     inkscape:snap-intersection-paths="false"
     inkscape:object-paths="true"
     inkscape:object-nodes="true">
    <inkscape:grid
       type="xygrid"
       id="grid10"
       spacingx="2.54"
       spacingy="5.3541699"
       enabled="true"
       units="mm"
       empspacing="2" />
  </sodipodi:namedview>
  <metadata
     id="metadata5">
    <rdf:RDF>
      <cc:Work
         rdf:about="">
        <dc:format>image/svg+xml</dc:format>
        <dc:type
           rdf:resource="http://purl.org/dc/dcmitype/StillImage" />
        <dc:title />
      </cc:Work>
    </rdf:RDF>
  </metadata>
  <g
     inkscape:label="Layer 1"
     inkscape:groupmode="layer"
     id="layer1"
     style="display:inline;opacity:1">
    <rect
       style="fill:#e6e6e6;fill-opacity:1;stroke-width:0.264583"
       id="rect24"
       width="35.559998"
       height="128.49983"
       x="0"
       y="0"
       ry="0"
       inkscape:label="bg"
       sodipodi:insensitive="true" />
    <g
       aria-label="renick "
       id="text17"
       style="font-size:3.52778px;line-height:1.25;font-family:sans-serif;stroke-width:0.264583"
       transform="translate(-0.10677229,-2.8294658)">
      <path
         d="m 13.784548,5.1009553 h -0.01723 q -0.07235,-0.017225 -0.141249,-0.024116 -0.06718,-0.00861 -0.160197,-0.00861 -0.149861,0 -0.289388,0.067179 -0.139526,0.065457 -0.268718,0.1705324 v 1.3659812 h -0.323839 v -1.924087 h 0.323839 v 0.2842205 q 0.192926,-0.1550294 0.339343,-0.2187637 0.148139,-0.065457 0.301446,-0.065457 0.08441,0 0.122301,0.00517 0.0379,0.00345 0.113688,0.015503 z"
         style="font-size:3.52778px;stroke-width:0.264583"
         id="path1390" />
      <path
         d="m 15.700022,5.743466 h -1.417658 q 0,0.1774225 0.0534,0.3100588 0.0534,0.1309137 0.146417,0.2153186 0.08957,0.082682 0.211874,0.1240235 0.124023,0.041341 0.272162,0.041341 0.196371,0 0.394464,-0.077515 0.199816,-0.079237 0.284221,-0.1550294 h 0.01722 V 6.554786 q -0.163642,0.068902 -0.334174,0.1154108 -0.170533,0.046509 -0.358291,0.046509 -0.478868,0 -0.747586,-0.2583823 -0.268717,-0.2601049 -0.268717,-0.7372509 0,-0.4719784 0.256659,-0.7493088 0.258383,-0.2773304 0.678685,-0.2773304 0.389296,0 0.599447,0.2273765 0.211873,0.2273764 0.211873,0.6459558 z M 15.384796,5.495419 q -0.0017,-0.2549373 -0.129191,-0.3944637 -0.125747,-0.1395265 -0.384129,-0.1395265 -0.260105,0 -0.415134,0.1533069 -0.153307,0.1533068 -0.173978,0.3806833 z"
         style="font-size:3.52778px;stroke-width:0.264583"
         id="path1392" />
      <path
         d="M 17.799809,6.6719198 H 17.47597 v -1.095541 q 0,-0.1326363 -0.0155,-0.2480471 -0.0155,-0.1171333 -0.05684,-0.1825902 -0.04306,-0.072347 -0.124024,-0.106798 -0.08096,-0.036174 -0.210151,-0.036174 -0.132636,0 -0.27733,0.065457 -0.144694,0.065457 -0.27733,0.1670873 v 1.4366057 h -0.323839 v -1.924087 h 0.323839 v 0.213596 q 0.151584,-0.1257461 0.313504,-0.1963706 0.161919,-0.070625 0.332452,-0.070625 0.311781,0 0.475423,0.1877579 0.163642,0.1877578 0.163642,0.5408803 z"
         style="font-size:3.52778px;stroke-width:0.264583"
         id="path1394" />
      <path
         d="m 18.771326,4.4257161 h -0.36518 v -0.335897 h 0.36518 z m -0.02067,2.2462037 h -0.323839 v -1.924087 h 0.323839 z"
         style="font-size:3.52778px;stroke-width:0.264583"
         id="path1396" />
      <path
         d="m 20.81427,6.5513414 q -0.16192,0.077515 -0.308336,0.1205784 -0.144694,0.043064 -0.308337,0.043064 -0.208428,0 -0.382405,-0.060289 -0.173978,-0.062012 -0.298001,-0.1860352 -0.125746,-0.1240236 -0.194648,-0.3135039 -0.0689,-0.1894804 -0.0689,-0.4426951 0,-0.4719784 0.258382,-0.740696 0.260105,-0.2687176 0.685574,-0.2687176 0.165365,0 0.32384,0.046509 0.160197,0.046509 0.292833,0.1136882 v 0.3600127 h -0.01723 q -0.148139,-0.1154107 -0.306613,-0.1774225 -0.156752,-0.062012 -0.306614,-0.062012 -0.275608,0 -0.435805,0.1860353 -0.158474,0.1843127 -0.158474,0.5426029 0,0.3479549 0.155029,0.5357127 0.156752,0.1860353 0.43925,0.1860353 0.09818,0 0.199816,-0.025838 0.10163,-0.025838 0.18259,-0.067179 0.07062,-0.036174 0.132636,-0.075792 0.06201,-0.041341 0.09819,-0.070625 h 0.01723 z"
         style="font-size:3.52778px;stroke-width:0.264583"
         id="path1398" />
      <path
         d="M 22.976068,6.6719198 H 22.548876 L 21.777174,5.8295934 21.567023,6.0294091 v 0.6425107 h -0.323839 v -2.680286 h 0.323839 v 1.7191038 l 0.935344,-0.9629048 h 0.408244 L 22.016609,5.636668 Z"
         style="font-size:3.52778px;stroke-width:0.264583"
         id="path1400" />
    </g>
    <g
       aria-label="a "
       id="text1043"
       style="font-size:2.11667px;line-height:1.25;font-family:sans-serif;stroke-width:0.264583">
      <path
         d="M 5.5704102,27.346008 H 5.37714 v -0.12299 q -0.025838,0.01757 -0.07028,0.04961 -0.043408,0.03101 -0.08475,0.04961 -0.048576,0.02377 -0.1116213,0.03927 -0.063045,0.01654 -0.1477948,0.01654 -0.156063,0 -0.2645837,-0.103353 Q 4.58959,27.171342 4.58959,27.011145 q 0,-0.131259 0.055811,-0.211874 0.056844,-0.08165 0.1612308,-0.128158 0.10542,-0.04651 0.2532149,-0.06304 0.1477948,-0.01654 0.3172937,-0.02481 v -0.02997 q 0,-0.06615 -0.023771,-0.109555 -0.022738,-0.04341 -0.066146,-0.06821 -0.041341,-0.02377 -0.099219,-0.03204 -0.057878,-0.0083 -0.120923,-0.0083 -0.076481,0 -0.1705325,0.02067 -0.094051,0.01964 -0.1943037,0.05788 H 4.6919095 V 26.21636 q 0.056844,-0.0155 0.1643313,-0.03411 0.1074872,-0.0186 0.2118737,-0.0186 0.1219566,0 0.2118737,0.02067 0.090951,0.01964 0.1570966,0.06821 0.065112,0.04754 0.099219,0.12299 0.034107,0.07545 0.034107,0.187069 z M 5.37714,27.061787 V 26.74036 q -0.088884,0.0052 -0.2098066,0.0155 -0.1198895,0.01033 -0.1901696,0.02997 -0.083716,0.02377 -0.1353924,0.07441 -0.051677,0.04961 -0.051677,0.13746 0,0.09922 0.059945,0.149861 0.059945,0.04961 0.1829349,0.04961 0.1023195,0 0.1870689,-0.03927 0.08475,-0.04031 0.1570966,-0.09612 z"
         style="stroke-width:0.264583"
         id="path1381" />
    </g>
    <g
       aria-label="b"
       id="text1049"
       style="font-size:2.11667px;line-height:1.25;font-family:sans-serif;stroke-width:0.264583">
      <path
         d="m 30.98798,26.972904 q 0,0.144695 -0.04134,0.26045 -0.04031,0.115755 -0.109554,0.194304 -0.07338,0.08165 -0.161231,0.12299 -0.08785,0.04031 -0.19327,0.04031 -0.09819,0 -0.171566,-0.02377 -0.07338,-0.02274 -0.144694,-0.06201 l -0.0124,0.05374 H 29.97202 v -1.608173 h 0.194304 v 0.574643 q 0.08165,-0.06718 0.173633,-0.109554 0.09198,-0.04341 0.206706,-0.04341 0.204639,0 0.322461,0.157097 0.118856,0.157097 0.118856,0.443383 z m -0.200505,0.0052 q 0,-0.206706 -0.06821,-0.31316 -0.06821,-0.107487 -0.220141,-0.107487 -0.08475,0 -0.171566,0.03721 -0.08682,0.03617 -0.161231,0.09405 v 0.661459 q 0.08268,0.03721 0.141593,0.05168 0.05994,0.01447 0.135393,0.01447 0.161231,0 0.252181,-0.10542 0.09198,-0.106454 0.09198,-0.332797 z"
         style="stroke-width:0.264583"
         id="path1384" />
    </g>
    <g
       aria-label="c"
       id="text1053"
       style="font-size:2.11667px;line-height:1.25;font-family:sans-serif;stroke-width:0.264583"
       transform="translate(0,-4.2333335)">
      <path
         d="m 5.5481892,43.338755 q -0.097152,0.04651 -0.1850019,0.07235 -0.086817,0.02584 -0.1850019,0.02584 -0.1250571,0 -0.2294437,-0.03617 -0.1043866,-0.03721 -0.1788007,-0.111621 -0.075448,-0.07441 -0.1167889,-0.188103 -0.041341,-0.113688 -0.041341,-0.265617 0,-0.283187 0.1550296,-0.444418 0.156063,-0.161231 0.411345,-0.161231 0.099219,0 0.1943037,0.02791 0.096118,0.0279 0.1757001,0.06821 v 0.216007 h -0.010335 q -0.088884,-0.06925 -0.1839684,-0.106453 -0.094051,-0.03721 -0.1839683,-0.03721 -0.1653649,0 -0.2614832,0.111621 -0.095085,0.110588 -0.095085,0.325562 0,0.208773 0.093018,0.321428 0.094051,0.111621 0.2635502,0.111621 0.058911,0 0.1198895,-0.0155 0.060978,-0.0155 0.1095542,-0.04031 0.042375,-0.0217 0.079582,-0.04547 0.037207,-0.02481 0.058911,-0.04237 h 0.010335 z"
         style="stroke-width:0.264583"
         id="path1378" />
    </g>
    <g
       aria-label="d"
       id="text1057"
       style="font-size:2.11667px;line-height:1.25;font-family:sans-serif;stroke-width:0.264583"
       transform="translate(0,-4.2333335)">
      <path
         d="m 30.987981,43.621426 h -0.194304 v -0.120923 q -0.08372,0.07235 -0.174667,0.112654 -0.09095,0.04031 -0.197404,0.04031 -0.206706,0 -0.328662,-0.159164 -0.120923,-0.159163 -0.120923,-0.441317 0,-0.146761 0.04134,-0.261483 0.04237,-0.114722 0.113688,-0.195337 0.07028,-0.07855 0.163298,-0.11989 0.09405,-0.04134 0.194303,-0.04134 0.09095,0 0.161231,0.01964 0.07028,0.0186 0.147795,0.05891 v -0.500228 h 0.194304 z m -0.194304,-0.284221 v -0.662493 q -0.07855,-0.03514 -0.14056,-0.04858 -0.06201,-0.01344 -0.135393,-0.01344 -0.163297,0 -0.254248,0.113688 -0.09095,0.113689 -0.09095,0.322462 0,0.205672 0.07028,0.31316 0.07028,0.106453 0.22531,0.106453 0.08268,0 0.167432,-0.03617 0.08475,-0.03721 0.15813,-0.09509 z"
         style="stroke-width:0.264583"
         id="path1387" />
    </g>
    <g
       aria-label="a "
       id="text1043-5"
       style="font-size:2.11667px;line-height:1.25;font-family:sans-serif;display:inline;stroke-width:0.264583">
      <path
         d="M 5.5704102,75.533539 H 5.37714 v -0.12299 q -0.025838,0.01757 -0.07028,0.04961 -0.043408,0.03101 -0.08475,0.04961 -0.048576,0.02377 -0.1116213,0.03927 -0.063045,0.01654 -0.1477948,0.01654 -0.156063,0 -0.2645837,-0.103353 Q 4.58959,75.358872 4.58959,75.198675 q 0,-0.131258 0.055811,-0.211874 0.056844,-0.08165 0.1612308,-0.128157 0.10542,-0.04651 0.2532149,-0.06305 0.1477948,-0.01654 0.3172937,-0.0248 v -0.02997 q 0,-0.06615 -0.023771,-0.109554 -0.022738,-0.04341 -0.066146,-0.06821 -0.041341,-0.02377 -0.099219,-0.03204 -0.057878,-0.0083 -0.120923,-0.0083 -0.076481,0 -0.1705325,0.02067 -0.094051,0.01964 -0.1943037,0.05788 h -0.010336 v -0.19738 q 0.056844,-0.0155 0.1643313,-0.03411 0.1074872,-0.0186 0.2118737,-0.0186 0.1219566,0 0.2118737,0.02067 0.090951,0.01964 0.1570966,0.06821 0.065112,0.04754 0.099219,0.12299 0.034107,0.07545 0.034107,0.187069 z M 5.37714,75.249318 V 74.92789 q -0.088884,0.0052 -0.2098066,0.0155 -0.1198895,0.01033 -0.1901696,0.02997 -0.083716,0.02377 -0.1353924,0.07442 -0.051677,0.04961 -0.051677,0.137459 0,0.09922 0.059945,0.149862 0.059945,0.04961 0.1829349,0.04961 0.1023195,0 0.1870689,-0.03927 0.08475,-0.04031 0.1570966,-0.09612 z"
         style="stroke-width:0.264583"
         id="path1375" />
    </g>
    <g
       aria-label="b"
       id="text1049-2"
       style="font-size:2.11667px;line-height:1.25;font-family:sans-serif;display:inline;stroke-width:0.264583">
      <path
         d="m 5.5879812,85.868769 q 0,0.144694 -0.041341,0.26045 -0.040308,0.115755 -0.1095542,0.194303 -0.073381,0.08165 -0.1612307,0.12299 -0.08785,0.04031 -0.1932702,0.04031 -0.098185,0 -0.171566,-0.02377 -0.073381,-0.02274 -0.1446942,-0.06201 l -0.012402,0.05374 H 4.572021 v -1.608173 h 0.1943037 v 0.574642 q 0.081649,-0.06718 0.173633,-0.109554 0.091984,-0.04341 0.2067061,-0.04341 0.204639,0 0.3224614,0.157096 0.118856,0.157097 0.118856,0.443386 z m -0.2005049,0.0052 q 0,-0.206706 -0.068213,-0.31316 -0.068213,-0.107487 -0.2201419,-0.107487 -0.084749,0 -0.171566,0.03721 -0.086817,0.03617 -0.1612307,0.09405 v 0.661459 q 0.082682,0.03721 0.1415936,0.05168 0.059945,0.01447 0.1353925,0.01447 0.1612307,0 0.2521813,-0.10542 0.091984,-0.106453 0.091984,-0.332796 z"
         style="stroke-width:0.264583"
         id="path1372" />
    </g>
    <g
       aria-label="c"
       id="text1053-4"
       style="font-size:2.11667px;line-height:1.25;font-family:sans-serif;display:inline;stroke-width:0.264583">
      <path
         d="m 5.5481892,96.88045 q -0.097152,0.04651 -0.1850019,0.07235 -0.086817,0.02584 -0.1850019,0.02584 -0.1250571,0 -0.2294437,-0.03617 -0.1043866,-0.03721 -0.1788007,-0.111622 -0.075448,-0.07441 -0.1167889,-0.188102 -0.041341,-0.113688 -0.041341,-0.265617 0,-0.283188 0.1550296,-0.444418 0.156063,-0.161231 0.411345,-0.161231 0.099219,0 0.1943037,0.02791 0.096118,0.02791 0.1757001,0.06821 v 0.216008 h -0.010335 q -0.088884,-0.06925 -0.1839684,-0.106454 -0.094051,-0.03721 -0.1839683,-0.03721 -0.1653649,0 -0.2614832,0.111622 -0.095085,0.110587 -0.095085,0.325562 0,0.208773 0.093018,0.321428 0.094051,0.111621 0.2635502,0.111621 0.058911,0 0.1198895,-0.0155 0.060978,-0.0155 0.1095542,-0.04031 0.042375,-0.0217 0.079582,-0.04547 0.037207,-0.02481 0.058911,-0.04237 h 0.010335 z"
         style="stroke-width:0.264583"
         id="path1369" />
    </g>
    <g
       aria-label="d"
       id="text1057-0"
       style="font-size:2.11667px;line-height:1.25;font-family:sans-serif;display:inline;stroke-width:0.264583">
      <path
         d="M 5.5879816,107.87146 H 5.3936779 v -0.12092 q -0.083716,0.0723 -0.1746666,0.11265 -0.090951,0.0403 -0.1974043,0.0403 -0.206706,0 -0.3286626,-0.15916 -0.120923,-0.15917 -0.120923,-0.44132 0,-0.14676 0.041341,-0.26148 0.042375,-0.11473 0.1136883,-0.19534 0.07028,-0.0785 0.1632978,-0.11989 0.094051,-0.0413 0.1943037,-0.0413 0.090951,0 0.1612307,0.0196 0.07028,0.0186 0.1477948,0.0589 v -0.50023 h 0.1943037 z m -0.1943037,-0.28422 v -0.66249 q -0.078548,-0.0351 -0.1405601,-0.0486 -0.062012,-0.0134 -0.1353925,-0.0134 -0.1632977,0 -0.2542484,0.11369 -0.090951,0.11369 -0.090951,0.32246 0,0.20568 0.07028,0.31316 0.07028,0.10646 0.2253096,0.10646 0.082682,0 0.1674319,-0.0362 0.084749,-0.0372 0.1581301,-0.0951 z"
         style="stroke-width:0.264583"
         id="path1366" />
    </g>
    <g
       aria-label="by pat"
       id="text1742"
       style="font-size:2.11667px;line-height:1.25;font-family:sans-serif;stroke-width:0.264583"
       transform="translate(-0.5684387,-1.5491623)">
      <path
         d="m 2.8460216,124.4894 q 0,0.14469 -0.041341,0.26045 -0.040308,0.11575 -0.1095542,0.1943 -0.073381,0.0817 -0.1612307,0.12299 -0.08785,0.0403 -0.1932702,0.0403 -0.098185,0 -0.171566,-0.0238 -0.073381,-0.0227 -0.1446942,-0.062 l -0.012402,0.0537 H 1.8300614 v -1.60817 h 0.1943037 v 0.57464 q 0.081649,-0.0672 0.1736331,-0.10956 0.091984,-0.0434 0.206706,-0.0434 0.204639,0 0.3224614,0.15709 0.118856,0.1571 0.118856,0.44339 z m -0.2005048,0.005 q 0,-0.2067 -0.068213,-0.31315 -0.068213,-0.10749 -0.220142,-0.10749 -0.08475,0 -0.171566,0.0372 -0.086817,0.0362 -0.1612307,0.094 v 0.66146 q 0.082682,0.0372 0.1415936,0.0517 0.059945,0.0145 0.1353925,0.0145 0.1612307,0 0.2521814,-0.10542 0.091984,-0.10645 0.091984,-0.3328 z"
         style="stroke-width:0.264583"
         id="path1810" />
      <path
         d="m 4.1420685,123.92096 -0.6738617,1.58026 H 3.2604672 l 0.2149743,-0.48162 -0.459921,-1.09864 h 0.2108402 l 0.3545009,0.85576 0.3576014,-0.85576 z"
         style="stroke-width:0.264583"
         id="path1812" />
      <path
         d="m 6.1564188,124.48423 q 0,0.14056 -0.040308,0.25735 -0.040308,0.11575 -0.1136883,0.19637 -0.068213,0.0765 -0.1612308,0.11886 -0.091984,0.0413 -0.1953372,0.0413 -0.089917,0 -0.1632977,-0.0196 -0.072347,-0.0196 -0.1477949,-0.061 v 0.48369 H 5.1404586 v -1.58026 h 0.1943036 v 0.12092 q 0.077515,-0.0651 0.1736331,-0.10852 0.097152,-0.0444 0.2067061,-0.0444 0.2087731,0 0.3245284,0.15813 0.116789,0.15709 0.116789,0.43718 z m -0.2005049,0.005 q 0,-0.20878 -0.071314,-0.31213 -0.071314,-0.10335 -0.2191084,-0.10335 -0.083716,0 -0.1684654,0.0362 -0.08475,0.0362 -0.1622643,0.0951 v 0.65422 q 0.082682,0.0372 0.1415937,0.0506 0.059945,0.0134 0.1353924,0.0134 0.1622643,0 0.2532149,-0.10955 0.090951,-0.10956 0.090951,-0.32453 z"
         style="stroke-width:0.264583"
         id="path1814" />
      <path
         d="M 7.3563475,125.07541 H 7.1630774 v -0.12299 q -0.025838,0.0176 -0.07028,0.0496 -0.043408,0.031 -0.08475,0.0496 -0.048576,0.0238 -0.1116212,0.0393 -0.063045,0.0165 -0.1477949,0.0165 -0.156063,0 -0.2645837,-0.10335 -0.1085207,-0.10336 -0.1085207,-0.26355 0,-0.13126 0.055811,-0.21188 0.056844,-0.0817 0.1612307,-0.12816 0.1054201,-0.0465 0.2532149,-0.063 0.1477948,-0.0165 0.3172938,-0.0248 v -0.03 q 0,-0.0661 -0.023771,-0.10955 -0.022738,-0.0434 -0.066146,-0.0682 -0.041341,-0.0238 -0.099219,-0.032 -0.057878,-0.008 -0.120923,-0.008 -0.076481,0 -0.1705325,0.0207 -0.094051,0.0196 -0.1943037,0.0579 h -0.010335 v -0.1974 q 0.056844,-0.0155 0.1643313,-0.0341 0.1074872,-0.0186 0.2118737,-0.0186 0.1219566,0 0.2118737,0.0207 0.090951,0.0196 0.1570966,0.0682 0.065112,0.0476 0.099219,0.12299 0.034107,0.0754 0.034107,0.18707 z m -0.1932701,-0.28422 v -0.32143 q -0.088884,0.005 -0.2098067,0.0155 -0.1198895,0.0103 -0.1901695,0.03 -0.083716,0.0238 -0.1353925,0.0744 -0.051677,0.0496 -0.051677,0.13746 0,0.0992 0.059945,0.14986 0.059945,0.0496 0.1829349,0.0496 0.1023195,0 0.187069,-0.0393 0.084749,-0.0403 0.1570966,-0.0961 z"
         style="stroke-width:0.264583"
         id="path1816" />
      <path
         d="m 8.3299329,125.06507 q -0.054777,0.0145 -0.1198895,0.0238 -0.064079,0.009 -0.1147218,0.009 -0.1767337,0 -0.2687179,-0.0951 -0.091984,-0.0951 -0.091984,-0.30489 v -0.61392 H 7.6033612 v -0.16329 h 0.1312583 v -0.33177 h 0.1943037 v 0.33177 h 0.4010097 v 0.16329 H 7.9289232 v 0.52607 q 0,0.0909 0.00413,0.14263 0.00413,0.0506 0.028939,0.0951 0.022738,0.0413 0.062012,0.061 0.040308,0.0186 0.1219566,0.0186 0.047542,0 0.099219,-0.0134 0.051677,-0.0145 0.074414,-0.0238 h 0.010335 z"
         style="stroke-width:0.264583"
         id="path1818" />
    </g>
    <g
       aria-label=":)"
       id="text1746"
       style="font-size:2.11667px;line-height:1.25;font-family:sans-serif;stroke-width:0.264583"
       transform="translate(17.091155,-1.3383823)">
      <path
         d="M 14.798163,124.21551 H 14.55115 v -0.29455 h 0.247013 z m 0,0.8599 H 14.55115 v -0.29456 h 0.247013 z"
         style="stroke-width:0.264583"
         id="path1821" />
      <path
         d="m 15.928845,124.48423 q 0,0.31109 -0.101285,0.55914 -0.101286,0.24805 -0.284221,0.45785 H 15.30666 v -0.0103 q 0.07958,-0.0713 0.159164,-0.17467 0.08061,-0.10232 0.141594,-0.22944 0.06408,-0.13229 0.101286,-0.27906 0.03824,-0.14676 0.03824,-0.32349 0,-0.1695 -0.03824,-0.32246 -0.03824,-0.15296 -0.101286,-0.28009 -0.06511,-0.13126 -0.141594,-0.22944 -0.07545,-0.0992 -0.159164,-0.17467 v -0.0103 h 0.236679 q 0.182935,0.2098 0.284221,0.45785 0.101285,0.24805 0.101285,0.55914 z"
         style="stroke-width:0.264583"
         id="path1823" />
    </g>
    <g
       aria-label="out"
       id="text1272"
       style="font-size:2.11667px;line-height:1.25;font-family:sans-serif;stroke-width:0.264583"
       transform="translate(5.6697276,0.5612778)">
      <path
         d="m 6.2551238,117.21502 q 0,0.28216 -0.1446942,0.44545 -0.1446943,0.1633 -0.3875739,0.1633 -0.2449466,0 -0.3896409,-0.1633 -0.1436607,-0.16329 -0.1436607,-0.44545 0,-0.28215 0.1436607,-0.44545 0.1446943,-0.16433 0.3896409,-0.16433 0.2428796,0 0.3875739,0.16433 0.1446942,0.1633 0.1446942,0.44545 z m -0.2005049,0 q 0,-0.22427 -0.08785,-0.33279 -0.08785,-0.10956 -0.2439132,-0.10956 -0.1581301,0 -0.2459802,0.10956 -0.086817,0.10852 -0.086817,0.33279 0,0.21704 0.08785,0.3297 0.08785,0.11162 0.2449466,0.11162 0.1550296,0 0.2428796,-0.11059 0.088884,-0.11162 0.088884,-0.33073 z"
         style="stroke-width:0.264583"
         id="path1359" />
      <path
         d="M 7.5129301,117.79173 H 7.3186264 v -0.12815 q -0.098185,0.0775 -0.1881025,0.11885 -0.089917,0.0413 -0.1984378,0.0413 -0.1819013,0 -0.2831873,-0.11059 -0.1012859,-0.11162 -0.1012859,-0.32659 v -0.74931 h 0.1943037 v 0.65732 q 0,0.0879 0.00827,0.1509 0.00827,0.062 0.03514,0.10645 0.027905,0.0455 0.072347,0.0661 0.044442,0.0207 0.1291913,0.0207 0.075448,0 0.1643313,-0.0393 0.089917,-0.0393 0.1674319,-0.10026 v -0.86196 h 0.1943037 z"
         style="stroke-width:0.264583"
         id="path1361" />
      <path
         d="m 8.4947837,117.7814 q -0.054777,0.0145 -0.1198896,0.0238 -0.064079,0.009 -0.1147218,0.009 -0.1767337,0 -0.2687179,-0.0951 -0.091984,-0.0951 -0.091984,-0.3049 v -0.61391 H 7.7682119 v -0.1633 h 0.1312583 v -0.33176 h 0.1943037 v 0.33176 h 0.4010098 v 0.1633 H 8.0937739 v 0.52606 q 0,0.091 0.00413,0.14263 0.00413,0.0506 0.028939,0.0951 0.022738,0.0413 0.062012,0.061 0.040308,0.0186 0.1219566,0.0186 0.047542,0 0.099219,-0.0134 0.051676,-0.0145 0.074414,-0.0238 h 0.010335 z"
         style="stroke-width:0.264583"
         id="path1363" />
    </g>
    <g
       aria-label="tempo"
       id="text1321"
       style="font-size:2.11667px;line-height:1.25;font-family:sans-serif;display:inline;stroke-width:0.264583" />
    <g
       aria-label="gate"
       id="text2197"
       style="font-size:2.11667px;line-height:1.25;font-family:sans-serif;stroke-width:0.264583">
      <path
         d="m 3.8609549,11.101597 q 0,0.293523 -0.1333254,0.430983 -0.1333254,0.137459 -0.4103115,0.137459 -0.091984,0 -0.1798343,-0.01344 -0.086817,-0.0124 -0.171566,-0.03617 v -0.198438 h 0.010335 q 0.047542,0.0186 0.1508954,0.04547 0.103353,0.02791 0.2067061,0.02791 0.099219,0 0.1643313,-0.02377 0.065112,-0.02377 0.1012859,-0.06615 0.036174,-0.04031 0.051677,-0.09715 0.015503,-0.05684 0.015503,-0.127125 v -0.10542 q -0.08785,0.07028 -0.1684654,0.10542 -0.079582,0.03411 -0.2036055,0.03411 -0.206706,0 -0.3286626,-0.148829 -0.120923,-0.149861 -0.120923,-0.42168 0,-0.148828 0.041341,-0.256315 0.042375,-0.108521 0.1147218,-0.187069 0.067179,-0.07338 0.1632978,-0.113689 0.096118,-0.04134 0.1912031,-0.04134 0.1002524,0 0.1674319,0.02067 0.068213,0.01964 0.1436607,0.06098 l 0.012402,-0.04961 H 3.8609549 Z M 3.6666512,10.915562 v -0.62942 q -0.077515,-0.03514 -0.1446942,-0.04961 -0.066146,-0.0155 -0.1322919,-0.0155 -0.1601972,0 -0.2521814,0.107487 -0.091984,0.107487 -0.091984,0.312126 0,0.194304 0.068213,0.294556 0.068213,0.100253 0.2263431,0.100253 0.08475,0 0.169499,-0.03204 0.085783,-0.03307 0.1570966,-0.08785 z"
         style="font-size:2.11667px;stroke-width:0.264583"
         id="path2199" />
      <path
         d="M 5.1404653,11.232856 H 4.9471952 v -0.12299 q -0.025838,0.01757 -0.07028,0.04961 -0.043408,0.03101 -0.08475,0.04961 -0.048576,0.02377 -0.1116212,0.03927 -0.063045,0.01654 -0.1477948,0.01654 -0.1560631,0 -0.2645838,-0.103353 -0.1085207,-0.103353 -0.1085207,-0.26355 0,-0.131258 0.055811,-0.211874 0.056844,-0.08165 0.1612307,-0.128157 0.1054201,-0.04651 0.2532149,-0.06305 0.1477948,-0.01654 0.3172938,-0.02481 v -0.02997 q 0,-0.06615 -0.023771,-0.109554 -0.022738,-0.04341 -0.066146,-0.06821 -0.041341,-0.02377 -0.099219,-0.03204 -0.057878,-0.0083 -0.120923,-0.0083 -0.076481,0 -0.1705325,0.02067 -0.094051,0.01964 -0.1943037,0.05788 h -0.010335 v -0.197405 q 0.056844,-0.0155 0.1643313,-0.03411 0.1074872,-0.0186 0.2118737,-0.0186 0.1219566,0 0.2118737,0.02067 0.090951,0.01964 0.1570966,0.06821 0.065112,0.04754 0.099219,0.12299 0.034107,0.07545 0.034107,0.187069 z M 4.9471952,10.948635 v -0.321428 q -0.088884,0.0052 -0.2098067,0.0155 -0.1198895,0.01034 -0.1901695,0.02997 -0.083716,0.02377 -0.1353925,0.07442 -0.051677,0.04961 -0.051677,0.137459 0,0.09922 0.059945,0.149862 0.059945,0.04961 0.1829348,0.04961 0.1023195,0 0.187069,-0.03927 0.08475,-0.04031 0.1570966,-0.09612 z"
         style="font-size:2.11667px;stroke-width:0.264583"
         id="path2201" />
      <path
         d="m 6.1140509,11.22252 q -0.054777,0.01447 -0.1198895,0.02377 -0.064079,0.0093 -0.1147219,0.0093 -0.1767336,0 -0.2687178,-0.09508 -0.091984,-0.09508 -0.091984,-0.304892 V 10.2417 H 5.3874791 V 10.078403 H 5.5187375 V 9.7466393 H 5.7130412 V 10.078403 H 6.1140509 V 10.2417 H 5.7130412 v 0.526067 q 0,0.09095 0.00413,0.142627 0.00413,0.05064 0.028939,0.09508 0.022738,0.04134 0.062012,0.06098 0.040308,0.0186 0.1219566,0.0186 0.047542,0 0.099219,-0.01344 0.051677,-0.01447 0.074414,-0.02377 h 0.010335 z"
         style="font-size:2.11667px;stroke-width:0.264583"
         id="path2203" />
      <path
         d="M 7.3150129,10.675783 H 6.4644175 q 0,0.106454 0.032039,0.186035 0.032039,0.07855 0.08785,0.129192 0.053744,0.04961 0.1271242,0.07441 0.074414,0.02481 0.1632978,0.02481 0.1178224,0 0.2366784,-0.04651 0.1198895,-0.04754 0.1705325,-0.09302 h 0.010335 v 0.211874 q -0.098185,0.04134 -0.2005049,0.06925 -0.1023195,0.02791 -0.2149742,0.02791 -0.2873214,0 -0.4485522,-0.15503 -0.1612307,-0.156063 -0.1612307,-0.442351 0,-0.283187 0.153996,-0.449586 0.1550296,-0.166398 0.4072109,-0.166398 0.2335779,0 0.3596686,0.136426 0.1271242,0.136426 0.1271242,0.387574 z M 7.1258768,10.526955 q -0.00103,-0.152963 -0.077515,-0.236679 -0.075448,-0.08372 -0.2304773,-0.08372 -0.156063,0 -0.2490808,0.09198 -0.091984,0.09199 -0.1043865,0.228411 z"
         style="font-size:2.11667px;stroke-width:0.264583"
         id="path2205" />
    </g>
  </g>
  <g
     inkscape:groupmode="layer"
     id="layer2"
     inkscape:label="components"
     style="display:none">
    <circle
       style="fill:#ff0000;fill-opacity:1;stroke-width:0.297589"
       id="path962"
       cx="12.7"
       cy="21.416679"
       r="2.54"
       inkscape:label="a" />
    <circle
       style="fill:#00ff00;fill-opacity:1;stroke-width:0.29759"
       id="path962-0"
       cx="5.0799999"
       cy="21.416679"
       r="2.5400002"
       inkscape:label="a_cv" />
    <circle
       style="fill:#00ff00;fill-opacity:1;stroke-width:0.29759"
       id="path962-3"
       cx="30.48"
       cy="21.416679"
       r="2.5400002"
       inkscape:label="b_cv" />
    <circle
       style="fill:#ff0000;fill-opacity:1;stroke-width:0.29759"
       id="path962-4"
       cx="22.860001"
       cy="21.416679"
       r="2.5400002"
       inkscape:label="b" />
    <circle
       style="fill:#00ff00;fill-opacity:1;stroke-width:0.29759"
       id="path962-0-3"
       cx="5.0799999"
       cy="33.245853"
       r="2.5400004"
       inkscape:label="c_cv" />
    <circle
       style="fill:#00ff00;fill-opacity:1;stroke-width:0.29759"
       id="path962-0-6"
       cx="30.48"
       cy="33.245853"
       r="2.5400004"
       inkscape:label="d_cv" />
    <circle
       style="fill:#ff0000;fill-opacity:1;stroke-width:0.29759"
       id="path962-3-5"
       cx="22.860001"
       cy="33.245853"
       r="2.5400004"
       inkscape:label="d" />
    <circle
       style="fill:#ff0000;fill-opacity:1;stroke-width:0.29759"
       id="path962-3-9"
       cx="12.7"
       cy="33.245853"
       r="2.5400004"
       inkscape:label="c" />
    <rect
       style="display:inline;fill:#ffff00;fill-opacity:1;stroke-width:0.305514"
       id="rect1081"
       width="5.0799999"
       height="5.354167"
       x="10.979946"
       y="61.572956"
       inkscape:label="b_button" />
    <rect
       style="display:inline;fill:#ffff00;fill-opacity:1;stroke-width:0.305514"
       id="rect1083"
       width="5.0799999"
       height="5.354167"
       x="19.500059"
       y="61.572956"
       inkscape:label="c_button" />
    <rect
       style="display:inline;fill:#ffff00;fill-opacity:1;stroke-width:0.305512"
       id="rect1085"
       width="5.0799999"
       height="5.3540788"
       x="28.020172"
       y="61.572998"
       inkscape:label="d_button" />
    <rect
       style="display:inline;fill:#ffff00;fill-opacity:1;stroke-width:0.305514"
       id="rect1087"
       width="5.0799999"
       height="5.3541684"
       x="2.4598341"
       y="61.572956"
       inkscape:label="a_button" />
    <rect
       style="display:inline;fill:#ffff00;fill-opacity:1;stroke-width:0.264583"
       id="rect1104"
       width="25.4"
       height="5.3541698"
       x="7.6199999"
       y="72.281288"
       inkscape:label="a_vec" />
    <rect
       style="display:inline;fill:#ffff00;fill-opacity:1;stroke-width:0.264583"
       id="rect1106"
       width="25.4"
       height="5.3541698"
       x="7.6199999"
       y="82.989632"
       inkscape:label="b_vec" />
    <rect
       style="display:inline;fill:#ffff00;fill-opacity:1;stroke-width:0.264583"
       id="rect1108"
       width="25.4"
       height="5.3541698"
       x="7.6199999"
       y="93.697968"
       inkscape:label="c_vec" />
    <rect
       style="display:inline;fill:#ffff00;fill-opacity:1;stroke-width:0.264583"
       id="rect1110"
       width="25.4"
       height="5.3541698"
       x="7.6199999"
       y="104.40631"
       inkscape:label="d_vec" />
    <circle
       style="display:inline;fill:#0000ff;fill-opacity:1;stroke-width:0.29759"
       id="path962-3-5-1"
       cx="25.4"
       cy="117.79174"
       r="2.5400004"
       inkscape:label="output" />
    <circle
       style="display:inline;fill:#00ff00;fill-opacity:1;stroke-width:0.29759"
       id="path962-0-4"
       cx="17.780001"
       cy="10.70834"
       r="2.5400004"
       inkscape:label="gate" />
    <rect
       style="display:inline;fill:#ffff00;fill-opacity:1;stroke-width:0.305514"
       id="rect1081-7"
       width="5.0800004"
       height="5.354167"
       x="11.060111"
       y="50.864616"
       inkscape:label="down" />
    <rect
       style="display:inline;fill:#ffff00;fill-opacity:1;stroke-width:0.499885"
       id="rect1083-2"
       width="13.600111"
       height="5.354167"
       x="19.500059"
       y="50.864616"
       inkscape:label="clear" />
    <rect
       style="display:inline;fill:#ffff00;fill-opacity:1;stroke-width:0.305514"
       id="rect1087-4"
       width="5.0800004"
       height="5.3541684"
       x="2.4598341"
       y="50.864616"
       inkscape:label="up" />
    <rect
       style="display:inline;fill:#ffff00;fill-opacity:1;stroke-width:0.748353"
       id="rect1083-2-5"
       width="30.48"
       height="5.354167"
       x="2.54"
       y="42.833359"
       inkscape:label="display" />
  </g>
</svg>
