<?xml version="1.0" encoding="UTF-8" standalone="no"?>
<svg
   xmlns:dc="http://purl.org/dc/elements/1.1/"
   xmlns:cc="http://creativecommons.org/ns#"
   xmlns:rdf="http://www.w3.org/1999/02/22-rdf-syntax-ns#"
   xmlns:svg="http://www.w3.org/2000/svg"
   xmlns="http://www.w3.org/2000/svg"
   xmlns:sodipodi="http://sodipodi.sourceforge.net/DTD/sodipodi-0.dtd"
   xmlns:inkscape="http://www.inkscape.org/namespaces/inkscape"
   width="60.959999mm"
   height="128.49985mm"
   viewBox="0 0 60.959999 128.49985"
   version="1.1"
   id="svg8"
   inkscape:version="1.0.1 (3bc2e813f5, 2020-09-07)"
   sodipodi:docname="renick.svg">
  <defs
     id="defs2" />
  <sodipodi:namedview
     id="base"
     pagecolor="#ffffff"
     bordercolor="#666666"
     borderopacity="1.0"
     inkscape:pageopacity="0.0"
     inkscape:pageshadow="2"
     inkscape:zoom="10.916923"
     inkscape:cx="113.49867"
     inkscape:cy="210.52734"
     inkscape:document-units="mm"
     inkscape:current-layer="layer2"
     inkscape:document-rotation="0"
     showgrid="true"
     inkscape:snap-page="false"
     inkscape:window-width="1858"
     inkscape:window-height="1057"
     inkscape:window-x="-8"
     inkscape:window-y="-8"
     inkscape:window-maximized="1"
     inkscape:snap-center="true"
     inkscape:snap-others="true"
     inkscape:object-nodes="false"
     showguides="true"
     inkscape:guide-bbox="true"
     inkscape:snap-grids="true"
     inkscape:snap-object-midpoints="false">
    <inkscape:grid
       type="xygrid"
       id="grid833"
       units="mm"
       spacingx="2.5399999"
       spacingy="2.00781"
       empspacing="4"
       originx="20.319999"
       originy="64.249923" />
  </sodipodi:namedview>
  <metadata
     id="metadata5">
    <rdf:RDF>
      <cc:Work
         rdf:about="">
        <dc:format>image/svg+xml</dc:format>
        <dc:type
           rdf:resource="http://purl.org/dc/dcmitype/StillImage" />
        <dc:title></dc:title>
      </cc:Work>
    </rdf:RDF>
  </metadata>
  <g
     inkscape:label="Layer 1"
     inkscape:groupmode="layer"
     id="layer1"
     transform="translate(1.2e-6,-8.0999998e-5)"
     style="display:inline"
     sodipodi:insensitive="true">
    <rect
       style="fill:#e6e6e6;fill-opacity:1;stroke-width:1.22474"
       id="rect835"
       width="60.959999"
       height="128.49985"
       x="-1.2e-06"
       y="8.0999998e-05"
       rx="0.74999851"
       ry="0.49999899"
       inkscape:label="bg"
       sodipodi:insensitive="true" />
    <g
       aria-label="renick"
       id="text840"
       style="font-style:normal;font-variant:normal;font-weight:normal;font-stretch:normal;font-size:4.23333px;line-height:1.25;font-family:'Berlin Sans FB';-inkscape-font-specification:'Berlin Sans FB';fill:#e8617a;fill-opacity:1;stroke:none;stroke-width:0.264583"
       inkscape:label="title">
      <path
         d="m 26.540189,7.5372977 q 0,0.2273761 -0.03101,0.4134111 -0.0062,0.047542 -0.04134,0.047542 -0.04341,0 -0.132291,-0.00827 -0.08682,-0.010335 -0.132292,-0.010335 -0.260449,0 -0.332796,0.146761 -0.04341,0.088883 -0.04341,0.3700029 v 0.2273761 q 0,0.1157551 0.0083,0.3513995 0.01034,0.2356443 0.01034,0.3513994 0,0.05581 -0.04754,0.05581 -0.06408,0 -0.194303,-0.00207 -0.130225,-0.00207 -0.194303,-0.00207 -0.04754,0 -0.04754,-0.051676 0,-0.1674315 0.0041,-0.5043615 0.0062,-0.3369301 0.0062,-0.5064287 0,-0.5105627 -0.09508,-0.820621 -0.0041,-0.016536 -0.0041,-0.024805 0,-0.024805 0.02687,-0.03514 0.07648,-0.00827 0.214974,-0.024805 0.223242,-0.041341 0.206705,-0.041341 0.03307,0 0.04341,0.1219563 0.01034,0.1219563 0.03721,0.1219563 0.0041,0 0.01034,-0.00413 0.08475,-0.053743 0.169498,-0.1074868 0.09302,-0.05581 0.190169,-0.082682 0.08061,-0.024805 0.206706,-0.024805 0.16123,0 0.16123,0.043408 z"
         style="font-style:normal;font-variant:normal;font-weight:normal;font-stretch:normal;font-size:4.23333px;font-family:'Berlin Sans FB';-inkscape-font-specification:'Berlin Sans FB';fill:#e8617a;fill-opacity:1;stroke-width:0.264583"
         id="path5127" />
      <path
         d="m 28.518361,8.3682541 q 0,0.1529621 -0.132291,0.2046385 -0.08888,0.033073 -1.279508,0.1219562 0.02687,0.1819009 0.200505,0.3100584 0.165364,0.1219563 0.355533,0.1219563 0.326595,0 0.599446,-0.2108397 0.03307,-0.026872 0.06615,-0.053743 0.01654,0 0.02067,0.00413 0.0062,0.00413 0.07855,0.1446938 0.07235,0.1384928 0.07235,0.148828 0,0.012402 -0.03307,0.047542 -0.303857,0.3224607 -0.77928,0.3224607 -0.479557,0 -0.764811,-0.2852537 -0.285253,-0.2873207 -0.285253,-0.7648105 0,-0.4258135 0.272851,-0.742073 0.287321,-0.3286618 0.704866,-0.3286618 0.388606,0 0.649055,0.2852537 0.254248,0.2769854 0.254248,0.6738601 z M 28.026402,8.2421637 q 0,-0.1715656 -0.136426,-0.3038572 -0.134358,-0.1322915 -0.303857,-0.1322915 -0.190169,0 -0.338997,0.1529621 -0.146761,0.1529621 -0.146761,0.3431312 0,0.043408 0.07441,0.043408 0.305924,0 0.731738,-0.062012 0.119889,-0.016536 0.119889,-0.041341 z"
         style="font-style:normal;font-variant:normal;font-weight:normal;font-stretch:normal;font-size:4.23333px;font-family:'Berlin Sans FB';-inkscape-font-specification:'Berlin Sans FB';fill:#e8617a;fill-opacity:1;stroke-width:0.264583"
         id="path5129" />
      <path
         d="m 30.628825,9.4369218 q 0,0.045475 -0.04134,0.045475 -0.06821,0 -0.204639,-0.00207 -0.134358,-0.00207 -0.202571,-0.00207 -0.03721,0 -0.03721,-0.059945 0,-0.1012857 0.0062,-0.3079913 0.0062,-0.2067055 0.0062,-0.3100583 0,-0.082682 -0.0021,-0.2459796 -0.0021,-0.1653645 -0.0021,-0.2480467 0,-0.2356443 -0.06821,-0.3327959 -0.08268,-0.1157552 -0.305924,-0.1157552 -0.103353,0 -0.287321,0.1157552 -0.194303,0.1219562 -0.194303,0.2170408 v 1.2402333 q 0,0.051676 -0.03927,0.051676 -0.06615,0 -0.198437,-0.00207 -0.132292,-0.00207 -0.198438,-0.00207 -0.04341,0 -0.04341,-0.047542 0,-0.1632974 0.0041,-0.4898921 0.0062,-0.3265948 0.0062,-0.4919593 0,-0.4402828 -0.09302,-0.8123528 -0.0062,-0.018603 -0.0062,-0.026872 0,-0.020671 0.02687,-0.028939 0.01447,-0.00207 0.235644,-0.037207 0.223242,-0.037207 0.233577,-0.037207 0.0124,0 0.01654,0.033073 0.01033,0.1281574 0.04754,0.2583819 0.107487,-0.084749 0.283186,-0.2108396 0.217041,-0.1322916 0.419613,-0.1322916 0.388606,0 0.531233,0.2253091 0.10542,0.1653644 0.10542,0.5353674 0,0.064079 -0.0041,0.1963702 -0.0021,0.1322916 -0.0021,0.1984374 0,0.1384927 0.0041,0.4134111 0.0041,0.2749184 0.0041,0.4134111 z"
         style="font-style:normal;font-variant:normal;font-weight:normal;font-stretch:normal;font-size:4.23333px;font-family:'Berlin Sans FB';-inkscape-font-specification:'Berlin Sans FB';fill:#e8617a;fill-opacity:1;stroke-width:0.264583"
         id="path5131" />
      <path
         d="m 31.559,7.0060645 q 0,0.2542478 -0.283187,0.2542478 -0.287321,0 -0.287321,-0.2542478 0,-0.1136881 0.08888,-0.1881021 0.08268,-0.07028 0.198437,-0.07028 0.115755,0 0.198438,0.072347 0.08475,0.072347 0.08475,0.186035 z m -0.01447,0.560172 q 0,0.1591633 -0.02067,0.481624 -0.0186,0.3203936 -0.0186,0.4816239 0,0.1508951 0.0062,0.4526852 0.0062,0.299723 0.0062,0.448551 0,0.043408 -0.03721,0.043408 h -0.403076 q -0.04341,0 -0.04341,-0.084749 0,-0.1426268 0.0062,-0.4278805 0.0083,-0.2873207 0.0083,-0.4320146 0,-0.1612303 -0.02481,-0.483691 -0.02274,-0.3224607 -0.02274,-0.483691 0,-0.03514 0.04341,-0.03514 0.03721,0 0.113688,0.010335 0.07855,0.010335 0.117822,0.010335 0.03927,0 0.115755,-0.010335 0.07855,-0.010335 0.117822,-0.010335 0.03514,0 0.03514,0.039274 z"
         style="font-style:normal;font-variant:normal;font-weight:normal;font-stretch:normal;font-size:4.23333px;font-family:'Berlin Sans FB';-inkscape-font-specification:'Berlin Sans FB';fill:#e8617a;fill-opacity:1;stroke-width:0.264583"
         id="path5133" />
      <path
         d="m 33.396612,7.6034435 q 0,0.045475 -0.04754,0.2025715 -0.04754,0.1570962 -0.06615,0.1570962 -0.09302,-0.041341 -0.188102,-0.082682 -0.09302,-0.041341 -0.204639,-0.041341 -0.254247,0 -0.423746,0.1881021 -0.169499,0.1881021 -0.169499,0.4444169 0,0.2521808 0.169499,0.4361488 0.173633,0.1901691 0.423746,0.1901691 0.138493,0 0.272852,-0.068213 0.134358,-0.068213 0.117822,-0.068213 0.02687,0 0.05994,0.1736327 0.03101,0.1570962 0.03101,0.2170408 0,0.064079 -0.241845,0.1260904 -0.202572,0.051676 -0.299723,0.051676 -0.425814,0 -0.719336,-0.3183266 -0.28732,-0.3100583 -0.28732,-0.7400059 0,-0.4382157 0.281119,-0.74414 0.289388,-0.3141924 0.721403,-0.3141924 0.289387,0 0.529166,0.1467609 0.04134,0.024805 0.04134,0.043408 z"
         style="font-style:normal;font-variant:normal;font-weight:normal;font-stretch:normal;font-size:4.23333px;font-family:'Berlin Sans FB';-inkscape-font-specification:'Berlin Sans FB';fill:#e8617a;fill-opacity:1;stroke-width:0.264583"
         id="path5135" />
      <path
         d="m 35.68691,8.0602628 q 0,0.5374344 -0.49816,0.7193353 0,0.1054199 0.206705,0.3824053 0.206706,0.2749184 0.206706,0.2749184 0,0.031006 -0.206706,0.041341 -0.136425,0.0062 -0.204638,0.0062 -0.146761,0 -0.183968,-0.062012 -0.09715,-0.1653644 -0.305924,-0.4816239 -0.02481,-0.037207 -0.448552,-0.031006 l -0.08062,0.00207 v 0.5105627 q 0,0.064079 -0.04547,0.064079 -0.06615,0 -0.19637,-0.00207 -0.128158,-0.00207 -0.194303,-0.00207 -0.04548,0 -0.04548,-0.080615 V 8.1160733 q 0,-0.2521808 -0.02067,-0.7544753 -0.0186,-0.5022945 -0.0186,-0.7544753 0,-0.037207 0.03927,-0.041341 0.06821,-0.00207 0.206706,-0.00827 0.02894,-0.00207 0.121956,-0.014469 0.07441,-0.010335 0.119889,-0.010335 0.02894,0 0.02894,0.049609 0,0.111621 -0.01034,0.3327959 -0.01033,0.221175 -0.01033,0.332796 v 0.5333003 q 0,0.043408 0.0186,0.043408 0.04961,-0.041341 0.148828,-0.1219563 0.347265,-0.2687172 0.661458,-0.2687172 0.305924,0 0.500227,0.1570962 0.21084,0.1715656 0.21084,0.4692216 z m -0.49816,0.097152 q 0,-0.2955889 -0.382406,-0.2955889 -0.285253,0 -0.642854,0.3803382 V 8.550155 q 0.167432,0.031006 0.405143,0.031006 0.239778,0 0.409277,-0.09095 0.21084,-0.113688 0.21084,-0.3327962 z"
         style="font-style:normal;font-variant:normal;font-weight:normal;font-stretch:normal;font-size:4.23333px;font-family:'Berlin Sans FB';-inkscape-font-specification:'Berlin Sans FB';fill:#e8617a;fill-opacity:1;stroke-width:0.264583"
         id="path5137" />
    </g>
    <g
       aria-label="by pat"
       id="text840-6"
       style="font-style:normal;font-variant:normal;font-weight:normal;font-stretch:normal;font-size:3.52778px;line-height:1.25;font-family:'Berlin Sans FB';-inkscape-font-specification:'Berlin Sans FB';fill:#e8617a;fill-opacity:1;stroke:none;stroke-width:0.264583"
       inkscape:label="footer">
      <path
         d="m 7.1825727,120.5884 q 0,0.34106 -0.2118735,0.59428 -0.2256539,0.26871 -0.5615509,0.26871 -0.2239314,0 -0.3944637,-0.11369 -0.068902,-0.0586 -0.1378039,-0.11541 -0.018948,0.005 -0.025838,0.10336 -0.00517,0.0982 -0.027561,0.0982 H 5.4600239 q -0.020671,0 -0.020671,-0.0224 0,0.002 0.00345,-0.031 0.027561,-0.2756 0.027561,-1.0542 0,-0.31867 -0.027561,-0.93534 -0.017226,-0.39274 -0.017226,-0.34451 0,-0.0448 0.044786,-0.0499 0.062012,-0.002 0.1843127,-0.007 0.024116,-0.002 0.098185,-0.0121 0.062012,-0.0103 0.099908,-0.0103 0.027561,0 0.027561,0.0396 0,0.0586 -0.00861,0.17915 -0.00861,0.12057 -0.00861,0.18086 0,0.0896 -0.00861,0.27044 -0.00689,0.17915 -0.00689,0.26872 0,0.0655 0.024116,0.0655 0.012058,0 0.025838,-0.0189 0.1894804,-0.23599 0.5012617,-0.23599 0.3565676,0 0.5770539,0.267 0.2067058,0.25149 0.2067058,0.61495 z m -0.389296,-0.0155 q 0,-0.20498 -0.1291912,-0.36173 -0.1378039,-0.16709 -0.3393421,-0.16709 -0.2067059,0 -0.3445098,0.16364 -0.1326362,0.15503 -0.1326362,0.36518 0,0.2136 0.1326362,0.36863 0.1378039,0.16192 0.3479549,0.16192 0.2032608,0 0.3393421,-0.16709 0.1257461,-0.15503 0.1257461,-0.36346 z"
         style="font-style:normal;font-variant:normal;font-weight:normal;font-stretch:normal;font-size:3.52778px;font-family:'Berlin Sans FB';-inkscape-font-specification:'Berlin Sans FB';fill:#e8617a;fill-opacity:1;stroke-width:0.264583"
         id="path885" />
      <path
         d="m 8.8792833,120.22149 q 0,0.29111 -0.017226,0.3514 -0.022393,0.0775 -0.4271921,0.67696 -0.4030764,0.59773 -0.4788686,0.66835 -0.068902,0.062 -0.4444176,0.062 -0.044786,0 -0.058567,-0.0103 -0.012058,-0.009 -0.058567,-0.12402 -0.044786,-0.11541 -0.044786,-0.13781 0,-0.0379 0.091295,-0.0379 0.1929255,0 0.2842206,-0.0551 0.031006,-0.0189 0.093018,-0.11886 0.063734,-0.0999 0.063734,-0.13436 0,-0.0465 -0.2497696,-0.36346 -0.2635499,-0.33589 -0.2945558,-0.42547 -0.024116,-0.0706 -0.024116,-0.33762 0,-0.0654 0.00172,-0.19637 0.00172,-0.13263 0.00172,-0.19981 0,-0.0379 0.041341,-0.0379 0.055122,0 0.1619196,0.007 0.1085205,0.007 0.1636421,0.007 0.027561,0 0.027561,0.0362 0,0.0482 -0.00517,0.14469 -0.00517,0.0965 -0.00517,0.14469 0,0.21015 0.01378,0.31351 0.010335,0.0654 0.1877578,0.32556 0.1774225,0.2601 0.2187637,0.2601 0.029283,0 0.1860353,-0.25493 0.1567519,-0.25666 0.1670872,-0.31695 0.01378,-0.0861 0.01378,-0.31351 0,-0.0499 -0.010335,-0.14641 -0.010335,-0.0982 -0.010335,-0.14642 0,-0.0431 0.027561,-0.0431 0.055122,0 0.1653647,-0.007 0.1119657,-0.009 0.1670872,-0.009 0.051677,0 0.051677,0.41858 z"
         style="font-style:normal;font-variant:normal;font-weight:normal;font-stretch:normal;font-size:3.52778px;font-family:'Berlin Sans FB';-inkscape-font-specification:'Berlin Sans FB';fill:#e8617a;fill-opacity:1;stroke-width:0.264583"
         id="path887" />
      <path
         d="m 11.712876,120.59184 q 0,0.34796 -0.220486,0.60462 -0.230822,0.27044 -0.573609,0.27044 -0.213596,0 -0.373793,-0.13264 -0.07235,-0.0672 -0.144694,-0.13608 -0.01034,0.005 -0.01378,0.0276 -0.0017,0.0103 -0.0017,0.19292 l -0.0017,0.48576 q 0,0.0551 -0.03962,0.0551 -0.265273,0 -0.313504,-0.007 -0.039619,-0.005 -0.039619,-0.0448 0,-0.22049 0.00345,-0.66146 0.00345,-0.44097 0.00345,-0.66146 0,-0.4048 -0.051676,-0.75964 -0.00345,-0.0207 -0.00345,-0.0276 0,-0.0189 0.017225,-0.0241 0.065457,-0.003 0.191203,-0.019 0.16881,-0.031 0.189481,-0.031 0.02928,0 0.0379,0.10335 0.0052,0.0689 0.0086,0.13608 0,0.0138 0.01034,0.0276 0.01206,-0.007 0.02756,-0.0241 0.241157,-0.24633 0.487482,-0.24633 0.341064,0 0.575331,0.267 0.225654,0.25666 0.225654,0.60461 z m -0.403076,-0.007 q 0,-0.2067 -0.129192,-0.36346 -0.136081,-0.16708 -0.339342,-0.16708 -0.199815,0 -0.327284,0.17225 -0.117133,0.15503 -0.117133,0.36174 0,0.21015 0.120578,0.36518 0.132636,0.16708 0.33762,0.16708 0.19637,0 0.330729,-0.17397 0.124024,-0.16192 0.124024,-0.36174 z"
         style="font-style:normal;font-variant:normal;font-weight:normal;font-stretch:normal;font-size:3.52778px;font-family:'Berlin Sans FB';-inkscape-font-specification:'Berlin Sans FB';fill:#e8617a;fill-opacity:1;stroke-width:0.264583"
         id="path889" />
      <path
         d="m 13.654189,119.86148 q 0,0.007 -0.0052,0.031 -0.06718,0.39446 -0.06718,0.6804 0,0.0172 0.04306,0.77343 l 0.0017,0.0241 q 0.0017,0.05 -0.04651,0.05 -0.04651,0 -0.142972,0.0103 -0.09474,0.0121 -0.141249,0.0121 -0.03273,0 -0.04995,-0.12058 -0.01722,-0.12058 -0.03273,-0.12058 -0.01033,0 -0.09302,0.0672 -0.10163,0.0827 -0.18948,0.12575 -0.136081,0.0689 -0.272163,0.0689 -0.334174,0 -0.563273,-0.26699 -0.217041,-0.25494 -0.217041,-0.59428 0,-0.38241 0.218763,-0.63218 0.229099,-0.2601 0.602892,-0.2601 0.26355,0 0.459921,0.18259 0.02928,0.0345 0.09129,0.0999 0.0052,0.005 0.01034,0.005 0.01034,0 0.02928,-0.10852 0.01895,-0.10852 0.04823,-0.10852 0.04651,0 0.173978,0.0258 0.141249,0.031 0.141249,0.0551 z m -0.43925,0.72003 q 0,-0.21188 -0.125746,-0.36346 -0.132637,-0.16364 -0.339343,-0.16364 -0.206705,0 -0.344509,0.16192 -0.132637,0.15503 -0.132637,0.36518 0,0.20842 0.132637,0.36173 0.137804,0.1602 0.344509,0.1602 0.201539,0 0.33762,-0.16364 0.127469,-0.15331 0.127469,-0.35829 z"
         style="font-style:normal;font-variant:normal;font-weight:normal;font-stretch:normal;font-size:3.52778px;font-family:'Berlin Sans FB';-inkscape-font-specification:'Berlin Sans FB';fill:#e8617a;fill-opacity:1;stroke-width:0.264583"
         id="path891" />
      <path
         d="m 14.894424,121.10344 q 0,0.0379 -0.0069,0.10335 -0.0086,0.081 -0.01033,0.10508 -0.0017,0.031 -0.0052,0.0379 -0.0069,0.0121 -0.03273,0.0241 -0.141249,0.0672 -0.444417,0.0672 -0.403077,0 -0.403077,-0.36518 0,-0.14642 0.0069,-0.43925 0.0069,-0.29456 0.0069,-0.44097 0,-0.0706 -0.07062,-0.0758 -0.06373,0 -0.125746,-0.002 -0.03617,-0.009 -0.03617,-0.14125 0,-0.0499 0.0069,-0.10507 0.0052,-0.0413 0.05512,-0.05 0.04306,0 0.08441,-0.002 0.07924,-0.003 0.07924,-0.0706 0,-0.0689 -0.0052,-0.21015 -0.0034,-0.14125 -0.0034,-0.21187 0,-0.12575 0.04823,-0.12575 0.0155,0 0.323839,0.0534 0.03962,0.005 0.03962,0.0379 0,0.0758 -0.01206,0.22738 -0.01033,0.15158 -0.01033,0.22737 0,0.05 0.04651,0.05 h 0.413412 q 0.02928,0 0.02928,0.0207 0,0.0207 -0.0069,0.0672 -0.0052,0.0448 -0.0052,0.0672 0,0.0258 0.0017,0.0792 0.0017,0.0534 0.0017,0.0792 0,0.0327 -0.04823,0.0327 -0.0689,0 -0.208428,-0.009 -0.139527,-0.0103 -0.208428,-0.0103 -0.01378,0 -0.02067,0.0982 -0.0086,0.1223 -0.0086,0.34278 v 0.25666 q 0,0.14814 0.02756,0.20671 0.04134,0.0896 0.170532,0.0896 0.0534,0 0.156752,-0.0224 0.103353,-0.0241 0.153307,-0.0241 0.02067,0 0.02067,0.031 z"
         style="font-style:normal;font-variant:normal;font-weight:normal;font-stretch:normal;font-size:3.52778px;font-family:'Berlin Sans FB';-inkscape-font-specification:'Berlin Sans FB';fill:#e8617a;fill-opacity:1;stroke-width:0.264583"
         id="path893" />
    </g>
    <g
       aria-label=":^)"
       id="text840-6-7"
       style="font-style:normal;font-variant:normal;font-weight:bold;font-stretch:normal;font-size:3.52777px;line-height:1.25;font-family:Calibri;-inkscape-font-specification:'Calibri Bold';fill:#e8617a;fill-opacity:1;stroke:none;stroke-width:0.264583"
       inkscape:label="smiley"
       transform="translate(20.117598,-0.046861)">
      <path
         d="m 29.484368,120.07767 q 0,0.0723 -0.01206,0.12057 -0.01206,0.0482 -0.04134,0.0792 -0.02756,0.031 -0.07407,0.0448 -0.04651,0.0121 -0.117133,0.0121 -0.07062,0 -0.117133,-0.0121 -0.04651,-0.0138 -0.07579,-0.0448 -0.02756,-0.031 -0.0379,-0.0792 -0.01034,-0.0482 -0.01034,-0.12057 0,-0.0741 0.01034,-0.12403 0.01033,-0.0499 0.0379,-0.081 0.02928,-0.031 0.07579,-0.0448 0.04651,-0.0138 0.117133,-0.0138 0.07062,0 0.117133,0.0138 0.04651,0.0138 0.07407,0.0448 0.02928,0.031 0.04134,0.081 0.01206,0.05 0.01206,0.12403 z m 0,1.12482 q 0,0.0723 -0.01206,0.1223 -0.01206,0.0482 -0.04134,0.0792 -0.02756,0.031 -0.07407,0.0431 -0.04651,0.0138 -0.117133,0.0138 -0.07062,0 -0.117133,-0.0138 -0.04651,-0.0121 -0.07579,-0.0431 -0.02756,-0.031 -0.0379,-0.0792 -0.01034,-0.05 -0.01034,-0.1223 0,-0.0724 0.01034,-0.1223 0.01033,-0.0517 0.0379,-0.0827 0.02928,-0.031 0.07579,-0.0431 0.04651,-0.0138 0.117133,-0.0138 0.07062,0 0.117133,0.0138 0.04651,0.0121 0.07407,0.0431 0.02928,0.031 0.04134,0.0827 0.01206,0.0499 0.01206,0.1223 z"
         style="font-style:normal;font-variant:normal;font-weight:bold;font-stretch:normal;font-size:3.52777px;font-family:Calibri;-inkscape-font-specification:'Calibri Bold';fill:#e8617a;fill-opacity:1;stroke-width:0.264583"
         id="path878" />
      <path
         d="m 31.363663,120.41184 q 0.02239,0.0482 0.02756,0.0775 0.0052,0.0293 -0.01378,0.0448 -0.01723,0.0155 -0.06201,0.0207 -0.04306,0.003 -0.118855,0.003 -0.06718,0 -0.111966,-0.003 -0.04306,-0.005 -0.07235,-0.0138 -0.02756,-0.0103 -0.04306,-0.0241 -0.01378,-0.0155 -0.02239,-0.0362 l -0.380683,-0.93189 -0.0086,0.002 -0.36518,0.93017 q -0.0086,0.0207 -0.02412,0.0362 -0.01378,0.0138 -0.04134,0.0241 -0.02756,0.009 -0.07235,0.0138 -0.04306,0.003 -0.110243,0.003 -0.07579,0 -0.118855,-0.003 -0.04134,-0.005 -0.06029,-0.0207 -0.01722,-0.0155 -0.01206,-0.0448 0.0052,-0.0293 0.02756,-0.0775 l 0.496093,-1.12999 q 0.01033,-0.0224 0.03101,-0.0379 0.02067,-0.0172 0.05512,-0.0276 0.03617,-0.0121 0.08613,-0.0172 0.04995,-0.007 0.118856,-0.007 0.0689,0 0.118856,0.007 0.05168,0.005 0.08613,0.0172 0.03445,0.0103 0.05512,0.0276 0.02067,0.0155 0.03101,0.0379 z"
         style="font-style:normal;font-variant:normal;font-weight:bold;font-stretch:normal;font-size:3.52777px;font-family:Calibri;-inkscape-font-specification:'Calibri Bold';fill:#e8617a;fill-opacity:1;stroke-width:0.264583"
         id="path880" />
      <path
         d="m 32.366184,120.51175 q 0,0.19465 -0.02239,0.38413 -0.02239,0.18775 -0.0689,0.37379 -0.04479,0.18431 -0.113688,0.36518 -0.06718,0.18259 -0.160196,0.36173 -0.0052,0.0121 -0.01895,0.0207 -0.01206,0.0103 -0.03617,0.0155 -0.02239,0.007 -0.05684,0.0103 -0.03445,0.003 -0.08268,0.003 -0.07062,0 -0.110243,-0.007 -0.0379,-0.007 -0.05684,-0.0207 -0.01895,-0.0138 -0.01895,-0.0344 0,-0.0189 0.01034,-0.0465 0.142971,-0.33761 0.21704,-0.69418 0.07579,-0.35829 0.07579,-0.73553 0,-0.37551 -0.07407,-0.73208 -0.07407,-0.35829 -0.220486,-0.69418 -0.0086,-0.0224 -0.0069,-0.0413 0.0034,-0.019 0.02412,-0.031 0.02239,-0.0121 0.06029,-0.0172 0.03962,-0.007 0.103352,-0.007 0.0534,0 0.08785,0.003 0.03445,0.002 0.05684,0.009 0.02239,0.005 0.03101,0.0121 0.01034,0.007 0.0155,0.0155 0.179144,0.36174 0.272162,0.73208 0.09302,0.36863 0.09302,0.75448 z"
         style="font-style:normal;font-variant:normal;font-weight:bold;font-stretch:normal;font-size:3.52777px;font-family:Calibri;-inkscape-font-specification:'Calibri Bold';fill:#e8617a;fill-opacity:1;stroke-width:0.264583"
         id="path882" />
    </g>
    <g
       aria-label="cv"
       id="text4271"
       style="font-style:normal;font-variant:normal;font-weight:normal;font-stretch:normal;font-size:3.175px;line-height:1.25;font-family:'Berlin Sans FB';-inkscape-font-specification:'Berlin Sans FB';opacity:1;fill:#e8617a;stroke-width:0.264583">
      <path
         d="m 9.9840402,15.411441 q 0,0.03411 -0.035657,0.151928 -0.035657,0.117823 -0.049609,0.117823 -0.069763,-0.03101 -0.1410766,-0.06201 -0.069763,-0.03101 -0.153479,-0.03101 -0.1906861,0 -0.3178101,0.141077 -0.127124,0.141076 -0.127124,0.333313 0,0.189135 0.127124,0.327112 0.1302246,0.142626 0.3178101,0.142626 0.1038696,0 0.2046386,-0.05116 0.1007691,-0.05116 0.088367,-0.05116 0.020154,0 0.044958,0.130225 0.023254,0.117822 0.023254,0.162781 0,0.04806 -0.1813842,0.09457 -0.1519288,0.03876 -0.2247925,0.03876 -0.3193604,0 -0.539502,-0.238745 -0.2154907,-0.232544 -0.2154907,-0.555005 0,-0.328662 0.2108399,-0.558106 0.217041,-0.235644 0.5410522,-0.235644 0.217041,0 0.396875,0.110071 0.031006,0.0186 0.031006,0.03256 z"
         style="font-style:normal;font-variant:normal;font-weight:normal;font-stretch:normal;font-family:'Berlin Sans FB';-inkscape-font-specification:'Berlin Sans FB';fill:#e8617a;stroke-width:0.264583"
         id="path4295" />
      <path
         d="m 11.51573,15.791262 q 0,0.218592 -0.01395,0.254248 -0.02325,0.06976 -0.251147,0.407728 -0.234095,0.345715 -0.279053,0.364318 -0.0217,0.0093 -0.130225,0.0093 -0.103869,0 -0.136426,-0.0093 -0.04341,-0.01395 -0.283703,-0.350366 -0.234094,-0.327112 -0.262,-0.398425 -0.03721,-0.09767 -0.03721,-0.302307 0,-0.06356 0.0031,-0.190686 0.0031,-0.127124 0.0031,-0.190686 0,-0.03411 0.03411,-0.03411 0.05116,0 0.151929,0.0047 0.102319,0.0047 0.153479,0.0047 0.02791,0 0.02791,0.03101 0,0.04961 -0.0062,0.147278 -0.0062,0.09612 -0.0062,0.145727 0,0.142627 0.0155,0.260449 0.0078,0.05891 0.15658,0.288355 0.150378,0.229443 0.186035,0.229443 0.03411,0 0.168982,-0.224792 0.133325,-0.220142 0.142627,-0.277503 0.0124,-0.07751 0.0124,-0.26665 0,-0.05116 -0.01085,-0.153479 -0.0093,-0.102319 -0.0093,-0.153479 0,-0.02325 0.02325,-0.02325 0.05116,0 0.150378,-0.0047 0.09922,-0.0062 0.148829,-0.0062 0.04806,0 0.04806,0.438732 z"
         style="font-style:normal;font-variant:normal;font-weight:normal;font-stretch:normal;font-family:'Berlin Sans FB';-inkscape-font-specification:'Berlin Sans FB';fill:#e8617a;stroke-width:0.264583"
         id="path4297" />
    </g>
    <g
       aria-label="a"
       id="text4271-7"
       style="font-style:normal;font-variant:normal;font-weight:normal;font-stretch:normal;font-size:3.175px;line-height:1.25;font-family:'Berlin Sans FB';-inkscape-font-specification:'Berlin Sans FB';opacity:1;fill:#e8617a;stroke-width:0.264583">
      <path
         d="m 23.659174,15.409891 q 0,0.0062 -0.0047,0.02791 -0.06046,0.355018 -0.06046,0.612366 0,0.0155 0.03876,0.696082 l 0.0016,0.0217 q 0.0015,0.04496 -0.04186,0.04496 -0.04186,0 -0.128675,0.0093 -0.08527,0.01085 -0.127124,0.01085 -0.02945,0 -0.04496,-0.10852 -0.0155,-0.108521 -0.02946,-0.108521 -0.0093,0 -0.08371,0.06046 -0.09147,0.07441 -0.170533,0.113172 -0.122473,0.06201 -0.244946,0.06201 -0.300757,0 -0.506946,-0.240296 -0.195337,-0.229443 -0.195337,-0.534851 0,-0.344165 0.196887,-0.568957 0.206189,-0.234095 0.542603,-0.234095 0.237195,0 0.413928,0.164331 0.02635,0.03101 0.08217,0.08992 0.0047,0.0047 0.0093,0.0047 0.0093,0 0.02636,-0.09767 0.01705,-0.09767 0.04341,-0.09767 0.04186,0 0.156579,0.02325 0.127124,0.02791 0.127124,0.04961 z m -0.395324,0.648023 q 0,-0.190686 -0.113172,-0.327112 -0.119372,-0.147278 -0.305407,-0.147278 -0.186036,0 -0.310059,0.145727 -0.119373,0.139527 -0.119373,0.328663 0,0.187585 0.119373,0.325561 0.124023,0.144177 0.310059,0.144177 0.181384,0 0.303857,-0.147277 0.114722,-0.137977 0.114722,-0.322461 z"
         style="font-style:normal;font-variant:normal;font-weight:normal;font-stretch:normal;font-family:'Berlin Sans FB';-inkscape-font-specification:'Berlin Sans FB';fill:#e8617a;stroke-width:0.264583"
         id="path4300" />
    </g>
    <g
       aria-label="cv"
       id="text4271-6"
       style="font-style:normal;font-variant:normal;font-weight:normal;font-stretch:normal;font-size:3.175px;line-height:1.25;font-family:'Berlin Sans FB';-inkscape-font-specification:'Berlin Sans FB';display:inline;opacity:1;fill:#e8617a;stroke-width:0.264583"
       transform="translate(-2.6999999e-6,16.062478)">
      <path
         d="m 9.9840402,15.411441 q 0,0.03411 -0.035657,0.151928 -0.035657,0.117823 -0.049609,0.117823 -0.069763,-0.03101 -0.1410766,-0.06201 -0.069763,-0.03101 -0.153479,-0.03101 -0.1906861,0 -0.3178101,0.141077 -0.127124,0.141076 -0.127124,0.333313 0,0.189135 0.127124,0.327112 0.1302246,0.142626 0.3178101,0.142626 0.1038696,0 0.2046386,-0.05116 0.1007691,-0.05116 0.088367,-0.05116 0.020154,0 0.044958,0.130225 0.023254,0.117822 0.023254,0.162781 0,0.04806 -0.1813842,0.09457 -0.1519288,0.03876 -0.2247925,0.03876 -0.3193604,0 -0.539502,-0.238745 -0.2154907,-0.232544 -0.2154907,-0.555005 0,-0.328662 0.2108399,-0.558106 0.217041,-0.235644 0.5410522,-0.235644 0.217041,0 0.396875,0.110071 0.031006,0.0186 0.031006,0.03256 z"
         style="font-style:normal;font-variant:normal;font-weight:normal;font-stretch:normal;font-family:'Berlin Sans FB';-inkscape-font-specification:'Berlin Sans FB';fill:#e8617a;stroke-width:0.264583"
         id="path4295-4" />
      <path
         d="m 11.51573,15.791262 q 0,0.218592 -0.01395,0.254248 -0.02325,0.06976 -0.251147,0.407728 -0.234095,0.345715 -0.279053,0.364318 -0.0217,0.0093 -0.130225,0.0093 -0.103869,0 -0.136426,-0.0093 -0.04341,-0.01395 -0.283703,-0.350366 -0.234094,-0.327112 -0.262,-0.398425 -0.03721,-0.09767 -0.03721,-0.302307 0,-0.06356 0.0031,-0.190686 0.0031,-0.127124 0.0031,-0.190686 0,-0.03411 0.03411,-0.03411 0.05116,0 0.151929,0.0047 0.102319,0.0047 0.153479,0.0047 0.02791,0 0.02791,0.03101 0,0.04961 -0.0062,0.147278 -0.0062,0.09612 -0.0062,0.145727 0,0.142627 0.0155,0.260449 0.0078,0.05891 0.15658,0.288355 0.150378,0.229443 0.186035,0.229443 0.03411,0 0.168982,-0.224792 0.133325,-0.220142 0.142627,-0.277503 0.0124,-0.07751 0.0124,-0.26665 0,-0.05116 -0.01085,-0.153479 -0.0093,-0.102319 -0.0093,-0.153479 0,-0.02325 0.02325,-0.02325 0.05116,0 0.150378,-0.0047 0.09922,-0.0062 0.148829,-0.0062 0.04806,0 0.04806,0.438732 z"
         style="font-style:normal;font-variant:normal;font-weight:normal;font-stretch:normal;font-family:'Berlin Sans FB';-inkscape-font-specification:'Berlin Sans FB';fill:#e8617a;stroke-width:0.264583"
         id="path4297-4" />
    </g>
    <g
       aria-label="cv"
       id="text4271-6-3"
       style="font-style:normal;font-variant:normal;font-weight:normal;font-stretch:normal;font-size:3.175px;line-height:1.25;font-family:'Berlin Sans FB';-inkscape-font-specification:'Berlin Sans FB';display:inline;opacity:1;fill:#e8617a;stroke-width:0.264583"
       transform="translate(40.639996,16.062477)">
      <path
         d="m 9.9840402,15.411441 q 0,0.03411 -0.035657,0.151928 -0.035657,0.117823 -0.049609,0.117823 -0.069763,-0.03101 -0.1410766,-0.06201 -0.069763,-0.03101 -0.153479,-0.03101 -0.1906861,0 -0.3178101,0.141077 -0.127124,0.141076 -0.127124,0.333313 0,0.189135 0.127124,0.327112 0.1302246,0.142626 0.3178101,0.142626 0.1038696,0 0.2046386,-0.05116 0.1007691,-0.05116 0.088367,-0.05116 0.020154,0 0.044958,0.130225 0.023254,0.117822 0.023254,0.162781 0,0.04806 -0.1813842,0.09457 -0.1519288,0.03876 -0.2247925,0.03876 -0.3193604,0 -0.539502,-0.238745 -0.2154907,-0.232544 -0.2154907,-0.555005 0,-0.328662 0.2108399,-0.558106 0.217041,-0.235644 0.5410522,-0.235644 0.217041,0 0.396875,0.110071 0.031006,0.0186 0.031006,0.03256 z"
         style="font-style:normal;font-variant:normal;font-weight:normal;font-stretch:normal;font-family:'Berlin Sans FB';-inkscape-font-specification:'Berlin Sans FB';fill:#e8617a;stroke-width:0.264583"
         id="path4295-4-1" />
      <path
         d="m 11.51573,15.791262 q 0,0.218592 -0.01395,0.254248 -0.02325,0.06976 -0.251147,0.407728 -0.234095,0.345715 -0.279053,0.364318 -0.0217,0.0093 -0.130225,0.0093 -0.103869,0 -0.136426,-0.0093 -0.04341,-0.01395 -0.283703,-0.350366 -0.234094,-0.327112 -0.262,-0.398425 -0.03721,-0.09767 -0.03721,-0.302307 0,-0.06356 0.0031,-0.190686 0.0031,-0.127124 0.0031,-0.190686 0,-0.03411 0.03411,-0.03411 0.05116,0 0.151929,0.0047 0.102319,0.0047 0.153479,0.0047 0.02791,0 0.02791,0.03101 0,0.04961 -0.0062,0.147278 -0.0062,0.09612 -0.0062,0.145727 0,0.142627 0.0155,0.260449 0.0078,0.05891 0.15658,0.288355 0.150378,0.229443 0.186035,0.229443 0.03411,0 0.168982,-0.224792 0.133325,-0.220142 0.142627,-0.277503 0.0124,-0.07751 0.0124,-0.26665 0,-0.05116 -0.01085,-0.153479 -0.0093,-0.102319 -0.0093,-0.153479 0,-0.02325 0.02325,-0.02325 0.05116,0 0.150378,-0.0047 0.09922,-0.0062 0.148829,-0.0062 0.04806,0 0.04806,0.438732 z"
         style="font-style:normal;font-variant:normal;font-weight:normal;font-stretch:normal;font-family:'Berlin Sans FB';-inkscape-font-specification:'Berlin Sans FB';fill:#e8617a;stroke-width:0.264583"
         id="path4297-4-6" />
    </g>
    <g
       aria-label="cv"
       id="text4271-6-1"
       style="font-style:normal;font-variant:normal;font-weight:normal;font-stretch:normal;font-size:3.175px;line-height:1.25;font-family:'Berlin Sans FB';-inkscape-font-specification:'Berlin Sans FB';display:inline;opacity:1;fill:#e8617a;stroke-width:0.264583"
       transform="translate(40.639996)">
      <path
         d="m 9.9840402,15.411441 q 0,0.03411 -0.035657,0.151928 -0.035657,0.117823 -0.049609,0.117823 -0.069763,-0.03101 -0.1410766,-0.06201 -0.069763,-0.03101 -0.153479,-0.03101 -0.1906861,0 -0.3178101,0.141077 -0.127124,0.141076 -0.127124,0.333313 0,0.189135 0.127124,0.327112 0.1302246,0.142626 0.3178101,0.142626 0.1038696,0 0.2046386,-0.05116 0.1007691,-0.05116 0.088367,-0.05116 0.020154,0 0.044958,0.130225 0.023254,0.117822 0.023254,0.162781 0,0.04806 -0.1813842,0.09457 -0.1519288,0.03876 -0.2247925,0.03876 -0.3193604,0 -0.539502,-0.238745 -0.2154907,-0.232544 -0.2154907,-0.555005 0,-0.328662 0.2108399,-0.558106 0.217041,-0.235644 0.5410522,-0.235644 0.217041,0 0.396875,0.110071 0.031006,0.0186 0.031006,0.03256 z"
         style="font-style:normal;font-variant:normal;font-weight:normal;font-stretch:normal;font-family:'Berlin Sans FB';-inkscape-font-specification:'Berlin Sans FB';fill:#e8617a;stroke-width:0.264583"
         id="path4295-4-3" />
      <path
         d="m 11.51573,15.791262 q 0,0.218592 -0.01395,0.254248 -0.02325,0.06976 -0.251147,0.407728 -0.234095,0.345715 -0.279053,0.364318 -0.0217,0.0093 -0.130225,0.0093 -0.103869,0 -0.136426,-0.0093 -0.04341,-0.01395 -0.283703,-0.350366 -0.234094,-0.327112 -0.262,-0.398425 -0.03721,-0.09767 -0.03721,-0.302307 0,-0.06356 0.0031,-0.190686 0.0031,-0.127124 0.0031,-0.190686 0,-0.03411 0.03411,-0.03411 0.05116,0 0.151929,0.0047 0.102319,0.0047 0.153479,0.0047 0.02791,0 0.02791,0.03101 0,0.04961 -0.0062,0.147278 -0.0062,0.09612 -0.0062,0.145727 0,0.142627 0.0155,0.260449 0.0078,0.05891 0.15658,0.288355 0.150378,0.229443 0.186035,0.229443 0.03411,0 0.168982,-0.224792 0.133325,-0.220142 0.142627,-0.277503 0.0124,-0.07751 0.0124,-0.26665 0,-0.05116 -0.01085,-0.153479 -0.0093,-0.102319 -0.0093,-0.153479 0,-0.02325 0.02325,-0.02325 0.05116,0 0.150378,-0.0047 0.09922,-0.0062 0.148829,-0.0062 0.04806,0 0.04806,0.438732 z"
         style="font-style:normal;font-variant:normal;font-weight:normal;font-stretch:normal;font-family:'Berlin Sans FB';-inkscape-font-specification:'Berlin Sans FB';fill:#e8617a;stroke-width:0.264583"
         id="path4297-4-4" />
    </g>
    <g
       aria-label="b"
       id="text4357"
       style="font-style:normal;font-variant:normal;font-weight:normal;font-stretch:normal;font-size:3.175px;line-height:1.25;font-family:'Berlin Sans FB';-inkscape-font-specification:'Berlin Sans FB';fill:#e8617a;stroke-width:0.264583">
      <path
         d="m 38.890646,16.408279 q 0,0.306958 -0.190686,0.534851 -0.203088,0.241845 -0.505395,0.241845 -0.201538,0 -0.355017,-0.102319 -0.06201,-0.05271 -0.124024,-0.10387 -0.01705,0.0047 -0.02325,0.09302 -0.0047,0.08837 -0.02481,0.08837 h -0.327112 q -0.0186,0 -0.0186,-0.02015 0,0.0015 0.0031,-0.02791 0.02481,-0.248047 0.02481,-0.94878 0,-0.286804 -0.02481,-0.841809 -0.0155,-0.353466 -0.0155,-0.310058 0,-0.04031 0.04031,-0.04496 0.05581,-0.0015 0.165881,-0.0062 0.02171,-0.0015 0.08837,-0.01085 0.05581,-0.0093 0.08992,-0.0093 0.02481,0 0.02481,0.03566 0,0.05271 -0.0078,0.16123 -0.0078,0.108521 -0.0078,0.162781 0,0.08061 -0.0078,0.243396 -0.0062,0.161231 -0.0062,0.241846 0,0.05891 0.0217,0.05891 0.01085,0 0.02325,-0.01705 0.170532,-0.21239 0.451135,-0.21239 0.320911,0 0.519348,0.240295 0.186035,0.226343 0.186035,0.553455 z m -0.350366,-0.01395 q 0,-0.184485 -0.116272,-0.325561 -0.124023,-0.150379 -0.305408,-0.150379 -0.186035,0 -0.310058,0.147278 -0.119373,0.139526 -0.119373,0.328662 0,0.192236 0.119373,0.331763 0.124023,0.145727 0.313159,0.145727 0.182935,0 0.305408,-0.150378 0.113171,-0.139527 0.113171,-0.327112 z"
         style="font-style:normal;font-variant:normal;font-weight:normal;font-stretch:normal;font-family:'Berlin Sans FB';-inkscape-font-specification:'Berlin Sans FB';fill:#e8617a;stroke-width:0.264583"
         id="path4367" />
    </g>
    <g
       aria-label="c"
       id="text4361"
       style="font-style:normal;font-variant:normal;font-weight:normal;font-stretch:normal;font-size:3.175px;line-height:1.25;font-family:'Berlin Sans FB';-inkscape-font-specification:'Berlin Sans FB';fill:#e8617a;stroke-width:0.264583">
      <path
         d="m 23.449884,31.47392 q 0,0.03411 -0.03566,0.151928 -0.03566,0.117823 -0.04961,0.117823 -0.06976,-0.03101 -0.141076,-0.06201 -0.06976,-0.03101 -0.153479,-0.03101 -0.190686,0 -0.31781,0.141077 -0.127124,0.141076 -0.127124,0.333313 0,0.189135 0.127124,0.327112 0.130224,0.142626 0.31781,0.142626 0.103869,0 0.204638,-0.05116 0.100769,-0.05116 0.08837,-0.05116 0.02015,0 0.04496,0.130225 0.02325,0.117822 0.02325,0.162781 0,0.04806 -0.181384,0.09457 -0.151929,0.03876 -0.224793,0.03876 -0.31936,0 -0.539502,-0.238745 -0.215491,-0.232544 -0.215491,-0.555005 0,-0.328662 0.21084,-0.558106 0.217041,-0.235644 0.541053,-0.235644 0.217041,0 0.396875,0.110071 0.03101,0.0186 0.03101,0.03256 z"
         style="font-style:normal;font-variant:normal;font-weight:normal;font-stretch:normal;font-family:'Berlin Sans FB';-inkscape-font-specification:'Berlin Sans FB';fill:#e8617a;stroke-width:0.264583"
         id="path4373" />
    </g>
    <g
       aria-label="d"
       id="text4365"
       style="font-style:normal;font-variant:normal;font-weight:normal;font-stretch:normal;font-size:3.175px;line-height:1.25;font-family:'Berlin Sans FB';-inkscape-font-specification:'Berlin Sans FB';fill:#e8617a;stroke-width:0.264583">
      <path
         d="m 38.892197,31.040615 q 0,0.199988 -0.0186,0.599963 -0.01705,0.398426 -0.01705,0.596863 0,0.612366 0.02636,0.927075 l 0.0015,0.02015 q 0.0016,0.0155 -0.04186,0.02015 -0.02946,0.0031 -0.08372,0 -0.06511,-0.0047 -0.06046,-0.0047 -0.02325,0 -0.06821,0.0047 -0.04496,0.0047 -0.06821,0.0047 -0.0217,0 -0.02636,-0.10697 -0.0031,-0.108521 -0.01085,-0.110071 -0.0093,0.0047 -0.02325,0.02015 -0.212391,0.229443 -0.488343,0.229443 -0.313159,0 -0.514697,-0.238745 -0.190686,-0.224792 -0.190686,-0.542603 0,-0.330212 0.192236,-0.555004 0.201538,-0.235645 0.52555,-0.235645 0.195337,0 0.341064,0.114722 0.06666,0.05736 0.131775,0.116272 0.0124,-0.0047 0.0124,-0.0217 V 31.37707 q 0,-0.05116 -0.0047,-0.15503 -0.0046,-0.103869 -0.0046,-0.156579 0,-0.03721 0.0248,-0.03721 0.05736,0 0.170532,-0.0093 0.113172,-0.01085 0.168982,-0.01085 0.02636,0 0.02636,0.03256 z m -0.387573,1.410767 q 0,-0.186035 -0.114722,-0.327112 -0.122473,-0.150379 -0.303857,-0.150379 -0.190686,0 -0.314709,0.148829 -0.117823,0.139526 -0.117823,0.334863 0,0.186035 0.122473,0.324011 0.125574,0.145728 0.310059,0.145728 0.186035,0 0.306958,-0.147278 0.111621,-0.137976 0.111621,-0.328662 z"
         style="font-style:normal;font-variant:normal;font-weight:normal;font-stretch:normal;font-family:'Berlin Sans FB';-inkscape-font-specification:'Berlin Sans FB';fill:#e8617a;stroke-width:0.264583"
         id="path4370" />
    </g>
    <g
       aria-label="gate"
       id="text5146"
       style="font-size:3.175px;line-height:1.25;font-family:'Berlin Sans FB';-inkscape-font-specification:'Berlin Sans FB';fill:#e8617a;stroke-width:0.264583">
      <path
         d="m 51.850163,49.547311 q 0,0.186035 -0.0031,0.559655 -0.0031,0.372071 -0.0031,0.558106 0,0.36897 -0.15813,0.544153 -0.165881,0.186035 -0.5302,0.186035 -0.351916,0 -0.568958,-0.133325 -0.03411,-0.0217 -0.03411,-0.03721 0,0.01705 0.04651,-0.229444 0.0047,-0.02635 0.0217,-0.02635 0.0078,0 0.02015,0.0078 0.232544,0.133325 0.466638,0.133325 0.153479,0 0.254248,-0.06821 0.116272,-0.07751 0.116272,-0.224792 0,-0.03256 -0.0062,-0.145728 -0.172083,0.20929 -0.437183,0.20929 -0.286804,0 -0.471289,-0.206189 -0.176733,-0.198438 -0.176733,-0.488343 0,-0.294555 0.170532,-0.500744 0.181384,-0.220142 0.471289,-0.220142 0.255798,0 0.406177,0.196887 0.0248,0.03256 0.03566,0.03256 0.0124,0 0.0124,-0.02791 0,-0.02015 -0.0031,-0.06356 -0.0031,-0.04496 -0.0031,-0.06666 0,-0.09302 0.0186,-0.09302 0.0155,0 0.167432,0.02946 0.151929,0.0279 0.165881,0.03411 0.0217,0.0078 0.0217,0.04031 z m -0.37207,0.63872 q 0,-0.173632 -0.09457,-0.294555 -0.10387,-0.131775 -0.272851,-0.131775 -0.167432,0 -0.271302,0.133325 -0.09457,0.120923 -0.09457,0.293005 0,0.168982 0.09612,0.291455 0.103869,0.133326 0.269751,0.133326 0.164331,0 0.26975,-0.133326 0.09767,-0.122473 0.09767,-0.291455 z"
         style="fill:#e8617a;stroke-width:0.264583"
         id="path5159" />
      <path
         d="m 53.642302,49.589169 q 0,0.0062 -0.0047,0.02791 -0.06046,0.355017 -0.06046,0.612366 0,0.0155 0.03876,0.696081 l 0.0016,0.0217 q 0.0016,0.04496 -0.04186,0.04496 -0.04186,0 -0.128674,0.0093 -0.08527,0.01085 -0.127124,0.01085 -0.02946,0 -0.04496,-0.10852 -0.0155,-0.108521 -0.02945,-0.108521 -0.0093,0 -0.08372,0.06046 -0.09147,0.07441 -0.170532,0.113171 -0.122473,0.06201 -0.244946,0.06201 -0.300757,0 -0.506946,-0.240295 -0.195337,-0.229444 -0.195337,-0.534851 0,-0.344165 0.196887,-0.568958 0.206189,-0.234094 0.542603,-0.234094 0.237194,0 0.413928,0.164331 0.02636,0.03101 0.08217,0.08992 0.0047,0.0047 0.0093,0.0047 0.0093,0 0.02636,-0.09767 0.01705,-0.09767 0.04341,-0.09767 0.04186,0 0.15658,0.02325 0.127124,0.02791 0.127124,0.04961 z m -0.395325,0.648022 q 0,-0.190686 -0.113171,-0.327112 -0.119373,-0.147278 -0.305408,-0.147278 -0.186035,0 -0.310058,0.145728 -0.119373,0.139526 -0.119373,0.328662 0,0.187585 0.119373,0.325562 0.124023,0.144177 0.310058,0.144177 0.181384,0 0.303858,-0.147278 0.114721,-0.137976 0.114721,-0.322461 z"
         style="fill:#e8617a;stroke-width:0.264583"
         id="path5161" />
      <path
         d="m 54.758513,50.70693 q 0,0.03411 -0.0062,0.09302 -0.0078,0.07286 -0.0093,0.09457 -0.0016,0.02791 -0.0047,0.03411 -0.0062,0.01085 -0.02946,0.0217 -0.127124,0.06046 -0.399975,0.06046 -0.362769,0 -0.362769,-0.328662 0,-0.131775 0.0062,-0.395325 0.0062,-0.2651 0.0062,-0.396875 0,-0.06356 -0.06356,-0.06821 -0.05736,0 -0.113172,-0.0016 -0.03256,-0.0078 -0.03256,-0.127124 0,-0.04496 0.0062,-0.09457 0.0047,-0.03721 0.04961,-0.04496 0.03876,0 0.07596,-0.0015 0.07131,-0.0031 0.07131,-0.06356 0,-0.06201 -0.0047,-0.189136 -0.0031,-0.127124 -0.0031,-0.190686 0,-0.113172 0.04341,-0.113172 0.01395,0 0.291455,0.04806 0.03566,0.0047 0.03566,0.03411 0,0.06821 -0.01085,0.204639 -0.0093,0.136425 -0.0093,0.204638 0,0.04496 0.04186,0.04496 h 0.37207 q 0.02636,0 0.02636,0.0186 0,0.0186 -0.0062,0.06046 -0.0047,0.04031 -0.0047,0.06046 0,0.02325 0.0016,0.07131 0.0016,0.04806 0.0016,0.07131 0,0.02946 -0.04341,0.02946 -0.06201,0 -0.187586,-0.0078 -0.125573,-0.0093 -0.187585,-0.0093 -0.0124,0 -0.0186,0.08837 -0.0078,0.110071 -0.0078,0.308508 v 0.230994 q 0,0.133325 0.02481,0.186035 0.03721,0.08062 0.153479,0.08062 0.04806,0 0.141076,-0.02015 0.09302,-0.0217 0.137976,-0.0217 0.0186,0 0.0186,0.0279 z"
         style="fill:#e8617a;stroke-width:0.264583"
         id="path5163" />
      <path
         d="m 56.293303,50.159676 q 0,0.114722 -0.09922,0.153479 -0.06666,0.02481 -0.959631,0.09147 0.02015,0.136425 0.150378,0.232544 0.124024,0.09147 0.266651,0.09147 0.244946,0 0.449585,-0.15813 0.0248,-0.02015 0.04961,-0.04031 0.0124,0 0.0155,0.0031 0.0047,0.0031 0.05891,0.10852 0.05426,0.10387 0.05426,0.111622 0,0.0093 -0.0248,0.03566 -0.227893,0.241846 -0.584461,0.241846 -0.359668,0 -0.573608,-0.21394 -0.213941,-0.215491 -0.213941,-0.573609 0,-0.31936 0.204639,-0.556555 0.215491,-0.246497 0.52865,-0.246497 0.291455,0 0.486792,0.213941 0.190686,0.207739 0.190686,0.505395 z m -0.36897,-0.09457 q 0,-0.128675 -0.102319,-0.227894 -0.100769,-0.09922 -0.227893,-0.09922 -0.142627,0 -0.254248,0.114721 -0.110071,0.114722 -0.110071,0.257349 0,0.03256 0.05581,0.03256 0.229444,0 0.548804,-0.04651 0.08992,-0.0124 0.08992,-0.03101 z"
         style="fill:#e8617a;stroke-width:0.264583"
         id="path5165" />
    </g>
    <g
       aria-label="a"
       id="text4271-7-4"
       style="font-style:normal;font-variant:normal;font-weight:normal;font-stretch:normal;font-size:3.175px;line-height:1.25;font-family:'Berlin Sans FB';-inkscape-font-specification:'Berlin Sans FB';display:inline;opacity:1;fill:#e8617a;stroke-width:0.265;stroke-miterlimit:4;stroke-dasharray:none"
       transform="translate(-12.700005,66.257733)">
      <path
         d="m 23.659174,15.409891 q 0,0.0062 -0.0047,0.02791 -0.06046,0.355018 -0.06046,0.612366 0,0.0155 0.03876,0.696082 l 0.0016,0.0217 q 0.0015,0.04496 -0.04186,0.04496 -0.04186,0 -0.128675,0.0093 -0.08527,0.01085 -0.127124,0.01085 -0.02945,0 -0.04496,-0.10852 -0.0155,-0.108521 -0.02946,-0.108521 -0.0093,0 -0.08371,0.06046 -0.09147,0.07441 -0.170533,0.113172 -0.122473,0.06201 -0.244946,0.06201 -0.300757,0 -0.506946,-0.240296 -0.195337,-0.229443 -0.195337,-0.534851 0,-0.344165 0.196887,-0.568957 0.206189,-0.234095 0.542603,-0.234095 0.237195,0 0.413928,0.164331 0.02635,0.03101 0.08217,0.08992 0.0047,0.0047 0.0093,0.0047 0.0093,0 0.02636,-0.09767 0.01705,-0.09767 0.04341,-0.09767 0.04186,0 0.156579,0.02325 0.127124,0.02791 0.127124,0.04961 z m -0.395324,0.648023 q 0,-0.190686 -0.113172,-0.327112 -0.119372,-0.147278 -0.305407,-0.147278 -0.186036,0 -0.310059,0.145727 -0.119373,0.139527 -0.119373,0.328663 0,0.187585 0.119373,0.325561 0.124023,0.144177 0.310059,0.144177 0.181384,0 0.303857,-0.147277 0.114722,-0.137977 0.114722,-0.322461 z"
         style="font-style:normal;font-variant:normal;font-weight:normal;font-stretch:normal;font-family:'Berlin Sans FB';-inkscape-font-specification:'Berlin Sans FB';fill:#e8617a;stroke-width:0.265;stroke-miterlimit:4;stroke-dasharray:none"
         id="path4300-4" />
    </g>
    <g
       aria-label="b"
       id="text4357-6"
       style="font-style:normal;font-variant:normal;font-weight:normal;font-stretch:normal;font-size:3.175px;line-height:1.25;font-family:'Berlin Sans FB';-inkscape-font-specification:'Berlin Sans FB';display:inline;fill:#e8617a;stroke-width:0.264583"
       transform="translate(-27.940001,74.288967)">
      <path
         d="m 38.890646,16.408279 q 0,0.306958 -0.190686,0.534851 -0.203088,0.241845 -0.505395,0.241845 -0.201538,0 -0.355017,-0.102319 -0.06201,-0.05271 -0.124024,-0.10387 -0.01705,0.0047 -0.02325,0.09302 -0.0047,0.08837 -0.02481,0.08837 h -0.327112 q -0.0186,0 -0.0186,-0.02015 0,0.0015 0.0031,-0.02791 0.02481,-0.248047 0.02481,-0.94878 0,-0.286804 -0.02481,-0.841809 -0.0155,-0.353466 -0.0155,-0.310058 0,-0.04031 0.04031,-0.04496 0.05581,-0.0015 0.165881,-0.0062 0.02171,-0.0015 0.08837,-0.01085 0.05581,-0.0093 0.08992,-0.0093 0.02481,0 0.02481,0.03566 0,0.05271 -0.0078,0.16123 -0.0078,0.108521 -0.0078,0.162781 0,0.08061 -0.0078,0.243396 -0.0062,0.161231 -0.0062,0.241846 0,0.05891 0.0217,0.05891 0.01085,0 0.02325,-0.01705 0.170532,-0.21239 0.451135,-0.21239 0.320911,0 0.519348,0.240295 0.186035,0.226343 0.186035,0.553455 z m -0.350366,-0.01395 q 0,-0.184485 -0.116272,-0.325561 -0.124023,-0.150379 -0.305408,-0.150379 -0.186035,0 -0.310058,0.147278 -0.119373,0.139526 -0.119373,0.328662 0,0.192236 0.119373,0.331763 0.124023,0.145727 0.313159,0.145727 0.182935,0 0.305408,-0.150378 0.113171,-0.139527 0.113171,-0.327112 z"
         style="font-style:normal;font-variant:normal;font-weight:normal;font-stretch:normal;font-family:'Berlin Sans FB';-inkscape-font-specification:'Berlin Sans FB';fill:#e8617a;stroke-width:0.264583"
         id="path4367-8" />
    </g>
    <g
       aria-label="c"
       id="text4361-0"
       style="font-style:normal;font-variant:normal;font-weight:normal;font-stretch:normal;font-size:3.175px;line-height:1.25;font-family:'Berlin Sans FB';-inkscape-font-specification:'Berlin Sans FB';display:inline;fill:#e8617a;stroke-width:0.264583"
       transform="translate(-12.699999,66.257731)">
      <path
         d="m 23.449884,31.47392 q 0,0.03411 -0.03566,0.151928 -0.03566,0.117823 -0.04961,0.117823 -0.06976,-0.03101 -0.141076,-0.06201 -0.06976,-0.03101 -0.153479,-0.03101 -0.190686,0 -0.31781,0.141077 -0.127124,0.141076 -0.127124,0.333313 0,0.189135 0.127124,0.327112 0.130224,0.142626 0.31781,0.142626 0.103869,0 0.204638,-0.05116 0.100769,-0.05116 0.08837,-0.05116 0.02015,0 0.04496,0.130225 0.02325,0.117822 0.02325,0.162781 0,0.04806 -0.181384,0.09457 -0.151929,0.03876 -0.224793,0.03876 -0.31936,0 -0.539502,-0.238745 -0.215491,-0.232544 -0.215491,-0.555005 0,-0.328662 0.21084,-0.558106 0.217041,-0.235644 0.541053,-0.235644 0.217041,0 0.396875,0.110071 0.03101,0.0186 0.03101,0.03256 z"
         style="font-style:normal;font-variant:normal;font-weight:normal;font-stretch:normal;font-family:'Berlin Sans FB';-inkscape-font-specification:'Berlin Sans FB';fill:#e8617a;stroke-width:0.264583"
         id="path4373-4" />
    </g>
    <g
       aria-label="d"
       id="text4365-5"
       style="font-style:normal;font-variant:normal;font-weight:normal;font-stretch:normal;font-size:3.175px;line-height:1.25;font-family:'Berlin Sans FB';-inkscape-font-specification:'Berlin Sans FB';display:inline;fill:#e8617a;stroke-width:0.264583"
       transform="translate(-27.939998,74.288971)">
      <path
         d="m 38.892197,31.040615 q 0,0.199988 -0.0186,0.599963 -0.01705,0.398426 -0.01705,0.596863 0,0.612366 0.02636,0.927075 l 0.0015,0.02015 q 0.0016,0.0155 -0.04186,0.02015 -0.02946,0.0031 -0.08372,0 -0.06511,-0.0047 -0.06046,-0.0047 -0.02325,0 -0.06821,0.0047 -0.04496,0.0047 -0.06821,0.0047 -0.0217,0 -0.02636,-0.10697 -0.0031,-0.108521 -0.01085,-0.110071 -0.0093,0.0047 -0.02325,0.02015 -0.212391,0.229443 -0.488343,0.229443 -0.313159,0 -0.514697,-0.238745 -0.190686,-0.224792 -0.190686,-0.542603 0,-0.330212 0.192236,-0.555004 0.201538,-0.235645 0.52555,-0.235645 0.195337,0 0.341064,0.114722 0.06666,0.05736 0.131775,0.116272 0.0124,-0.0047 0.0124,-0.0217 V 31.37707 q 0,-0.05116 -0.0047,-0.15503 -0.0046,-0.103869 -0.0046,-0.156579 0,-0.03721 0.0248,-0.03721 0.05736,0 0.170532,-0.0093 0.113172,-0.01085 0.168982,-0.01085 0.02636,0 0.02636,0.03256 z m -0.387573,1.410767 q 0,-0.186035 -0.114722,-0.327112 -0.122473,-0.150379 -0.303857,-0.150379 -0.190686,0 -0.314709,0.148829 -0.117823,0.139526 -0.117823,0.334863 0,0.186035 0.122473,0.324011 0.125574,0.145728 0.310059,0.145728 0.186035,0 0.306958,-0.147278 0.111621,-0.137976 0.111621,-0.328662 z"
         style="font-style:normal;font-variant:normal;font-weight:normal;font-stretch:normal;font-family:'Berlin Sans FB';-inkscape-font-specification:'Berlin Sans FB';fill:#e8617a;stroke-width:0.264583"
         id="path4370-1" />
    </g>
    <rect
       style="fill:#e8617a;fill-opacity:1;stroke:none;stroke-width:0.499999;stroke-miterlimit:4;stroke-dasharray:none;stroke-dashoffset:0"
       id="rect2489"
       width="12.7"
       height="2.0078101"
       x="8.8899984"
       y="39.152378"
       rx="0.49999902"
       ry="0.49999902" />
    <rect
       style="display:inline;fill:#e8617a;fill-opacity:1;stroke:none;stroke-width:0.499999;stroke-miterlimit:4;stroke-dasharray:none;stroke-dashoffset:0"
       id="rect2489-3"
       width="12.7"
       height="2.0078101"
       x="8.8899984"
       y="23.089899"
       rx="0.49999905"
       ry="0.49999905" />
    <rect
       style="display:inline;fill:#e8617a;fill-opacity:1;stroke:none;stroke-width:0.499999;stroke-miterlimit:4;stroke-dasharray:none;stroke-dashoffset:0"
       id="rect2489-8"
       width="12.7"
       height="2.0078101"
       x="39.369999"
       y="23.089899"
       rx="0.49999905"
       ry="0.49999905" />
    <rect
       style="display:inline;fill:#e8617a;fill-opacity:1;stroke:none;stroke-width:0.499999;stroke-miterlimit:4;stroke-dasharray:none;stroke-dashoffset:0"
       id="rect2489-2"
       width="12.7"
       height="2.0078101"
       x="39.369999"
       y="39.152378"
       rx="0.49999905"
       ry="0.49999905" />
    <g
       aria-label="time"
       id="text1837"
       style="font-size:3.175px;line-height:1.25;font-family:'Berlin Sans FB';-inkscape-font-specification:'Berlin Sans FB';fill:#e8617a;stroke-width:0.264583">
      <path
         d="m 5.6759309,50.914671 q 0,0.03411 -0.0062,0.09302 -0.00775,0.07286 -0.0093,0.09457 -0.00155,0.02791 -0.00465,0.03411 -0.0062,0.01085 -0.029456,0.02171 -0.127124,0.06046 -0.3999756,0.06046 -0.3627685,0 -0.3627685,-0.328662 0,-0.131775 0.0062,-0.395325 0.0062,-0.2651 0.0062,-0.396875 0,-0.06356 -0.063562,-0.06821 -0.057361,0 -0.1131714,-0.0015 -0.032556,-0.0078 -0.032556,-0.127124 0,-0.04496 0.0062,-0.09457 0.00465,-0.03721 0.049609,-0.04496 0.038757,0 0.075964,-0.0016 0.071313,-0.0031 0.071313,-0.06356 0,-0.06201 -0.00465,-0.189135 -0.0031,-0.127124 -0.0031,-0.190686 0,-0.113172 0.043408,-0.113172 0.013953,0 0.291455,0.04806 0.035657,0.0047 0.035657,0.03411 0,0.06821 -0.010852,0.204638 -0.0093,0.136426 -0.0093,0.204639 0,0.04496 0.041858,0.04496 h 0.3720703 q 0.026355,0 0.026355,0.0186 0,0.0186 -0.0062,0.06046 -0.00465,0.04031 -0.00465,0.06046 0,0.02325 0.00155,0.07131 0.00155,0.04806 0.00155,0.07131 0,0.02946 -0.043408,0.02946 -0.062012,0 -0.1875854,-0.0078 -0.1255738,-0.0093 -0.1875855,-0.0093 -0.012402,0 -0.018604,0.08837 -0.00775,0.110071 -0.00775,0.308508 v 0.230994 q 0,0.133325 0.024805,0.186035 0.037207,0.08062 0.153479,0.08062 0.048059,0 0.1410767,-0.02015 0.093018,-0.0217 0.1379761,-0.0217 0.018604,0 0.018604,0.02791 z"
         style="fill:#e8617a;stroke-width:0.264583"
         id="path1839" />
      <path
         d="m 6.3006989,49.345774 q 0,0.190686 -0.2123901,0.190686 -0.2154907,0 -0.2154907,-0.190686 0,-0.08527 0.066663,-0.141077 0.062012,-0.05271 0.1488281,-0.05271 0.086816,0 0.1488281,0.05426 0.063562,0.05426 0.063562,0.139526 z m -0.010852,0.420129 q 0,0.119373 -0.015503,0.361219 -0.013953,0.240295 -0.013953,0.361218 0,0.113171 0.00465,0.339514 0.00465,0.224793 0.00465,0.336414 0,0.03256 -0.027905,0.03256 H 5.9394807 q -0.032556,0 -0.032556,-0.06356 0,-0.10697 0.00465,-0.320911 0.0062,-0.21549 0.0062,-0.324011 0,-0.120923 -0.018604,-0.362769 -0.017053,-0.241845 -0.017053,-0.362768 0,-0.02635 0.032556,-0.02635 0.027905,0 0.085266,0.0078 0.058911,0.0078 0.088367,0.0078 0.029456,0 0.086816,-0.0078 0.058911,-0.0078 0.088367,-0.0078 0.026355,0 0.026355,0.02945 z"
         style="fill:#e8617a;stroke-width:0.264583"
         id="path1841" />
      <path
         d="m 8.9532501,51.142564 q 0,0.06046 -0.035657,0.06046 -0.023254,0 -0.071313,-0.0047 -0.046509,-0.0047 -0.071314,-0.0047 -0.026355,0 -0.079065,0.0031 -0.05271,0.0031 -0.079065,0.0031 -0.032556,0 -0.032556,-0.07286 0,-0.07131 0.00465,-0.21239 0.0062,-0.142627 0.0062,-0.213941 0,-0.392224 -0.0031,-0.437182 -0.012402,-0.159681 -0.065112,-0.220142 -0.060461,-0.06511 -0.2154907,-0.06511 -0.097668,0 -0.2201416,0.09302 -0.127124,0.09767 -0.1317749,0.192237 -0.0062,0.120922 -0.0062,0.441833 0,0.07596 0.0062,0.227893 0.0062,0.151929 0.0062,0.227893 0,0.04186 -0.027905,0.04186 -0.027905,0 -0.082166,-0.0047 -0.05271,-0.0047 -0.080615,-0.0047 -0.024805,0 -0.072864,0.0031 -0.048059,0.0031 -0.072864,0.0031 -0.031006,0 -0.031006,-0.04496 0,-0.07441 0.00465,-0.223242 0.00465,-0.150379 0.00465,-0.224793 v -0.37362 q 0,-0.175183 -0.041858,-0.249597 -0.058911,-0.10542 -0.2247925,-0.10542 -0.097668,0 -0.2325439,0.08217 -0.1488281,0.08992 -0.1488281,0.181384 v 0.452686 q 0,0.07751 0.00155,0.230994 0.00155,0.153479 0.00155,0.229443 0,0.04496 -0.035657,0.04496 H 6.6386627 q -0.031006,0 -0.031006,-0.04186 0,-0.125574 0.00155,-0.376722 0.00155,-0.252697 0.00155,-0.378271 0,-0.283704 -0.060461,-0.565857 -0.00465,-0.02015 -0.00465,-0.03256 0,-0.02015 0.013953,-0.02326 0.057361,-0.0062 0.1674316,-0.02325 0.05116,-0.0155 0.153479,-0.03411 l 0.012402,-0.0016 q 0.018604,0 0.034106,0.110071 0.017053,0.108521 0.029456,0.108521 0,0 0.077515,-0.06821 0.091467,-0.07906 0.1829346,-0.125574 0.1317749,-0.06821 0.2635498,-0.06821 0.3565674,0 0.4542358,0.291455 0.096118,-0.124023 0.2387451,-0.204639 0.1519287,-0.08682 0.3007569,-0.08682 0.2868042,0 0.396875,0.167432 0.079065,0.124023 0.079065,0.392224 0,0.05116 -0.0031,0.15813 -0.0031,0.10697 -0.0031,0.15813 0,0.09767 0.00465,0.294555 0.00465,0.195337 0.00465,0.293006 z"
         style="fill:#e8617a;stroke-width:0.264583"
         id="path1843" />
      <path
         d="m 10.573306,50.367417 q 0,0.114722 -0.09922,0.153479 -0.06666,0.02481 -0.9596316,0.09147 0.020154,0.136426 0.1503784,0.232544 0.1240234,0.09147 0.2666504,0.09147 0.2449458,0 0.4495848,-0.15813 0.02481,-0.02015 0.04961,-0.04031 0.0124,0 0.0155,0.0031 0.0047,0.0031 0.05891,0.10852 0.05426,0.10387 0.05426,0.111621 0,0.0093 -0.02481,0.03566 -0.227893,0.241846 -0.5844603,0.241846 -0.359668,0 -0.5736084,-0.213941 -0.2139404,-0.21549 -0.2139404,-0.573608 0,-0.31936 0.2046386,-0.556555 0.2154908,-0.246497 0.5286499,-0.246497 0.2914546,0 0.4867916,0.213941 0.190686,0.207739 0.190686,0.505395 z m -0.368969,-0.09457 q 0,-0.128674 -0.10232,-0.227893 -0.100769,-0.09922 -0.2278927,-0.09922 -0.1426269,0 -0.254248,0.114722 -0.1100708,0.114722 -0.1100708,0.257349 0,0.03256 0.05581,0.03256 0.2294434,0 0.5488035,-0.04651 0.08992,-0.0124 0.08992,-0.03101 z"
         style="fill:#e8617a;stroke-width:0.264583"
         id="path1845" />
    </g>
  </g>
  <g
     id="layer2"
     inkscape:label="components"
     transform="translate(1.2e-6,-8.0999998e-5)"
     style="display:none"
     inkscape:groupmode="layer">
    <circle
       style="fill:#ff0000;stroke-width:0.648899"
       id="path2113-6-8"
       cx="38.099998"
       cy="24.093803"
       r="5.5384998"
       inkscape:label="b" />
    <circle
       style="fill:#00ff00;stroke-width:0.4895"
       id="path2113-3"
       cx="50.799995"
       cy="24.093803"
       r="4.178"
       inkscape:label="b" />
    <circle
       style="fill:#ff0000;stroke-width:0.648899"
       id="path2113-6-8-2"
       cx="22.860001"
       cy="24.093803"
       r="5.5384998"
       inkscape:label="a" />
    <circle
       style="fill:#00ff00;stroke-width:0.4895"
       id="path2113-3-4"
       cx="10.159997"
       cy="24.093801"
       r="4.178"
       inkscape:label="a" />
    <circle
       style="fill:#ff0000;stroke-width:0.648899"
       id="path2113-6-8-3"
       cx="38.099995"
       cy="40.156284"
       r="5.5384998"
       inkscape:label="d" />
    <circle
       style="fill:#00ff00;stroke-width:0.4895"
       id="path2113-3-2"
       cx="50.799995"
       cy="40.156284"
       r="4.178"
       inkscape:label="d" />
    <circle
       style="fill:#ff0000;stroke-width:0.648899"
       id="path2113-6-8-2-8"
       cx="22.859997"
       cy="40.156284"
       r="5.5384998"
       inkscape:label="c" />
    <circle
       style="fill:#00ff00;stroke-width:0.4895"
       id="path2113-3-4-2"
       cx="10.159994"
       cy="40.156281"
       r="4.178"
       inkscape:label="c" />
    <circle
       style="fill:#0000ff;stroke-width:0.4895"
       id="path2113-3-2-2"
       cx="53.339996"
       cy="58.226574"
       r="4.178"
       inkscape:label="gate" />
    <rect
       style="fill:#ffff00;stroke:none;stroke-width:0;stroke-miterlimit:4;stroke-dasharray:none"
       id="rect996"
       width="5.0799994"
       height="4.0156202"
       x="40.639996"
       y="60.234383"
       inkscape:label="d" />
    <rect
       style="fill:#ffff00;stroke:none;stroke-width:0;stroke-miterlimit:4;stroke-dasharray:none"
       id="rect1766"
       width="50.799999"
       height="4.0156202"
       x="5.0799985"
       y="70.27343"
       inkscape:label="seq" />
    <rect
       style="fill:#ffff00;stroke:none;stroke-width:0;stroke-miterlimit:4;stroke-dasharray:none"
       id="rect1768"
       width="5.0799994"
       height="4.0156202"
       x="17.779999"
       y="52.203144"
       inkscape:label="up" />
    <rect
       style="fill:#ffff00;stroke:none;stroke-width:0;stroke-miterlimit:4;stroke-dasharray:none"
       id="rect1770"
       width="5.0799994"
       height="4.0156202"
       x="17.779999"
       y="60.234383"
       inkscape:label="a" />
    <rect
       style="fill:#ffff00;stroke:none;stroke-width:0;stroke-miterlimit:4;stroke-dasharray:none"
       id="rect1772"
       width="5.0799994"
       height="4.0156202"
       x="25.399998"
       y="60.234383"
       inkscape:label="b" />
    <rect
       style="fill:#ffff00;stroke:none;stroke-width:0;stroke-miterlimit:4;stroke-dasharray:none"
       id="rect1774"
       width="5.0799994"
       height="4.0156202"
       x="33.019997"
       y="60.234383"
       inkscape:label="c" />
    <rect
       style="fill:#ffff00;stroke:none;stroke-width:0;stroke-miterlimit:4;stroke-dasharray:none"
       id="rect1776"
       width="5.0799994"
       height="4.0156202"
       x="40.639996"
       y="52.203144"
       inkscape:label="clear" />
    <rect
       style="fill:#ffff00;stroke:none;stroke-width:0;stroke-miterlimit:4;stroke-dasharray:none"
       id="rect1778"
       width="5.0799994"
       height="4.0156202"
       x="25.399998"
       y="52.203144"
       inkscape:label="down" />
    <rect
       style="fill:#ffff00;stroke:none;stroke-width:0;stroke-miterlimit:4;stroke-dasharray:none"
       id="rect1780"
       width="35.559998"
       height="4.0156202"
       x="20.319998"
       y="80.312485"
       inkscape:label="a_rule" />
    <rect
       style="fill:#ffff00;stroke:none;stroke-width:0;stroke-miterlimit:4;stroke-dasharray:none"
       id="rect1782"
       width="35.559998"
       height="4.0156202"
       x="20.319998"
       y="88.343727"
       inkscape:label="b_rule" />
    <rect
       style="fill:#ffff00;stroke:none;stroke-width:0;stroke-miterlimit:4;stroke-dasharray:none"
       id="rect1784"
       width="35.559998"
       height="4.0156202"
       x="20.319998"
       y="96.374962"
       inkscape:label="c_rule" />
    <rect
       style="fill:#ffff00;stroke:none;stroke-width:0;stroke-miterlimit:4;stroke-dasharray:none"
       id="rect1786"
       width="35.559998"
       height="4.0156202"
       x="20.319998"
       y="104.4062"
       inkscape:label="d_rule" />
    <circle
       style="display:inline;fill:#ff0000;stroke-width:0.648899"
       id="path2113-6-8-2-8-0"
       cx="7.6199985"
       cy="58.226574"
       r="5.5384998"
       inkscape:label="time" />
    <rect
       style="display:inline;fill:#ffff00;stroke:none;stroke-width:0;stroke-miterlimit:4;stroke-dasharray:none"
       id="rect1774-0"
       width="5.0799999"
       height="4.0156202"
       x="33.019997"
       y="52.203144"
       inkscape:label="reset" />
  </g>
</svg>
