<?xml version="1.0" encoding="UTF-8" standalone="no"?>
<svg
   xmlns:dc="http://purl.org/dc/elements/1.1/"
   xmlns:cc="http://creativecommons.org/ns#"
   xmlns:rdf="http://www.w3.org/1999/02/22-rdf-syntax-ns#"
   xmlns:svg="http://www.w3.org/2000/svg"
   xmlns="http://www.w3.org/2000/svg"
   xmlns:sodipodi="http://sodipodi.sourceforge.net/DTD/sodipodi-0.dtd"
   xmlns:inkscape="http://www.inkscape.org/namespaces/inkscape"
   width="30.48mm"
   height="128.5mm"
   viewBox="0 0 30.479999 128.5"
   version="1.1"
   id="svg8"
   inkscape:version="1.0.1 (3bc2e813f5, 2020-09-07)"
   sodipodi:docname="snap.svg">
  <defs
     id="defs2" />
  <sodipodi:namedview
     id="base"
     pagecolor="#ffffff"
     bordercolor="#666666"
     borderopacity="1.0"
     inkscape:pageopacity="0.0"
     inkscape:pageshadow="2"
     inkscape:zoom="5.4584616"
     inkscape:cx="35.613706"
     inkscape:cy="95.639557"
     inkscape:document-units="mm"
     inkscape:current-layer="layer1"
     inkscape:document-rotation="0"
     showgrid="true"
     inkscape:snap-page="false"
     inkscape:window-width="1858"
     inkscape:window-height="1057"
     inkscape:window-x="-8"
     inkscape:window-y="-8"
     inkscape:window-maximized="1"
     inkscape:snap-center="true"
     inkscape:object-nodes="false">
    <inkscape:grid
       type="xygrid"
       id="grid833"
       units="mm"
       spacingx="2.5399999"
       spacingy="2.00781"
       empspacing="4"
       originx="20.319998"
       originy="64.250001" />
  </sodipodi:namedview>
  <metadata
     id="metadata5">
    <rdf:RDF>
      <cc:Work
         rdf:about="">
        <dc:format>image/svg+xml</dc:format>
        <dc:type
           rdf:resource="http://purl.org/dc/dcmitype/StillImage" />
        <dc:title></dc:title>
      </cc:Work>
    </rdf:RDF>
  </metadata>
  <g
     inkscape:label="Layer 1"
     inkscape:groupmode="layer"
     id="layer1">
    <rect
       style="fill:#e6e6e6;fill-opacity:1;stroke-width:0.866025"
       id="rect835"
       width="30.48"
       height="128.49985"
       x="-1.2e-06"
       y="8.0999998e-05"
       rx="0.37499925"
       ry="0.49999899"
       inkscape:label="bg"
       sodipodi:insensitive="true" />
    <g
       aria-label="snap"
       id="text840"
       style="font-style:normal;font-variant:normal;font-weight:normal;font-stretch:normal;font-size:4.23333px;line-height:1.25;font-family:'Berlin Sans FB';-inkscape-font-specification:'Berlin Sans FB';fill:#e8617a;fill-opacity:1;stroke:none;stroke-width:0.264583"
       inkscape:label="title"
       transform="translate(-5.0799998)">
      <path
         d="m 17.400283,8.0974663 q 0,0.3079913 -0.24598,0.4940263 -0.223242,0.1694985 -0.543635,0.1694985 -0.124024,0 -0.14056,-0.0062 -0.03514,-0.016536 -0.03514,-0.1012858 0,-0.045475 -0.0124,-0.1364256 -0.01034,-0.09095 -0.01034,-0.1343586 0,-0.026872 0.03721,-0.03514 0.02687,-0.0062 0.07648,0 0.06408,0.0062 0.06201,0.0062 0.390673,0 0.390673,-0.2397785 0,-0.113688 -0.171565,-0.2087726 -0.279053,-0.1529621 -0.320394,-0.188102 -0.171565,-0.146761 -0.171565,-0.3844723 0,-0.3100584 0.233577,-0.483691 0.21084,-0.1550292 0.5333,-0.1550292 0.02894,0 0.04134,0.026872 0.01447,0.026872 0.05168,0.1674315 0.03927,0.1405598 0.03927,0.1694986 0,0.022738 -0.03927,0.028939 -0.132292,0.018604 -0.26665,0.03514 -0.159164,0.043408 -0.159164,0.1736327 0,0.093018 0.167432,0.188102 0.248046,0.1384927 0.314192,0.2005044 0.169499,0.1612303 0.169499,0.4134106 z"
         style="font-style:normal;font-variant:normal;font-weight:normal;font-stretch:normal;font-size:4.23333px;font-family:'Berlin Sans FB';-inkscape-font-specification:'Berlin Sans FB';fill:#e8617a;fill-opacity:1;stroke-width:0.264583"
         id="path24" />
      <path
         d="m 19.519015,8.6927783 q 0,0.045475 -0.04134,0.045475 -0.06821,0 -0.204639,-0.00207 -0.134358,-0.00207 -0.202571,-0.00207 -0.03721,0 -0.03721,-0.059945 0,-0.1012857 0.0062,-0.3079913 0.0062,-0.2067055 0.0062,-0.3100583 0,-0.082682 -0.0021,-0.2459796 -0.0021,-0.1653645 -0.0021,-0.2480467 0,-0.2356443 -0.06821,-0.3327959 -0.08268,-0.1157551 -0.305924,-0.1157551 -0.103353,0 -0.287321,0.1157551 -0.194303,0.1219563 -0.194303,0.2170408 v 1.2402333 q 0,0.051676 -0.03927,0.051676 -0.06615,0 -0.198437,-0.00207 -0.132292,-0.00207 -0.198438,-0.00207 -0.04341,0 -0.04341,-0.047542 0,-0.1632974 0.0041,-0.4898921 0.0062,-0.3265948 0.0062,-0.4919593 0,-0.4402828 -0.09302,-0.8123528 -0.0062,-0.018604 -0.0062,-0.026872 0,-0.020671 0.02687,-0.028939 0.01447,-0.00207 0.235645,-0.037207 0.223242,-0.037207 0.233577,-0.037207 0.0124,0 0.01654,0.033073 0.01034,0.1281575 0.04754,0.258382 0.107487,-0.084749 0.283186,-0.2108397 0.217041,-0.1322916 0.419613,-0.1322916 0.388606,0 0.531233,0.2253091 0.10542,0.1653644 0.10542,0.5353674 0,0.064079 -0.0041,0.1963702 -0.0021,0.1322916 -0.0021,0.1984374 0,0.1384927 0.0041,0.4134111 0.0041,0.2749184 0.0041,0.4134111 z"
         style="font-style:normal;font-variant:normal;font-weight:normal;font-stretch:normal;font-size:4.23333px;font-family:'Berlin Sans FB';-inkscape-font-specification:'Berlin Sans FB';fill:#e8617a;fill-opacity:1;stroke-width:0.264583"
         id="path26" />
      <path
         d="m 21.920933,6.8634341 q 0,0.00827 -0.0062,0.037207 -0.08062,0.4733558 -0.08062,0.816487 0,0.02067 0.05168,0.9281079 l 0.0021,0.028939 q 0.0021,0.059945 -0.05581,0.059945 -0.05581,0 -0.171566,0.012402 -0.113688,0.014469 -0.169498,0.014469 -0.03927,0 -0.05994,-0.1446939 -0.02067,-0.1446938 -0.03927,-0.1446938 -0.0124,0 -0.111621,0.080615 -0.121956,0.099219 -0.227376,0.1508951 -0.163297,0.082682 -0.326595,0.082682 -0.401009,0 -0.675927,-0.3203936 -0.260449,-0.3059242 -0.260449,-0.7131342 0,-0.4588863 0.262516,-0.7586094 0.274918,-0.3121253 0.723469,-0.3121253 0.31626,0 0.551904,0.2191078 0.03514,0.041341 0.109554,0.1198893 0.0062,0.0062 0.0124,0.0062 0.0124,0 0.03514,-0.1302245 0.02274,-0.1302245 0.05788,-0.1302245 0.05581,0 0.208773,0.031006 0.169498,0.037207 0.169498,0.066146 z m -0.527099,0.8640293 q 0,-0.2542479 -0.150895,-0.4361488 -0.159163,-0.1963702 -0.40721,-0.1963702 -0.248047,0 -0.413411,0.1943032 -0.159163,0.186035 -0.159163,0.4382158 0,0.2501137 0.159163,0.4340816 0.165364,0.1922362 0.413411,0.1922362 0.241846,0 0.405143,-0.1963703 0.152962,-0.1839679 0.152962,-0.4299475 z"
         style="font-style:normal;font-variant:normal;font-weight:normal;font-stretch:normal;font-size:4.23333px;font-family:'Berlin Sans FB';-inkscape-font-specification:'Berlin Sans FB';fill:#e8617a;fill-opacity:1;stroke-width:0.264583"
         id="path28" />
      <path
         d="m 24.324919,7.7398657 q 0,0.4175452 -0.264583,0.7255365 -0.276986,0.3245277 -0.68833,0.3245277 -0.256315,0 -0.448551,-0.1591633 -0.08682,-0.080615 -0.173632,-0.1632974 -0.0124,0.0062 -0.01654,0.033073 -0.0021,0.012402 -0.0021,0.2315103 l -0.0021,0.5829096 q 0,0.066146 -0.04754,0.066146 -0.318327,0 -0.376204,-0.00827 -0.04754,-0.0062 -0.04754,-0.053744 0,-0.2645831 0.0041,-0.7937493 0.0041,-0.5291662 0.0041,-0.7937493 0,-0.4857581 -0.06201,-0.9115715 -0.0041,-0.024805 -0.0041,-0.033073 0,-0.022738 0.02067,-0.028939 0.07855,-0.00413 0.229444,-0.022738 0.202571,-0.037207 0.227376,-0.037207 0.03514,0 0.04547,0.1240233 0.0062,0.082682 0.01034,0.1632974 0,0.016536 0.0124,0.033073 0.01447,-0.00827 0.03307,-0.028939 0.289388,-0.2955889 0.584977,-0.2955889 0.409277,0 0.690397,0.3203936 0.270784,0.3079913 0.270784,0.7255365 z m -0.483691,-0.00827 q 0,-0.2480467 -0.155029,-0.4361487 -0.163298,-0.2005044 -0.40721,-0.2005044 -0.239779,0 -0.392741,0.2067055 -0.140559,0.186035 -0.140559,0.4340817 0,0.2521808 0.144693,0.4382158 0.159164,0.2005043 0.405143,0.2005043 0.235645,0 0.396875,-0.2087726 0.148828,-0.1943032 0.148828,-0.4340816 z"
         style="font-style:normal;font-variant:normal;font-weight:normal;font-stretch:normal;font-size:4.23333px;font-family:'Berlin Sans FB';-inkscape-font-specification:'Berlin Sans FB';fill:#e8617a;fill-opacity:1;stroke-width:0.264583"
         id="path30" />
    </g>
    <g
       aria-label="by pat"
       id="text840-6"
       style="font-style:normal;font-variant:normal;font-weight:normal;font-stretch:normal;font-size:3.52778px;line-height:1.25;font-family:'Berlin Sans FB';-inkscape-font-specification:'Berlin Sans FB';fill:#e8617a;fill-opacity:1;stroke:none;stroke-width:0.264583"
       inkscape:label="footer"
       transform="translate(-2.0499998e-6,3.1e-5)">
      <path
         d="m 7.1825727,120.5884 q 0,0.34106 -0.2118735,0.59428 -0.2256539,0.26871 -0.5615509,0.26871 -0.2239314,0 -0.3944637,-0.11369 -0.068902,-0.0586 -0.1378039,-0.11541 -0.018948,0.005 -0.025838,0.10336 -0.00517,0.0982 -0.027561,0.0982 H 5.4600239 q -0.020671,0 -0.020671,-0.0224 0,0.002 0.00345,-0.031 0.027561,-0.2756 0.027561,-1.0542 0,-0.31867 -0.027561,-0.93534 -0.017226,-0.39274 -0.017226,-0.34451 0,-0.0448 0.044786,-0.0499 0.062012,-0.002 0.1843127,-0.007 0.024116,-0.002 0.098185,-0.0121 0.062012,-0.0103 0.099908,-0.0103 0.027561,0 0.027561,0.0396 0,0.0586 -0.00861,0.17915 -0.00861,0.12057 -0.00861,0.18086 0,0.0896 -0.00861,0.27044 -0.00689,0.17915 -0.00689,0.26872 0,0.0655 0.024116,0.0655 0.012058,0 0.025838,-0.0189 0.1894804,-0.23599 0.5012617,-0.23599 0.3565676,0 0.5770539,0.267 0.2067058,0.25149 0.2067058,0.61495 z m -0.389296,-0.0155 q 0,-0.20498 -0.1291912,-0.36173 -0.1378039,-0.16709 -0.3393421,-0.16709 -0.2067059,0 -0.3445098,0.16364 -0.1326362,0.15503 -0.1326362,0.36518 0,0.2136 0.1326362,0.36863 0.1378039,0.16192 0.3479549,0.16192 0.2032608,0 0.3393421,-0.16709 0.1257461,-0.15503 0.1257461,-0.36346 z"
         style="font-style:normal;font-variant:normal;font-weight:normal;font-stretch:normal;font-size:3.52778px;font-family:'Berlin Sans FB';-inkscape-font-specification:'Berlin Sans FB';fill:#e8617a;fill-opacity:1;stroke-width:0.264583"
         id="path885" />
      <path
         d="m 8.8792833,120.22149 q 0,0.29111 -0.017226,0.3514 -0.022393,0.0775 -0.4271921,0.67696 -0.4030764,0.59773 -0.4788686,0.66835 -0.068902,0.062 -0.4444176,0.062 -0.044786,0 -0.058567,-0.0103 -0.012058,-0.009 -0.058567,-0.12402 -0.044786,-0.11541 -0.044786,-0.13781 0,-0.0379 0.091295,-0.0379 0.1929255,0 0.2842206,-0.0551 0.031006,-0.0189 0.093018,-0.11886 0.063734,-0.0999 0.063734,-0.13436 0,-0.0465 -0.2497696,-0.36346 -0.2635499,-0.33589 -0.2945558,-0.42547 -0.024116,-0.0706 -0.024116,-0.33762 0,-0.0654 0.00172,-0.19637 0.00172,-0.13263 0.00172,-0.19981 0,-0.0379 0.041341,-0.0379 0.055122,0 0.1619196,0.007 0.1085205,0.007 0.1636421,0.007 0.027561,0 0.027561,0.0362 0,0.0482 -0.00517,0.14469 -0.00517,0.0965 -0.00517,0.14469 0,0.21015 0.01378,0.31351 0.010335,0.0654 0.1877578,0.32556 0.1774225,0.2601 0.2187637,0.2601 0.029283,0 0.1860353,-0.25493 0.1567519,-0.25666 0.1670872,-0.31695 0.01378,-0.0861 0.01378,-0.31351 0,-0.0499 -0.010335,-0.14641 -0.010335,-0.0982 -0.010335,-0.14642 0,-0.0431 0.027561,-0.0431 0.055122,0 0.1653647,-0.007 0.1119657,-0.009 0.1670872,-0.009 0.051677,0 0.051677,0.41858 z"
         style="font-style:normal;font-variant:normal;font-weight:normal;font-stretch:normal;font-size:3.52778px;font-family:'Berlin Sans FB';-inkscape-font-specification:'Berlin Sans FB';fill:#e8617a;fill-opacity:1;stroke-width:0.264583"
         id="path887" />
      <path
         d="m 11.712876,120.59184 q 0,0.34796 -0.220486,0.60462 -0.230822,0.27044 -0.573609,0.27044 -0.213596,0 -0.373793,-0.13264 -0.07235,-0.0672 -0.144694,-0.13608 -0.01034,0.005 -0.01378,0.0276 -0.0017,0.0103 -0.0017,0.19292 l -0.0017,0.48576 q 0,0.0551 -0.03962,0.0551 -0.265273,0 -0.313504,-0.007 -0.039619,-0.005 -0.039619,-0.0448 0,-0.22049 0.00345,-0.66146 0.00345,-0.44097 0.00345,-0.66146 0,-0.4048 -0.051676,-0.75964 -0.00345,-0.0207 -0.00345,-0.0276 0,-0.0189 0.017225,-0.0241 0.065457,-0.003 0.191203,-0.019 0.16881,-0.031 0.189481,-0.031 0.02928,0 0.0379,0.10335 0.0052,0.0689 0.0086,0.13608 0,0.0138 0.01034,0.0276 0.01206,-0.007 0.02756,-0.0241 0.241157,-0.24633 0.487482,-0.24633 0.341064,0 0.575331,0.267 0.225654,0.25666 0.225654,0.60461 z m -0.403076,-0.007 q 0,-0.2067 -0.129192,-0.36346 -0.136081,-0.16708 -0.339342,-0.16708 -0.199815,0 -0.327284,0.17225 -0.117133,0.15503 -0.117133,0.36174 0,0.21015 0.120578,0.36518 0.132636,0.16708 0.33762,0.16708 0.19637,0 0.330729,-0.17397 0.124024,-0.16192 0.124024,-0.36174 z"
         style="font-style:normal;font-variant:normal;font-weight:normal;font-stretch:normal;font-size:3.52778px;font-family:'Berlin Sans FB';-inkscape-font-specification:'Berlin Sans FB';fill:#e8617a;fill-opacity:1;stroke-width:0.264583"
         id="path889" />
      <path
         d="m 13.654189,119.86148 q 0,0.007 -0.0052,0.031 -0.06718,0.39446 -0.06718,0.6804 0,0.0172 0.04306,0.77343 l 0.0017,0.0241 q 0.0017,0.05 -0.04651,0.05 -0.04651,0 -0.142972,0.0103 -0.09474,0.0121 -0.141249,0.0121 -0.03273,0 -0.04995,-0.12058 -0.01722,-0.12058 -0.03273,-0.12058 -0.01033,0 -0.09302,0.0672 -0.10163,0.0827 -0.18948,0.12575 -0.136081,0.0689 -0.272163,0.0689 -0.334174,0 -0.563273,-0.26699 -0.217041,-0.25494 -0.217041,-0.59428 0,-0.38241 0.218763,-0.63218 0.229099,-0.2601 0.602892,-0.2601 0.26355,0 0.459921,0.18259 0.02928,0.0345 0.09129,0.0999 0.0052,0.005 0.01034,0.005 0.01034,0 0.02928,-0.10852 0.01895,-0.10852 0.04823,-0.10852 0.04651,0 0.173978,0.0258 0.141249,0.031 0.141249,0.0551 z m -0.43925,0.72003 q 0,-0.21188 -0.125746,-0.36346 -0.132637,-0.16364 -0.339343,-0.16364 -0.206705,0 -0.344509,0.16192 -0.132637,0.15503 -0.132637,0.36518 0,0.20842 0.132637,0.36173 0.137804,0.1602 0.344509,0.1602 0.201539,0 0.33762,-0.16364 0.127469,-0.15331 0.127469,-0.35829 z"
         style="font-style:normal;font-variant:normal;font-weight:normal;font-stretch:normal;font-size:3.52778px;font-family:'Berlin Sans FB';-inkscape-font-specification:'Berlin Sans FB';fill:#e8617a;fill-opacity:1;stroke-width:0.264583"
         id="path891" />
      <path
         d="m 14.894424,121.10344 q 0,0.0379 -0.0069,0.10335 -0.0086,0.081 -0.01033,0.10508 -0.0017,0.031 -0.0052,0.0379 -0.0069,0.0121 -0.03273,0.0241 -0.141249,0.0672 -0.444417,0.0672 -0.403077,0 -0.403077,-0.36518 0,-0.14642 0.0069,-0.43925 0.0069,-0.29456 0.0069,-0.44097 0,-0.0706 -0.07062,-0.0758 -0.06373,0 -0.125746,-0.002 -0.03617,-0.009 -0.03617,-0.14125 0,-0.0499 0.0069,-0.10507 0.0052,-0.0413 0.05512,-0.05 0.04306,0 0.08441,-0.002 0.07924,-0.003 0.07924,-0.0706 0,-0.0689 -0.0052,-0.21015 -0.0034,-0.14125 -0.0034,-0.21187 0,-0.12575 0.04823,-0.12575 0.0155,0 0.323839,0.0534 0.03962,0.005 0.03962,0.0379 0,0.0758 -0.01206,0.22738 -0.01033,0.15158 -0.01033,0.22737 0,0.05 0.04651,0.05 h 0.413412 q 0.02928,0 0.02928,0.0207 0,0.0207 -0.0069,0.0672 -0.0052,0.0448 -0.0052,0.0672 0,0.0258 0.0017,0.0792 0.0017,0.0534 0.0017,0.0792 0,0.0327 -0.04823,0.0327 -0.0689,0 -0.208428,-0.009 -0.139527,-0.0103 -0.208428,-0.0103 -0.01378,0 -0.02067,0.0982 -0.0086,0.1223 -0.0086,0.34278 v 0.25666 q 0,0.14814 0.02756,0.20671 0.04134,0.0896 0.170532,0.0896 0.0534,0 0.156752,-0.0224 0.103353,-0.0241 0.153307,-0.0241 0.02067,0 0.02067,0.031 z"
         style="font-style:normal;font-variant:normal;font-weight:normal;font-stretch:normal;font-size:3.52778px;font-family:'Berlin Sans FB';-inkscape-font-specification:'Berlin Sans FB';fill:#e8617a;fill-opacity:1;stroke-width:0.264583"
         id="path893" />
    </g>
    <g
       aria-label=":^)"
       id="text840-6-7"
       style="font-style:normal;font-variant:normal;font-weight:bold;font-stretch:normal;font-size:3.52777px;line-height:1.25;font-family:Calibri;-inkscape-font-specification:'Calibri Bold';fill:#e8617a;fill-opacity:1;stroke:none;stroke-width:0.264583"
       inkscape:label="smiley"
       transform="translate(-10.3624,-0.046864)">
      <path
         d="m 29.484368,120.07767 q 0,0.0723 -0.01206,0.12057 -0.01206,0.0482 -0.04134,0.0792 -0.02756,0.031 -0.07407,0.0448 -0.04651,0.0121 -0.117133,0.0121 -0.07062,0 -0.117133,-0.0121 -0.04651,-0.0138 -0.07579,-0.0448 -0.02756,-0.031 -0.0379,-0.0792 -0.01034,-0.0482 -0.01034,-0.12057 0,-0.0741 0.01034,-0.12403 0.01033,-0.0499 0.0379,-0.081 0.02928,-0.031 0.07579,-0.0448 0.04651,-0.0138 0.117133,-0.0138 0.07062,0 0.117133,0.0138 0.04651,0.0138 0.07407,0.0448 0.02928,0.031 0.04134,0.081 0.01206,0.05 0.01206,0.12403 z m 0,1.12482 q 0,0.0723 -0.01206,0.1223 -0.01206,0.0482 -0.04134,0.0792 -0.02756,0.031 -0.07407,0.0431 -0.04651,0.0138 -0.117133,0.0138 -0.07062,0 -0.117133,-0.0138 -0.04651,-0.0121 -0.07579,-0.0431 -0.02756,-0.031 -0.0379,-0.0792 -0.01034,-0.05 -0.01034,-0.1223 0,-0.0724 0.01034,-0.1223 0.01033,-0.0517 0.0379,-0.0827 0.02928,-0.031 0.07579,-0.0431 0.04651,-0.0138 0.117133,-0.0138 0.07062,0 0.117133,0.0138 0.04651,0.0121 0.07407,0.0431 0.02928,0.031 0.04134,0.0827 0.01206,0.0499 0.01206,0.1223 z"
         style="font-style:normal;font-variant:normal;font-weight:bold;font-stretch:normal;font-size:3.52777px;font-family:Calibri;-inkscape-font-specification:'Calibri Bold';fill:#e8617a;fill-opacity:1;stroke-width:0.264583"
         id="path878" />
      <path
         d="m 31.363663,120.41184 q 0.02239,0.0482 0.02756,0.0775 0.0052,0.0293 -0.01378,0.0448 -0.01723,0.0155 -0.06201,0.0207 -0.04306,0.003 -0.118855,0.003 -0.06718,0 -0.111966,-0.003 -0.04306,-0.005 -0.07235,-0.0138 -0.02756,-0.0103 -0.04306,-0.0241 -0.01378,-0.0155 -0.02239,-0.0362 l -0.380683,-0.93189 -0.0086,0.002 -0.36518,0.93017 q -0.0086,0.0207 -0.02412,0.0362 -0.01378,0.0138 -0.04134,0.0241 -0.02756,0.009 -0.07235,0.0138 -0.04306,0.003 -0.110243,0.003 -0.07579,0 -0.118855,-0.003 -0.04134,-0.005 -0.06029,-0.0207 -0.01722,-0.0155 -0.01206,-0.0448 0.0052,-0.0293 0.02756,-0.0775 l 0.496093,-1.12999 q 0.01033,-0.0224 0.03101,-0.0379 0.02067,-0.0172 0.05512,-0.0276 0.03617,-0.0121 0.08613,-0.0172 0.04995,-0.007 0.118856,-0.007 0.0689,0 0.118856,0.007 0.05168,0.005 0.08613,0.0172 0.03445,0.0103 0.05512,0.0276 0.02067,0.0155 0.03101,0.0379 z"
         style="font-style:normal;font-variant:normal;font-weight:bold;font-stretch:normal;font-size:3.52777px;font-family:Calibri;-inkscape-font-specification:'Calibri Bold';fill:#e8617a;fill-opacity:1;stroke-width:0.264583"
         id="path880" />
      <path
         d="m 32.366184,120.51175 q 0,0.19465 -0.02239,0.38413 -0.02239,0.18775 -0.0689,0.37379 -0.04479,0.18431 -0.113688,0.36518 -0.06718,0.18259 -0.160196,0.36173 -0.0052,0.0121 -0.01895,0.0207 -0.01206,0.0103 -0.03617,0.0155 -0.02239,0.007 -0.05684,0.0103 -0.03445,0.003 -0.08268,0.003 -0.07062,0 -0.110243,-0.007 -0.0379,-0.007 -0.05684,-0.0207 -0.01895,-0.0138 -0.01895,-0.0344 0,-0.0189 0.01034,-0.0465 0.142971,-0.33761 0.21704,-0.69418 0.07579,-0.35829 0.07579,-0.73553 0,-0.37551 -0.07407,-0.73208 -0.07407,-0.35829 -0.220486,-0.69418 -0.0086,-0.0224 -0.0069,-0.0413 0.0034,-0.019 0.02412,-0.031 0.02239,-0.0121 0.06029,-0.0172 0.03962,-0.007 0.103352,-0.007 0.0534,0 0.08785,0.003 0.03445,0.002 0.05684,0.009 0.02239,0.005 0.03101,0.0121 0.01034,0.007 0.0155,0.0155 0.179144,0.36174 0.272162,0.73208 0.09302,0.36863 0.09302,0.75448 z"
         style="font-style:normal;font-variant:normal;font-weight:bold;font-stretch:normal;font-size:3.52777px;font-family:Calibri;-inkscape-font-specification:'Calibri Bold';fill:#e8617a;fill-opacity:1;stroke-width:0.264583"
         id="path882" />
    </g>
    <g
       aria-label="cv
"
       id="text196-2"
       style="font-size:3.175px;line-height:1.25;font-family:'Berlin Sans FB';-inkscape-font-specification:'Berlin Sans FB';fill:#e8617a;stroke-width:0.264583">
      <path
         d="m 22.68404,17.419247 q 0,0.03411 -0.03566,0.151929 -0.03566,0.117822 -0.04961,0.117822 -0.06976,-0.03101 -0.141077,-0.06201 -0.06976,-0.03101 -0.153479,-0.03101 -0.190686,0 -0.31781,0.141077 -0.127124,0.141076 -0.127124,0.333312 0,0.189136 0.127124,0.327112 0.130225,0.142627 0.31781,0.142627 0.10387,0 0.204639,-0.05116 0.100769,-0.05116 0.08837,-0.05116 0.02015,0 0.04496,0.130225 0.02326,0.117822 0.02326,0.16278 0,0.04806 -0.181385,0.09457 -0.151928,0.03876 -0.224792,0.03876 -0.319361,0 -0.539502,-0.238745 -0.215491,-0.232544 -0.215491,-0.555005 0,-0.328662 0.21084,-0.558105 0.217041,-0.235644 0.541052,-0.235644 0.217041,0 0.396875,0.11007 0.03101,0.0186 0.03101,0.03256 z"
         style="fill:#e8617a;stroke-width:0.264583"
         id="path388" />
      <path
         d="m 24.215729,17.799069 q 0,0.218592 -0.01395,0.254248 -0.02325,0.06976 -0.251148,0.407727 -0.234094,0.345716 -0.279052,0.364319 -0.0217,0.0093 -0.130225,0.0093 -0.10387,0 -0.136426,-0.0093 -0.04341,-0.01395 -0.283703,-0.350366 -0.234095,-0.327112 -0.262,-0.398425 -0.03721,-0.09767 -0.03721,-0.302307 0,-0.06356 0.0031,-0.190686 0.0031,-0.127125 0.0031,-0.190687 0,-0.03411 0.03411,-0.03411 0.05116,0 0.151928,0.0047 0.10232,0.0047 0.153479,0.0047 0.02791,0 0.02791,0.03101 0,0.04961 -0.0062,0.147277 -0.0062,0.09612 -0.0062,0.145728 0,0.142627 0.0155,0.260449 0.0078,0.05891 0.15658,0.288355 0.150378,0.229443 0.186035,0.229443 0.03411,0 0.168982,-0.224792 0.133325,-0.220142 0.142627,-0.277503 0.0124,-0.07751 0.0124,-0.26665 0,-0.05116 -0.01085,-0.153479 -0.0093,-0.10232 -0.0093,-0.153479 0,-0.02325 0.02325,-0.02325 0.05116,0 0.150378,-0.0047 0.09922,-0.0062 0.148828,-0.0062 0.04806,0 0.04806,0.438733 z"
         style="fill:#e8617a;stroke-width:0.264583"
         id="path390" />
    </g>
    <g
       aria-label="dur"
       id="text196-4"
       style="font-size:3.175px;line-height:1.25;font-family:'Berlin Sans FB';-inkscape-font-specification:'Berlin Sans FB';fill:#e8617a;stroke-width:0.264583">
      <path
         d="m 9.4949224,35.056232 q 0,0.199988 -0.018603,0.599964 -0.017053,0.398425 -0.017053,0.596863 0,0.612365 0.026355,0.927075 l 0.00155,0.02015 q 0.00155,0.0155 -0.041858,0.02015 -0.029456,0.0031 -0.083716,0 -0.065112,-0.0046 -0.060461,-0.0046 -0.023254,0 -0.068213,0.0046 -0.044958,0.0047 -0.068213,0.0047 -0.021704,0 -0.026355,-0.10697 -0.0031,-0.10852 -0.010852,-0.110071 -0.0093,0.0047 -0.023254,0.02015 -0.2123901,0.229443 -0.4883423,0.229443 -0.3131592,0 -0.5146972,-0.238745 -0.1906861,-0.224792 -0.1906861,-0.542602 0,-0.330213 0.1922364,-0.555005 0.201538,-0.235645 0.5255493,-0.235645 0.1953369,0 0.3410644,0.114722 0.066663,0.05736 0.1317749,0.116272 0.012402,-0.0047 0.012402,-0.0217 v -0.502295 q 0,-0.05116 -0.00465,-0.155029 -0.00465,-0.10387 -0.00465,-0.15658 0,-0.03721 0.024805,-0.03721 0.057361,0 0.1705322,-0.0093 0.1131714,-0.01085 0.1689819,-0.01085 0.026355,0 0.026355,0.03256 z m -0.3875732,1.410767 q 0,-0.186035 -0.1147217,-0.327112 -0.1224731,-0.150378 -0.3038574,-0.150378 -0.190686,0 -0.3147095,0.148828 -0.1178222,0.139526 -0.1178222,0.334863 0,0.186035 0.1224731,0.324011 0.1255737,0.145728 0.3100586,0.145728 0.1860351,0 0.306958,-0.147278 0.1116211,-0.137976 0.1116211,-0.328662 z"
         style="fill:#e8617a;stroke-width:0.264583"
         id="path393" />
      <path
         d="m 11.206446,35.812775 q 0,0.113172 -0.0093,0.342615 -0.0093,0.227893 -0.0093,0.342615 0,0.113171 0.0062,0.339514 0.0078,0.224793 0.0078,0.337964 0,0.03101 -0.02946,0.04031 -0.0124,0.0031 -0.314709,0.0031 -0.0186,0 -0.02325,-0.116272 -0.0031,-0.116272 -0.01705,-0.116272 -0.0078,0 -0.02325,0.01395 -0.258899,0.224792 -0.511597,0.224792 -0.3426145,0 -0.4526853,-0.248047 -0.068213,-0.153479 -0.068213,-0.551904 0,-0.359668 0.057361,-0.609265 0.013953,-0.06046 0.05116,-0.06046 0.044958,0 0.1348753,0.0016 0.08992,0.0016 0.134875,0.0016 0.03101,0 0.03101,0.03411 0,0.06046 -0.02015,0.201538 -0.0217,0.150378 -0.02325,0.21239 -0.0047,0.09302 -0.0047,0.204639 0,0.271301 0.03876,0.364318 0.06666,0.167432 0.296106,0.167432 0.09767,0 0.230994,-0.09612 0.141077,-0.100769 0.145728,-0.193787 0.0078,-0.116272 0.0078,-0.818554 0,-0.07596 0.06356,-0.07596 h 0.255798 q 0.04496,0 0.04496,0.05426 z"
         style="fill:#e8617a;stroke-width:0.264583"
         id="path395" />
      <path
         d="m 12.409473,35.763166 q 0,0.170532 -0.02325,0.310059 -0.0047,0.03566 -0.03101,0.03566 -0.03256,0 -0.09922,-0.0062 -0.06511,-0.0078 -0.09922,-0.0078 -0.195337,0 -0.249598,0.110071 -0.03256,0.06666 -0.03256,0.277502 v 0.170532 q 0,0.08682 0.0062,0.26355 0.0078,0.176733 0.0078,0.26355 0,0.04186 -0.03566,0.04186 -0.04806,0 -0.145727,-0.0016 -0.09767,-0.0016 -0.145728,-0.0016 -0.03566,0 -0.03566,-0.03876 0,-0.125574 0.0031,-0.378272 0.0047,-0.252697 0.0047,-0.379821 0,-0.382923 -0.07131,-0.615467 -0.0031,-0.0124 -0.0031,-0.0186 0,-0.0186 0.02015,-0.02636 0.05736,-0.0062 0.16123,-0.0186 0.167432,-0.03101 0.155029,-0.03101 0.0248,0 0.03256,0.09147 0.0078,0.09147 0.02791,0.09147 0.0031,0 0.0078,-0.0031 0.06356,-0.04031 0.127124,-0.08062 0.06976,-0.04186 0.142627,-0.06201 0.06046,-0.0186 0.155029,-0.0186 0.120923,0 0.120923,0.03256 z"
         style="fill:#e8617a;stroke-width:0.264583"
         id="path397" />
    </g>
    <g
       aria-label="cv
"
       id="text196-2-3"
       style="font-size:3.175px;line-height:1.25;font-family:'Berlin Sans FB';-inkscape-font-specification:'Berlin Sans FB';fill:#e8617a;stroke-width:0.264583">
      <path
         d="m 22.68404,35.489541 q 0,0.03411 -0.03566,0.151929 -0.03566,0.117822 -0.04961,0.117822 -0.06976,-0.03101 -0.141077,-0.06201 -0.06976,-0.03101 -0.153479,-0.03101 -0.190686,0 -0.31781,0.141077 -0.127124,0.141077 -0.127124,0.333313 0,0.189136 0.127124,0.327112 0.130225,0.142627 0.31781,0.142627 0.10387,0 0.204639,-0.05116 0.100769,-0.05116 0.08837,-0.05116 0.02015,0 0.04496,0.130225 0.02326,0.117822 0.02326,0.162781 0,0.04806 -0.181385,0.09457 -0.151928,0.03876 -0.224792,0.03876 -0.319361,0 -0.539502,-0.238745 -0.215491,-0.232544 -0.215491,-0.555005 0,-0.328662 0.21084,-0.558106 0.217041,-0.235644 0.541052,-0.235644 0.217041,0 0.396875,0.110071 0.03101,0.0186 0.03101,0.03256 z"
         style="fill:#e8617a;stroke-width:0.264583"
         id="path400" />
      <path
         d="m 24.215729,35.869363 q 0,0.218591 -0.01395,0.254248 -0.02325,0.06976 -0.251148,0.407727 -0.234094,0.345715 -0.279052,0.364319 -0.0217,0.0093 -0.130225,0.0093 -0.10387,0 -0.136426,-0.0093 -0.04341,-0.01395 -0.283703,-0.350367 -0.234095,-0.327111 -0.262,-0.398425 -0.03721,-0.09767 -0.03721,-0.302307 0,-0.06356 0.0031,-0.190686 0.0031,-0.127124 0.0031,-0.190686 0,-0.03411 0.03411,-0.03411 0.05116,0 0.151928,0.0047 0.10232,0.0047 0.153479,0.0047 0.02791,0 0.02791,0.03101 0,0.04961 -0.0062,0.147278 -0.0062,0.09612 -0.0062,0.145727 0,0.142627 0.0155,0.26045 0.0078,0.05891 0.15658,0.288354 0.150378,0.229444 0.186035,0.229444 0.03411,0 0.168982,-0.224793 0.133325,-0.220142 0.142627,-0.277502 0.0124,-0.07751 0.0124,-0.266651 0,-0.05116 -0.01085,-0.153479 -0.0093,-0.102319 -0.0093,-0.153479 0,-0.02325 0.02325,-0.02325 0.05116,0 0.150378,-0.0047 0.09922,-0.0062 0.148828,-0.0062 0.04806,0 0.04806,0.438733 z"
         style="fill:#e8617a;stroke-width:0.264583"
         id="path402" />
    </g>
    <g
       aria-label="cv
"
       id="text196-2-8"
       style="font-size:3.175px;line-height:1.25;font-family:'Berlin Sans FB';-inkscape-font-specification:'Berlin Sans FB';fill:#e8617a;stroke-width:0.264583">
      <path
         d="m 22.68404,61.591069 q 0,0.03411 -0.03566,0.151929 -0.03566,0.117822 -0.04961,0.117822 -0.06976,-0.03101 -0.141077,-0.06201 -0.06976,-0.03101 -0.153479,-0.03101 -0.190686,0 -0.31781,0.141077 -0.127124,0.141077 -0.127124,0.333313 0,0.189136 0.127124,0.327112 0.130225,0.142627 0.31781,0.142627 0.10387,0 0.204639,-0.05116 0.100769,-0.05116 0.08837,-0.05116 0.02015,0 0.04496,0.130224 0.02326,0.117822 0.02326,0.162781 0,0.04806 -0.181385,0.09457 -0.151928,0.03876 -0.224792,0.03876 -0.319361,0 -0.539502,-0.238745 -0.215491,-0.232544 -0.215491,-0.555005 0,-0.328662 0.21084,-0.558105 0.217041,-0.235645 0.541052,-0.235645 0.217041,0 0.396875,0.110071 0.03101,0.0186 0.03101,0.03256 z"
         style="fill:#e8617a;stroke-width:0.264583"
         id="path412" />
      <path
         d="m 24.215729,61.970891 q 0,0.218591 -0.01395,0.254248 -0.02325,0.06976 -0.251148,0.407727 -0.234094,0.345715 -0.279052,0.364319 -0.0217,0.0093 -0.130225,0.0093 -0.10387,0 -0.136426,-0.0093 -0.04341,-0.01395 -0.283703,-0.350366 -0.234095,-0.327112 -0.262,-0.398426 -0.03721,-0.09767 -0.03721,-0.302307 0,-0.06356 0.0031,-0.190686 0.0031,-0.127124 0.0031,-0.190686 0,-0.03411 0.03411,-0.03411 0.05116,0 0.151928,0.0047 0.10232,0.0046 0.153479,0.0046 0.02791,0 0.02791,0.03101 0,0.04961 -0.0062,0.147278 -0.0062,0.09612 -0.0062,0.145728 0,0.142627 0.0155,0.260449 0.0078,0.05891 0.15658,0.288354 0.150378,0.229444 0.186035,0.229444 0.03411,0 0.168982,-0.224793 0.133325,-0.220141 0.142627,-0.277502 0.0124,-0.07751 0.0124,-0.266651 0,-0.05116 -0.01085,-0.153479 -0.0093,-0.102319 -0.0093,-0.153479 0,-0.02325 0.02325,-0.02325 0.05116,0 0.150378,-0.0047 0.09922,-0.0062 0.148828,-0.0062 0.04806,0 0.04806,0.438733 z"
         style="fill:#e8617a;stroke-width:0.264583"
         id="path414" />
    </g>
    <g
       aria-label="cv
"
       id="text196-2-9"
       style="font-size:3.175px;line-height:1.25;font-family:'Berlin Sans FB';-inkscape-font-specification:'Berlin Sans FB';fill:#e8617a;stroke-width:0.264583">
      <path
         d="m 22.68404,79.661351 q 0,0.03411 -0.03566,0.151929 -0.03566,0.117822 -0.04961,0.117822 -0.06976,-0.03101 -0.141077,-0.06201 -0.06976,-0.03101 -0.153479,-0.03101 -0.190686,0 -0.31781,0.141077 -0.127124,0.141077 -0.127124,0.333313 0,0.189136 0.127124,0.327112 0.130225,0.142627 0.31781,0.142627 0.10387,0 0.204639,-0.05116 0.100769,-0.05116 0.08837,-0.05116 0.02015,0 0.04496,0.130225 0.02326,0.117822 0.02326,0.162781 0,0.04806 -0.181385,0.09457 -0.151928,0.03876 -0.224792,0.03876 -0.319361,0 -0.539502,-0.238745 -0.215491,-0.232544 -0.215491,-0.555005 0,-0.328662 0.21084,-0.558105 0.217041,-0.235645 0.541052,-0.235645 0.217041,0 0.396875,0.110071 0.03101,0.0186 0.03101,0.03256 z"
         style="fill:#e8617a;stroke-width:0.264583"
         id="path426" />
      <path
         d="m 24.215729,80.041173 q 0,0.218591 -0.01395,0.254248 -0.02325,0.06976 -0.251148,0.407727 -0.234094,0.345715 -0.279052,0.364319 -0.0217,0.0093 -0.130225,0.0093 -0.10387,0 -0.136426,-0.0093 -0.04341,-0.01395 -0.283703,-0.350366 -0.234095,-0.327112 -0.262,-0.398426 -0.03721,-0.09767 -0.03721,-0.302307 0,-0.06356 0.0031,-0.190686 0.0031,-0.127124 0.0031,-0.190686 0,-0.03411 0.03411,-0.03411 0.05116,0 0.151928,0.0046 0.10232,0.0047 0.153479,0.0047 0.02791,0 0.02791,0.03101 0,0.04961 -0.0062,0.147278 -0.0062,0.09612 -0.0062,0.145728 0,0.142627 0.0155,0.260449 0.0078,0.05891 0.15658,0.288354 0.150378,0.229444 0.186035,0.229444 0.03411,0 0.168982,-0.224793 0.133325,-0.220141 0.142627,-0.277502 0.0124,-0.07752 0.0124,-0.266651 0,-0.05116 -0.01085,-0.153479 -0.0093,-0.102319 -0.0093,-0.153479 0,-0.02325 0.02325,-0.02325 0.05116,0 0.150378,-0.0047 0.09922,-0.0062 0.148828,-0.0062 0.04806,0 0.04806,0.438733 z"
         style="fill:#e8617a;stroke-width:0.264583"
         id="path428" />
    </g>
    <g
       aria-label="out
"
       id="text196-2-4"
       style="font-size:3.175px;line-height:1.25;font-family:'Berlin Sans FB';-inkscape-font-specification:'Berlin Sans FB';fill:#e8617a;stroke-width:0.264583"
       transform="translate(1.270087)">
      <path
         d="m 14.574147,98.608342 q 0,0.324011 -0.21239,0.553455 -0.217041,0.237194 -0.537952,0.237194 -0.322461,0 -0.539502,-0.235644 -0.21239,-0.227893 -0.21239,-0.551904 0,-0.324012 0.21239,-0.551905 0.218592,-0.232544 0.539502,-0.232544 0.319361,0 0.536402,0.232544 0.21394,0.226343 0.21394,0.548804 z m -0.327112,0.0031 q 0,-0.189136 -0.116272,-0.322461 -0.120923,-0.141077 -0.306958,-0.141077 -0.186035,0 -0.308508,0.139526 -0.116272,0.134876 -0.116272,0.324012 0,0.186035 0.117822,0.322461 0.124024,0.144177 0.306958,0.144177 0.184485,0 0.306958,-0.144177 0.116272,-0.136426 0.116272,-0.322461 z"
         style="fill:#e8617a;stroke-width:0.264583"
         id="path431" />
      <path
         d="m 16.22831,97.957219 q 0,0.113171 -0.0093,0.342615 -0.0093,0.227893 -0.0093,0.342614 0,0.113172 0.0062,0.339515 0.0078,0.224792 0.0078,0.337963 0,0.03101 -0.02946,0.04031 -0.0124,0.0031 -0.314709,0.0031 -0.0186,0 -0.02325,-0.116272 -0.0031,-0.116272 -0.01705,-0.116272 -0.0078,0 -0.02325,0.01395 -0.258899,0.224793 -0.511597,0.224793 -0.342615,0 -0.452686,-0.248047 -0.06821,-0.153479 -0.06821,-0.551904 0,-0.359668 0.05736,-0.609265 0.01395,-0.06046 0.05116,-0.06046 0.04496,0 0.134876,0.0016 0.08992,0.0016 0.134875,0.0016 0.03101,0 0.03101,0.03411 0,0.06046 -0.02015,0.201538 -0.0217,0.150379 -0.02325,0.21239 -0.0047,0.09302 -0.0047,0.204639 0,0.271301 0.03876,0.364319 0.06666,0.167432 0.296106,0.167432 0.09767,0 0.230994,-0.09612 0.141076,-0.100769 0.145727,-0.193786 0.0078,-0.116272 0.0078,-0.818555 0,-0.07596 0.06356,-0.07596 h 0.255798 q 0.04496,0 0.04496,0.05426 z"
         style="fill:#e8617a;stroke-width:0.264583"
         id="path433" />
      <path
         d="m 17.408082,99.078081 q 0,0.03411 -0.0062,0.09302 -0.0078,0.07286 -0.0093,0.09457 -0.0016,0.02791 -0.0047,0.03411 -0.0062,0.01085 -0.02946,0.0217 -0.127124,0.06046 -0.399976,0.06046 -0.362768,0 -0.362768,-0.328662 0,-0.131775 0.0062,-0.395325 0.0062,-0.2651 0.0062,-0.396875 0,-0.06356 -0.06356,-0.06821 -0.05736,0 -0.113171,-0.0016 -0.03256,-0.0078 -0.03256,-0.127124 0,-0.04496 0.0062,-0.09457 0.0047,-0.03721 0.04961,-0.04496 0.03876,0 0.07597,-0.0015 0.07131,-0.0031 0.07131,-0.06356 0,-0.06201 -0.0047,-0.189135 -0.0031,-0.127124 -0.0031,-0.190686 0,-0.113172 0.04341,-0.113172 0.01395,0 0.291455,0.04806 0.03566,0.0047 0.03566,0.03411 0,0.06821 -0.01085,0.204639 -0.0093,0.136425 -0.0093,0.204638 0,0.04496 0.04186,0.04496 h 0.37207 q 0.02635,0 0.02635,0.0186 0,0.0186 -0.0062,0.06046 -0.0047,0.04031 -0.0047,0.06046 0,0.02325 0.0016,0.07131 0.0016,0.04806 0.0016,0.07131 0,0.02946 -0.04341,0.02946 -0.06201,0 -0.187585,-0.0078 -0.125574,-0.0093 -0.187586,-0.0093 -0.0124,0 -0.0186,0.08837 -0.0078,0.110071 -0.0078,0.308508 v 0.230994 q 0,0.133325 0.02481,0.186035 0.03721,0.08061 0.153479,0.08061 0.04806,0 0.141077,-0.02015 0.09302,-0.0217 0.137976,-0.0217 0.0186,0 0.0186,0.02791 z"
         style="fill:#e8617a;stroke-width:0.264583"
         id="path435" />
    </g>
    <g
       aria-label="div"
       id="text196-4-4"
       style="font-size:3.175px;line-height:1.25;font-family:'Berlin Sans FB';-inkscape-font-specification:'Berlin Sans FB';fill:#e8617a;stroke-width:0.264583">
      <path
         d="m 9.7956798,61.157757 q 0,0.199988 -0.018604,0.599963 -0.017053,0.398425 -0.017053,0.596863 0,0.612366 0.026355,0.927075 l 0.00155,0.02015 q 0.00155,0.0155 -0.041858,0.02015 -0.029456,0.0031 -0.083716,0 -0.065112,-0.0047 -0.060461,-0.0047 -0.023254,0 -0.068213,0.0047 -0.044958,0.0047 -0.068213,0.0047 -0.021704,0 -0.026355,-0.106971 -0.0031,-0.10852 -0.010852,-0.11007 -0.0093,0.0047 -0.023254,0.02015 -0.2123901,0.229444 -0.4883423,0.229444 -0.3131591,0 -0.5146972,-0.238745 -0.1906861,-0.224793 -0.1906861,-0.542603 0,-0.330212 0.1922364,-0.555005 0.201538,-0.235644 0.5255493,-0.235644 0.1953369,0 0.3410644,0.114721 0.066663,0.05736 0.1317749,0.116272 0.012402,-0.0046 0.012402,-0.0217 V 61.49417 q 0,-0.05116 -0.00465,-0.155029 -0.00465,-0.10387 -0.00465,-0.156579 0,-0.03721 0.024805,-0.03721 0.057361,0 0.1705322,-0.0093 0.1131714,-0.01085 0.168982,-0.01085 0.026355,0 0.026355,0.03256 z m -0.3875732,1.410766 q 0,-0.186035 -0.1147217,-0.327111 -0.1224731,-0.150379 -0.3038574,-0.150379 -0.190686,0 -0.3147095,0.148828 -0.1178222,0.139527 -0.1178222,0.334864 0,0.186035 0.1224731,0.324011 0.1255737,0.145727 0.3100586,0.145727 0.1860352,0 0.306958,-0.147277 0.1116211,-0.137977 0.1116211,-0.328663 z"
         style="fill:#e8617a;stroke-width:0.264583"
         id="path405" />
      <path
         d="m 10.474708,61.466265 q 0,0.190686 -0.21239,0.190686 -0.215491,0 -0.215491,-0.190686 0,-0.08527 0.06666,-0.141077 0.06201,-0.05271 0.148828,-0.05271 0.08682,0 0.148828,0.05426 0.06356,0.05426 0.06356,0.139526 z m -0.01085,0.42013 q 0,0.119372 -0.0155,0.361218 -0.01395,0.240295 -0.01395,0.361218 0,0.113171 0.0046,0.339514 0.0047,0.224793 0.0047,0.336414 0,0.03256 -0.02791,0.03256 H 10.11349 q -0.03256,0 -0.03256,-0.06356 0,-0.10697 0.0047,-0.320911 0.0062,-0.21549 0.0062,-0.324011 0,-0.120923 -0.0186,-0.362769 -0.01705,-0.241845 -0.01705,-0.362768 0,-0.02636 0.03256,-0.02636 0.02791,0 0.08527,0.0078 0.05891,0.0078 0.08837,0.0078 0.02946,0 0.08682,-0.0078 0.05891,-0.0078 0.08837,-0.0078 0.02636,0 0.02636,0.02946 z"
         style="fill:#e8617a;stroke-width:0.264583"
         id="path407" />
      <path
         d="m 12.108717,62.294122 q 0,0.218591 -0.01395,0.254248 -0.02325,0.06976 -0.251147,0.407727 -0.234094,0.345715 -0.279053,0.364318 -0.0217,0.0093 -0.130224,0.0093 -0.10387,0 -0.136426,-0.0093 -0.04341,-0.01395 -0.283704,-0.350366 -0.234094,-0.327112 -0.261999,-0.398425 -0.03721,-0.09767 -0.03721,-0.302307 0,-0.06356 0.0031,-0.190686 0.0031,-0.127124 0.0031,-0.190686 0,-0.03411 0.03411,-0.03411 0.05116,0 0.151929,0.0047 0.102319,0.0047 0.153479,0.0047 0.0279,0 0.0279,0.03101 0,0.04961 -0.0062,0.147278 -0.0062,0.09612 -0.0062,0.145727 0,0.142627 0.0155,0.26045 0.0078,0.05891 0.156579,0.288354 0.150379,0.229443 0.186036,0.229443 0.03411,0 0.168981,-0.224792 0.133326,-0.220142 0.142627,-0.277503 0.0124,-0.07751 0.0124,-0.26665 0,-0.05116 -0.01085,-0.153479 -0.0093,-0.102319 -0.0093,-0.153479 0,-0.02325 0.02325,-0.02325 0.05116,0 0.150379,-0.0047 0.09922,-0.0062 0.148828,-0.0062 0.04806,0 0.04806,0.438733 z"
         style="fill:#e8617a;stroke-width:0.264583"
         id="path409" />
    </g>
    <g
       aria-label="gate"
       id="text196-4-4-3"
       style="font-size:3.175px;line-height:1.25;font-family:'Berlin Sans FB';-inkscape-font-specification:'Berlin Sans FB';fill:#e8617a;stroke-width:0.264583">
      <path
         d="m 8.6701668,79.664456 q 0,0.186035 -0.0031,0.559656 -0.0031,0.37207 -0.0031,0.558105 0,0.36897 -0.1581299,0.544153 -0.1658813,0.186035 -0.5302002,0.186035 -0.3519165,0 -0.5689575,-0.133325 -0.034106,-0.0217 -0.034106,-0.03721 0,0.01705 0.046509,-0.229443 0.00465,-0.02636 0.021704,-0.02636 0.00775,0 0.020154,0.0078 0.2325439,0.133325 0.4666381,0.133325 0.153479,0 0.2542481,-0.06821 0.1162719,-0.07752 0.1162719,-0.224793 0,-0.03256 -0.0062,-0.145727 -0.1720825,0.209289 -0.4371826,0.209289 -0.2868042,0 -0.4712891,-0.206189 -0.1767334,-0.198437 -0.1767334,-0.488342 0,-0.294556 0.1705322,-0.500745 0.1813843,-0.220141 0.4712891,-0.220141 0.2557983,0 0.4061767,0.196887 0.024805,0.03256 0.035657,0.03256 0.012402,0 0.012402,-0.02791 0,-0.02015 -0.0031,-0.06356 -0.0031,-0.04496 -0.0031,-0.06666 0,-0.09302 0.018603,-0.09302 0.015503,0 0.1674316,0.02945 0.1519287,0.02791 0.1658814,0.03411 0.021704,0.0078 0.021704,0.04031 z m -0.3720704,0.638721 q 0,-0.173633 -0.094568,-0.294556 -0.1038696,-0.131775 -0.2728516,-0.131775 -0.1674316,0 -0.2713012,0.133326 -0.094568,0.120922 -0.094568,0.293005 0,0.168982 0.096118,0.291455 0.1038697,0.133325 0.269751,0.133325 0.1643311,0 0.269751,-0.133325 0.097668,-0.122473 0.097669,-0.291455 z"
         style="fill:#e8617a;stroke-width:0.264583"
         id="path417" />
      <path
         d="m 10.462305,79.706314 q 0,0.0062 -0.0046,0.0279 -0.06046,0.355017 -0.06046,0.612366 0,0.0155 0.03876,0.696082 l 0.0016,0.0217 q 0.0015,0.04496 -0.04186,0.04496 -0.04186,0 -0.128674,0.0093 -0.08527,0.01085 -0.127125,0.01085 -0.02946,0 -0.04496,-0.10852 -0.0155,-0.108521 -0.02946,-0.108521 -0.0093,0 -0.083715,0.06046 -0.091467,0.07442 -0.1705322,0.113172 -0.1224732,0.06201 -0.2449463,0.06201 -0.3007568,0 -0.5069458,-0.240296 -0.1953369,-0.229443 -0.1953369,-0.534851 0,-0.344165 0.1968872,-0.568957 0.206189,-0.234095 0.5426025,-0.234095 0.2371949,0 0.4139275,0.164331 0.02635,0.03101 0.08217,0.08992 0.0047,0.0047 0.0093,0.0047 0.0093,0 0.02636,-0.09767 0.01705,-0.09767 0.04341,-0.09767 0.04186,0 0.156579,0.02326 0.127124,0.02791 0.127124,0.04961 z m -0.395324,0.648023 q 0,-0.190686 -0.1131717,-0.327112 -0.1193725,-0.147278 -0.3054077,-0.147278 -0.1860351,0 -0.3100586,0.145727 -0.1193725,0.139527 -0.1193725,0.328663 0,0.187585 0.1193725,0.325561 0.1240235,0.144177 0.3100586,0.144177 0.1813843,0 0.3038574,-0.147278 0.114722,-0.137976 0.114722,-0.32246 z"
         style="fill:#e8617a;stroke-width:0.264583"
         id="path419" />
      <path
         d="m 11.578516,80.824075 q 0,0.03411 -0.0062,0.09302 -0.0078,0.07286 -0.0093,0.09457 -0.0015,0.0279 -0.0046,0.03411 -0.0062,0.01085 -0.02946,0.0217 -0.127124,0.06046 -0.399976,0.06046 -0.362768,0 -0.362768,-0.328662 0,-0.131775 0.0062,-0.395325 0.0062,-0.2651 0.0062,-0.396875 0,-0.06356 -0.06356,-0.06821 -0.05736,0 -0.113171,-0.0015 -0.03256,-0.0078 -0.03256,-0.127124 0,-0.04496 0.0062,-0.09457 0.0047,-0.03721 0.04961,-0.04496 0.03876,0 0.07597,-0.0016 0.07131,-0.0031 0.07131,-0.06356 0,-0.06201 -0.0047,-0.189136 -0.0031,-0.127124 -0.0031,-0.190686 0,-0.113171 0.04341,-0.113171 0.01395,0 0.291455,0.04806 0.03566,0.0047 0.03566,0.03411 0,0.06821 -0.01085,0.204639 -0.0093,0.136426 -0.0093,0.204639 0,0.04496 0.04186,0.04496 h 0.37207 q 0.02636,0 0.02636,0.0186 0,0.0186 -0.0062,0.06046 -0.0047,0.04031 -0.0047,0.06046 0,0.02325 0.0015,0.07131 0.0016,0.04806 0.0016,0.07131 0,0.02945 -0.04341,0.02945 -0.06201,0 -0.187585,-0.0078 -0.125574,-0.0093 -0.187586,-0.0093 -0.0124,0 -0.0186,0.08837 -0.0078,0.11007 -0.0078,0.308508 v 0.230994 q 0,0.133325 0.02481,0.186035 0.03721,0.08061 0.153479,0.08061 0.04806,0 0.141077,-0.02015 0.09302,-0.0217 0.137976,-0.0217 0.0186,0 0.0186,0.0279 z"
         style="fill:#e8617a;stroke-width:0.264583"
         id="path421" />
      <path
         d="m 13.113306,80.276822 q 0,0.114722 -0.09922,0.153479 -0.06666,0.02481 -0.959632,0.09147 0.02015,0.136426 0.150379,0.232544 0.124023,0.09147 0.26665,0.09147 0.244946,0 0.449585,-0.158129 0.0248,-0.02015 0.04961,-0.04031 0.0124,0 0.0155,0.0031 0.0047,0.0031 0.05891,0.10852 0.05426,0.10387 0.05426,0.111621 0,0.0093 -0.02481,0.03566 -0.227893,0.241846 -0.58446,0.241846 -0.359668,0 -0.573609,-0.213941 -0.21394,-0.215491 -0.21394,-0.573608 0,-0.319361 0.204638,-0.556555 0.215491,-0.246497 0.52865,-0.246497 0.291455,0 0.486792,0.21394 0.190686,0.20774 0.190686,0.505396 z m -0.368969,-0.09457 q 0,-0.128674 -0.10232,-0.227893 -0.100769,-0.09922 -0.227893,-0.09922 -0.142627,0 -0.254248,0.114722 -0.110071,0.114722 -0.110071,0.257349 0,0.03256 0.05581,0.03256 0.229443,0 0.548804,-0.04651 0.08992,-0.0124 0.08992,-0.03101 z"
         style="fill:#e8617a;stroke-width:0.264583"
         id="path423" />
    </g>
    <rect
       style="fill:#e8617a;fill-opacity:1;stroke:none;stroke-width:0.499999;stroke-miterlimit:4;stroke-dasharray:none;stroke-dashoffset:0"
       id="rect2489"
       width="12.7"
       height="2.0078101"
       x="8.8899984"
       y="25.097706"
       rx="0.49999905"
       ry="0.49999905" />
    <rect
       style="fill:#e8617a;fill-opacity:1;stroke:none;stroke-width:0.499999;stroke-miterlimit:4;stroke-dasharray:none;stroke-dashoffset:0"
       id="rect2489-3"
       width="12.7"
       height="2.0078101"
       x="8.8899984"
       y="43.167995"
       rx="0.49999905"
       ry="0.49999905" />
    <rect
       style="fill:#e8617a;fill-opacity:1;stroke:none;stroke-width:0.499999;stroke-miterlimit:4;stroke-dasharray:none;stroke-dashoffset:0"
       id="rect2489-5"
       width="12.7"
       height="2.0078101"
       x="8.8899984"
       y="69.269524"
       rx="0.49999905"
       ry="0.49999905" />
    <rect
       style="fill:#e8617a;fill-opacity:1;stroke:none;stroke-width:0.499999;stroke-miterlimit:4;stroke-dasharray:none;stroke-dashoffset:0"
       id="rect2489-4"
       width="12.7"
       height="2.0078101"
       x="8.8899984"
       y="87.339813"
       rx="0.49999905"
       ry="0.49999905" />
    <path
       style="fill:#e8617a;stroke:#e8617a;stroke-width:0.422576;stroke-linecap:round;stroke-linejoin:miter;stroke-opacity:1"
       d="M 2.5399984,56.218761 H 27.939998"
       id="path2619" />
    <g
       aria-label="bpm"
       id="text464"
       style="font-size:3.175px;line-height:1.25;font-family:'Berlin Sans FB';-inkscape-font-specification:'Berlin Sans FB';fill:#e8617a;stroke-width:0.264583">
      <path
         d="m 8.7662848,18.187417 q 0,0.306958 -0.190686,0.534851 -0.2030884,0.241846 -0.5053955,0.241846 -0.2015381,0 -0.3550171,-0.102319 -0.062012,-0.05271 -0.1240234,-0.10387 -0.017053,0.0047 -0.023254,0.09302 -0.00465,0.08837 -0.024805,0.08837 H 7.2159919 q -0.018603,0 -0.018603,-0.02015 0,0.0015 0.0031,-0.02791 0.024805,-0.248047 0.024805,-0.948779 0,-0.286804 -0.024805,-0.841809 -0.015503,-0.353467 -0.015503,-0.310059 0,-0.04031 0.040308,-0.04496 0.055811,-0.0015 0.1658814,-0.0062 0.021704,-0.0016 0.088367,-0.01085 0.05581,-0.0093 0.089917,-0.0093 0.024805,0 0.024805,0.03566 0,0.05271 -0.00775,0.16123 -0.00775,0.108521 -0.00775,0.162781 0,0.08062 -0.00775,0.243396 -0.0062,0.16123 -0.0062,0.241845 0,0.05891 0.021704,0.05891 0.010852,0 0.023254,-0.01705 0.1705322,-0.21239 0.4511352,-0.21239 0.3209107,0 0.5193482,0.240296 0.1860351,0.226342 0.1860351,0.553454 z m -0.3503662,-0.01395 q 0,-0.184485 -0.116272,-0.325562 -0.1240234,-0.150378 -0.3054077,-0.150378 -0.1860351,0 -0.3100586,0.147277 -0.1193725,0.139527 -0.1193725,0.328663 0,0.192236 0.1193725,0.331762 0.1240235,0.145728 0.3131592,0.145728 0.1829346,0 0.3054077,-0.150379 0.1131714,-0.139526 0.1131714,-0.327111 z"
         style="fill:#e8617a;stroke-width:0.264583"
         id="path466" />
      <path
         d="m 10.53827,18.190518 q 0,0.313159 -0.198438,0.544153 -0.207739,0.243396 -0.5162474,0.243396 -0.1922363,0 -0.3364135,-0.119373 -0.065112,-0.06046 -0.1302246,-0.122473 -0.0093,0.0047 -0.012402,0.02481 -0.00155,0.0093 -0.00155,0.173632 l -0.00155,0.437183 q 0,0.04961 -0.035657,0.04961 -0.2387451,0 -0.2821533,-0.0062 -0.035657,-0.0047 -0.035657,-0.04031 0,-0.198438 0.0031,-0.595313 0.0031,-0.396875 0.0031,-0.595312 0,-0.364319 -0.046509,-0.68368 -0.0031,-0.0186 -0.0031,-0.0248 0,-0.01705 0.015503,-0.0217 0.058911,-0.0031 0.1720825,-0.01705 0.1519287,-0.02791 0.1705322,-0.02791 0.026355,0 0.034107,0.09302 0.00465,0.06201 0.00775,0.122473 0,0.0124 0.0093,0.02481 0.010852,-0.0062 0.024805,-0.02171 0.217041,-0.221691 0.4387329,-0.221691 0.3069572,0 0.5177972,0.240295 0.203089,0.230994 0.203089,0.544153 z m -0.362769,-0.0062 q 0,-0.186036 -0.116272,-0.327112 -0.122473,-0.150379 -0.3054075,-0.150379 -0.179834,0 -0.2945557,0.15503 -0.1054199,0.139526 -0.1054199,0.325561 0,0.189136 0.1085205,0.328662 0.1193725,0.150379 0.3038574,0.150379 0.1767334,0 0.2976562,-0.15658 0.111621,-0.145727 0.111621,-0.325561 z"
         style="fill:#e8617a;stroke-width:0.264583"
         id="path468" />
      <path
         d="m 13.13501,18.878848 q 0,0.06046 -0.03566,0.06046 -0.02326,0 -0.07131,-0.0047 -0.04651,-0.0046 -0.07131,-0.0046 -0.02636,0 -0.07906,0.0031 -0.05271,0.0031 -0.07907,0.0031 -0.03256,0 -0.03256,-0.07286 0,-0.07131 0.0047,-0.21239 0.0062,-0.142627 0.0062,-0.213941 0,-0.392224 -0.0031,-0.437182 -0.0124,-0.15968 -0.06511,-0.220142 -0.06046,-0.06511 -0.215491,-0.06511 -0.09767,0 -0.220141,0.09302 -0.127125,0.09767 -0.131775,0.192237 -0.0062,0.120923 -0.0062,0.441833 0,0.07597 0.0062,0.227893 0.0062,0.151929 0.0062,0.227893 0,0.04186 -0.02791,0.04186 -0.02791,0 -0.08217,-0.0047 -0.05271,-0.0046 -0.08061,-0.0046 -0.0248,0 -0.07286,0.0031 -0.04806,0.0031 -0.07286,0.0031 -0.03101,0 -0.03101,-0.04496 0,-0.07441 0.0047,-0.223242 0.0047,-0.150378 0.0047,-0.224792 v -0.373621 q 0,-0.175183 -0.04186,-0.249597 -0.05891,-0.10542 -0.224792,-0.10542 -0.09767,0 -0.232544,0.08216 -0.148828,0.08992 -0.148828,0.181385 v 0.452685 q 0,0.07751 0.0015,0.230994 0.0015,0.153479 0.0015,0.229443 0,0.04496 -0.03566,0.04496 h -0.288355 q -0.03101,0 -0.03101,-0.04186 0,-0.125574 0.0015,-0.376721 0.0016,-0.252698 0.0016,-0.378272 0,-0.283703 -0.06046,-0.565857 -0.0047,-0.02015 -0.0047,-0.03256 0,-0.02015 0.01395,-0.02325 0.05736,-0.0062 0.167432,-0.02325 0.05116,-0.0155 0.153479,-0.03411 l 0.0124,-0.0015 q 0.0186,0 0.03411,0.11007 0.01705,0.108521 0.02946,0.108521 0,0 0.07752,-0.06821 0.09147,-0.07906 0.182934,-0.125574 0.131775,-0.06821 0.26355,-0.06821 0.356567,0 0.454236,0.291455 0.09612,-0.124023 0.238745,-0.204638 0.151929,-0.08682 0.300757,-0.08682 0.286804,0 0.396875,0.167432 0.07906,0.124023 0.07906,0.392224 0,0.05116 -0.0031,0.15813 -0.0031,0.10697 -0.0031,0.15813 0,0.09767 0.0047,0.294556 0.0046,0.195336 0.0046,0.293005 z"
         style="fill:#e8617a;stroke-width:0.264583"
         id="path470" />
    </g>
  </g>
  <g
     inkscape:groupmode="layer"
     id="layer2"
     inkscape:label="components"
     style="display:none">
    <circle
       style="fill:#ff0000;stroke-width:0.648899"
       id="path2113-6-0"
       cx="10.159998"
       cy="26.10161"
       r="5.5384998"
       inkscape:label="tempo" />
    <circle
       style="fill:#ff0000;stroke-width:0.648899"
       id="path2113-6-2"
       cx="10.159998"
       cy="44.171902"
       r="5.5384998"
       inkscape:label="dur" />
    <circle
       style="fill:#ff0000;stroke-width:0.648899"
       id="path2113-6-8"
       cx="10.159998"
       cy="70.27343"
       r="5.5384998"
       inkscape:label="div" />
    <circle
       style="fill:#ff0000;stroke-width:0.648899"
       id="path2113-6-6"
       cx="10.159998"
       cy="88.343719"
       r="5.5384998"
       inkscape:label="gate" />
    <circle
       style="fill:#0000ff;stroke-width:0.4895"
       id="path2113-7"
       cx="16.51"
       cy="106.41401"
       r="4.178"
       inkscape:label="output" />
    <circle
       style="fill:#00ff00;stroke-width:0.4895"
       id="path2113-7-3"
       cx="22.859999"
       cy="26.10161"
       r="4.178"
       inkscape:label="tempo" />
    <circle
       style="fill:#00ff00;stroke-width:0.4895"
       id="path2113-7-36"
       cx="22.859999"
       cy="44.171902"
       r="4.178"
       inkscape:label="dur" />
    <circle
       style="fill:#00ff00;stroke-width:0.4895"
       id="path2113-7-0"
       cx="22.859999"
       cy="70.27343"
       r="4.178"
       inkscape:label="div" />
    <circle
       style="fill:#00ff00;stroke-width:0.4895"
       id="path2113-7-6"
       cx="22.859999"
       cy="88.343719"
       r="4.178"
       inkscape:label="gate" />
  </g>
</svg>
