<?xml version="1.0" encoding="UTF-8" standalone="no"?>
<svg
   xmlns:dc="http://purl.org/dc/elements/1.1/"
   xmlns:cc="http://creativecommons.org/ns#"
   xmlns:rdf="http://www.w3.org/1999/02/22-rdf-syntax-ns#"
   xmlns:svg="http://www.w3.org/2000/svg"
   xmlns="http://www.w3.org/2000/svg"
   xmlns:sodipodi="http://sodipodi.sourceforge.net/DTD/sodipodi-0.dtd"
   xmlns:inkscape="http://www.inkscape.org/namespaces/inkscape"
   width="40.639999mm"
   height="128.5mm"
   viewBox="0 0 40.639999 128.5"
   version="1.1"
   id="svg8"
   inkscape:version="1.0.1 (3bc2e813f5, 2020-09-07)"
   sodipodi:docname="timothy.svg">
  <defs
     id="defs2" />
  <sodipodi:namedview
     id="base"
     pagecolor="#ffffff"
     bordercolor="#666666"
     borderopacity="1.0"
     inkscape:pageopacity="0.0"
     inkscape:pageshadow="2"
     inkscape:zoom="1.9298576"
     inkscape:cx="-58.04619"
     inkscape:cy="252.30576"
     inkscape:document-units="mm"
     inkscape:current-layer="layer2"
     inkscape:document-rotation="0"
     showgrid="true"
     inkscape:snap-page="false"
     inkscape:window-width="1858"
     inkscape:window-height="1057"
     inkscape:window-x="-8"
     inkscape:window-y="-8"
     inkscape:window-maximized="1"
     inkscape:snap-center="true"
     inkscape:object-nodes="false">
    <inkscape:grid
       type="xygrid"
       id="grid833"
       units="mm"
       spacingx="2.5399999"
       spacingy="2.00781"
       empspacing="4"
       originx="20.319998"
       originy="64.250001" />
  </sodipodi:namedview>
  <metadata
     id="metadata5">
    <rdf:RDF>
      <cc:Work
         rdf:about="">
        <dc:format>image/svg+xml</dc:format>
        <dc:type
           rdf:resource="http://purl.org/dc/dcmitype/StillImage" />
        <dc:title></dc:title>
      </cc:Work>
    </rdf:RDF>
  </metadata>
  <g
     inkscape:label="Layer 1"
     inkscape:groupmode="layer"
     id="layer1">
    <rect
       style="fill:#e6e6e6;fill-opacity:1"
       id="rect835"
       width="40.639996"
       height="128.49985"
       x="-1.2e-06"
       y="8.0999998e-05"
       rx="0.49999899"
       ry="0.49999899"
       inkscape:label="bg"
       sodipodi:insensitive="true" />
    <g
       aria-label="timothy"
       id="text840"
       style="font-style:normal;font-variant:normal;font-weight:normal;font-stretch:normal;font-size:4.23333px;line-height:1.25;font-family:'Berlin Sans FB';-inkscape-font-specification:'Berlin Sans FB';fill:#e8617a;fill-opacity:1;stroke:none;stroke-width:0.264583"
       inkscape:label="title">
      <path
         d="m 14.826798,8.7847628 q 0,0.045475 -0.0083,0.1240234 -0.01034,0.097152 -0.0124,0.1260904 -0.0021,0.037207 -0.0062,0.045475 -0.0083,0.014469 -0.03927,0.028939 -0.169499,0.080615 -0.5333,0.080615 -0.483691,0 -0.483691,-0.4382158 0,-0.1756997 0.0083,-0.5270991 0.0083,-0.3534665 0.0083,-0.5291662 0,-0.084749 -0.08475,-0.09095 -0.07648,0 -0.150895,-0.00207 -0.04341,-0.010335 -0.04341,-0.1694986 0,-0.059945 0.0083,-0.1260904 0.0062,-0.049609 0.06615,-0.059945 0.05168,0 0.101285,-0.00207 0.09509,-0.00413 0.09509,-0.084749 0,-0.082682 -0.0062,-0.2521808 -0.0041,-0.1694986 -0.0041,-0.2542478 0,-0.1508951 0.05788,-0.1508951 0.0186,0 0.388607,0.064079 0.04754,0.0062 0.04754,0.045475 0,0.090951 -0.01447,0.2728514 -0.0124,0.1819009 -0.0124,0.2728513 0,0.059945 0.05581,0.059945 h 0.496093 q 0.03514,0 0.03514,0.024805 0,0.024805 -0.0083,0.080615 -0.0062,0.053743 -0.0062,0.080615 0,0.031006 0.0021,0.095085 0.0021,0.064079 0.0021,0.095084 0,0.039274 -0.05788,0.039274 -0.08268,0 -0.250114,-0.010335 -0.167431,-0.012402 -0.250113,-0.012402 -0.01654,0 -0.02481,0.1178221 -0.01033,0.146761 -0.01033,0.4113441 V 8.447828 q 0,0.1777668 0.03307,0.2480466 0.04961,0.1074869 0.204638,0.1074869 0.06408,0 0.188102,-0.026872 0.124024,-0.028939 0.183968,-0.028939 0.02481,0 0.02481,0.037207 z"
         style="font-style:normal;font-variant:normal;font-weight:normal;font-stretch:normal;font-size:4.23333px;font-family:'Berlin Sans FB';-inkscape-font-specification:'Berlin Sans FB';fill:#e8617a;fill-opacity:1;stroke-width:0.264583"
         id="path1336" />
      <path
         d="m 15.659821,6.6929026 q 0,0.2542478 -0.283186,0.2542478 -0.287321,0 -0.287321,-0.2542478 0,-0.113688 0.08888,-0.188102 0.08268,-0.07028 0.198438,-0.07028 0.115755,0 0.198437,0.072347 0.08475,0.072347 0.08475,0.186035 z m -0.01447,0.5601721 q 0,0.1591632 -0.02067,0.4816239 -0.0186,0.3203936 -0.0186,0.481624 0,0.150895 0.0062,0.4526851 0.0062,0.2997231 0.0062,0.4485511 0,0.043408 -0.03721,0.043408 h -0.403076 q -0.04341,0 -0.04341,-0.084749 0,-0.1426269 0.0062,-0.4278805 0.0083,-0.2873208 0.0083,-0.4320146 0,-0.1612304 -0.0248,-0.483691 -0.02274,-0.3224607 -0.02274,-0.483691 0,-0.03514 0.04341,-0.03514 0.03721,0 0.113688,0.010335 0.07855,0.010335 0.117823,0.010335 0.03927,0 0.115755,-0.010335 0.07855,-0.010335 0.117822,-0.010335 0.03514,0 0.03514,0.039274 z"
         style="font-style:normal;font-variant:normal;font-weight:normal;font-stretch:normal;font-size:4.23333px;font-family:'Berlin Sans FB';-inkscape-font-specification:'Berlin Sans FB';fill:#e8617a;fill-opacity:1;stroke-width:0.264583"
         id="path1338" />
      <path
         d="m 19.196553,9.08862 q 0,0.080615 -0.04754,0.080615 -0.03101,0 -0.09509,-0.0062 -0.06201,-0.0062 -0.09508,-0.0062 -0.03514,0 -0.10542,0.00413 -0.07028,0.00413 -0.10542,0.00413 -0.04341,0 -0.04341,-0.097152 0,-0.095085 0.0062,-0.2831866 0.0083,-0.1901691 0.0083,-0.2852536 0,-0.5229651 -0.0041,-0.5829097 -0.01654,-0.2129067 -0.08682,-0.2935219 -0.08061,-0.086816 -0.287321,-0.086816 -0.130224,0 -0.293522,0.1240233 -0.169498,0.1302245 -0.175699,0.2563149 -0.0083,0.1612303 -0.0083,0.5891108 0,0.1012858 0.0083,0.3038572 0.0083,0.2025714 0.0083,0.3038572 0,0.05581 -0.03721,0.05581 -0.03721,0 -0.109554,-0.0062 -0.07028,-0.0062 -0.107487,-0.0062 -0.03307,0 -0.09715,0.00413 -0.06408,0.00413 -0.09715,0.00413 -0.04134,0 -0.04134,-0.059945 0,-0.099219 0.0062,-0.297656 0.0062,-0.2005043 0.0062,-0.299723 V 8.009617 q 0,-0.2335773 -0.05581,-0.3327959 -0.07855,-0.1405598 -0.299723,-0.1405598 -0.130224,0 -0.310058,0.1095539 -0.198437,0.1198892 -0.198437,0.2418455 v 0.6035802 q 0,0.1033528 0.0021,0.3079913 0.0021,0.2046385 0.0021,0.3059242 0,0.059945 -0.04754,0.059945 h -0.384473 q -0.04134,0 -0.04134,-0.05581 0,-0.1674315 0.0021,-0.5022945 0.0021,-0.3369301 0.0021,-0.5043616 0,-0.3782712 -0.08062,-0.7544753 -0.0062,-0.026872 -0.0062,-0.043408 0,-0.026872 0.0186,-0.031006 0.07648,-0.00827 0.223242,-0.031006 0.06821,-0.020671 0.204639,-0.045475 l 0.01654,-0.00207 q 0.02481,0 0.04548,0.146761 0.02274,0.1446938 0.03927,0.1446938 0,0 0.103352,-0.09095 0.121957,-0.1054198 0.243913,-0.1674315 0.1757,-0.09095 0.351399,-0.09095 0.475423,0 0.605648,0.3886064 0.128157,-0.1653644 0.318326,-0.2728513 0.202572,-0.1157551 0.401009,-0.1157551 0.382405,0 0.529166,0.223242 0.10542,0.1653644 0.10542,0.522965 0,0.068213 -0.0041,0.2108397 -0.0041,0.1426268 -0.0041,0.2108396 0,0.1302245 0.0062,0.3927406 0.0062,0.260449 0.0062,0.3906735 z"
         style="font-style:normal;font-variant:normal;font-weight:normal;font-stretch:normal;font-size:4.23333px;font-family:'Berlin Sans FB';-inkscape-font-specification:'Berlin Sans FB';fill:#e8617a;fill-opacity:1;stroke-width:0.264583"
         id="path1340" />
      <path
         d="m 21.478582,8.158445 q 0,0.4320146 -0.283186,0.7379388 -0.289388,0.3162595 -0.717268,0.3162595 -0.429948,0 -0.719336,-0.3141924 -0.283186,-0.3038572 -0.283186,-0.7358718 0,-0.4320146 0.283186,-0.7358718 0.291455,-0.3100583 0.719336,-0.3100583 0.425813,0 0.715201,0.3100583 0.285253,0.3017901 0.285253,0.7317377 z m -0.436148,0.00413 q 0,-0.2521808 -0.155029,-0.4299475 -0.161231,-0.1881021 -0.409277,-0.1881021 -0.248047,0 -0.411345,0.186035 -0.155029,0.1798338 -0.155029,0.4320146 0,0.2480467 0.157097,0.4299476 0.165364,0.1922361 0.409277,0.1922361 0.245979,0 0.409277,-0.1922361 0.155029,-0.1819009 0.155029,-0.4299476 z"
         style="font-style:normal;font-variant:normal;font-weight:normal;font-stretch:normal;font-size:4.23333px;font-family:'Berlin Sans FB';-inkscape-font-specification:'Berlin Sans FB';fill:#e8617a;fill-opacity:1;stroke-width:0.264583"
         id="path1342" />
      <path
         d="m 22.921387,8.7847628 q 0,0.045475 -0.0083,0.1240234 -0.01033,0.097152 -0.0124,0.1260904 -0.0021,0.037207 -0.0062,0.045475 -0.0083,0.014469 -0.03927,0.028939 -0.169498,0.080615 -0.5333,0.080615 -0.483691,0 -0.483691,-0.4382158 0,-0.1756997 0.0083,-0.5270991 0.0083,-0.3534665 0.0083,-0.5291662 0,-0.084749 -0.08475,-0.09095 -0.07648,0 -0.150895,-0.00207 -0.04341,-0.010335 -0.04341,-0.1694986 0,-0.059945 0.0083,-0.1260904 0.0062,-0.049609 0.06615,-0.059945 0.05168,0 0.101286,-0.00207 0.09508,-0.00413 0.09508,-0.084749 0,-0.082682 -0.0062,-0.2521808 -0.0041,-0.1694986 -0.0041,-0.2542478 0,-0.1508951 0.05788,-0.1508951 0.0186,0 0.388607,0.064079 0.04754,0.0062 0.04754,0.045475 0,0.090951 -0.01447,0.2728514 -0.0124,0.1819009 -0.0124,0.2728513 0,0.059945 0.05581,0.059945 h 0.496093 q 0.03514,0 0.03514,0.024805 0,0.024805 -0.0083,0.080615 -0.0062,0.053743 -0.0062,0.080615 0,0.031006 0.0021,0.095085 0.0021,0.064079 0.0021,0.095084 0,0.039274 -0.05788,0.039274 -0.08268,0 -0.250113,-0.010335 -0.167432,-0.012402 -0.250114,-0.012402 -0.01654,0 -0.02481,0.1178221 -0.01033,0.146761 -0.01033,0.4113441 V 8.447828 q 0,0.1777668 0.03307,0.2480466 0.04961,0.1074869 0.204638,0.1074869 0.06408,0 0.188102,-0.026872 0.124024,-0.028939 0.183968,-0.028939 0.02481,0 0.02481,0.037207 z"
         style="font-style:normal;font-variant:normal;font-weight:normal;font-stretch:normal;font-size:4.23333px;font-family:'Berlin Sans FB';-inkscape-font-specification:'Berlin Sans FB';fill:#e8617a;fill-opacity:1;stroke-width:0.264583"
         id="path1344" />
      <path
         d="m 25.021516,9.0927541 q 0,0.076481 -0.04341,0.076481 -0.06408,0 -0.194303,-0.00207 -0.130225,-0.00207 -0.194304,-0.00207 -0.05168,0 -0.05168,-0.068213 0,-0.099219 0.0062,-0.299723 0.0083,-0.2005044 0.0083,-0.3017901 0,-0.095085 -0.0083,-0.2873208 -0.0062,-0.1943032 -0.0062,-0.2914548 0,-0.37207 -0.351399,-0.37207 -0.113688,0 -0.297656,0.1136881 -0.196371,0.1219562 -0.196371,0.223242 v 1.227831 q 0,0.059945 -0.04341,0.059945 -0.06408,0 -0.192236,-0.00207 -0.128157,-0.00207 -0.192236,-0.00207 -0.04754,0 -0.04754,-0.05581 V 8.1109027 q 0,-0.2439125 -0.02687,-1.0376619 -0.0041,-0.2459796 -0.03514,-0.7276035 -0.0041,-0.024805 -0.0041,-0.033073 0,-0.03514 0.0248,-0.043408 0.03514,-0.012402 0.233578,-0.012402 0.04341,0 0.130224,-0.014469 0.08682,-0.016536 0.126091,-0.016536 0.02687,0 0.02687,0.039274 0,0.1943032 -0.01654,0.5849767 -0.01447,0.3886065 -0.01447,0.5829097 0,0.047542 0.01654,0.049609 0.10542,-0.088883 0.272851,-0.2149737 0.202572,-0.1260904 0.427881,-0.1260904 0.388606,0 0.535367,0.2315102 0.10542,0.1694985 0.10542,0.5374344 0,0.064079 -0.0041,0.1984374 -0.0021,0.1322915 -0.0021,0.1963702 0,0.1322916 0.0041,0.3948077 0.0041,0.262516 0.0041,0.3927405 z"
         style="font-style:normal;font-variant:normal;font-weight:normal;font-stretch:normal;font-size:4.23333px;font-family:'Berlin Sans FB';-inkscape-font-specification:'Berlin Sans FB';fill:#e8617a;fill-opacity:1;stroke-width:0.264583"
         id="path1346" />
      <path
         d="m 27.158851,7.7264304 q 0,0.3493324 -0.02067,0.4216793 -0.02687,0.093018 -0.51263,0.8123529 -0.483691,0.7172682 -0.574641,0.8020175 -0.08268,0.074414 -0.533301,0.074414 -0.05374,0 -0.07028,-0.012402 -0.01447,-0.010335 -0.07028,-0.148828 -0.05374,-0.1384927 -0.05374,-0.1653645 0,-0.045475 0.109554,-0.045475 0.23151,0 0.341064,-0.066146 0.03721,-0.022738 0.111621,-0.1426268 0.07648,-0.1198892 0.07648,-0.1612303 0,-0.05581 -0.299723,-0.4361488 -0.316259,-0.4030758 -0.353466,-0.5105627 -0.02894,-0.084749 -0.02894,-0.4051429 0,-0.078548 0.0021,-0.2356443 0.0021,-0.1591633 0.0021,-0.2397784 0,-0.045475 0.04961,-0.045475 0.06615,0 0.194304,0.00827 0.130224,0.00827 0.19637,0.00827 0.03307,0 0.03307,0.043408 0,0.057878 -0.0062,0.1736327 -0.0062,0.1157551 -0.0062,0.1736327 0,0.2521808 0.01654,0.3762041 0.0124,0.078548 0.225309,0.3906735 0.212907,0.3121254 0.262516,0.3121254 0.03514,0 0.223242,-0.3059242 0.188102,-0.3079913 0.200504,-0.3803383 0.01654,-0.1033527 0.01654,-0.3762041 0,-0.059945 -0.0124,-0.1756997 -0.0124,-0.1178222 -0.0124,-0.1756997 0,-0.051676 0.03307,-0.051676 0.06615,0 0.198437,-0.00827 0.134359,-0.010335 0.200505,-0.010335 0.06201,0 0.06201,0.5022945 z"
         style="font-style:normal;font-variant:normal;font-weight:normal;font-stretch:normal;font-size:4.23333px;font-family:'Berlin Sans FB';-inkscape-font-specification:'Berlin Sans FB';fill:#e8617a;fill-opacity:1;stroke-width:0.264583"
         id="path1348" />
    </g>
    <g
       aria-label="by pat"
       id="text840-6"
       style="font-style:normal;font-variant:normal;font-weight:normal;font-stretch:normal;font-size:3.52778px;line-height:1.25;font-family:'Berlin Sans FB';-inkscape-font-specification:'Berlin Sans FB';fill:#e8617a;fill-opacity:1;stroke:none;stroke-width:0.264583"
       inkscape:label="footer">
      <path
         d="m 7.1825727,120.5884 q 0,0.34106 -0.2118735,0.59428 -0.2256539,0.26871 -0.5615509,0.26871 -0.2239314,0 -0.3944637,-0.11369 -0.068902,-0.0586 -0.1378039,-0.11541 -0.018948,0.005 -0.025838,0.10336 -0.00517,0.0982 -0.027561,0.0982 H 5.4600239 q -0.020671,0 -0.020671,-0.0224 0,0.002 0.00345,-0.031 0.027561,-0.2756 0.027561,-1.0542 0,-0.31867 -0.027561,-0.93534 -0.017226,-0.39274 -0.017226,-0.34451 0,-0.0448 0.044786,-0.0499 0.062012,-0.002 0.1843127,-0.007 0.024116,-0.002 0.098185,-0.0121 0.062012,-0.0103 0.099908,-0.0103 0.027561,0 0.027561,0.0396 0,0.0586 -0.00861,0.17915 -0.00861,0.12057 -0.00861,0.18086 0,0.0896 -0.00861,0.27044 -0.00689,0.17915 -0.00689,0.26872 0,0.0655 0.024116,0.0655 0.012058,0 0.025838,-0.0189 0.1894804,-0.23599 0.5012617,-0.23599 0.3565676,0 0.5770539,0.267 0.2067058,0.25149 0.2067058,0.61495 z m -0.389296,-0.0155 q 0,-0.20498 -0.1291912,-0.36173 -0.1378039,-0.16709 -0.3393421,-0.16709 -0.2067059,0 -0.3445098,0.16364 -0.1326362,0.15503 -0.1326362,0.36518 0,0.2136 0.1326362,0.36863 0.1378039,0.16192 0.3479549,0.16192 0.2032608,0 0.3393421,-0.16709 0.1257461,-0.15503 0.1257461,-0.36346 z"
         style="font-style:normal;font-variant:normal;font-weight:normal;font-stretch:normal;font-size:3.52778px;font-family:'Berlin Sans FB';-inkscape-font-specification:'Berlin Sans FB';fill:#e8617a;fill-opacity:1;stroke-width:0.264583"
         id="path885" />
      <path
         d="m 8.8792833,120.22149 q 0,0.29111 -0.017226,0.3514 -0.022393,0.0775 -0.4271921,0.67696 -0.4030764,0.59773 -0.4788686,0.66835 -0.068902,0.062 -0.4444176,0.062 -0.044786,0 -0.058567,-0.0103 -0.012058,-0.009 -0.058567,-0.12402 -0.044786,-0.11541 -0.044786,-0.13781 0,-0.0379 0.091295,-0.0379 0.1929255,0 0.2842206,-0.0551 0.031006,-0.0189 0.093018,-0.11886 0.063734,-0.0999 0.063734,-0.13436 0,-0.0465 -0.2497696,-0.36346 -0.2635499,-0.33589 -0.2945558,-0.42547 -0.024116,-0.0706 -0.024116,-0.33762 0,-0.0654 0.00172,-0.19637 0.00172,-0.13263 0.00172,-0.19981 0,-0.0379 0.041341,-0.0379 0.055122,0 0.1619196,0.007 0.1085205,0.007 0.1636421,0.007 0.027561,0 0.027561,0.0362 0,0.0482 -0.00517,0.14469 -0.00517,0.0965 -0.00517,0.14469 0,0.21015 0.01378,0.31351 0.010335,0.0654 0.1877578,0.32556 0.1774225,0.2601 0.2187637,0.2601 0.029283,0 0.1860353,-0.25493 0.1567519,-0.25666 0.1670872,-0.31695 0.01378,-0.0861 0.01378,-0.31351 0,-0.0499 -0.010335,-0.14641 -0.010335,-0.0982 -0.010335,-0.14642 0,-0.0431 0.027561,-0.0431 0.055122,0 0.1653647,-0.007 0.1119657,-0.009 0.1670872,-0.009 0.051677,0 0.051677,0.41858 z"
         style="font-style:normal;font-variant:normal;font-weight:normal;font-stretch:normal;font-size:3.52778px;font-family:'Berlin Sans FB';-inkscape-font-specification:'Berlin Sans FB';fill:#e8617a;fill-opacity:1;stroke-width:0.264583"
         id="path887" />
      <path
         d="m 11.712876,120.59184 q 0,0.34796 -0.220486,0.60462 -0.230822,0.27044 -0.573609,0.27044 -0.213596,0 -0.373793,-0.13264 -0.07235,-0.0672 -0.144694,-0.13608 -0.01034,0.005 -0.01378,0.0276 -0.0017,0.0103 -0.0017,0.19292 l -0.0017,0.48576 q 0,0.0551 -0.03962,0.0551 -0.265273,0 -0.313504,-0.007 -0.039619,-0.005 -0.039619,-0.0448 0,-0.22049 0.00345,-0.66146 0.00345,-0.44097 0.00345,-0.66146 0,-0.4048 -0.051676,-0.75964 -0.00345,-0.0207 -0.00345,-0.0276 0,-0.0189 0.017225,-0.0241 0.065457,-0.003 0.191203,-0.019 0.16881,-0.031 0.189481,-0.031 0.02928,0 0.0379,0.10335 0.0052,0.0689 0.0086,0.13608 0,0.0138 0.01034,0.0276 0.01206,-0.007 0.02756,-0.0241 0.241157,-0.24633 0.487482,-0.24633 0.341064,0 0.575331,0.267 0.225654,0.25666 0.225654,0.60461 z m -0.403076,-0.007 q 0,-0.2067 -0.129192,-0.36346 -0.136081,-0.16708 -0.339342,-0.16708 -0.199815,0 -0.327284,0.17225 -0.117133,0.15503 -0.117133,0.36174 0,0.21015 0.120578,0.36518 0.132636,0.16708 0.33762,0.16708 0.19637,0 0.330729,-0.17397 0.124024,-0.16192 0.124024,-0.36174 z"
         style="font-style:normal;font-variant:normal;font-weight:normal;font-stretch:normal;font-size:3.52778px;font-family:'Berlin Sans FB';-inkscape-font-specification:'Berlin Sans FB';fill:#e8617a;fill-opacity:1;stroke-width:0.264583"
         id="path889" />
      <path
         d="m 13.654189,119.86148 q 0,0.007 -0.0052,0.031 -0.06718,0.39446 -0.06718,0.6804 0,0.0172 0.04306,0.77343 l 0.0017,0.0241 q 0.0017,0.05 -0.04651,0.05 -0.04651,0 -0.142972,0.0103 -0.09474,0.0121 -0.141249,0.0121 -0.03273,0 -0.04995,-0.12058 -0.01722,-0.12058 -0.03273,-0.12058 -0.01033,0 -0.09302,0.0672 -0.10163,0.0827 -0.18948,0.12575 -0.136081,0.0689 -0.272163,0.0689 -0.334174,0 -0.563273,-0.26699 -0.217041,-0.25494 -0.217041,-0.59428 0,-0.38241 0.218763,-0.63218 0.229099,-0.2601 0.602892,-0.2601 0.26355,0 0.459921,0.18259 0.02928,0.0345 0.09129,0.0999 0.0052,0.005 0.01034,0.005 0.01034,0 0.02928,-0.10852 0.01895,-0.10852 0.04823,-0.10852 0.04651,0 0.173978,0.0258 0.141249,0.031 0.141249,0.0551 z m -0.43925,0.72003 q 0,-0.21188 -0.125746,-0.36346 -0.132637,-0.16364 -0.339343,-0.16364 -0.206705,0 -0.344509,0.16192 -0.132637,0.15503 -0.132637,0.36518 0,0.20842 0.132637,0.36173 0.137804,0.1602 0.344509,0.1602 0.201539,0 0.33762,-0.16364 0.127469,-0.15331 0.127469,-0.35829 z"
         style="font-style:normal;font-variant:normal;font-weight:normal;font-stretch:normal;font-size:3.52778px;font-family:'Berlin Sans FB';-inkscape-font-specification:'Berlin Sans FB';fill:#e8617a;fill-opacity:1;stroke-width:0.264583"
         id="path891" />
      <path
         d="m 14.894424,121.10344 q 0,0.0379 -0.0069,0.10335 -0.0086,0.081 -0.01033,0.10508 -0.0017,0.031 -0.0052,0.0379 -0.0069,0.0121 -0.03273,0.0241 -0.141249,0.0672 -0.444417,0.0672 -0.403077,0 -0.403077,-0.36518 0,-0.14642 0.0069,-0.43925 0.0069,-0.29456 0.0069,-0.44097 0,-0.0706 -0.07062,-0.0758 -0.06373,0 -0.125746,-0.002 -0.03617,-0.009 -0.03617,-0.14125 0,-0.0499 0.0069,-0.10507 0.0052,-0.0413 0.05512,-0.05 0.04306,0 0.08441,-0.002 0.07924,-0.003 0.07924,-0.0706 0,-0.0689 -0.0052,-0.21015 -0.0034,-0.14125 -0.0034,-0.21187 0,-0.12575 0.04823,-0.12575 0.0155,0 0.323839,0.0534 0.03962,0.005 0.03962,0.0379 0,0.0758 -0.01206,0.22738 -0.01033,0.15158 -0.01033,0.22737 0,0.05 0.04651,0.05 h 0.413412 q 0.02928,0 0.02928,0.0207 0,0.0207 -0.0069,0.0672 -0.0052,0.0448 -0.0052,0.0672 0,0.0258 0.0017,0.0792 0.0017,0.0534 0.0017,0.0792 0,0.0327 -0.04823,0.0327 -0.0689,0 -0.208428,-0.009 -0.139527,-0.0103 -0.208428,-0.0103 -0.01378,0 -0.02067,0.0982 -0.0086,0.1223 -0.0086,0.34278 v 0.25666 q 0,0.14814 0.02756,0.20671 0.04134,0.0896 0.170532,0.0896 0.0534,0 0.156752,-0.0224 0.103353,-0.0241 0.153307,-0.0241 0.02067,0 0.02067,0.031 z"
         style="font-style:normal;font-variant:normal;font-weight:normal;font-stretch:normal;font-size:3.52778px;font-family:'Berlin Sans FB';-inkscape-font-specification:'Berlin Sans FB';fill:#e8617a;fill-opacity:1;stroke-width:0.264583"
         id="path893" />
    </g>
    <g
       aria-label=":^)"
       id="text840-6-7"
       style="font-style:normal;font-variant:normal;font-weight:bold;font-stretch:normal;font-size:3.52777px;line-height:1.25;font-family:Calibri;-inkscape-font-specification:'Calibri Bold';fill:#e8617a;fill-opacity:1;stroke:none;stroke-width:0.264583"
       inkscape:label="smiley">
      <path
         d="m 29.484368,120.07767 q 0,0.0723 -0.01206,0.12057 -0.01206,0.0482 -0.04134,0.0792 -0.02756,0.031 -0.07407,0.0448 -0.04651,0.0121 -0.117133,0.0121 -0.07062,0 -0.117133,-0.0121 -0.04651,-0.0138 -0.07579,-0.0448 -0.02756,-0.031 -0.0379,-0.0792 -0.01034,-0.0482 -0.01034,-0.12057 0,-0.0741 0.01034,-0.12403 0.01033,-0.0499 0.0379,-0.081 0.02928,-0.031 0.07579,-0.0448 0.04651,-0.0138 0.117133,-0.0138 0.07062,0 0.117133,0.0138 0.04651,0.0138 0.07407,0.0448 0.02928,0.031 0.04134,0.081 0.01206,0.05 0.01206,0.12403 z m 0,1.12482 q 0,0.0723 -0.01206,0.1223 -0.01206,0.0482 -0.04134,0.0792 -0.02756,0.031 -0.07407,0.0431 -0.04651,0.0138 -0.117133,0.0138 -0.07062,0 -0.117133,-0.0138 -0.04651,-0.0121 -0.07579,-0.0431 -0.02756,-0.031 -0.0379,-0.0792 -0.01034,-0.05 -0.01034,-0.1223 0,-0.0724 0.01034,-0.1223 0.01033,-0.0517 0.0379,-0.0827 0.02928,-0.031 0.07579,-0.0431 0.04651,-0.0138 0.117133,-0.0138 0.07062,0 0.117133,0.0138 0.04651,0.0121 0.07407,0.0431 0.02928,0.031 0.04134,0.0827 0.01206,0.0499 0.01206,0.1223 z"
         style="font-style:normal;font-variant:normal;font-weight:bold;font-stretch:normal;font-size:3.52777px;font-family:Calibri;-inkscape-font-specification:'Calibri Bold';fill:#e8617a;fill-opacity:1;stroke-width:0.264583"
         id="path878" />
      <path
         d="m 31.363663,120.41184 q 0.02239,0.0482 0.02756,0.0775 0.0052,0.0293 -0.01378,0.0448 -0.01723,0.0155 -0.06201,0.0207 -0.04306,0.003 -0.118855,0.003 -0.06718,0 -0.111966,-0.003 -0.04306,-0.005 -0.07235,-0.0138 -0.02756,-0.0103 -0.04306,-0.0241 -0.01378,-0.0155 -0.02239,-0.0362 l -0.380683,-0.93189 -0.0086,0.002 -0.36518,0.93017 q -0.0086,0.0207 -0.02412,0.0362 -0.01378,0.0138 -0.04134,0.0241 -0.02756,0.009 -0.07235,0.0138 -0.04306,0.003 -0.110243,0.003 -0.07579,0 -0.118855,-0.003 -0.04134,-0.005 -0.06029,-0.0207 -0.01722,-0.0155 -0.01206,-0.0448 0.0052,-0.0293 0.02756,-0.0775 l 0.496093,-1.12999 q 0.01033,-0.0224 0.03101,-0.0379 0.02067,-0.0172 0.05512,-0.0276 0.03617,-0.0121 0.08613,-0.0172 0.04995,-0.007 0.118856,-0.007 0.0689,0 0.118856,0.007 0.05168,0.005 0.08613,0.0172 0.03445,0.0103 0.05512,0.0276 0.02067,0.0155 0.03101,0.0379 z"
         style="font-style:normal;font-variant:normal;font-weight:bold;font-stretch:normal;font-size:3.52777px;font-family:Calibri;-inkscape-font-specification:'Calibri Bold';fill:#e8617a;fill-opacity:1;stroke-width:0.264583"
         id="path880" />
      <path
         d="m 32.366184,120.51175 q 0,0.19465 -0.02239,0.38413 -0.02239,0.18775 -0.0689,0.37379 -0.04479,0.18431 -0.113688,0.36518 -0.06718,0.18259 -0.160196,0.36173 -0.0052,0.0121 -0.01895,0.0207 -0.01206,0.0103 -0.03617,0.0155 -0.02239,0.007 -0.05684,0.0103 -0.03445,0.003 -0.08268,0.003 -0.07062,0 -0.110243,-0.007 -0.0379,-0.007 -0.05684,-0.0207 -0.01895,-0.0138 -0.01895,-0.0344 0,-0.0189 0.01034,-0.0465 0.142971,-0.33761 0.21704,-0.69418 0.07579,-0.35829 0.07579,-0.73553 0,-0.37551 -0.07407,-0.73208 -0.07407,-0.35829 -0.220486,-0.69418 -0.0086,-0.0224 -0.0069,-0.0413 0.0034,-0.019 0.02412,-0.031 0.02239,-0.0121 0.06029,-0.0172 0.03962,-0.007 0.103352,-0.007 0.0534,0 0.08785,0.003 0.03445,0.002 0.05684,0.009 0.02239,0.005 0.03101,0.0121 0.01034,0.007 0.0155,0.0155 0.179144,0.36174 0.272162,0.73208 0.09302,0.36863 0.09302,0.75448 z"
         style="font-style:normal;font-variant:normal;font-weight:bold;font-stretch:normal;font-size:3.52777px;font-family:Calibri;-inkscape-font-specification:'Calibri Bold';fill:#e8617a;fill-opacity:1;stroke-width:0.264583"
         id="path882" />
    </g>
    <circle
       style="fill:#00ff00;stroke-width:0.4895"
       id="path2113"
       cx="-36.461998"
       cy="16.224941"
       r="4.178" />
    <circle
       style="fill:#ff0000;stroke-width:0.648898"
       id="path2113-6"
       cx="-37.641499"
       cy="37.66354"
       r="5.5384998" />
    <g
       aria-label="bpm"
       id="text194"
       style="font-size:3.175px;line-height:1.25;font-family:'Berlin Sans FB';-inkscape-font-specification:'Berlin Sans FB';fill:#e8617a;stroke-width:0.264583">
      <path
         d="m 8.7662848,16.179609 q 0,0.306958 -0.190686,0.534851 -0.2030884,0.241845 -0.5053955,0.241845 -0.2015381,0 -0.3550171,-0.102319 -0.062012,-0.05271 -0.1240234,-0.10387 -0.017053,0.0047 -0.023254,0.09302 -0.00465,0.08837 -0.024805,0.08837 H 7.2159919 q -0.018603,0 -0.018603,-0.02015 0,0.0016 0.0031,-0.02791 0.024805,-0.248047 0.024805,-0.94878 0,-0.286804 -0.024805,-0.841809 -0.015503,-0.353467 -0.015503,-0.310058 0,-0.04031 0.040308,-0.04496 0.055811,-0.0015 0.1658814,-0.0062 0.021704,-0.0015 0.088367,-0.01085 0.05581,-0.0093 0.089917,-0.0093 0.024805,0 0.024805,0.03566 0,0.05271 -0.00775,0.16123 -0.00775,0.108521 -0.00775,0.162781 0,0.08061 -0.00775,0.243396 -0.0062,0.161231 -0.0062,0.241846 0,0.05891 0.021704,0.05891 0.010852,0 0.023254,-0.01705 0.1705322,-0.21239 0.4511352,-0.21239 0.3209107,0 0.5193482,0.240295 0.1860351,0.226343 0.1860351,0.553455 z m -0.3503662,-0.01395 q 0,-0.184485 -0.116272,-0.325562 -0.1240234,-0.150378 -0.3054077,-0.150378 -0.1860351,0 -0.3100586,0.147278 -0.1193725,0.139526 -0.1193725,0.328662 0,0.192236 0.1193725,0.331763 0.1240235,0.145727 0.3131592,0.145727 0.1829346,0 0.3054077,-0.150378 0.1131714,-0.139527 0.1131714,-0.327112 z"
         style="fill:#e8617a;stroke-width:0.264583"
         id="path1165" />
      <path
         d="m 10.53827,16.182709 q 0,0.313159 -0.198438,0.544153 -0.207739,0.243396 -0.5162474,0.243396 -0.1922363,0 -0.3364135,-0.119373 -0.065112,-0.06046 -0.1302246,-0.122473 -0.0093,0.0047 -0.012402,0.02481 -0.00155,0.0093 -0.00155,0.173633 l -0.00155,0.437182 q 0,0.04961 -0.035657,0.04961 -0.2387451,0 -0.2821533,-0.0062 -0.035657,-0.0047 -0.035657,-0.04031 0,-0.198438 0.0031,-0.595313 0.0031,-0.396875 0.0031,-0.595312 0,-0.364319 -0.046509,-0.683679 -0.0031,-0.0186 -0.0031,-0.02481 0,-0.01705 0.015503,-0.0217 0.058911,-0.0031 0.1720825,-0.01705 0.1519287,-0.02791 0.1705322,-0.02791 0.026355,0 0.034107,0.09302 0.00465,0.06201 0.00775,0.122473 0,0.0124 0.0093,0.02481 0.010852,-0.0062 0.024805,-0.0217 0.217041,-0.221692 0.4387329,-0.221692 0.3069572,0 0.5177972,0.240295 0.203089,0.230994 0.203089,0.544153 z m -0.362769,-0.0062 q 0,-0.186035 -0.116272,-0.327112 -0.122473,-0.150378 -0.3054075,-0.150378 -0.179834,0 -0.2945557,0.155029 -0.1054199,0.139526 -0.1054199,0.325562 0,0.189135 0.1085205,0.328662 0.1193725,0.150378 0.3038574,0.150378 0.1767334,0 0.2976562,-0.15658 0.111621,-0.145727 0.111621,-0.325561 z"
         style="fill:#e8617a;stroke-width:0.264583"
         id="path1167" />
      <path
         d="m 13.13501,16.871039 q 0,0.06046 -0.03566,0.06046 -0.02326,0 -0.07131,-0.0047 -0.04651,-0.0047 -0.07131,-0.0047 -0.02636,0 -0.07906,0.0031 -0.05271,0.0031 -0.07907,0.0031 -0.03256,0 -0.03256,-0.07286 0,-0.07131 0.0047,-0.21239 0.0062,-0.142627 0.0062,-0.21394 0,-0.392224 -0.0031,-0.437183 -0.0124,-0.15968 -0.06511,-0.220141 -0.06046,-0.06511 -0.215491,-0.06511 -0.09767,0 -0.220141,0.09302 -0.127125,0.09767 -0.131775,0.192236 -0.0062,0.120923 -0.0062,0.441834 0,0.07596 0.0062,0.227893 0.0062,0.151928 0.0062,0.227893 0,0.04186 -0.02791,0.04186 -0.02791,0 -0.08217,-0.0047 -0.05271,-0.0047 -0.08061,-0.0047 -0.0248,0 -0.07286,0.0031 -0.04806,0.0031 -0.07286,0.0031 -0.03101,0 -0.03101,-0.04496 0,-0.07441 0.0047,-0.223243 0.0047,-0.150378 0.0047,-0.224792 v -0.373621 q 0,-0.175183 -0.04186,-0.249597 -0.05891,-0.10542 -0.224792,-0.10542 -0.09767,0 -0.232544,0.08217 -0.148828,0.08992 -0.148828,0.181384 v 0.452686 q 0,0.07751 0.0015,0.230993 0.0015,0.153479 0.0015,0.229444 0,0.04496 -0.03566,0.04496 h -0.288355 q -0.03101,0 -0.03101,-0.04186 0,-0.125574 0.0015,-0.376721 0.0016,-0.252698 0.0016,-0.378272 0,-0.283703 -0.06046,-0.565856 -0.0047,-0.02015 -0.0047,-0.03256 0,-0.02015 0.01395,-0.02325 0.05736,-0.0062 0.167432,-0.02325 0.05116,-0.0155 0.153479,-0.03411 l 0.0124,-0.0016 q 0.0186,0 0.03411,0.110071 0.01705,0.10852 0.02946,0.10852 0,0 0.07752,-0.06821 0.09147,-0.07906 0.182934,-0.125573 0.131775,-0.06821 0.26355,-0.06821 0.356567,0 0.454236,0.291455 0.09612,-0.124024 0.238745,-0.204639 0.151929,-0.08682 0.300757,-0.08682 0.286804,0 0.396875,0.167431 0.07906,0.124024 0.07906,0.392224 0,0.05116 -0.0031,0.15813 -0.0031,0.106971 -0.0031,0.15813 0,0.09767 0.0047,0.294556 0.0046,0.195337 0.0046,0.293005 z"
         style="fill:#e8617a;stroke-width:0.264583"
         id="path1169" />
    </g>
    <g
       aria-label="cv"
       id="text194-1"
       style="font-size:3.175px;line-height:1.25;font-family:'Berlin Sans FB';-inkscape-font-specification:'Berlin Sans FB';fill:#e8617a;stroke-width:0.264583">
      <path
         d="m 22.68404,15.411439 q 0,0.03411 -0.03566,0.151928 -0.03566,0.117823 -0.04961,0.117823 -0.06976,-0.03101 -0.141077,-0.06201 -0.06976,-0.03101 -0.153479,-0.03101 -0.190686,0 -0.31781,0.141077 -0.127124,0.141076 -0.127124,0.333313 0,0.189136 0.127124,0.327112 0.130225,0.142627 0.31781,0.142627 0.10387,0 0.204639,-0.05116 0.100769,-0.05116 0.08837,-0.05116 0.02015,0 0.04496,0.130225 0.02326,0.117822 0.02326,0.162781 0,0.04806 -0.181385,0.09457 -0.151928,0.03876 -0.224792,0.03876 -0.319361,0 -0.539502,-0.238745 -0.215491,-0.232544 -0.215491,-0.555005 0,-0.328662 0.21084,-0.558106 0.217041,-0.235644 0.541052,-0.235644 0.217041,0 0.396875,0.110071 0.03101,0.0186 0.03101,0.03256 z"
         style="fill:#e8617a;stroke-width:0.264583"
         id="path1172" />
      <path
         d="m 24.215729,15.791261 q 0,0.218591 -0.01395,0.254248 -0.02325,0.06976 -0.251148,0.407727 -0.234094,0.345715 -0.279052,0.364318 -0.0217,0.0093 -0.130225,0.0093 -0.10387,0 -0.136426,-0.0093 -0.04341,-0.01395 -0.283703,-0.350366 -0.234095,-0.327112 -0.262,-0.398425 -0.03721,-0.09767 -0.03721,-0.302307 0,-0.06356 0.0031,-0.190686 0.0031,-0.127124 0.0031,-0.190686 0,-0.03411 0.03411,-0.03411 0.05116,0 0.151928,0.0047 0.10232,0.0047 0.153479,0.0047 0.02791,0 0.02791,0.03101 0,0.04961 -0.0062,0.147278 -0.0062,0.09612 -0.0062,0.145727 0,0.142627 0.0155,0.26045 0.0078,0.05891 0.15658,0.288354 0.150378,0.229443 0.186035,0.229443 0.03411,0 0.168982,-0.224792 0.133325,-0.220142 0.142627,-0.277503 0.0124,-0.07751 0.0124,-0.26665 0,-0.05116 -0.01085,-0.153479 -0.0093,-0.102319 -0.0093,-0.153479 0,-0.02325 0.02325,-0.02325 0.05116,0 0.150378,-0.0047 0.09922,-0.0062 0.148828,-0.0062 0.04806,0 0.04806,0.438733 z"
         style="fill:#e8617a;stroke-width:0.264583"
         id="path1174" />
    </g>
    <g
       aria-label="out"
       id="text1067"
       style="font-size:3.175px;line-height:1.25;font-family:'Berlin Sans FB';-inkscape-font-specification:'Berlin Sans FB';fill:#e8617a;stroke-width:0.264583"
       transform="translate(-1.0000001e-6,-5.2e-5)">
      <path
         d="m 32.354148,16.288129 q 0,0.324011 -0.21239,0.553454 -0.217041,0.237195 -0.537952,0.237195 -0.322461,0 -0.539502,-0.235644 -0.21239,-0.227894 -0.21239,-0.551905 0,-0.324011 0.21239,-0.551904 0.218591,-0.232544 0.539502,-0.232544 0.31936,0 0.536401,0.232544 0.213941,0.226343 0.213941,0.548804 z m -0.327112,0.0031 q 0,-0.189135 -0.116272,-0.322461 -0.120923,-0.141076 -0.306958,-0.141076 -0.186035,0 -0.308508,0.139526 -0.116272,0.134876 -0.116272,0.324011 0,0.186035 0.117822,0.322461 0.124023,0.144177 0.306958,0.144177 0.184485,0 0.306958,-0.144177 0.116272,-0.136426 0.116272,-0.322461 z"
         style="fill:#e8617a;stroke-width:0.264583"
         id="path1177" />
      <path
         d="m 34.00831,15.637006 q 0,0.113171 -0.0093,0.342614 -0.0093,0.227893 -0.0093,0.342615 0,0.113172 0.0062,0.339514 0.0078,0.224793 0.0078,0.337964 0,0.03101 -0.02945,0.04031 -0.0124,0.0031 -0.31471,0.0031 -0.0186,0 -0.02325,-0.116272 -0.0031,-0.116272 -0.01705,-0.116272 -0.0078,0 -0.02325,0.01395 -0.258899,0.224793 -0.511596,0.224793 -0.342615,0 -0.452686,-0.248047 -0.06821,-0.153479 -0.06821,-0.551905 0,-0.359668 0.05736,-0.609265 0.01395,-0.06046 0.05116,-0.06046 0.04496,0 0.134875,0.0015 0.08992,0.0015 0.134876,0.0015 0.03101,0 0.03101,0.03411 0,0.06046 -0.02015,0.201538 -0.0217,0.150378 -0.02326,0.21239 -0.0047,0.09302 -0.0047,0.204639 0,0.271301 0.03876,0.364319 0.06666,0.167431 0.296106,0.167431 0.09767,0 0.230993,-0.09612 0.141077,-0.100769 0.145728,-0.193787 0.0078,-0.116272 0.0078,-0.818554 0,-0.07597 0.06356,-0.07597 h 0.255799 q 0.04496,0 0.04496,0.05426 z"
         style="fill:#e8617a;stroke-width:0.264583"
         id="path1179" />
      <path
         d="m 35.188083,16.757867 q 0,0.03411 -0.0062,0.09302 -0.0078,0.07286 -0.0093,0.09457 -0.0016,0.02791 -0.0047,0.03411 -0.0062,0.01085 -0.02945,0.0217 -0.127124,0.06046 -0.399976,0.06046 -0.362768,0 -0.362768,-0.328662 0,-0.131775 0.0062,-0.395325 0.0062,-0.2651 0.0062,-0.396875 0,-0.06356 -0.06356,-0.06821 -0.05736,0 -0.113171,-0.0015 -0.03256,-0.0078 -0.03256,-0.127124 0,-0.04496 0.0062,-0.09457 0.0047,-0.03721 0.04961,-0.04496 0.03876,0 0.07596,-0.0015 0.07131,-0.0031 0.07131,-0.06356 0,-0.06201 -0.0047,-0.189136 -0.0031,-0.127124 -0.0031,-0.190686 0,-0.113171 0.04341,-0.113171 0.01395,0 0.291456,0.04806 0.03566,0.0047 0.03566,0.03411 0,0.06821 -0.01085,0.204638 -0.0093,0.136426 -0.0093,0.204639 0,0.04496 0.04186,0.04496 h 0.372071 q 0.02635,0 0.02635,0.0186 0,0.0186 -0.0062,0.06046 -0.0047,0.04031 -0.0047,0.06046 0,0.02325 0.0016,0.07131 0.0016,0.04806 0.0016,0.07131 0,0.02946 -0.04341,0.02946 -0.06201,0 -0.187585,-0.0078 -0.125574,-0.0093 -0.187586,-0.0093 -0.0124,0 -0.0186,0.08837 -0.0078,0.110071 -0.0078,0.308508 v 0.230994 q 0,0.133325 0.02481,0.186035 0.03721,0.08062 0.153479,0.08062 0.04806,0 0.141076,-0.02015 0.09302,-0.0217 0.137977,-0.0217 0.0186,0 0.0186,0.02791 z"
         style="fill:#e8617a;stroke-width:0.264583"
         id="path1181" />
    </g>
    <g
       aria-label="1"
       id="text1071"
       style="font-size:3.175px;line-height:1.25;font-family:'Berlin Sans FB';-inkscape-font-specification:'Berlin Sans FB';fill:#e8617a;stroke-width:0.264583"
       transform="translate(-15.239968,-8.0312302)">
      <path
         d="m 20.659512,41.28585 q 0,0.0078 -0.0016,0.0279 -0.03566,0.280603 -0.03566,0.920874 0,0.136426 0.0031,0.410828 0.0031,0.274402 0.0031,0.410827 0,0.06046 -0.05116,0.06046 -0.05116,0 -0.147278,0.0031 -0.09612,0.0031 -0.144177,0.0031 -0.04806,0 -0.04806,-0.03876 0,-0.03256 0.02015,-0.570508 0.0093,-0.260449 0.0093,-0.759644 0,-0.03566 -0.0155,-0.03566 -0.03721,0 -0.117823,0.0248 -0.07906,0.02481 -0.117822,0.02481 -0.03566,0 -0.03566,-0.0186 0,-0.0186 0.0031,-0.05581 0.0047,-0.03721 0.0047,-0.05581 0,-0.01705 -0.0031,-0.05116 -0.0031,-0.03411 -0.0031,-0.05116 0,-0.02015 0.03411,-0.03411 0.08992,-0.03721 0.190686,-0.127125 0.0047,-0.0046 0.08527,-0.09302 0.06976,-0.07596 0.07751,-0.07596 -0.0016,0 0.128674,0.0279 0.04806,0.0062 0.139526,0.02325 0.02171,0.0062 0.02171,0.02946 z"
         style="fill:#e8617a;stroke-width:0.264583"
         id="path1184" />
    </g>
    <g
       aria-label="2"
       id="text1071-8"
       style="font-size:3.175px;line-height:1.25;font-family:'Berlin Sans FB';-inkscape-font-specification:'Berlin Sans FB';fill:#e8617a;stroke-width:0.264583"
       transform="translate(-5.080002,16.062459)">
      <path
         d="m 10.900263,34.786298 q 0,0.04496 -0.0047,0.139527 -0.0047,0.09302 -0.0047,0.139526 0,0.03411 -0.05116,0.03411 0.01705,0 -0.147278,-0.0124 -0.162781,-0.0124 -0.485242,-0.0124 -0.110071,0 -0.3333129,0.0047 -0.2216919,0.0047 -0.333313,0.0047 -0.035657,0 -0.044958,-0.03101 L 9.45539,34.829707 q 0,-0.0186 0.1085205,-0.03721 0.1209228,-0.0217 0.1519287,-0.04806 0.2154907,-0.187585 0.4232298,-0.443383 0.268201,-0.333313 0.268201,-0.505396 0,-0.141076 -0.114722,-0.232544 -0.10697,-0.08527 -0.249597,-0.08527 -0.1379761,0 -0.2759521,0.05426 -0.094568,0.03721 -0.1891358,0.09922 -0.080615,0.05426 -0.080615,0.05426 -0.012402,0 -0.017053,-0.0015 -0.015503,-0.0078 -0.018604,-0.05426 -0.00155,-0.03721 -0.0093,-0.10697 -0.032556,-0.141077 -0.032556,-0.114722 0,-0.0124 0.023254,-0.02946 0.1240235,-0.09457 0.3193604,-0.155029 0.1875854,-0.05736 0.3534665,-0.05736 0.285254,0 0.469739,0.133325 0.209289,0.150379 0.209289,0.426331 0,0.300757 -0.545703,0.843359 -0.06046,0.07131 -0.190686,0.203089 0.04031,0.0031 0.100769,0.0031 0.303857,0 0.696082,-0.03721 l 0.0124,-0.0016 q 0.03256,0 0.03256,0.04961 z"
         style="fill:#e8617a;stroke-width:0.264583"
         id="path1187" />
    </g>
    <g
       aria-label="4
"
       id="text1093"
       style="font-size:3.175px;line-height:1.25;font-family:'Berlin Sans FB';-inkscape-font-specification:'Berlin Sans FB';fill:#e8617a;stroke-width:0.264583"
       transform="translate(-15.240041,16.062381)">
      <path
         d="m 31.232665,34.6615 q 0,0.02946 -0.03411,0.02791 -0.05581,-0.0031 -0.15813,-0.0031 -0.03721,0 -0.04341,0.0047 -0.0124,0.0078 -0.0124,0.04341 0,0.05426 0.0078,0.164331 0.0093,0.10852 0.0093,0.16278 0,0.03411 -0.03876,0.04031 -0.05271,0.0093 -0.181384,0.0093 -0.217041,0 -0.217041,-0.03411 0,-0.04496 0.01705,-0.170532 0.01705,-0.125574 0.01705,-0.184485 0,-0.03566 -0.02635,-0.03566 -0.125573,0 -0.376721,0.0078 -0.249597,0.0078 -0.375171,0.0078 -0.09302,0 -0.09302,-0.190686 0,-0.150378 0.02946,-0.186035 0.106971,-0.122473 0.306958,-0.375171 0.249598,-0.350366 0.387574,-0.559655 0.04341,-0.06821 0.133325,-0.203089 0.0248,-0.03256 0.04806,-0.03256 0.10697,0 0.327112,0.08062 0.04806,0.01705 0.04806,0.05736 0,0.07906 -0.0124,0.238745 -0.01085,0.15813 -0.01085,0.237195 0,0.07131 -0.0016,0.244946 -0.0031,0.15658 -0.0015,0.244947 v 0.125573 q 0.04031,0 0.117822,-0.0062 0.07906,-0.0062 0.117822,-0.0062 0.0124,0 0.0124,0.02636 0,0.04341 0.0015,0.131775 0.0016,0.08682 0.0016,0.131775 z m -0.578259,-1.105359 q 0,-0.0124 -0.0093,-0.0186 -0.01395,0 -0.04031,0.05271 -0.0155,0.03411 -0.03256,0.06666 -0.2682,0.359668 -0.536401,0.725537 0.0078,0.01705 0.125574,0.01705 h 0.06356 q 0.258899,0 0.386023,-0.0078 0.0016,-0.190686 0.0047,-0.381372 0.0062,-0.243396 0.02635,-0.372071 0.0124,-0.07441 0.0124,-0.08217 z"
         style="fill:#e8617a;stroke-width:0.264583"
         id="path1190" />
    </g>
    <g
       aria-label="8"
       id="text1099"
       style="font-size:3.175px;line-height:1.25;font-family:'Berlin Sans FB';-inkscape-font-specification:'Berlin Sans FB';fill:#e8617a;stroke-width:0.264583"
       transform="translate(15.24)">
      <path
         d="m 10.844452,50.619337 q 0,0.258899 -0.198437,0.413929 -0.184485,0.145727 -0.465088,0.145727 -0.3100587,0 -0.4929933,-0.134875 -0.2123901,-0.15503 -0.2123901,-0.465088 0,-0.282153 0.2418457,-0.417029 -0.079065,-0.06201 -0.1286743,-0.176733 -0.049609,-0.116272 -0.049609,-0.234095 0,-0.261999 0.1984375,-0.409277 0.1782837,-0.130225 0.4495845,-0.130225 0.244946,0 0.427881,0.141077 0.201538,0.151929 0.201538,0.389124 0,0.120923 -0.06046,0.243396 -0.06046,0.127124 -0.159681,0.193786 0.248047,0.141077 0.248046,0.440283 z m -0.345715,-0.858862 q 0,-0.10697 -0.08837,-0.184485 -0.08682,-0.07751 -0.21394,-0.07751 -0.147278,0 -0.2325441,0.05891 -0.085266,0.05891 -0.085266,0.153479 0,0.122473 0.1782831,0.215491 0.08062,0.04341 0.300757,0.114721 0.141077,-0.117822 0.141077,-0.280603 z m -0.02481,0.882117 q 0,-0.141077 -0.186035,-0.232544 -0.150378,-0.05891 -0.302307,-0.116272 -0.1705323,0.116272 -0.1705323,0.305408 0,0.130224 0.086816,0.21084 0.094568,0.08837 0.2666513,0.08837 0.305407,0 0.305407,-0.255798 z"
         style="fill:#e8617a;stroke-width:0.264583"
         id="path1193" />
    </g>
    <g
       aria-label="16"
       id="text1103"
       style="font-size:3.175px;line-height:1.25;font-family:'Berlin Sans FB';-inkscape-font-specification:'Berlin Sans FB';fill:#e8617a;stroke-width:0.264583"
       transform="translate(5.0799809)">
      <path
         d="m 29.959099,49.29771 q 0,0.0078 -0.0015,0.0279 -0.03566,0.280603 -0.03566,0.920874 0,0.136426 0.0031,0.410828 0.0031,0.274401 0.0031,0.410827 0,0.06046 -0.05116,0.06046 -0.05116,0 -0.147278,0.0031 -0.09612,0.0031 -0.144177,0.0031 -0.04806,0 -0.04806,-0.03876 0,-0.03256 0.02015,-0.570508 0.0093,-0.26045 0.0093,-0.759644 0,-0.03566 -0.0155,-0.03566 -0.03721,0 -0.117823,0.02481 -0.07906,0.02481 -0.117822,0.02481 -0.03566,0 -0.03566,-0.0186 0,-0.0186 0.0031,-0.05581 0.0047,-0.03721 0.0047,-0.05581 0,-0.01705 -0.0031,-0.05116 -0.0031,-0.03411 -0.0031,-0.05116 0,-0.02015 0.03411,-0.03411 0.08992,-0.03721 0.190686,-0.127124 0.0047,-0.0047 0.08527,-0.09302 0.06976,-0.07596 0.07752,-0.07596 -0.0016,0 0.128674,0.02791 0.04806,0.0062 0.139527,0.02325 0.0217,0.0062 0.0217,0.02946 z"
         style="fill:#e8617a;stroke-width:0.264583"
         id="path1196" />
      <path
         d="m 31.679924,50.455779 q 0,0.328662 -0.190686,0.523999 -0.190686,0.193786 -0.519348,0.193786 -0.356568,0 -0.551904,-0.251147 -0.178284,-0.227893 -0.178284,-0.593763 0,-0.448034 0.31781,-0.776696 0.31781,-0.328662 0.764294,-0.328662 0.02946,0 0.04186,0.03256 0.07906,0.218591 0.07906,0.221692 0,0.04496 -0.05736,0.04496 -0.217041,0 -0.387573,0.08837 -0.220141,0.114722 -0.305408,0.302307 -0.01085,0.02481 -0.01085,0.03876 0,0.0186 0.0155,0.01705 0.09302,-0.03566 0.184485,-0.07131 0.09922,-0.03256 0.195337,-0.03256 0.2651,0 0.434082,0.162781 0.168982,0.16278 0.168982,0.427881 z m -0.333313,0.0062 q 0,-0.15658 -0.09922,-0.257349 -0.09922,-0.102319 -0.255798,-0.102319 -0.393774,0 -0.393774,0.31781 0,0.179834 0.09147,0.31626 0.10542,0.153479 0.277502,0.153479 0.379822,0 0.379822,-0.427881 z"
         style="fill:#e8617a;stroke-width:0.264583"
         id="path1198" />
    </g>
    <g
       aria-label="1/4"
       id="text1103-3"
       style="font-size:3.175px;line-height:1.25;font-family:'Berlin Sans FB';-inkscape-font-specification:'Berlin Sans FB';fill:#e8617a;stroke-width:0.264583">
      <path
         d="m 4.1126158,71.447955 q 0,0.0078 -0.00155,0.02791 -0.035657,0.280603 -0.035657,0.920874 0,0.136425 0.0031,0.410827 0.0031,0.274402 0.0031,0.410828 0,0.06046 -0.05116,0.06046 -0.05116,0 -0.1472778,0.0031 -0.096118,0.0031 -0.1441773,0.0031 -0.048059,0 -0.048059,-0.03876 0,-0.03256 0.020154,-0.570508 0.0093,-0.260449 0.0093,-0.759643 0,-0.03566 -0.015503,-0.03566 -0.037207,0 -0.1178223,0.02481 -0.079065,0.0248 -0.1178223,0.0248 -0.035657,0 -0.035657,-0.0186 0,-0.0186 0.0031,-0.05581 0.00465,-0.03721 0.00465,-0.05581 0,-0.01705 -0.0031,-0.05116 -0.0031,-0.03411 -0.0031,-0.05116 0,-0.02015 0.034106,-0.03411 0.089917,-0.03721 0.1906861,-0.127124 0.00465,-0.0047 0.085266,-0.09302 0.069763,-0.07596 0.077515,-0.07596 -0.00155,0 0.1286743,0.02791 0.048059,0.0062 0.1395264,0.02325 0.021704,0.0062 0.021704,0.02945 z"
         style="fill:#e8617a;stroke-width:0.264583"
         id="path1201" />
      <path
         d="m 5.1451109,71.20611 q 0,0.0078 -0.0062,0.03721 -0.097669,0.367419 -0.2852539,1.102258 -0.060461,0.238745 -0.179834,0.736389 -0.024805,0.119373 -0.083716,0.351917 -0.010852,0.03101 -0.026355,0.03101 -0.2046387,-0.08217 -0.2185913,-0.09147 -0.0062,-0.0031 -0.0062,-0.0155 0,-0.0155 0.0093,-0.04496 0.1054199,-0.362769 0.2945556,-1.136365 0.080615,-0.350366 0.2542481,-1.047998 0.0093,-0.03101 0.024805,-0.03101 0.010852,0 0.1162719,0.04806 0.1069702,0.04651 0.1069702,0.06046 z"
         style="fill:#e8617a;stroke-width:0.264583"
         id="path1203" />
      <path
         d="m 6.7264097,72.860272 q 0,0.02946 -0.034106,0.02791 -0.055811,-0.0031 -0.1581299,-0.0031 -0.037207,0 -0.043408,0.0047 -0.012402,0.0078 -0.012402,0.04341 0,0.05426 0.00775,0.164331 0.0093,0.108521 0.0093,0.162781 0,0.03411 -0.038757,0.04031 -0.05271,0.0093 -0.1813842,0.0093 -0.217041,0 -0.217041,-0.03411 0,-0.04496 0.017053,-0.170532 0.017053,-0.125574 0.017053,-0.184485 0,-0.03566 -0.026355,-0.03566 -0.1255737,0 -0.3767212,0.0078 -0.2495971,0.0078 -0.3751709,0.0078 -0.093018,0 -0.093018,-0.190686 0,-0.150379 0.029456,-0.186035 0.1069703,-0.122473 0.306958,-0.375171 0.2495972,-0.350366 0.3875733,-0.559656 0.043408,-0.06821 0.1333252,-0.203088 0.024805,-0.03256 0.048059,-0.03256 0.1069702,0 0.3271118,0.08062 0.048059,0.01705 0.048059,0.05736 0,0.07906 -0.012402,0.238745 -0.010852,0.15813 -0.010852,0.237194 0,0.07131 -0.00155,0.244947 -0.0031,0.156579 -0.00155,0.244946 v 0.125574 q 0.040308,0 0.1178222,-0.0062 0.079065,-0.0062 0.1178223,-0.0062 0.012402,0 0.012402,0.02635 0,0.04341 0.00155,0.131775 0.00155,0.08682 0.00155,0.131775 z M 6.1481505,71.754913 q 0,-0.0124 -0.0093,-0.0186 -0.013953,0 -0.040308,0.05271 -0.015503,0.03411 -0.032556,0.06666 -0.2682007,0.359668 -0.5364013,0.725537 0.00775,0.01705 0.1255737,0.01705 h 0.063562 q 0.2588989,0 0.386023,-0.0078 0.00155,-0.190686 0.00465,-0.381372 0.0062,-0.243396 0.026355,-0.37207 0.012402,-0.07441 0.012402,-0.08217 z"
         style="fill:#e8617a;stroke-width:0.264583"
         id="path1205" />
    </g>
    <g
       aria-label="1/2
"
       id="text1125"
       style="font-size:3.175px;line-height:1.25;font-family:'Berlin Sans FB';-inkscape-font-specification:'Berlin Sans FB';fill:#e8617a;stroke-width:0.264583">
      <path
         d="m 4.1281187,83.494815 q 0,0.0078 -0.00155,0.02791 -0.035657,0.280603 -0.035657,0.920874 0,0.136426 0.0031,0.410828 0.0031,0.274402 0.0031,0.410828 0,0.06046 -0.05116,0.06046 -0.05116,0 -0.1472778,0.0031 -0.096118,0.0031 -0.1441773,0.0031 -0.048059,0 -0.048059,-0.03876 0,-0.03256 0.020154,-0.570508 0.0093,-0.260449 0.0093,-0.759643 0,-0.03566 -0.015503,-0.03566 -0.037207,0 -0.1178223,0.02481 -0.079065,0.0248 -0.1178222,0.0248 -0.035657,0 -0.035657,-0.0186 0,-0.0186 0.0031,-0.05581 0.00465,-0.03721 0.00465,-0.05581 0,-0.01705 -0.0031,-0.05116 -0.0031,-0.03411 -0.0031,-0.05116 0,-0.02015 0.034107,-0.03411 0.089917,-0.03721 0.190686,-0.127124 0.00465,-0.0047 0.085266,-0.09302 0.069763,-0.07596 0.077515,-0.07596 -0.00155,0 0.1286743,0.02791 0.048059,0.0062 0.1395263,0.02326 0.021704,0.0062 0.021704,0.02945 z"
         style="fill:#e8617a;stroke-width:0.264583"
         id="path1208" />
      <path
         d="m 5.1606139,83.252969 q 0,0.0078 -0.0062,0.03721 -0.097669,0.36742 -0.2852539,1.102259 -0.060461,0.238745 -0.179834,0.736389 -0.024805,0.119372 -0.083716,0.351916 -0.010852,0.03101 -0.026355,0.03101 -0.2046387,-0.08217 -0.2185913,-0.09147 -0.0062,-0.0031 -0.0062,-0.0155 0,-0.0155 0.0093,-0.04496 0.1054199,-0.362769 0.2945557,-1.136365 0.080615,-0.350366 0.254248,-1.047998 0.0093,-0.03101 0.024805,-0.03101 0.010852,0 0.116272,0.04806 0.1069702,0.04651 0.1069702,0.06046 z"
         style="fill:#e8617a;stroke-width:0.264583"
         id="path1210" />
      <path
         d="m 6.7109068,85.043558 q 0,0.04496 -0.00465,0.139526 -0.00465,0.09302 -0.00465,0.139526 0,0.03411 -0.05116,0.03411 0.017053,0 -0.1472779,-0.0124 -0.1627807,-0.0124 -0.4852417,-0.0124 -0.1100708,0 -0.3333129,0.0047 -0.2216919,0.0047 -0.333313,0.0047 -0.035657,0 -0.044958,-0.03101 l -0.040308,-0.223242 q 0,-0.0186 0.1085205,-0.03721 0.1209228,-0.0217 0.1519287,-0.04806 0.2154907,-0.187586 0.42323,-0.443384 0.2682006,-0.333313 0.2682006,-0.505395 0,-0.141077 -0.1147216,-0.232544 -0.1069703,-0.08527 -0.2495972,-0.08527 -0.1379761,0 -0.2759522,0.05426 -0.094568,0.03721 -0.1891357,0.09922 -0.080615,0.05426 -0.080615,0.05426 -0.012402,0 -0.017053,-0.0016 -0.015503,-0.0078 -0.018604,-0.05426 -0.00155,-0.03721 -0.0093,-0.10697 -0.032556,-0.141077 -0.032556,-0.114722 0,-0.0124 0.023254,-0.02945 0.1240235,-0.09457 0.3193604,-0.15503 0.1875854,-0.05736 0.3534668,-0.05736 0.2852539,0 0.4697387,0.133325 0.2092896,0.150378 0.2092896,0.42633 0,0.300757 -0.5457031,0.84336 -0.060461,0.07131 -0.1906861,0.203088 0.040308,0.0031 0.1007691,0.0031 0.3038574,0 0.6960815,-0.03721 l 0.012402,-0.0016 q 0.032556,0 0.032556,0.04961 z"
         style="fill:#e8617a;stroke-width:0.264583"
         id="path1212" />
    </g>
    <g
       aria-label="2"
       id="text1131"
       style="font-size:3.175px;line-height:1.25;font-family:'Berlin Sans FB';-inkscape-font-specification:'Berlin Sans FB';fill:#e8617a;stroke-width:0.264583"
       transform="translate(-6.4004153e-6,-2.4994238e-5)">
      <path
         d="m 5.8202636,97.028406 q 0,0.04496 -0.00465,0.139526 -0.00465,0.09302 -0.00465,0.139526 0,0.03411 -0.05116,0.03411 0.017053,0 -0.1472778,-0.0124 -0.1627808,-0.0124 -0.4852417,-0.0124 -0.1100708,0 -0.333313,0.0047 -0.2216919,0.0047 -0.333313,0.0047 -0.035657,0 -0.044958,-0.03101 l -0.040308,-0.223242 q 0,-0.0186 0.1085205,-0.03721 0.1209229,-0.0217 0.1519287,-0.04806 0.2154908,-0.187586 0.42323,-0.443384 0.2682007,-0.333313 0.2682007,-0.505395 0,-0.141077 -0.1147217,-0.232544 -0.1069702,-0.08527 -0.2495971,-0.08527 -0.1379761,0 -0.2759522,0.05426 -0.094568,0.03721 -0.1891357,0.09922 -0.080615,0.05426 -0.080615,0.05426 -0.012402,0 -0.017053,-0.0016 -0.015503,-0.0078 -0.018603,-0.05426 -0.00155,-0.03721 -0.0093,-0.10697 -0.032556,-0.141077 -0.032556,-0.114722 0,-0.0124 0.023254,-0.02945 0.1240234,-0.09457 0.3193603,-0.15503 0.1875855,-0.05736 0.3534668,-0.05736 0.2852539,0 0.4697388,0.133325 0.2092895,0.150378 0.2092895,0.42633 0,0.300757 -0.5457031,0.84336 -0.060461,0.07131 -0.190686,0.203088 0.040308,0.0031 0.100769,0.0031 0.3038574,0 0.6960816,-0.03721 l 0.012402,-0.0016 q 0.032556,0 0.032556,0.04961 z"
         style="fill:#e8617a;stroke-width:0.264583"
         id="path1215" />
    </g>
    <g
       aria-label="4"
       id="text1135"
       style="font-size:3.175px;line-height:1.25;font-family:'Berlin Sans FB';-inkscape-font-specification:'Berlin Sans FB';fill:#e8617a;stroke-width:0.264583"
       transform="translate(-6.5041533e-7,-3.3549424e-4)">
      <path
         d="m 5.8326656,108.95047 q 0,0.0295 -0.034106,0.0279 -0.055811,-0.003 -0.1581299,-0.003 -0.037207,0 -0.043408,0.005 -0.012402,0.008 -0.012402,0.0434 0,0.0543 0.00775,0.16433 0.0093,0.10852 0.0093,0.16278 0,0.0341 -0.038757,0.0403 -0.05271,0.009 -0.1813842,0.009 -0.217041,0 -0.217041,-0.0341 0,-0.045 0.017053,-0.17054 0.017053,-0.12557 0.017053,-0.18448 0,-0.0357 -0.026355,-0.0357 -0.1255737,0 -0.3767212,0.008 -0.2495971,0.008 -0.3751709,0.008 -0.093018,0 -0.093018,-0.19068 0,-0.15038 0.029456,-0.18604 0.1069702,-0.12247 0.306958,-0.37517 0.2495972,-0.35036 0.3875733,-0.55965 0.043408,-0.0682 0.1333252,-0.20309 0.024805,-0.0326 0.048059,-0.0326 0.1069703,0 0.3271119,0.0806 0.048059,0.0171 0.048059,0.0574 0,0.0791 -0.012402,0.23874 -0.010852,0.15813 -0.010852,0.2372 0,0.0713 -0.00155,0.24494 -0.0031,0.15658 -0.00155,0.24495 v 0.12557 q 0.040308,0 0.1178222,-0.006 0.079065,-0.006 0.1178223,-0.006 0.012402,0 0.012402,0.0264 0,0.0434 0.00155,0.13177 0.00155,0.0868 0.00155,0.13178 z m -0.5782593,-1.10536 q 0,-0.0124 -0.0093,-0.0186 -0.013953,0 -0.040308,0.0527 -0.015503,0.0341 -0.032556,0.0667 -0.2682007,0.35967 -0.5364013,0.72553 0.00775,0.0171 0.1255737,0.0171 h 0.063562 q 0.2588989,0 0.3860229,-0.008 0.00155,-0.19069 0.00465,-0.38138 0.0062,-0.24339 0.026355,-0.37207 0.012402,-0.0744 0.012402,-0.0822 z"
         style="fill:#e8617a;stroke-width:0.264583"
         id="path1218" />
    </g>
    <g
       aria-label="cv"
       id="text1103-3-6"
       style="font-size:3.175px;line-height:1.25;font-family:'Berlin Sans FB';-inkscape-font-specification:'Berlin Sans FB';fill:#e8617a;stroke-width:0.264583"
       transform="translate(2.5399978,6.0234329)">
      <path
         d="m 32.84404,65.606686 q 0,0.03411 -0.03566,0.151929 -0.03566,0.117822 -0.04961,0.117822 -0.06976,-0.031 -0.141077,-0.06201 -0.06976,-0.03101 -0.153479,-0.03101 -0.190686,0 -0.31781,0.141076 -0.127124,0.141077 -0.127124,0.333313 0,0.189136 0.127124,0.327112 0.130225,0.142627 0.31781,0.142627 0.10387,0 0.204639,-0.05116 0.100769,-0.05116 0.08837,-0.05116 0.02015,0 0.04496,0.130224 0.02325,0.117823 0.02325,0.162781 0,0.04806 -0.181384,0.09457 -0.151929,0.03876 -0.224792,0.03876 -0.319361,0 -0.539502,-0.238745 -0.215491,-0.232544 -0.215491,-0.555005 0,-0.328662 0.21084,-0.558105 0.217041,-0.235645 0.541052,-0.235645 0.217041,0 0.396875,0.110071 0.03101,0.0186 0.03101,0.03256 z"
         style="fill:#e8617a;stroke-width:0.264583"
         id="path1221" />
      <path
         d="m 34.375729,65.986508 q 0,0.218591 -0.01395,0.254248 -0.02325,0.06976 -0.251148,0.407727 -0.234094,0.345716 -0.279053,0.364319 -0.0217,0.0093 -0.130224,0.0093 -0.10387,0 -0.136426,-0.0093 -0.04341,-0.01395 -0.283704,-0.350366 -0.234094,-0.327112 -0.261999,-0.398425 -0.03721,-0.09767 -0.03721,-0.302307 0,-0.06356 0.0031,-0.190687 0.0031,-0.127124 0.0031,-0.190686 0,-0.03411 0.03411,-0.03411 0.05116,0 0.151928,0.0047 0.10232,0.0047 0.153479,0.0047 0.02791,0 0.02791,0.03101 0,0.04961 -0.0062,0.147277 -0.0062,0.09612 -0.0062,0.145728 0,0.142627 0.0155,0.260449 0.0078,0.05891 0.15658,0.288355 0.150378,0.229443 0.186035,0.229443 0.03411,0 0.168982,-0.224792 0.133325,-0.220142 0.142627,-0.277503 0.0124,-0.07752 0.0124,-0.26665 0,-0.05116 -0.01085,-0.153479 -0.0093,-0.10232 -0.0093,-0.153479 0,-0.02325 0.02325,-0.02325 0.05116,0 0.150378,-0.0047 0.09922,-0.0062 0.148828,-0.0062 0.04806,0 0.04806,0.438733 z"
         style="fill:#e8617a;stroke-width:0.264583"
         id="path1223" />
    </g>
    <g
       aria-label="cv"
       id="text1103-3-6-1"
       style="font-size:3.175px;line-height:1.25;font-family:'Berlin Sans FB';-inkscape-font-specification:'Berlin Sans FB';fill:#e8617a;stroke-width:0.264583"
       transform="translate(2.5399978,18.070293)">
      <path
         d="m 32.84404,65.606686 q 0,0.03411 -0.03566,0.151929 -0.03566,0.117822 -0.04961,0.117822 -0.06976,-0.031 -0.141077,-0.06201 -0.06976,-0.03101 -0.153479,-0.03101 -0.190686,0 -0.31781,0.141076 -0.127124,0.141077 -0.127124,0.333313 0,0.189136 0.127124,0.327112 0.130225,0.142627 0.31781,0.142627 0.10387,0 0.204639,-0.05116 0.100769,-0.05116 0.08837,-0.05116 0.02015,0 0.04496,0.130224 0.02325,0.117823 0.02325,0.162781 0,0.04806 -0.181384,0.09457 -0.151929,0.03876 -0.224792,0.03876 -0.319361,0 -0.539502,-0.238745 -0.215491,-0.232544 -0.215491,-0.555005 0,-0.328662 0.21084,-0.558105 0.217041,-0.235645 0.541052,-0.235645 0.217041,0 0.396875,0.110071 0.03101,0.0186 0.03101,0.03256 z"
         style="fill:#e8617a;stroke-width:0.264583"
         id="path1221-5" />
      <path
         d="m 34.375729,65.986508 q 0,0.218591 -0.01395,0.254248 -0.02325,0.06976 -0.251148,0.407727 -0.234094,0.345716 -0.279053,0.364319 -0.0217,0.0093 -0.130224,0.0093 -0.10387,0 -0.136426,-0.0093 -0.04341,-0.01395 -0.283704,-0.350366 -0.234094,-0.327112 -0.261999,-0.398425 -0.03721,-0.09767 -0.03721,-0.302307 0,-0.06356 0.0031,-0.190687 0.0031,-0.127124 0.0031,-0.190686 0,-0.03411 0.03411,-0.03411 0.05116,0 0.151928,0.0047 0.10232,0.0047 0.153479,0.0047 0.02791,0 0.02791,0.03101 0,0.04961 -0.0062,0.147277 -0.0062,0.09612 -0.0062,0.145728 0,0.142627 0.0155,0.260449 0.0078,0.05891 0.15658,0.288355 0.150378,0.229443 0.186035,0.229443 0.03411,0 0.168982,-0.224792 0.133325,-0.220142 0.142627,-0.277503 0.0124,-0.07752 0.0124,-0.26665 0,-0.05116 -0.01085,-0.153479 -0.0093,-0.10232 -0.0093,-0.153479 0,-0.02325 0.02325,-0.02325 0.05116,0 0.150378,-0.0047 0.09922,-0.0062 0.148828,-0.0062 0.04806,0 0.04806,0.438733 z"
         style="fill:#e8617a;stroke-width:0.264583"
         id="path1223-6" />
    </g>
    <g
       aria-label="cv"
       id="text1103-3-6-2"
       style="font-size:3.175px;line-height:1.25;font-family:'Berlin Sans FB';-inkscape-font-specification:'Berlin Sans FB';fill:#e8617a;stroke-width:0.264583"
       transform="translate(2.5399978,30.117153)">
      <path
         d="m 32.84404,65.606686 q 0,0.03411 -0.03566,0.151929 -0.03566,0.117822 -0.04961,0.117822 -0.06976,-0.031 -0.141077,-0.06201 -0.06976,-0.03101 -0.153479,-0.03101 -0.190686,0 -0.31781,0.141076 -0.127124,0.141077 -0.127124,0.333313 0,0.189136 0.127124,0.327112 0.130225,0.142627 0.31781,0.142627 0.10387,0 0.204639,-0.05116 0.100769,-0.05116 0.08837,-0.05116 0.02015,0 0.04496,0.130224 0.02325,0.117823 0.02325,0.162781 0,0.04806 -0.181384,0.09457 -0.151929,0.03876 -0.224792,0.03876 -0.319361,0 -0.539502,-0.238745 -0.215491,-0.232544 -0.215491,-0.555005 0,-0.328662 0.21084,-0.558105 0.217041,-0.235645 0.541052,-0.235645 0.217041,0 0.396875,0.110071 0.03101,0.0186 0.03101,0.03256 z"
         style="fill:#e8617a;stroke-width:0.264583"
         id="path1221-53" />
      <path
         d="m 34.375729,65.986508 q 0,0.218591 -0.01395,0.254248 -0.02325,0.06976 -0.251148,0.407727 -0.234094,0.345716 -0.279053,0.364319 -0.0217,0.0093 -0.130224,0.0093 -0.10387,0 -0.136426,-0.0093 -0.04341,-0.01395 -0.283704,-0.350366 -0.234094,-0.327112 -0.261999,-0.398425 -0.03721,-0.09767 -0.03721,-0.302307 0,-0.06356 0.0031,-0.190687 0.0031,-0.127124 0.0031,-0.190686 0,-0.03411 0.03411,-0.03411 0.05116,0 0.151928,0.0047 0.10232,0.0047 0.153479,0.0047 0.02791,0 0.02791,0.03101 0,0.04961 -0.0062,0.147277 -0.0062,0.09612 -0.0062,0.145728 0,0.142627 0.0155,0.260449 0.0078,0.05891 0.15658,0.288355 0.150378,0.229443 0.186035,0.229443 0.03411,0 0.168982,-0.224792 0.133325,-0.220142 0.142627,-0.277503 0.0124,-0.07752 0.0124,-0.26665 0,-0.05116 -0.01085,-0.153479 -0.0093,-0.10232 -0.0093,-0.153479 0,-0.02325 0.02325,-0.02325 0.05116,0 0.150378,-0.0047 0.09922,-0.0062 0.148828,-0.0062 0.04806,0 0.04806,0.438733 z"
         style="fill:#e8617a;stroke-width:0.264583"
         id="path1223-67" />
    </g>
    <g
       aria-label="cv"
       id="text1103-3-6-6"
       style="font-size:3.175px;line-height:1.25;font-family:'Berlin Sans FB';-inkscape-font-specification:'Berlin Sans FB';fill:#e8617a;stroke-width:0.264583"
       transform="translate(2.5399978,42.164013)">
      <path
         d="m 32.84404,65.606686 q 0,0.03411 -0.03566,0.151929 -0.03566,0.117822 -0.04961,0.117822 -0.06976,-0.031 -0.141077,-0.06201 -0.06976,-0.03101 -0.153479,-0.03101 -0.190686,0 -0.31781,0.141076 -0.127124,0.141077 -0.127124,0.333313 0,0.189136 0.127124,0.327112 0.130225,0.142627 0.31781,0.142627 0.10387,0 0.204639,-0.05116 0.100769,-0.05116 0.08837,-0.05116 0.02015,0 0.04496,0.130224 0.02325,0.117823 0.02325,0.162781 0,0.04806 -0.181384,0.09457 -0.151929,0.03876 -0.224792,0.03876 -0.319361,0 -0.539502,-0.238745 -0.215491,-0.232544 -0.215491,-0.555005 0,-0.328662 0.21084,-0.558105 0.217041,-0.235645 0.541052,-0.235645 0.217041,0 0.396875,0.110071 0.03101,0.0186 0.03101,0.03256 z"
         style="fill:#e8617a;stroke-width:0.264583"
         id="path1221-2" />
      <path
         d="m 34.375729,65.986508 q 0,0.218591 -0.01395,0.254248 -0.02325,0.06976 -0.251148,0.407727 -0.234094,0.345716 -0.279053,0.364319 -0.0217,0.0093 -0.130224,0.0093 -0.10387,0 -0.136426,-0.0093 -0.04341,-0.01395 -0.283704,-0.350366 -0.234094,-0.327112 -0.261999,-0.398425 -0.03721,-0.09767 -0.03721,-0.302307 0,-0.06356 0.0031,-0.190687 0.0031,-0.127124 0.0031,-0.190686 0,-0.03411 0.03411,-0.03411 0.05116,0 0.151928,0.0047 0.10232,0.0047 0.153479,0.0047 0.02791,0 0.02791,0.03101 0,0.04961 -0.0062,0.147277 -0.0062,0.09612 -0.0062,0.145728 0,0.142627 0.0155,0.260449 0.0078,0.05891 0.15658,0.288355 0.150378,0.229443 0.186035,0.229443 0.03411,0 0.168982,-0.224792 0.133325,-0.220142 0.142627,-0.277503 0.0124,-0.07752 0.0124,-0.26665 0,-0.05116 -0.01085,-0.153479 -0.0093,-0.10232 -0.0093,-0.153479 0,-0.02325 0.02325,-0.02325 0.05116,0 0.150378,-0.0047 0.09922,-0.0062 0.148828,-0.0062 0.04806,0 0.04806,0.438733 z"
         style="fill:#e8617a;stroke-width:0.264583"
         id="path1223-0" />
    </g>
    <rect
       style="fill:#e8617a;fill-opacity:1;stroke:none;stroke-width:0.499999;stroke-miterlimit:4;stroke-dasharray:none;stroke-dashoffset:0"
       id="rect2489-7"
       width="12.7"
       height="2.0078101"
       x="16.509998"
       y="71.277344"
       rx="0.49999902"
       ry="0.49999902" />
    <rect
       style="fill:#e8617a;fill-opacity:1;stroke:none;stroke-width:0.499999;stroke-miterlimit:4;stroke-dasharray:none;stroke-dashoffset:0"
       id="rect2489-7-0"
       width="12.7"
       height="2.0078101"
       x="16.509998"
       y="83.324203"
       rx="0.49999902"
       ry="0.49999902" />
    <rect
       style="fill:#e8617a;fill-opacity:1;stroke:none;stroke-width:0.499999;stroke-miterlimit:4;stroke-dasharray:none;stroke-dashoffset:0"
       id="rect2489-7-3"
       width="12.7"
       height="2.0078101"
       x="16.509998"
       y="95.371063"
       rx="0.49999902"
       ry="0.49999902" />
    <rect
       style="fill:#e8617a;fill-opacity:1;stroke:none;stroke-width:0.499999;stroke-miterlimit:4;stroke-dasharray:none;stroke-dashoffset:0"
       id="rect2489-7-9"
       width="12.7"
       height="2.0078101"
       x="16.509998"
       y="107.41792"
       rx="0.49999902"
       ry="0.49999902" />
    <rect
       style="fill:#e8617a;fill-opacity:1;stroke:none;stroke-width:0.499999;stroke-miterlimit:4;stroke-dasharray:none;stroke-dashoffset:0"
       id="rect2489-7-4"
       width="12.7"
       height="2.0078101"
       x="11.429998"
       y="23.089895"
       rx="0.49999902"
       ry="0.49999902" />
    <rect
       style="fill:#e8617a;fill-opacity:1;stroke:none;stroke-width:0.499999;stroke-miterlimit:4;stroke-dasharray:none;stroke-dashoffset:0"
       id="rect2489-7-91"
       width="12.7"
       height="2.0078101"
       x="21.589998"
       y="23.089901"
       rx="0.49999902"
       ry="0.49999902" />
    <g
       aria-label="reset"
       id="text1438"
       style="font-size:3.175px;line-height:1.25;font-family:'Berlin Sans FB';-inkscape-font-specification:'Berlin Sans FB';fill:#e8617a;stroke-width:0.264583"
       transform="translate(-5.0800429,-4.0155737)">
      <path
         d="m 23.353611,37.671754 q 0,0.170533 -0.02325,0.310059 -0.0047,0.03566 -0.03101,0.03566 -0.03256,0 -0.09922,-0.0062 -0.06511,-0.0078 -0.09922,-0.0078 -0.195337,0 -0.249598,0.110071 -0.03256,0.06666 -0.03256,0.277502 v 0.170533 q 0,0.08682 0.0062,0.263549 0.0078,0.176734 0.0078,0.26355 0,0.04186 -0.03566,0.04186 -0.04806,0 -0.145727,-0.0016 -0.09767,-0.0016 -0.145728,-0.0016 -0.03566,0 -0.03566,-0.03876 0,-0.125573 0.0031,-0.378271 0.0047,-0.252698 0.0047,-0.379822 0,-0.382922 -0.07131,-0.615466 -0.0031,-0.0124 -0.0031,-0.0186 0,-0.0186 0.02015,-0.02636 0.05736,-0.0062 0.16123,-0.0186 0.167432,-0.03101 0.155029,-0.03101 0.02481,0 0.03256,0.09147 0.0078,0.09147 0.0279,0.09147 0.0031,0 0.0078,-0.0031 0.06356,-0.04031 0.127124,-0.08062 0.06976,-0.04186 0.142627,-0.06201 0.06046,-0.0186 0.15503,-0.0186 0.120922,0 0.120922,0.03256 z"
         style="fill:#e8617a;stroke-width:0.264583"
         id="path1444" />
      <path
         d="m 24.837242,38.294972 q 0,0.114722 -0.09922,0.153479 -0.06666,0.02481 -0.959631,0.09147 0.02015,0.136425 0.150378,0.232543 0.124023,0.09147 0.26665,0.09147 0.244947,0 0.449585,-0.15813 0.0248,-0.02015 0.04961,-0.04031 0.0124,0 0.0155,0.0031 0.0047,0.0031 0.05891,0.10852 0.05426,0.10387 0.05426,0.111621 0,0.0093 -0.02481,0.03566 -0.227893,0.241846 -0.58446,0.241846 -0.359668,0 -0.573609,-0.213941 -0.21394,-0.21549 -0.21394,-0.573608 0,-0.31936 0.204639,-0.556555 0.21549,-0.246497 0.52865,-0.246497 0.291455,0 0.486792,0.213941 0.190686,0.207739 0.190686,0.505395 z m -0.36897,-0.09457 q 0,-0.128674 -0.102319,-0.227893 -0.100769,-0.09922 -0.227893,-0.09922 -0.142627,0 -0.254249,0.114721 -0.11007,0.114722 -0.11007,0.257349 0,0.03256 0.05581,0.03256 0.229444,0 0.548804,-0.04651 0.08992,-0.0124 0.08992,-0.03101 z"
         style="fill:#e8617a;stroke-width:0.264583"
         id="path1446" />
      <path
         d="m 25.77982,38.649989 q 0,0.230994 -0.184485,0.37052 -0.167432,0.127124 -0.407727,0.127124 -0.09302,0 -0.10542,-0.0047 -0.02635,-0.0124 -0.02635,-0.07596 0,-0.03411 -0.0093,-0.102319 -0.0078,-0.06821 -0.0078,-0.100769 0,-0.02015 0.02791,-0.02636 0.02015,-0.0047 0.05736,0 0.04806,0.0047 0.04651,0.0047 0.293005,0 0.293005,-0.179834 0,-0.08527 -0.128674,-0.15658 -0.20929,-0.114722 -0.240296,-0.141077 -0.128674,-0.11007 -0.128674,-0.288354 0,-0.232544 0.175183,-0.362769 0.15813,-0.116272 0.399976,-0.116272 0.0217,0 0.03101,0.02015 0.01085,0.02015 0.03876,0.125574 0.02945,0.10542 0.02945,0.127124 0,0.01705 -0.02945,0.0217 -0.09922,0.01395 -0.199988,0.02635 -0.119373,0.03256 -0.119373,0.130225 0,0.06976 0.125574,0.141076 0.186035,0.10387 0.235645,0.150379 0.127124,0.120923 0.127124,0.310058 z"
         style="fill:#e8617a;stroke-width:0.264583"
         id="path1448" />
      <path
         d="m 27.31616,38.294972 q 0,0.114722 -0.09922,0.153479 -0.06666,0.02481 -0.959631,0.09147 0.02015,0.136425 0.150378,0.232543 0.124024,0.09147 0.266651,0.09147 0.244946,0 0.449585,-0.15813 0.0248,-0.02015 0.04961,-0.04031 0.0124,0 0.0155,0.0031 0.0047,0.0031 0.05891,0.10852 0.05426,0.10387 0.05426,0.111621 0,0.0093 -0.0248,0.03566 -0.227893,0.241846 -0.584461,0.241846 -0.359668,0 -0.573608,-0.213941 -0.21394,-0.21549 -0.21394,-0.573608 0,-0.31936 0.204638,-0.556555 0.215491,-0.246497 0.52865,-0.246497 0.291455,0 0.486792,0.213941 0.190686,0.207739 0.190686,0.505395 z m -0.36897,-0.09457 q 0,-0.128674 -0.102319,-0.227893 -0.100769,-0.09922 -0.227893,-0.09922 -0.142627,0 -0.254248,0.114721 -0.110071,0.114722 -0.110071,0.257349 0,0.03256 0.05581,0.03256 0.229443,0 0.548803,-0.04651 0.08992,-0.0124 0.08992,-0.03101 z"
         style="fill:#e8617a;stroke-width:0.264583"
         id="path1450" />
      <path
         d="m 28.396714,38.842226 q 0,0.03411 -0.0062,0.09302 -0.0078,0.07286 -0.0093,0.09457 -0.0016,0.0279 -0.0047,0.03411 -0.0062,0.01085 -0.02946,0.0217 -0.127124,0.06046 -0.399976,0.06046 -0.362768,0 -0.362768,-0.328662 0,-0.131775 0.0062,-0.395325 0.0062,-0.2651 0.0062,-0.396875 0,-0.06356 -0.06356,-0.06821 -0.05736,0 -0.113171,-0.0016 -0.03256,-0.0078 -0.03256,-0.127124 0,-0.04496 0.0062,-0.09457 0.0046,-0.03721 0.04961,-0.04496 0.03876,0 0.07596,-0.0016 0.07131,-0.0031 0.07131,-0.06356 0,-0.06201 -0.0047,-0.189135 -0.0031,-0.127124 -0.0031,-0.190686 0,-0.113172 0.04341,-0.113172 0.01395,0 0.291455,0.04806 0.03566,0.0047 0.03566,0.03411 0,0.06821 -0.01085,0.204638 -0.0093,0.136426 -0.0093,0.204639 0,0.04496 0.04186,0.04496 h 0.372071 q 0.02636,0 0.02636,0.0186 0,0.0186 -0.0062,0.06046 -0.0047,0.04031 -0.0047,0.06046 0,0.02325 0.0015,0.07131 0.0016,0.04806 0.0016,0.07131 0,0.02945 -0.04341,0.02945 -0.06201,0 -0.187585,-0.0078 -0.125574,-0.0093 -0.187586,-0.0093 -0.0124,0 -0.0186,0.08837 -0.0078,0.110071 -0.0078,0.308508 v 0.230994 q 0,0.133325 0.0248,0.186035 0.03721,0.08062 0.153479,0.08062 0.04806,0 0.141077,-0.02015 0.09302,-0.0217 0.137976,-0.0217 0.0186,0 0.0186,0.02791 z"
         style="fill:#e8617a;stroke-width:0.264583"
         id="path1452" />
    </g>
    <g
       aria-label="on?"
       id="text1442"
       style="font-size:3.175px;line-height:1.25;font-family:'Berlin Sans FB';-inkscape-font-specification:'Berlin Sans FB';fill:#e8617a;stroke-width:0.264583"
       transform="translate(1.0068062e-6,-4.0155987)">
      <path
         d="m 34.852288,38.45543 q 0,0.324011 -0.21239,0.553454 -0.217041,0.237195 -0.537952,0.237195 -0.322461,0 -0.539502,-0.235644 -0.21239,-0.227893 -0.21239,-0.551905 0,-0.324011 0.21239,-0.551904 0.218592,-0.232544 0.539502,-0.232544 0.319361,0 0.536402,0.232544 0.21394,0.226343 0.21394,0.548804 z m -0.327112,0.0031 q 0,-0.189135 -0.116272,-0.32246 -0.120923,-0.141077 -0.306958,-0.141077 -0.186035,0 -0.308508,0.139526 -0.116272,0.134876 -0.116272,0.324011 0,0.186036 0.117822,0.322461 0.124024,0.144178 0.306958,0.144178 0.184485,0 0.306958,-0.144178 0.116272,-0.136425 0.116272,-0.322461 z"
         style="fill:#e8617a;stroke-width:0.264583"
         id="path1455" />
      <path
         d="m 36.436687,39.179417 q 0,0.03411 -0.03101,0.03411 -0.05116,0 -0.153479,-0.0016 -0.10077,-0.0016 -0.151929,-0.0016 -0.0279,0 -0.0279,-0.04496 0,-0.07596 0.0046,-0.230994 0.0047,-0.155029 0.0047,-0.232544 0,-0.06201 -0.0016,-0.184484 -0.0016,-0.124024 -0.0016,-0.186036 0,-0.176733 -0.05116,-0.249597 -0.06201,-0.08682 -0.229443,-0.08682 -0.07751,0 -0.215491,0.08682 -0.145728,0.09147 -0.145728,0.162781 v 0.930176 q 0,0.03876 -0.02945,0.03876 -0.04961,0 -0.148828,-0.0016 -0.09922,-0.0016 -0.148828,-0.0016 -0.03256,0 -0.03256,-0.03566 0,-0.122473 0.0031,-0.36742 0.0047,-0.244946 0.0047,-0.368969 0,-0.330213 -0.06976,-0.609265 -0.0047,-0.01395 -0.0047,-0.02015 0,-0.0155 0.02015,-0.0217 0.01085,-0.0016 0.176733,-0.02791 0.167432,-0.02791 0.175183,-0.02791 0.0093,0 0.0124,0.02481 0.0078,0.09612 0.03566,0.193786 0.08062,-0.06356 0.21239,-0.15813 0.162781,-0.09922 0.31471,-0.09922 0.291455,0 0.398425,0.168982 0.07906,0.124023 0.07906,0.401526 0,0.04806 -0.0031,0.147277 -0.0015,0.09922 -0.0015,0.148828 0,0.10387 0.0031,0.310059 0.0031,0.206189 0.0031,0.310059 z"
         style="fill:#e8617a;stroke-width:0.264583"
         id="path1457" />
      <path
         d="m 37.769939,37.629124 q 0,0.224792 -0.133325,0.398425 -0.01705,0.02015 -0.254248,0.254248 -0.142627,0.137976 -0.155029,0.271301 -0.0031,0.03411 -0.0062,0.06821 -0.0062,0.02636 -0.04496,0.04031 -0.04496,0.0155 -0.06976,0.0155 -0.07906,0 -0.09302,-0.0047 -0.03721,-0.01395 -0.03721,-0.07441 0,-0.186035 0.06356,-0.296106 0.10232,-0.133325 0.203089,-0.268201 0.120923,-0.16123 0.120923,-0.308508 0,-0.144177 -0.08372,-0.232544 -0.08217,-0.08837 -0.224793,-0.08837 -0.114721,0 -0.255798,0.08062 -0.139526,0.08062 -0.133325,0.08062 -0.04806,0 -0.04806,-0.297657 0,-0.0217 0.04651,-0.05426 0.243396,-0.168982 0.511597,-0.168982 0.262,0 0.427881,0.161231 0.165881,0.16123 0.165881,0.42323 z m -0.441833,1.406115 q 0,0.08682 -0.05736,0.151929 -0.05736,0.06511 -0.142627,0.06511 -0.08372,0 -0.141077,-0.06511 -0.05581,-0.06511 -0.05581,-0.151929 0,-0.08682 0.05581,-0.148828 0.05581,-0.06356 0.141077,-0.06356 0.08682,0 0.142627,0.06356 0.05736,0.06201 0.05736,0.148828 z"
         style="fill:#e8617a;stroke-width:0.264583"
         id="path1459" />
    </g>
    <rect
       style="fill:#e8617a;fill-opacity:1;stroke:none;stroke-width:0.499999;stroke-miterlimit:4;stroke-dasharray:none;stroke-dashoffset:0"
       id="rect2489-7-4-1"
       width="12.7"
       height="2.0078101"
       x="13.969998"
       y="39.152374"
       rx="0.49999905"
       ry="0.49999905" />
  </g>
  <g
     inkscape:groupmode="layer"
     id="layer2"
     inkscape:label="components"
     style="display:none">
    <circle
       style="fill:#0000ff;stroke-width:0.4895"
       id="path2113-7"
       cx="5.0799985"
       cy="40.156281"
       r="4.178"
       inkscape:label="1" />
    <circle
       style="fill:#0000ff;stroke-width:0.4895"
       id="path2113-5"
       cx="5.0799985"
       cy="56.218761"
       r="4.178"
       inkscape:label="2" />
    <circle
       style="fill:#0000ff;stroke-width:0.4895"
       id="path2113-0"
       cx="15.239998"
       cy="56.218761"
       r="4.178"
       inkscape:label="4" />
    <circle
       style="fill:#0000ff;stroke-width:0.4895"
       id="path2113-8"
       cx="25.399998"
       cy="56.218761"
       r="4.178"
       inkscape:label="8" />
    <circle
       style="fill:#0000ff;stroke-width:0.4895"
       id="path2113-75"
       cx="35.559998"
       cy="56.218761"
       r="4.178"
       inkscape:label="16" />
    <circle
       style="fill:#00ff00;stroke-width:0.4895"
       id="path2113-5-2"
       cx="22.859999"
       cy="24.093801"
       r="4.178"
       inkscape:label="bpm" />
    <circle
       style="fill:#0000ff;stroke-width:0.4895"
       id="path2113-5-2-5"
       cx="33.019997"
       cy="24.093801"
       r="4.178"
       inkscape:label="bpm" />
    <circle
       style="fill:#ff0000;stroke-width:0.648899"
       id="path2113-6-9"
       cx="10.159998"
       cy="24.093801"
       r="5.5384998"
       inkscape:label="bpm" />
    <circle
       style="fill:#00ff00;stroke-width:0.4895"
       id="path2113-75-2"
       cx="27.939997"
       cy="72.28125"
       r="4.178"
       inkscape:label="mul_quarter" />
    <circle
       style="fill:#00ff00;stroke-width:0.4895"
       id="path2113-75-6"
       cx="27.939997"
       cy="84.32811"
       r="4.178"
       inkscape:label="mul_half" />
    <circle
       style="fill:#00ff00;stroke-width:0.4895"
       id="path2113-75-9"
       cx="27.939997"
       cy="96.374969"
       r="4.178"
       inkscape:label="mul_2" />
    <circle
       style="fill:#00ff00;stroke-width:0.4895"
       id="path2113-75-4"
       cx="27.939997"
       cy="108.42182"
       r="4.178"
       inkscape:label="mul_4" />
    <circle
       style="fill:#ff0000;stroke-width:0.648899"
       id="path2113-6-9-5"
       cx="15.239998"
       cy="72.28125"
       r="5.5384998"
       inkscape:label="mul_quarter" />
    <circle
       style="fill:#ff0000;stroke-width:0.648899"
       id="path2113-6-9-8"
       cx="15.239998"
       cy="84.32811"
       r="5.5384998"
       inkscape:label="mul_half" />
    <circle
       style="fill:#ff0000;stroke-width:0.648899"
       id="path2113-6-9-0"
       cx="15.239998"
       cy="96.374969"
       r="5.5384998"
       inkscape:label="mul_2" />
    <circle
       style="fill:#ff0000;stroke-width:0.648899"
       id="path2113-6-9-1"
       cx="15.239998"
       cy="108.42182"
       r="5.5384998"
       inkscape:label="mul_4" />
    <circle
       style="display:inline;fill:#ff0000;stroke-width:0.4895"
       id="path2113-7-0"
       cx="35.559998"
       cy="40.156281"
       r="4.178"
       inkscape:label="on" />
    <circle
       style="display:inline;fill:#00ff00;stroke-width:0.4895"
       id="path2113-7-0-4"
       cx="25.399996"
       cy="40.156281"
       r="4.178"
       inkscape:label="reset" />
    <circle
       style="display:inline;fill:#ff0000;stroke-width:0.4895"
       id="path2113-7-0-4-9"
       cx="15.239998"
       cy="40.156281"
       inkscape:label="reset"
       r="4.178" />
    <circle
       style="display:inline;fill:#ff00ff;stroke-width:0.122375"
       id="path2113-75-2-8"
       cx="5.0799985"
       cy="62.242191"
       r="1.0445"
       inkscape:label="2" />
    <circle
       style="display:inline;fill:#ff00ff;stroke-width:0.122375"
       id="path2113-75-2-8-2"
       cx="15.239998"
       cy="62.242191"
       r="1.0445"
       inkscape:label="4" />
    <circle
       style="display:inline;fill:#ff00ff;stroke-width:0.122375"
       id="path2113-75-2-8-27"
       cx="25.399998"
       cy="62.242191"
       r="1.0445"
       inkscape:label="8" />
    <circle
       style="display:inline;fill:#ff00ff;stroke-width:0.122375"
       id="path2113-75-2-8-5"
       cx="35.559998"
       cy="62.242191"
       r="1.0445"
       inkscape:label="16" />
    <circle
       style="display:inline;fill:#ff00ff;stroke-width:0.122375"
       id="path2113-75-2-8-9"
       cx="5.0799985"
       cy="46.17971"
       r="1.0445"
       inkscape:label="1" />
  </g>
</svg>
