<?xml version="1.0" encoding="UTF-8" standalone="no"?>
<svg
   xmlns:dc="http://purl.org/dc/elements/1.1/"
   xmlns:cc="http://creativecommons.org/ns#"
   xmlns:rdf="http://www.w3.org/1999/02/22-rdf-syntax-ns#"
   xmlns:svg="http://www.w3.org/2000/svg"
   xmlns="http://www.w3.org/2000/svg"
   xmlns:sodipodi="http://sodipodi.sourceforge.net/DTD/sodipodi-0.dtd"
   xmlns:inkscape="http://www.inkscape.org/namespaces/inkscape"
   width="40.639999mm"
   height="128.5mm"
   viewBox="0 0 40.64 128.5"
   version="1.1"
   id="svg8"
   inkscape:version="1.0.1 (3bc2e813f5, 2020-09-07)"
   sodipodi:docname="Tom.svg">
  <defs
     id="defs2" />
  <sodipodi:namedview
     id="base"
     pagecolor="#ffffff"
     bordercolor="#666666"
     borderopacity="1.0"
     inkscape:pageopacity="0.0"
     inkscape:pageshadow="2"
     inkscape:zoom="3.959798"
     inkscape:cx="73.020847"
     inkscape:cy="441.84042"
     inkscape:document-units="mm"
     inkscape:current-layer="layer1"
     inkscape:document-rotation="0"
     showgrid="true"
     inkscape:window-width="1827"
     inkscape:window-height="1051"
     inkscape:window-x="-9"
     inkscape:window-y="-9"
     inkscape:window-maximized="1"
     inkscape:snap-global="true"
     inkscape:snap-object-midpoints="true"
     inkscape:object-nodes="false"
     inkscape:snap-others="true"
     inkscape:snap-bbox="true"
     inkscape:snap-text-baseline="false"
     inkscape:snap-center="true"
     inkscape:snap-nodes="false">
    <inkscape:grid
       type="xygrid"
       id="grid10"
       units="mm"
       spacingx="2.5400001"
       spacingy="4.01562" />
  </sodipodi:namedview>
  <metadata
     id="metadata5">
    <rdf:RDF>
      <cc:Work
         rdf:about="">
        <dc:format>image/svg+xml</dc:format>
        <dc:type
           rdf:resource="http://purl.org/dc/dcmitype/StillImage" />
        <dc:title />
      </cc:Work>
    </rdf:RDF>
  </metadata>
  <g
     inkscape:label="Layer 1"
     inkscape:groupmode="layer"
     id="layer1"
     style="display:inline">
    <rect
       style="fill:#e6e6e6;stroke-width:0.264583"
       id="rect157"
       width="40.639999"
       height="128.49985"
       x="0"
       y="0"
       sodipodi:insensitive="true" />
    <g
       aria-label="tom"
       id="text955"
       style="font-style:normal;font-weight:normal;font-size:3.175px;line-height:1.25;font-family:sans-serif;display:inline;fill:#000000;fill-opacity:1;stroke:none;stroke-width:0.264583"
       transform="translate(12.439657,-0.2688651)">
      <path
         d="m 6.0525479,5.1340456 q -0.082166,0.021704 -0.179834,0.035657 -0.096118,0.013953 -0.1720825,0.013953 -0.2651001,0 -0.4030762,-0.142627 -0.137976,-0.1426275 -0.137976,-0.457337 V 3.6628176 H 4.962692 V 3.4178713 h 0.1968872 v -0.497644 h 0.2914551 v 0.497644 H 6.0525479 V 3.6628176 H 5.4510343 v 0.7890991 q 0,0.1364258 0.0062,0.2139404 0.0062,0.075964 0.043408,0.142627 0.034107,0.062012 0.093018,0.091467 0.060461,0.027905 0.1829346,0.027905 0.071313,0 0.1488281,-0.020154 0.077515,-0.021704 0.1116211,-0.035657 h 0.015503 z"
         style="font-size:3.175px;stroke-width:0.264583"
         id="path957" />
      <path
         d="m 7.8803432,4.2844851 q 0,0.4232299 -0.217041,0.6681762 -0.217041,0.2449463 -0.5813598,0.2449463 -0.3674195,0 -0.5844605,-0.2449463 Q 6.2819912,4.707715 6.2819912,4.2844851 q 0,-0.42323 0.2154907,-0.6681763 0.217041,-0.2464966 0.5844605,-0.2464966 0.3643188,0 0.5813598,0.2464966 0.217041,0.2449463 0.217041,0.6681763 z m -0.3007568,0 q 0,-0.3364136 -0.1317749,-0.4991944 -0.1317749,-0.164331 -0.3658691,-0.164331 -0.2371948,0 -0.3689697,0.164331 -0.1302247,0.1627808 -0.1302247,0.4991944 0,0.3255615 0.1317749,0.4945434 0.1317749,0.1674317 0.3674195,0.1674317 0.2325439,0 0.3643188,-0.1658814 0.1333252,-0.1674316 0.1333252,-0.4960937 z"
         style="font-size:3.175px;stroke-width:0.264583"
         id="path959" />
      <path
         d="M 10.858456,5.1495485 H 10.567001 V 4.1635622 q 0,-0.1116211 -0.01085,-0.2154907 -0.0093,-0.1038696 -0.04186,-0.1658813 -0.03566,-0.066663 -0.102319,-0.1007691 -0.06666,-0.034106 -0.192237,-0.034106 -0.122473,0 -0.2449459,0.062012 -0.1224731,0.060461 -0.2449463,0.1550293 0.00465,0.035657 0.00775,0.083716 0.0031,0.046509 0.0031,0.093018 V 5.1495485 H 9.4492398 V 4.1635622 q 0,-0.1147217 -0.010852,-0.217041 -0.0093,-0.1038696 -0.041858,-0.1658813 -0.035657,-0.066663 -0.1023193,-0.099219 -0.066663,-0.034106 -0.1922363,-0.034106 -0.1193726,0 -0.2402954,0.058911 -0.1193726,0.058911 -0.2387451,0.1503784 V 5.1495485 H 8.3314786 V 3.4178713 h 0.2914551 v 0.1922363 q 0.1364257,-0.1131713 0.2713012,-0.1767334 0.1364258,-0.063562 0.2899048,-0.063562 0.1767334,0 0.2992065,0.074414 0.1240235,0.074414 0.1844849,0.206189 0.1767334,-0.1488282 0.3224609,-0.2139405 0.145728,-0.066663 0.311609,-0.066663 0.285254,0 0.420129,0.1736328 0.136426,0.1720826 0.136426,0.4821411 z"
         style="font-size:3.175px;stroke-width:0.264583"
         id="path961" />
    </g>
    <g
       aria-label="tempo"
       id="text990"
       style="font-size:2.11667px;line-height:1.25;font-family:sans-serif;stroke-width:0.264583"
       transform="translate(-3.128496,0.5932463)">
      <path
         d="m 5.8706505,8.0209052 q -0.054777,0.014469 -0.1198895,0.023771 -0.064079,0.0093 -0.1147218,0.0093 -0.1767337,0 -0.2687179,-0.095085 -0.091984,-0.095085 -0.091984,-0.3048914 V 7.040085 H 5.1440788 V 6.8767872 H 5.2753371 V 6.545024 H 5.4696408 V 6.8767872 H 5.8706505 V 7.040085 H 5.4696408 v 0.5260669 q 0,0.090951 0.00413,0.1426271 0.00413,0.050643 0.028939,0.095085 0.022738,0.041341 0.062012,0.060978 0.040308,0.018604 0.1219566,0.018604 0.047542,0 0.099219,-0.013436 0.051677,-0.014469 0.074414,-0.023771 h 0.010335 z"
         style="font-size:2.11667px;stroke-width:0.264583"
         id="path996" />
      <path
         d="M 7.0716127,7.4741677 H 6.2210173 q 0,0.1064536 0.032039,0.1860354 0.032039,0.078548 0.08785,0.1291913 0.053744,0.049609 0.1271242,0.074414 0.074414,0.024805 0.1632978,0.024805 0.1178224,0 0.2366784,-0.046509 0.1198895,-0.047542 0.1705325,-0.093018 h 0.010335 v 0.2118737 q -0.098185,0.041341 -0.2005049,0.069246 -0.1023195,0.027905 -0.2149743,0.027905 -0.2873214,0 -0.4485521,-0.1550295 Q 6.023613,7.7470197 6.023613,7.4607318 q 0,-0.2831873 0.153996,-0.4495857 0.1550295,-0.1663983 0.4072109,-0.1663983 0.2335778,0 0.3596685,0.136426 0.1271243,0.1364259 0.1271243,0.3875738 z M 6.8824766,7.3253393 Q 6.8814431,7.1723768 6.8049619,7.0886609 6.7295141,7.004945 6.5744846,7.004945 q -0.156063,0 -0.2490808,0.091984 -0.091984,0.091984 -0.1043865,0.2284102 z"
         style="font-size:2.11667px;stroke-width:0.264583"
         id="path998" />
      <path
         d="M 9.050823,8.0312405 H 8.8565193 V 7.3739152 q 0,-0.074414 -0.00723,-0.1436607 -0.0062,-0.069247 -0.027905,-0.1105877 -0.023771,-0.044442 -0.068213,-0.067179 -0.044442,-0.022738 -0.1281578,-0.022738 -0.081649,0 -0.1632978,0.041341 -0.081649,0.040308 -0.1632977,0.103353 0.0031,0.023771 0.00517,0.055811 0.00207,0.031006 0.00207,0.062012 V 8.0312405 H 8.111344 V 7.3739152 q 0,-0.076481 -0.00723,-0.1446942 Q 8.097914,7.159974 8.076209,7.1186333 8.052438,7.0741913 8.007996,7.0524873 7.963554,7.0297493 7.8798382,7.0297493 q -0.079582,0 -0.1601972,0.039274 -0.079582,0.039274 -0.1591636,0.1002525 V 8.0312405 H 7.3661687 V 6.8767872 H 7.5604724 V 7.004945 q 0.090951,-0.075448 0.1808678,-0.1178225 0.090951,-0.042375 0.1932701,-0.042375 0.1178225,0 0.1994714,0.049609 0.082682,0.049609 0.1229901,0.1374595 0.1178224,-0.099219 0.2149742,-0.1426271 0.097152,-0.044442 0.2077396,-0.044442 0.1901696,0 0.2800867,0.1157554 0.090951,0.1147218 0.090951,0.3214279 z"
         style="font-size:2.11667px;stroke-width:0.264583"
         id="path1000" />
      <path
         d="m 10.440921,7.4400612 q 0,0.1405601 -0.04031,0.257349 -0.04031,0.1157554 -0.113689,0.1963707 -0.06821,0.076481 -0.16123,0.118856 -0.09199,0.041341 -0.1953377,0.041341 -0.089917,0 -0.1632977,-0.019637 Q 9.6947125,8.014704 9.6192647,7.9733628 V 8.4570549 H 9.4249611 V 6.8767872 h 0.1943036 v 0.120923 q 0.077515,-0.065112 0.1736331,-0.1085206 0.097152,-0.044442 0.2067061,-0.044442 0.2087731,0 0.3245281,0.1581301 0.116789,0.1570966 0.116789,0.4371835 z m -0.200505,0.00517 q 0,-0.2087731 -0.07131,-0.3121261 -0.07131,-0.103353 -0.2191086,-0.103353 -0.083716,0 -0.1684654,0.036174 -0.08475,0.036174 -0.1622643,0.095085 v 0.6542246 q 0.082682,0.037207 0.1415937,0.050643 0.059945,0.013436 0.1353924,0.013436 0.1622642,0 0.2532152,-0.1095542 0.09095,-0.1095542 0.09095,-0.3245285 z"
         style="font-size:2.11667px;stroke-width:0.264583"
         id="path1002" />
      <path
         d="m 11.727666,7.4545306 q 0,0.2821538 -0.144694,0.4454515 -0.144694,0.1632978 -0.387574,0.1632978 -0.244947,0 -0.389641,-0.1632978 -0.143661,-0.1632977 -0.143661,-0.4454515 0,-0.2821538 0.143661,-0.4454515 0.144694,-0.1643313 0.389641,-0.1643313 0.24288,0 0.387574,0.1643313 0.144694,0.1632977 0.144694,0.4454515 z m -0.200505,0 q 0,-0.2242761 -0.08785,-0.3327967 -0.08785,-0.1095542 -0.243913,-0.1095542 -0.15813,0 -0.24598,0.1095542 -0.08682,0.1085206 -0.08682,0.3327967 0,0.2170413 0.08785,0.3296961 0.08785,0.1116213 0.244947,0.1116213 0.15503,0 0.24288,-0.1105877 0.08888,-0.1116213 0.08888,-0.3307297 z"
         style="font-size:2.11667px;stroke-width:0.264583"
         id="path1004" />
    </g>
    <g
       aria-label="reset"
       id="text994"
       style="font-size:2.11667px;line-height:1.25;font-family:sans-serif;text-align:end;text-anchor:end;stroke-width:0.264583"
       transform="translate(1.0490915,0.34099135)">
      <path
         d="m 32.693433,7.3248956 h -0.01033 q -0.04341,-0.010335 -0.08475,-0.014469 -0.04031,-0.00517 -0.09612,-0.00517 -0.08992,0 -0.173633,0.040308 -0.08372,0.039274 -0.161231,0.1023195 v 0.819591 H 31.973062 V 7.1130219 h 0.194304 v 0.1705325 q 0.115755,-0.093018 0.203606,-0.1312584 0.08888,-0.039274 0.180867,-0.039274 0.05064,0 0.07338,0.0031 0.02274,0.00207 0.06821,0.0093 z"
         style="text-align:end;text-anchor:end;stroke-width:0.264583"
         id="path1007" />
      <path
         d="m 33.842719,7.7104023 h -0.850596 q 0,0.1064537 0.03204,0.1860355 0.03204,0.078548 0.08785,0.1291913 0.05374,0.049609 0.127124,0.074414 0.07441,0.024805 0.163298,0.024805 0.117822,0 0.236678,-0.046509 0.11989,-0.047542 0.170533,-0.093018 h 0.01033 v 0.2118737 q -0.09819,0.041341 -0.200505,0.069247 -0.102319,0.027905 -0.214974,0.027905 -0.287322,0 -0.448552,-0.1550295 -0.161231,-0.1560631 -0.161231,-0.442351 0,-0.2831872 0.153996,-0.4495856 0.155029,-0.1663984 0.407211,-0.1663984 0.233578,0 0.359668,0.136426 0.127125,0.136426 0.127125,0.3875739 z M 33.653583,7.561574 q -10e-4,-0.1529625 -0.07751,-0.2366784 -0.07545,-0.083716 -0.230477,-0.083716 -0.156064,0 -0.249081,0.091984 -0.09198,0.091984 -0.104387,0.2284102 z"
         style="text-align:end;text-anchor:end;stroke-width:0.264583"
         id="path1009" />
      <path
         d="m 34.962032,7.9346784 q 0,0.1581301 -0.131259,0.2594161 -0.130224,0.1012859 -0.356568,0.1012859 -0.128157,0 -0.235644,-0.029972 -0.106454,-0.031006 -0.178801,-0.067179 V 7.9801537 h 0.01034 q 0.09198,0.069247 0.204639,0.1105878 0.112655,0.040308 0.216008,0.040308 0.128158,0 0.200505,-0.041341 0.07235,-0.041341 0.07235,-0.1302248 0,-0.068213 -0.03927,-0.103353 -0.03927,-0.03514 -0.150896,-0.059945 -0.04134,-0.0093 -0.10852,-0.021704 -0.06615,-0.012402 -0.120923,-0.026872 -0.151929,-0.040308 -0.216008,-0.1178224 -0.06304,-0.078548 -0.06304,-0.1922366 0,-0.071314 0.02894,-0.134359 0.02997,-0.063045 0.08992,-0.1126548 0.05788,-0.048576 0.146762,-0.076481 0.08992,-0.028939 0.200505,-0.028939 0.103353,0 0.208773,0.025838 0.106453,0.024805 0.176733,0.060978 v 0.2077396 h -0.01033 q -0.07441,-0.054777 -0.180868,-0.091984 -0.106453,-0.038241 -0.208773,-0.038241 -0.106453,0 -0.179834,0.041341 -0.07338,0.040308 -0.07338,0.120923 0,0.071314 0.04444,0.1074871 0.04341,0.036174 0.14056,0.058911 0.05374,0.012402 0.11989,0.024805 0.06718,0.012402 0.111621,0.022738 0.135392,0.031006 0.208773,0.1064536 0.07338,0.076481 0.07338,0.2025719 z"
         style="text-align:end;text-anchor:end;stroke-width:0.264583"
         id="path1011" />
      <path
         d="m 36.206402,7.7104023 h -0.850595 q 0,0.1064537 0.03204,0.1860355 0.03204,0.078548 0.08785,0.1291913 0.05374,0.049609 0.127124,0.074414 0.07442,0.024805 0.163298,0.024805 0.117823,0 0.236679,-0.046509 0.119889,-0.047542 0.170532,-0.093018 h 0.01033 v 0.2118737 q -0.09819,0.041341 -0.200504,0.069247 -0.10232,0.027905 -0.214975,0.027905 -0.287321,0 -0.448552,-0.1550295 -0.161231,-0.1560631 -0.161231,-0.442351 0,-0.2831872 0.153996,-0.4495856 0.15503,-0.1663984 0.407211,-0.1663984 0.233578,0 0.359669,0.136426 0.127124,0.136426 0.127124,0.3875739 z M 36.017266,7.561574 q -10e-4,-0.1529625 -0.07751,-0.2366784 -0.07545,-0.083716 -0.230477,-0.083716 -0.156063,0 -0.249081,0.091984 -0.09198,0.091984 -0.104386,0.2284102 z"
         style="text-align:end;text-anchor:end;stroke-width:0.264583"
         id="path1013" />
      <path
         d="m 37.100406,8.2571398 q -0.05478,0.014469 -0.11989,0.023771 -0.06408,0.0093 -0.114722,0.0093 -0.176733,0 -0.268717,-0.095085 -0.09199,-0.095085 -0.09199,-0.3048914 V 7.2763196 H 36.373834 V 7.1130219 h 0.131258 V 6.7812587 h 0.194304 v 0.3317632 h 0.40101 v 0.1632977 h -0.40101 v 0.5260669 q 0,0.090951 0.0041,0.1426272 0.0041,0.050643 0.02894,0.095085 0.02274,0.041341 0.06201,0.060978 0.04031,0.018604 0.121956,0.018604 0.04754,0 0.09922,-0.013436 0.05168,-0.014469 0.07442,-0.023771 h 0.01033 z"
         style="text-align:end;text-anchor:end;stroke-width:0.264583"
         id="path1015" />
    </g>
    <g
       aria-label="by pat"
       id="text1020"
       style="font-size:2.11667px;line-height:1.25;font-family:sans-serif;stroke-width:0.264583"
       transform="translate(-1.46958,0.380335)">
      <path
         d="m 6.2871632,123.89821 q 0,0.1447 -0.041341,0.26045 -0.040308,0.11576 -0.1095542,0.1943 -0.073381,0.0817 -0.1612307,0.12299 -0.08785,0.0403 -0.1932702,0.0403 -0.098185,0 -0.171566,-0.0238 -0.073381,-0.0227 -0.1446942,-0.062 l -0.012402,0.0537 H 5.271203 v -1.60817 h 0.1943037 v 0.57464 q 0.081649,-0.0672 0.1736331,-0.10955 0.091984,-0.0434 0.206706,-0.0434 0.204639,0 0.3224614,0.1571 0.118856,0.15709 0.118856,0.44338 z m -0.2005048,0.005 q 0,-0.20671 -0.068213,-0.31316 -0.068213,-0.10749 -0.220142,-0.10749 -0.08475,0 -0.171566,0.0372 -0.086816,0.0362 -0.1612307,0.094 v 0.66146 q 0.082682,0.0372 0.1415936,0.0517 0.059945,0.0145 0.1353925,0.0145 0.1612307,0 0.2521814,-0.10542 0.091984,-0.10646 0.091984,-0.3328 z"
         style="stroke-width:0.264583"
         id="path1056" />
      <path
         d="m 7.5832101,123.32977 -0.6738617,1.58027 H 6.7016088 l 0.2149743,-0.48163 -0.459921,-1.09864 h 0.2108402 l 0.3545009,0.85576 0.3576014,-0.85576 z"
         style="stroke-width:0.264583"
         id="path1058" />
      <path
         d="m 9.5975604,123.89304 q 0,0.14056 -0.040308,0.25735 -0.040308,0.11576 -0.1136883,0.19637 -0.068213,0.0765 -0.1612307,0.11886 -0.091984,0.0413 -0.1953373,0.0413 -0.089917,0 -0.1632977,-0.0196 -0.072347,-0.0196 -0.1477949,-0.061 v 0.4837 H 8.5816002 v -1.58027 h 0.1943036 v 0.12092 q 0.077515,-0.0651 0.1736331,-0.10852 0.097152,-0.0444 0.2067061,-0.0444 0.2087731,0 0.3245285,0.15813 0.1167889,0.1571 0.1167889,0.43718 z m -0.2005049,0.005 q 0,-0.20877 -0.071314,-0.31213 -0.071314,-0.10335 -0.2191084,-0.10335 -0.083716,0 -0.1684654,0.0362 -0.08475,0.0362 -0.1622643,0.0951 v 0.65422 q 0.082683,0.0372 0.1415937,0.0507 0.059945,0.0134 0.1353924,0.0134 0.1622643,0 0.2532149,-0.10955 0.090951,-0.10955 0.090951,-0.32453 z"
         style="stroke-width:0.264583"
         id="path1060" />
      <path
         d="m 10.797489,124.48422 h -0.19327 v -0.12299 q -0.02584,0.0176 -0.07028,0.0496 -0.04341,0.031 -0.08475,0.0496 -0.04858,0.0238 -0.111621,0.0393 -0.06304,0.0165 -0.147795,0.0165 -0.156063,0 -0.2645834,-0.10335 -0.1085207,-0.10335 -0.1085207,-0.26355 0,-0.13126 0.055811,-0.21188 0.056844,-0.0816 0.1612301,-0.12815 0.10542,-0.0465 0.253215,-0.0631 0.147795,-0.0165 0.317294,-0.0248 v -0.03 q 0,-0.0661 -0.02377,-0.10955 -0.02274,-0.0434 -0.06615,-0.0682 -0.04134,-0.0238 -0.09922,-0.032 -0.05788,-0.008 -0.120923,-0.008 -0.07648,0 -0.170533,0.0207 -0.09405,0.0196 -0.194303,0.0579 H 9.918985 v -0.19741 q 0.056844,-0.0155 0.164332,-0.0341 0.107487,-0.0186 0.211873,-0.0186 0.121957,0 0.211874,0.0207 0.09095,0.0196 0.157097,0.0682 0.06511,0.0475 0.09922,0.12299 0.03411,0.0755 0.03411,0.18707 z M 10.604219,124.2 v -0.32143 q -0.08888,0.005 -0.209807,0.0155 -0.119889,0.0103 -0.190169,0.03 -0.08372,0.0238 -0.135393,0.0744 -0.05168,0.0496 -0.05168,0.13746 0,0.0992 0.05994,0.14986 0.05994,0.0496 0.182934,0.0496 0.10232,0 0.187069,-0.0393 0.08475,-0.0403 0.157097,-0.0961 z"
         style="stroke-width:0.264583"
         id="path1062" />
      <path
         d="m 11.771075,124.47389 q -0.05478,0.0145 -0.11989,0.0238 -0.06408,0.009 -0.114722,0.009 -0.176733,0 -0.268718,-0.0951 -0.09198,-0.0951 -0.09198,-0.3049 v -0.61391 h -0.131258 v -0.1633 h 0.131258 v -0.33176 h 0.194304 v 0.33176 h 0.40101 v 0.1633 h -0.40101 v 0.52606 q 0,0.0909 0.0041,0.14263 0.0041,0.0506 0.02894,0.0951 0.02274,0.0413 0.06201,0.061 0.04031,0.0186 0.121956,0.0186 0.04754,0 0.09922,-0.0134 0.05168,-0.0145 0.07441,-0.0238 h 0.01034 z"
         style="stroke-width:0.264583"
         id="path1064" />
    </g>
    <g
       aria-label=":)"
       id="text1020-6"
       style="font-size:2.11667px;line-height:1.25;font-family:sans-serif;display:inline;stroke-width:0.264583"
       transform="translate(-1.0464496,0.59114)">
      <path
         d="m 36.164617,123.62433 h -0.247014 v -0.29456 h 0.247014 z m 0,0.85989 h -0.247014 v -0.29455 h 0.247014 z"
         style="stroke-width:0.264583"
         id="path1044" />
      <path
         d="m 37.295299,123.89304 q 0,0.3111 -0.101286,0.55914 -0.101286,0.24805 -0.284221,0.45786 h -0.236679 v -0.0103 q 0.07958,-0.0713 0.159164,-0.17467 0.08062,-0.10231 0.141594,-0.22944 0.06408,-0.13229 0.101286,-0.27905 0.03824,-0.14676 0.03824,-0.3235 0,-0.1695 -0.03824,-0.32246 -0.03824,-0.15296 -0.101286,-0.28008 -0.06511,-0.13126 -0.141594,-0.22945 -0.07545,-0.0992 -0.159164,-0.17467 v -0.0103 h 0.236679 q 0.182935,0.20981 0.284221,0.45785 0.101286,0.24805 0.101286,0.55914 z"
         style="stroke-width:0.264583"
         id="path1046" />
    </g>
    <g
       aria-label="randy"
       id="text193"
       style="font-size:2.11667px;line-height:1.25;font-family:sans-serif;display:inline;stroke-width:0.264583"
       transform="translate(2.5400009)">
      <path
         d="m 18.143385,7.6798398 h -0.01033 q -0.04341,-0.010335 -0.08475,-0.014469 -0.04031,-0.00517 -0.09612,-0.00517 -0.08992,0 -0.173633,0.040308 -0.08372,0.039274 -0.161231,0.1023195 V 8.6224194 H 17.423015 V 7.4679661 h 0.194303 v 0.1705325 q 0.115756,-0.093018 0.203606,-0.1312584 0.08888,-0.039274 0.180868,-0.039274 0.05064,0 0.07338,0.0031 0.02274,0.00207 0.06821,0.0093 z"
         style="stroke-width:0.264583"
         id="path213" />
      <path
         d="m 19.186217,8.6224194 h -0.19327 V 8.4994293 q -0.02584,0.01757 -0.07028,0.049609 -0.04341,0.031006 -0.08475,0.049609 -0.04858,0.023771 -0.111622,0.039274 -0.06305,0.016537 -0.147795,0.016537 -0.156063,0 -0.264583,-0.103353 -0.108521,-0.1033531 -0.108521,-0.2635502 0,-0.1312584 0.05581,-0.2118737 0.05684,-0.081649 0.16123,-0.1281578 0.10542,-0.046509 0.253215,-0.063045 0.147795,-0.016536 0.317294,-0.024805 v -0.029972 q 0,-0.066146 -0.02377,-0.1095542 -0.02274,-0.043408 -0.06615,-0.068213 -0.04134,-0.023771 -0.09922,-0.03204 -0.05788,-0.00827 -0.120923,-0.00827 -0.07648,0 -0.170533,0.020671 -0.09405,0.019637 -0.194303,0.057878 h -0.01034 V 7.4927708 q 0.05684,-0.015503 0.164331,-0.034107 0.107487,-0.018603 0.211874,-0.018603 0.121956,0 0.211873,0.020671 0.09095,0.019637 0.157097,0.068213 0.06511,0.047542 0.09922,0.1229901 0.03411,0.075448 0.03411,0.1870689 z M 18.992947,8.3381985 V 8.0167706 q -0.08888,0.00517 -0.209807,0.015503 -0.119889,0.010335 -0.190169,0.029972 -0.08372,0.023771 -0.135393,0.074414 -0.05168,0.049609 -0.05168,0.1374595 0,0.099219 0.05994,0.1498619 0.05994,0.049609 0.182934,0.049609 0.10232,0 0.187069,-0.039274 0.08475,-0.040308 0.157097,-0.096118 z"
         style="stroke-width:0.264583"
         id="path215" />
      <path
         d="M 20.525672,8.6224194 H 20.331369 V 7.9650941 q 0,-0.079582 -0.0093,-0.1488283 -0.0093,-0.07028 -0.03411,-0.1095542 -0.02584,-0.043408 -0.07441,-0.064079 -0.04858,-0.021704 -0.12609,-0.021704 -0.07958,0 -0.166399,0.039274 -0.08682,0.039274 -0.166398,0.1002525 V 8.6224194 H 19.560355 V 7.4679661 h 0.194304 v 0.1281577 q 0.09095,-0.075448 0.188102,-0.1178224 0.09715,-0.042375 0.199472,-0.042375 0.187069,0 0.285254,0.1126548 0.09819,0.1126548 0.09819,0.3245284 z"
         style="stroke-width:0.264583"
         id="path217" />
      <path
         d="M 21.836189,8.6224194 H 21.641885 V 8.5014963 q -0.08372,0.072347 -0.174667,0.1126548 -0.09095,0.040308 -0.197404,0.040308 -0.206706,0 -0.328663,-0.1591637 -0.120923,-0.1591636 -0.120923,-0.4413174 0,-0.1467613 0.04134,-0.2614831 0.04237,-0.1147219 0.113688,-0.1953372 0.07028,-0.078548 0.163298,-0.1198895 0.09405,-0.041341 0.194303,-0.041341 0.09095,0 0.161231,0.019637 0.07028,0.018604 0.147795,0.058911 V 7.0142463 h 0.194304 z M 21.641885,8.3381985 V 7.6757057 q -0.07855,-0.03514 -0.14056,-0.048576 -0.06201,-0.013436 -0.135393,-0.013436 -0.163297,0 -0.254248,0.1136883 -0.09095,0.1136883 -0.09095,0.3224614 0,0.2056725 0.07028,0.3131597 0.07028,0.1064536 0.22531,0.1064536 0.08268,0 0.167432,-0.036174 0.08475,-0.037207 0.15813,-0.095085 z"
         style="stroke-width:0.264583"
         id="path219" />
      <path
         d="M 23.216985,7.4679661 22.543123,9.0482338 H 22.335384 L 22.550358,8.5666087 22.090437,7.4679661 h 0.21084 l 0.354501,0.855763 0.357602,-0.855763 z"
         style="stroke-width:0.264583"
         id="path221" />
    </g>
  </g>
  <g
     inkscape:groupmode="layer"
     id="layer2"
     inkscape:label="components"
     style="display:none"
     sodipodi:insensitive="true">
    <circle
       style="fill:#ff0000;stroke-width:0.264583"
       id="path23"
       cx="15.239999"
       cy="16.06249"
       r="0.93544334"
       inkscape:label="tempo" />
    <circle
       style="fill:#ff0000;stroke-width:0.264583"
       id="path23-2"
       cx="25.399998"
       cy="16.06249"
       r="0.93544334"
       inkscape:label="reset" />
    <circle
       style="fill:#00ff00;stroke-width:0.264583"
       id="path23-29"
       cx="5.0799985"
       cy="16.06249"
       r="0.93544334"
       inkscape:label="tempo_cv" />
    <circle
       style="fill:#00ff00;stroke-width:0.264583"
       id="path23-29-8"
       cx="35.560001"
       cy="16.06249"
       r="0.93544334"
       inkscape:label="reset_cv" />
    <rect
       style="fill:#ffff00;stroke-width:0.264583"
       id="rect89"
       width="25.4"
       height="8.03125"
       x="5.0799985"
       y="24.09374"
       inkscape:label="slider1" />
    <rect
       style="fill:#ffff00;stroke-width:0.264583"
       id="rect91"
       width="25.4"
       height="8.03125"
       x="5.0799971"
       y="36.140621"
       inkscape:label="slider2" />
    <rect
       style="fill:#ffff00;stroke-width:0.264583"
       id="rect93"
       width="25.4"
       height="8.03125"
       x="5.0799971"
       y="48.187477"
       inkscape:label="slider3" />
    <rect
       style="fill:#ffff00;stroke-width:0.264583"
       id="rect95"
       width="25.4"
       height="8.03125"
       x="5.0799985"
       y="60.234287"
       inkscape:label="slider4" />
    <rect
       style="fill:#ffff00;stroke-width:0.264583"
       id="rect97"
       width="25.4"
       height="8.03125"
       x="5.0799985"
       y="72.281151"
       inkscape:label="slider5" />
    <rect
       style="fill:#ffff00;stroke-width:0.295813"
       id="rect99"
       width="25.4"
       height="8.03125"
       x="5.0799966"
       y="84.328056"
       inkscape:label="slider6" />
    <rect
       style="fill:#ffff00;stroke-width:0.264583"
       id="rect101"
       width="25.4"
       height="8.03125"
       x="5.0799971"
       y="96.374924"
       inkscape:label="slider7" />
    <circle
       style="fill:#0000ff;stroke-width:0.264583"
       id="path23-29-8-2"
       cx="35.560001"
       cy="28.10932"
       r="0.93544334"
       inkscape:label="output1" />
    <circle
       style="fill:#0000ff;stroke-width:0.264583"
       id="path23-29-8-4"
       cx="35.560001"
       cy="40.1562"
       r="0.93544334"
       inkscape:label="output2" />
    <circle
       style="fill:#0000ff;stroke-width:0.264583"
       id="path23-29-8-0"
       cx="35.560001"
       cy="52.20306"
       r="0.93544334"
       inkscape:label="output3" />
    <circle
       style="fill:#0000ff;stroke-width:0.264583"
       id="path23-29-8-5"
       cx="35.560001"
       cy="64.249924"
       r="0.93544334"
       inkscape:label="output4" />
    <circle
       style="fill:#0000ff;stroke-width:0.264583"
       id="path23-29-8-51"
       cx="35.560001"
       cy="76.296783"
       r="0.93544334"
       inkscape:label="output5" />
    <circle
       style="fill:#0000ff;stroke-width:0.264583"
       id="path23-29-8-29"
       cx="35.560001"
       cy="88.343643"
       r="0.93544334"
       inkscape:label="output6" />
    <circle
       style="fill:#0000ff;stroke-width:0.264583"
       id="path23-29-8-07"
       cx="35.560001"
       cy="100.3905"
       r="0.93544334"
       inkscape:label="output7" />
    <rect
       style="display:inline;fill:#ffff00;stroke-width:0.264583"
       id="rect101-5"
       width="25.4"
       height="8.03125"
       x="5.0799956"
       y="108.42178"
       inkscape:label="slider8" />
    <circle
       style="display:inline;fill:#0000ff;stroke-width:0.264583"
       id="path23-29-8-07-2"
       cx="35.560001"
       cy="112.43736"
       r="0.93544334"
       inkscape:label="output8" />
    <circle
       style="display:inline;fill:#ff0000;stroke-width:0.264583"
       id="path23-2-7"
       cx="22.860001"
       cy="12.04686"
       r="0.93544334"
       inkscape:label="randomise" />
  </g>
</svg>
