<?xml version="1.0" encoding="UTF-8" standalone="no"?>
<svg
   xmlns:dc="http://purl.org/dc/elements/1.1/"
   xmlns:cc="http://creativecommons.org/ns#"
   xmlns:rdf="http://www.w3.org/1999/02/22-rdf-syntax-ns#"
   xmlns:svg="http://www.w3.org/2000/svg"
   xmlns="http://www.w3.org/2000/svg"
   xmlns:sodipodi="http://sodipodi.sourceforge.net/DTD/sodipodi-0.dtd"
   xmlns:inkscape="http://www.inkscape.org/namespaces/inkscape"
   width="5.0799999mm"
   height="4.0159998mm"
   viewBox="0 0 5.0799999 4.0159998"
   version="1.1"
   id="svg1878"
   inkscape:version="1.0.1 (3bc2e813f5, 2020-09-07)"
   sodipodi:docname="a.svg">
  <defs
     id="defs1872">
    <rect
       x="0"
       y="0"
       width="5.0799998"
       height="4.0159998"
       id="rect866" />
    <rect
       x="0"
       y="0"
       width="5.0799998"
       height="4.0159998"
       id="rect847" />
  </defs>
  <sodipodi:namedview
     id="base"
     pagecolor="#ffffff"
     bordercolor="#666666"
     borderopacity="1.0"
     inkscape:pageopacity="0.0"
     inkscape:pageshadow="2"
     inkscape:zoom="15.839192"
     inkscape:cx="5.6343332"
     inkscape:cy="7.8625902"
     inkscape:document-units="mm"
     inkscape:current-layer="layer1"
     inkscape:document-rotation="0"
     showgrid="true"
     inkscape:object-nodes="false"
     inkscape:snap-center="true"
     inkscape:window-width="1858"
     inkscape:window-height="1057"
     inkscape:window-x="-8"
     inkscape:window-y="-8"
     inkscape:window-maximized="1"
     inkscape:snap-grids="true"
     inkscape:snap-to-guides="false">
    <inkscape:grid
       type="xygrid"
       id="grid2441"
       units="mm"
       spacingx="2.5399999"
       spacingy="2.0079999" />
  </sodipodi:namedview>
  <metadata
     id="metadata1875">
    <rdf:RDF>
      <cc:Work
         rdf:about="">
        <dc:format>image/svg+xml</dc:format>
        <dc:type
           rdf:resource="http://purl.org/dc/dcmitype/StillImage" />
        <dc:title />
      </cc:Work>
    </rdf:RDF>
  </metadata>
  <g
     inkscape:label="Layer 1"
     inkscape:groupmode="layer"
     id="layer1">
    <rect
       style="fill:#000000;fill-opacity:1;stroke:none;stroke-width:1;stroke-miterlimit:4;stroke-dasharray:none;stroke-dashoffset:0"
       id="rect2460"
       width="5.0799994"
       height="4.0159998"
       x="0"
       y="0" />
    <rect
       style="fill:#e8617a;fill-opacity:1;stroke:none;stroke-width:0.776635;stroke-miterlimit:4;stroke-dasharray:none;stroke-dashoffset:0"
       id="rect2460-5"
       width="4.0799999"
       height="3.016"
       x="0.49999994"
       y="0.49999988" />
    <g
       aria-label="a"
       id="text864"
       style="font-size:3.175px;line-height:1.25;font-family:'Berlin Sans FB';-inkscape-font-specification:'Berlin Sans FB';text-align:center;text-anchor:middle;white-space:pre;shape-inside:url(#rect866)">
      <path
         d="m 3.3252624,1.5820984 q 0,0.0062 -0.00465,0.027905 -0.060461,0.3550171 -0.060461,0.6123657 0,0.015503 0.038757,0.6960815 l 0.00155,0.021704 q 0.00155,0.044959 -0.041858,0.044959 -0.041858,0 -0.1286743,0.0093 -0.085266,0.010852 -0.127124,0.010852 -0.029456,0 -0.044958,-0.1085205 -0.015503,-0.1085205 -0.029456,-0.1085205 -0.0093,0 -0.083716,0.060461 -0.091467,0.074414 -0.1705322,0.1131714 -0.1224731,0.062012 -0.2449463,0.062012 -0.3007568,0 -0.5069458,-0.2402954 -0.1953369,-0.2294433 -0.1953369,-0.534851 0,-0.3441651 0.1968872,-0.5689575 0.206189,-0.2340943 0.5426025,-0.2340943 0.2371949,0 0.4139283,0.1643311 0.026355,0.031006 0.082166,0.089917 0.00465,0.00465 0.0093,0.00465 0.0093,0 0.026355,-0.097668 0.017053,-0.097668 0.043408,-0.097668 0.041858,0 0.1565796,0.023254 0.127124,0.027905 0.127124,0.049609 z M 2.9299377,2.2301209 q 0,-0.1906861 -0.1131713,-0.3271119 -0.1193726,-0.1472778 -0.3054078,-0.1472778 -0.1860351,0 -0.3100585,0.1457275 -0.1193726,0.1395264 -0.1193726,0.3286622 0,0.1875854 0.1193726,0.3255615 0.1240234,0.1441772 0.3100585,0.1441772 0.1813843,0 0.3038575,-0.1472778 0.1147216,-0.1379761 0.1147216,-0.3224609 z"
         style="font-size:3.175px;text-align:center;text-anchor:middle"
         id="path870" />
    </g>
  </g>
</svg>
