<?xml version="1.0" encoding="UTF-8" standalone="no"?>
<svg
   xmlns:dc="http://purl.org/dc/elements/1.1/"
   xmlns:cc="http://creativecommons.org/ns#"
   xmlns:rdf="http://www.w3.org/1999/02/22-rdf-syntax-ns#"
   xmlns:svg="http://www.w3.org/2000/svg"
   xmlns="http://www.w3.org/2000/svg"
   xmlns:sodipodi="http://sodipodi.sourceforge.net/DTD/sodipodi-0.dtd"
   xmlns:inkscape="http://www.inkscape.org/namespaces/inkscape"
   width="5.0799999mm"
   height="4.0159998mm"
   viewBox="0 0 5.0799999 4.0159998"
   version="1.1"
   id="svg1878"
   inkscape:version="1.0.1 (3bc2e813f5, 2020-09-07)"
   sodipodi:docname="b.svg">
  <defs
     id="defs1872">
    <rect
       x="0"
       y="0"
       width="5.0799998"
       height="4.0159998"
       id="rect848" />
    <rect
       x="0"
       y="0"
       width="5.0799998"
       height="4.0159998"
       id="rect861" />
  </defs>
  <sodipodi:namedview
     id="base"
     pagecolor="#ffffff"
     bordercolor="#666666"
     borderopacity="1.0"
     inkscape:pageopacity="0.0"
     inkscape:pageshadow="2"
     inkscape:zoom="15.839192"
     inkscape:cx="15.397659"
     inkscape:cy="3.5403433"
     inkscape:document-units="mm"
     inkscape:current-layer="layer1"
     inkscape:document-rotation="0"
     showgrid="true"
     inkscape:object-nodes="false"
     inkscape:snap-center="false"
     inkscape:window-width="1858"
     inkscape:window-height="1057"
     inkscape:window-x="-8"
     inkscape:window-y="-8"
     inkscape:window-maximized="1"
     inkscape:snap-grids="true"
     inkscape:snap-to-guides="false"
     inkscape:snap-text-baseline="true">
    <inkscape:grid
       type="xygrid"
       id="grid2441"
       units="mm"
       spacingx="2.5399999"
       spacingy="2.0079999" />
  </sodipodi:namedview>
  <metadata
     id="metadata1875">
    <rdf:RDF>
      <cc:Work
         rdf:about="">
        <dc:format>image/svg+xml</dc:format>
        <dc:type
           rdf:resource="http://purl.org/dc/dcmitype/StillImage" />
        <dc:title />
      </cc:Work>
    </rdf:RDF>
  </metadata>
  <g
     inkscape:label="Layer 1"
     inkscape:groupmode="layer"
     id="layer1">
    <rect
       style="fill:#000000;fill-opacity:1;stroke:none;stroke-width:1;stroke-miterlimit:4;stroke-dasharray:none;stroke-dashoffset:0"
       id="rect2460"
       width="5.0799994"
       height="4.0159998"
       x="0"
       y="0" />
    <rect
       style="fill:#e8617a;fill-opacity:1;stroke:none;stroke-width:0.776635;stroke-miterlimit:4;stroke-dasharray:none;stroke-dashoffset:0"
       id="rect2460-5"
       width="4.0799999"
       height="3.016"
       x="0.49999994"
       y="0.49999988" />
    <g
       aria-label="b"
       id="text846"
       style="font-size:3.175px;line-height:1.25;font-family:'Berlin Sans FB';-inkscape-font-specification:'Berlin Sans FB';text-align:center;text-anchor:middle;white-space:pre;shape-inside:url(#rect848)">
      <path
         d="m 3.3562683,2.236322 q 0,0.306958 -0.190686,0.5348511 -0.2030884,0.2418457 -0.5053955,0.2418457 -0.2015381,0 -0.3550171,-0.1023193 -0.062012,-0.05271 -0.1240235,-0.1038697 -0.017053,0.00465 -0.023254,0.093018 -0.00465,0.088367 -0.024805,0.088367 H 1.8059754 q -0.018604,0 -0.018604,-0.020154 0,0.00155 0.0031,-0.027905 0.024805,-0.2480469 0.024805,-0.9487793 0,-0.2868042 -0.024805,-0.841809 -0.015503,-0.35346682 -0.015503,-0.31005862 0,-0.0403076 0.040308,-0.0449585 0.055811,-0.00155 0.1658814,-0.006201 0.021704,-0.00155 0.088367,-0.0108521 0.05581,-0.009302 0.089917,-0.009302 0.024805,0 0.024805,0.0356567 0,0.05271 -0.00775,0.16123047 -0.00775,0.10852049 -0.00775,0.16278079 0,0.080615 -0.00775,0.243396 -0.0062,0.1612304 -0.0062,0.2418457 0,0.058911 0.021704,0.058911 0.010852,0 0.023254,-0.017053 Q 2.370282,1.442572 2.650885,1.442572 q 0.3209106,0 0.5193481,0.2402954 0.1860352,0.2263428 0.1860352,0.5534546 z M 3.0059021,2.2223694 q 0,-0.1844849 -0.116272,-0.3255615 -0.1240234,-0.1503784 -0.3054077,-0.1503784 -0.1860351,0 -0.3100586,0.1472778 -0.1193725,0.1395263 -0.1193725,0.3286621 0,0.1922363 0.1193725,0.3317627 0.1240235,0.1457275 0.3131592,0.1457275 0.1829346,0 0.3054077,-0.1503784 0.1131714,-0.1395264 0.1131714,-0.3271118 z"
         style="font-size:3.175px;text-align:center;text-anchor:middle"
         id="path852" />
    </g>
  </g>
</svg>
