<?xml version="1.0" encoding="UTF-8" standalone="no"?>
<svg
   xmlns:dc="http://purl.org/dc/elements/1.1/"
   xmlns:cc="http://creativecommons.org/ns#"
   xmlns:rdf="http://www.w3.org/1999/02/22-rdf-syntax-ns#"
   xmlns:svg="http://www.w3.org/2000/svg"
   xmlns="http://www.w3.org/2000/svg"
   xmlns:sodipodi="http://sodipodi.sourceforge.net/DTD/sodipodi-0.dtd"
   xmlns:inkscape="http://www.inkscape.org/namespaces/inkscape"
   width="5.0799999mm"
   height="4.0159998mm"
   viewBox="0 0 5.0799999 4.0159998"
   version="1.1"
   id="svg1878"
   inkscape:version="1.0.1 (3bc2e813f5, 2020-09-07)"
   sodipodi:docname="d.svg">
  <defs
     id="defs1872">
    <rect
       x="0"
       y="0"
       width="5.0799998"
       height="4.0159998"
       id="rect847" />
  </defs>
  <sodipodi:namedview
     id="base"
     pagecolor="#ffffff"
     bordercolor="#666666"
     borderopacity="1.0"
     inkscape:pageopacity="0.0"
     inkscape:pageshadow="2"
     inkscape:zoom="22.4"
     inkscape:cx="11.501649"
     inkscape:cy="1.8562469"
     inkscape:document-units="mm"
     inkscape:current-layer="layer1"
     inkscape:document-rotation="0"
     showgrid="true"
     inkscape:object-nodes="false"
     inkscape:snap-center="true"
     inkscape:window-width="1858"
     inkscape:window-height="1057"
     inkscape:window-x="-8"
     inkscape:window-y="-8"
     inkscape:window-maximized="1"
     inkscape:snap-grids="true"
     inkscape:snap-to-guides="false">
    <inkscape:grid
       type="xygrid"
       id="grid2441"
       units="mm"
       spacingx="2.5399999"
       spacingy="2.0079999" />
  </sodipodi:namedview>
  <metadata
     id="metadata1875">
    <rdf:RDF>
      <cc:Work
         rdf:about="">
        <dc:format>image/svg+xml</dc:format>
        <dc:type
           rdf:resource="http://purl.org/dc/dcmitype/StillImage" />
        <dc:title />
      </cc:Work>
    </rdf:RDF>
  </metadata>
  <g
     inkscape:label="Layer 1"
     inkscape:groupmode="layer"
     id="layer1">
    <rect
       style="fill:#000000;fill-opacity:1;stroke:none;stroke-width:1;stroke-miterlimit:4;stroke-dasharray:none;stroke-dashoffset:0"
       id="rect2460"
       width="5.0799994"
       height="4.0159998"
       x="0"
       y="0" />
    <rect
       style="fill:#e8617a;fill-opacity:1;stroke:none;stroke-width:0.776635;stroke-miterlimit:4;stroke-dasharray:none;stroke-dashoffset:0"
       id="rect2460-5"
       width="4.0799999"
       height="3.016"
       x="0.49999994"
       y="0.49999988" />
    <g
       aria-label="d"
       id="text845"
       style="font-size:3.175px;line-height:1.25;font-family:'Berlin Sans FB';-inkscape-font-specification:'Berlin Sans FB';text-align:center;text-anchor:middle;white-space:pre;shape-inside:url(#rect847)">
      <path
         d="m 3.3051086,0.82245486 q 0,0.19998774 -0.018604,0.59996334 -0.017053,0.3984253 -0.017053,0.5968628 0,0.6123657 0.026355,0.9270752 l 0.00155,0.020154 q 0.00155,0.015503 -0.041858,0.020154 -0.029456,0.0031 -0.083716,0 -0.065112,-0.00465 -0.060461,-0.00465 -0.023254,0 -0.068213,0.00465 -0.044958,0.00465 -0.068213,0.00465 -0.021704,0 -0.026355,-0.1069702 -0.0031,-0.1085205 -0.010852,-0.1100708 -0.0093,0.00465 -0.023254,0.020154 -0.2123901,0.2294433 -0.4883423,0.2294433 -0.3131591,0 -0.5146972,-0.2387451 Q 1.720709,2.5603329 1.720709,2.2425229 q 0,-0.3302124 0.1922364,-0.5550049 0.201538,-0.2356445 0.5255493,-0.2356445 0.1953369,0 0.3410644,0.1147217 0.066663,0.057361 0.1317749,0.1162719 0.012402,-0.00465 0.012402,-0.021704 V 1.1588684 q 0,-0.05116 -0.00465,-0.1550293 -0.00465,-0.1038696 -0.00465,-0.15657956 0,-0.037207 0.024805,-0.037207 0.057361,0 0.1705322,-0.009302 0.1131714,-0.0108521 0.168982,-0.0108521 0.026355,0 0.026355,0.0325562 z M 2.9175354,2.2332214 q 0,-0.1860351 -0.1147217,-0.3271118 -0.1224731,-0.1503784 -0.3038574,-0.1503784 -0.190686,0 -0.3147095,0.1488281 -0.1178222,0.1395264 -0.1178222,0.3348633 0,0.1860352 0.1224731,0.3240112 0.1255737,0.1457276 0.3100586,0.1457276 0.1860352,0 0.306958,-0.1472779 0.1116211,-0.137976 0.1116211,-0.3286621 z"
         style="font-size:3.175px;text-align:center;text-anchor:middle"
         id="path851" />
    </g>
  </g>
</svg>
