<?xml version="1.0" encoding="UTF-8" standalone="no"?>
<svg
   xmlns:dc="http://purl.org/dc/elements/1.1/"
   xmlns:cc="http://creativecommons.org/ns#"
   xmlns:rdf="http://www.w3.org/1999/02/22-rdf-syntax-ns#"
   xmlns:svg="http://www.w3.org/2000/svg"
   xmlns="http://www.w3.org/2000/svg"
   xmlns:sodipodi="http://sodipodi.sourceforge.net/DTD/sodipodi-0.dtd"
   xmlns:inkscape="http://www.inkscape.org/namespaces/inkscape"
   width="5.0799999mm"
   height="4.0159998mm"
   viewBox="0 0 5.0799999 4.0159998"
   version="1.1"
   id="svg1878"
   inkscape:version="1.0.1 (3bc2e813f5, 2020-09-07)"
   sodipodi:docname="reset_pressed.svg">
  <defs
     id="defs1872">
    <rect
       x="0"
       y="0"
       width="5.0799998"
       height="4.0159998"
       id="rect848" />
    <rect
       x="0"
       y="0"
       width="5.0799998"
       height="4.0159998"
       id="rect847" />
  </defs>
  <sodipodi:namedview
     id="base"
     pagecolor="#ffffff"
     bordercolor="#666666"
     borderopacity="1.0"
     inkscape:pageopacity="0.0"
     inkscape:pageshadow="2"
     inkscape:zoom="22.4"
     inkscape:cx="11.501649"
     inkscape:cy="1.8562469"
     inkscape:document-units="mm"
     inkscape:current-layer="layer1"
     inkscape:document-rotation="0"
     showgrid="true"
     inkscape:object-nodes="false"
     inkscape:snap-center="true"
     inkscape:window-width="1858"
     inkscape:window-height="1057"
     inkscape:window-x="-8"
     inkscape:window-y="-8"
     inkscape:window-maximized="1"
     inkscape:snap-grids="true"
     inkscape:snap-to-guides="false">
    <inkscape:grid
       type="xygrid"
       id="grid2441"
       units="mm"
       spacingx="2.5399999"
       spacingy="2.0079999" />
  </sodipodi:namedview>
  <metadata
     id="metadata1875">
    <rdf:RDF>
      <cc:Work
         rdf:about="">
        <dc:format>image/svg+xml</dc:format>
        <dc:type
           rdf:resource="http://purl.org/dc/dcmitype/StillImage" />
        <dc:title />
      </cc:Work>
    </rdf:RDF>
  </metadata>
  <g
     inkscape:label="Layer 1"
     inkscape:groupmode="layer"
     id="layer1">
    <rect
       style="fill:#000000;fill-opacity:1;stroke:none;stroke-width:1;stroke-miterlimit:4;stroke-dasharray:none;stroke-dashoffset:0"
       id="rect2460"
       width="5.0799994"
       height="4.0159998"
       x="0"
       y="0" />
    <rect
       style="fill:#f1a6b3;fill-opacity:1;stroke:none;stroke-width:0.776635;stroke-miterlimit:4;stroke-dasharray:none;stroke-dashoffset:0"
       id="rect2460-5"
       width="4.0799999"
       height="3.016"
       x="0.49999994"
       y="0.49999988" />
    <g
       aria-label="r"
       id="text846"
       style="font-size:3.175px;line-height:1.25;font-family:'Berlin Sans FB';-inkscape-font-specification:'Berlin Sans FB';text-align:center;text-anchor:middle;white-space:pre;shape-inside:url(#rect848)">
      <path
         d="m 3.0562866,1.5293884 q 0,0.1705323 -0.023254,0.3100586 -0.00465,0.035657 -0.031006,0.035657 -0.032556,0 -0.099219,-0.0062 -0.065112,-0.00775 -0.099219,-0.00775 -0.1953369,0 -0.2495972,0.1100708 -0.032556,0.066663 -0.032556,0.2775025 v 0.1705322 q 0,0.086816 0.0062,0.2635498 0.00775,0.1767334 0.00775,0.2635498 0,0.041858 -0.035657,0.041858 -0.048059,0 -0.1457275,-0.00155 -0.097668,-0.00155 -0.1457275,-0.00155 -0.035657,0 -0.035657,-0.038757 0,-0.1255737 0.0031,-0.3782715 0.00465,-0.2526977 0.00465,-0.3798218 0,-0.3829223 -0.071314,-0.6154663 -0.0031,-0.012402 -0.0031,-0.018603 0,-0.018603 0.020154,-0.026355 0.057361,-0.0062 0.1612305,-0.018603 0.1674317,-0.031006 0.1550293,-0.031006 0.024805,0 0.032556,0.091467 0.00775,0.091467 0.027905,0.091467 0.0031,0 0.00775,-0.0031 0.063562,-0.040308 0.127124,-0.080615 0.069763,-0.041858 0.142627,-0.062012 0.060461,-0.018604 0.1550293,-0.018604 0.1209228,0 0.1209228,0.032556 z"
         style="font-size:3.175px;text-align:center;text-anchor:middle"
         id="path852" />
    </g>
  </g>
</svg>
