<?xml version="1.0" encoding="UTF-8" standalone="no"?>
<svg
   xmlns:dc="http://purl.org/dc/elements/1.1/"
   xmlns:cc="http://creativecommons.org/ns#"
   xmlns:rdf="http://www.w3.org/1999/02/22-rdf-syntax-ns#"
   xmlns:svg="http://www.w3.org/2000/svg"
   xmlns="http://www.w3.org/2000/svg"
   xmlns:sodipodi="http://sodipodi.sourceforge.net/DTD/sodipodi-0.dtd"
   xmlns:inkscape="http://www.inkscape.org/namespaces/inkscape"
   width="11.071mm"
   height="11.071mm"
   viewBox="0 0 11.071 11.071"
   version="1.1"
   id="svg933"
   inkscape:version="1.0.1 (3bc2e813f5, 2020-09-07)"
   sodipodi:docname="off.svg">
  <defs
     id="defs927" />
  <sodipodi:namedview
     id="base"
     pagecolor="#ffffff"
     bordercolor="#666666"
     borderopacity="1.0"
     inkscape:pageopacity="0.0"
     inkscape:pageshadow="2"
     inkscape:zoom="14.297561"
     inkscape:cx="29.497008"
     inkscape:cy="16.685992"
     inkscape:document-units="mm"
     inkscape:current-layer="layer1"
     inkscape:document-rotation="0"
     showgrid="true"
     inkscape:window-width="1858"
     inkscape:window-height="1057"
     inkscape:window-x="-8"
     inkscape:window-y="-8"
     inkscape:window-maximized="1"
     inkscape:snap-center="true">
    <inkscape:grid
       type="xygrid"
       id="grid1496"
       originx="4.1779999"
       originy="4.1779999"
       units="mm"
       spacingx="0.52225"
       spacingy="0.52225" />
  </sodipodi:namedview>
  <metadata
     id="metadata930">
    <rdf:RDF>
      <cc:Work
         rdf:about="">
        <dc:format>image/svg+xml</dc:format>
        <dc:type
           rdf:resource="http://purl.org/dc/dcmitype/StillImage" />
        <dc:title />
      </cc:Work>
    </rdf:RDF>
  </metadata>
  <g
     inkscape:label="Layer 1"
     inkscape:groupmode="layer"
     id="layer1">
    <circle
       style="fill:#000000;stroke-width:0.35055"
       id="path1498"
       cx="5.5355"
       cy="5.5355"
       r="5.5355" />
    <circle
       style="display:inline;fill:#e6e6e6;stroke-width:0.285753"
       id="path1500-5"
       cx="5.5355"
       cy="5.5355"
       r="3.9482503" />
    <ellipse
       style="fill:#e6e6e6;fill-opacity:1;stroke-width:0.233698"
       id="path833"
       cx="5.5355"
       cy="5.5355"
       rx="2.7677503"
       ry="2.76775" />
    <g
       aria-label=":^("
       transform="matrix(0,1.3249162,-1.3249162,0,0,0)"
       id="text1426"
       style="font-size:3.175px;line-height:1.25;font-family:'Berlin Sans FB';-inkscape-font-specification:'Berlin Sans FB';stroke-width:0.264583">
      <path
         d="m 3.0920197,-4.5725496 q 0,0.065112 -0.010852,0.1085205 -0.010852,0.043408 -0.037207,0.071314 -0.024805,0.027905 -0.066663,0.040308 -0.041858,0.010852 -0.10542,0.010852 -0.063562,0 -0.1054199,-0.010852 -0.041858,-0.012402 -0.068213,-0.040308 -0.024805,-0.027905 -0.034106,-0.071314 -0.0093,-0.043408 -0.0093,-0.1085205 0,-0.066663 0.0093,-0.1116211 0.0093,-0.044958 0.034106,-0.072864 0.026355,-0.027905 0.068213,-0.040308 0.041858,-0.012402 0.1054199,-0.012402 0.063562,0 0.10542,0.012402 0.041858,0.012402 0.066663,0.040308 0.026355,0.027905 0.037207,0.072864 0.010852,0.044958 0.010852,0.1116211 z m 0,1.0123413 q 0,0.065112 -0.010852,0.1100708 -0.010852,0.043408 -0.037207,0.071314 -0.024805,0.027905 -0.066663,0.038757 -0.041858,0.012402 -0.10542,0.012402 -0.063562,0 -0.1054199,-0.012402 -0.041858,-0.010852 -0.068213,-0.038757 -0.024805,-0.027905 -0.034106,-0.071314 -0.0093,-0.044959 -0.0093,-0.1100708 0,-0.065112 0.0093,-0.1100708 0.0093,-0.046509 0.034106,-0.074414 0.026355,-0.027905 0.068213,-0.038757 0.041858,-0.012402 0.1054199,-0.012402 0.063562,0 0.10542,0.012402 0.041858,0.010852 0.066663,0.038757 0.026355,0.027905 0.037207,0.074414 0.010852,0.044959 0.010852,0.1100708 z"
         style="font-style:normal;font-variant:normal;font-weight:bold;font-stretch:normal;font-family:Calibri;-inkscape-font-specification:'Calibri Bold';stroke-width:0.264583"
         id="path1428" />
      <path
         d="m 4.7833894,-4.2717927 q 0.020154,0.043408 0.024805,0.069763 0.00465,0.026355 -0.012402,0.040308 -0.015503,0.013953 -0.05581,0.018604 -0.038757,0.0031 -0.1069703,0.0031 -0.060461,0 -0.100769,-0.0031 -0.038757,-0.00465 -0.065112,-0.012402 -0.024805,-0.0093 -0.038757,-0.021704 -0.012402,-0.013953 -0.020154,-0.032556 l -0.3426148,-0.8387085 -0.00775,0.00155 -0.3286621,0.8371582 q -0.00775,0.018604 -0.021704,0.032556 -0.012402,0.012402 -0.037207,0.021704 -0.024805,0.00775 -0.065112,0.012402 -0.038757,0.0031 -0.099219,0.0031 -0.068213,0 -0.1069702,-0.0031 -0.037207,-0.00465 -0.05426,-0.018604 -0.015503,-0.013953 -0.010852,-0.040308 0.00465,-0.026355 0.024805,-0.069763 l 0.4464844,-1.0169922 q 0.0093,-0.020154 0.027905,-0.034106 0.018603,-0.015503 0.049609,-0.024805 0.032556,-0.010852 0.077515,-0.015503 0.044959,-0.0062 0.1069702,-0.0062 0.062012,0 0.1069702,0.0062 0.046509,0.00465 0.077515,0.015503 0.031006,0.0093 0.049609,0.024805 0.018604,0.013953 0.027905,0.034106 z"
         style="font-style:normal;font-variant:normal;font-weight:bold;font-stretch:normal;font-family:Calibri;-inkscape-font-specification:'Calibri Bold';stroke-width:0.264583"
         id="path1430" />
      <path
         d="m 5.6934113,-5.4686189 q -0.1302246,0.3023071 -0.1968872,0.6247681 -0.066663,0.3209106 -0.066663,0.6588745 0,0.3395141 0.066663,0.6604248 0.068213,0.3193603 0.1953369,0.6263183 0.0093,0.024805 0.0093,0.041858 0,0.018603 -0.017053,0.031006 -0.017053,0.012402 -0.05271,0.018604 -0.034106,0.0062 -0.096118,0.0062 -0.043408,0 -0.074414,-0.0031 -0.031006,-0.0031 -0.05271,-0.0093 -0.020154,-0.00465 -0.032556,-0.013953 -0.010852,-0.00775 -0.015503,-0.018604 -0.083716,-0.1612305 -0.1457276,-0.3255615 -0.062012,-0.1627808 -0.1038696,-0.3286621 -0.040308,-0.1674317 -0.060461,-0.3364136 -0.020154,-0.1705322 -0.020154,-0.3457153 0,-0.1736329 0.020154,-0.3426148 0.021704,-0.1705322 0.063562,-0.3364136 0.041858,-0.1674316 0.1023193,-0.3317626 0.062012,-0.1643311 0.1441773,-0.3271119 0.0031,-0.00775 0.012402,-0.013953 0.0093,-0.0062 0.027905,-0.010852 0.018603,-0.0062 0.049609,-0.00775 0.032556,-0.0031 0.082166,-0.0031 0.05581,0 0.091467,0.0062 0.035657,0.00465 0.05426,0.015503 0.018604,0.010852 0.020154,0.027905 0.0031,0.017053 -0.00465,0.037207 z"
         style="font-style:normal;font-variant:normal;font-weight:bold;font-stretch:normal;font-family:Calibri;-inkscape-font-specification:'Calibri Bold';stroke-width:0.264583"
         id="path1432" />
    </g>
  </g>
</svg>
