<?xml version="1.0" encoding="UTF-8" standalone="no"?>
<svg
   xmlns:dc="http://purl.org/dc/elements/1.1/"
   xmlns:cc="http://creativecommons.org/ns#"
   xmlns:rdf="http://www.w3.org/1999/02/22-rdf-syntax-ns#"
   xmlns:svg="http://www.w3.org/2000/svg"
   xmlns="http://www.w3.org/2000/svg"
   xmlns:sodipodi="http://sodipodi.sourceforge.net/DTD/sodipodi-0.dtd"
   xmlns:inkscape="http://www.inkscape.org/namespaces/inkscape"
   width="40.639999mm"
   height="128.5mm"
   viewBox="0 0 40.639999 128.5"
   version="1.1"
   id="svg8"
   inkscape:version="1.0.1 (3bc2e813f5, 2020-09-07)"
   sodipodi:docname="template.svg">
  <defs
     id="defs2" />
  <sodipodi:namedview
     id="base"
     pagecolor="#ffffff"
     bordercolor="#666666"
     borderopacity="1.0"
     inkscape:pageopacity="0.0"
     inkscape:pageshadow="2"
     inkscape:zoom="3.959798"
     inkscape:cx="-61.163598"
     inkscape:cy="88.425727"
     inkscape:document-units="mm"
     inkscape:current-layer="layer1"
     inkscape:document-rotation="0"
     showgrid="true"
     inkscape:snap-page="false"
     inkscape:window-width="1858"
     inkscape:window-height="1057"
     inkscape:window-x="-8"
     inkscape:window-y="-8"
     inkscape:window-maximized="1"
     inkscape:snap-center="true">
    <inkscape:grid
       type="xygrid"
       id="grid833"
       units="mm"
       spacingx="2.5399999"
       spacingy="2.00781"
       empspacing="4"
       originx="20.319998"
       originy="64.250001" />
  </sodipodi:namedview>
  <metadata
     id="metadata5">
    <rdf:RDF>
      <cc:Work
         rdf:about="">
        <dc:format>image/svg+xml</dc:format>
        <dc:type
           rdf:resource="http://purl.org/dc/dcmitype/StillImage" />
        <dc:title />
      </cc:Work>
    </rdf:RDF>
  </metadata>
  <g
     inkscape:label="Layer 1"
     inkscape:groupmode="layer"
     id="layer1">
    <rect
       style="fill:#e6e6e6;fill-opacity:1"
       id="rect835"
       width="40.639996"
       height="128.49985"
       x="-1.2e-06"
       y="8.0999998e-05"
       rx="0.49999899"
       ry="0.49999899"
       inkscape:label="bg"
       sodipodi:insensitive="true" />
    <text
       xml:space="preserve"
       style="font-style:normal;font-variant:normal;font-weight:normal;font-stretch:normal;font-size:4.23333px;line-height:1.25;font-family:'Berlin Sans FB';-inkscape-font-specification:'Berlin Sans FB';fill:#e8617a;fill-opacity:1;stroke:none;stroke-width:0.264583"
       x="12.255381"
       y="9.1578665"
       id="text840"
       inkscape:label="title"><tspan
         sodipodi:role="line"
         id="tspan838"
         x="12.255381"
         y="9.1578665"
         style="font-style:normal;font-variant:normal;font-weight:normal;font-stretch:normal;font-size:4.23333px;font-family:'Berlin Sans FB';-inkscape-font-specification:'Berlin Sans FB';fill:#e8617a;fill-opacity:1;stroke-width:0.264583">template</tspan></text>
    <g
       aria-label="by pat"
       id="text840-6"
       style="font-style:normal;font-variant:normal;font-weight:normal;font-stretch:normal;font-size:3.52778px;line-height:1.25;font-family:'Berlin Sans FB';-inkscape-font-specification:'Berlin Sans FB';fill:#e8617a;fill-opacity:1;stroke:none;stroke-width:0.264583"
       inkscape:label="footer">
      <path
         d="m 7.1825727,120.5884 q 0,0.34106 -0.2118735,0.59428 -0.2256539,0.26871 -0.5615509,0.26871 -0.2239314,0 -0.3944637,-0.11369 -0.068902,-0.0586 -0.1378039,-0.11541 -0.018948,0.005 -0.025838,0.10336 -0.00517,0.0982 -0.027561,0.0982 H 5.4600239 q -0.020671,0 -0.020671,-0.0224 0,0.002 0.00345,-0.031 0.027561,-0.2756 0.027561,-1.0542 0,-0.31867 -0.027561,-0.93534 -0.017226,-0.39274 -0.017226,-0.34451 0,-0.0448 0.044786,-0.0499 0.062012,-0.002 0.1843127,-0.007 0.024116,-0.002 0.098185,-0.0121 0.062012,-0.0103 0.099908,-0.0103 0.027561,0 0.027561,0.0396 0,0.0586 -0.00861,0.17915 -0.00861,0.12057 -0.00861,0.18086 0,0.0896 -0.00861,0.27044 -0.00689,0.17915 -0.00689,0.26872 0,0.0655 0.024116,0.0655 0.012058,0 0.025838,-0.0189 0.1894804,-0.23599 0.5012617,-0.23599 0.3565676,0 0.5770539,0.267 0.2067058,0.25149 0.2067058,0.61495 z m -0.389296,-0.0155 q 0,-0.20498 -0.1291912,-0.36173 -0.1378039,-0.16709 -0.3393421,-0.16709 -0.2067059,0 -0.3445098,0.16364 -0.1326362,0.15503 -0.1326362,0.36518 0,0.2136 0.1326362,0.36863 0.1378039,0.16192 0.3479549,0.16192 0.2032608,0 0.3393421,-0.16709 0.1257461,-0.15503 0.1257461,-0.36346 z"
         style="font-style:normal;font-variant:normal;font-weight:normal;font-stretch:normal;font-size:3.52778px;font-family:'Berlin Sans FB';-inkscape-font-specification:'Berlin Sans FB';fill:#e8617a;fill-opacity:1;stroke-width:0.264583"
         id="path885" />
      <path
         d="m 8.8792833,120.22149 q 0,0.29111 -0.017226,0.3514 -0.022393,0.0775 -0.4271921,0.67696 -0.4030764,0.59773 -0.4788686,0.66835 -0.068902,0.062 -0.4444176,0.062 -0.044786,0 -0.058567,-0.0103 -0.012058,-0.009 -0.058567,-0.12402 -0.044786,-0.11541 -0.044786,-0.13781 0,-0.0379 0.091295,-0.0379 0.1929255,0 0.2842206,-0.0551 0.031006,-0.0189 0.093018,-0.11886 0.063734,-0.0999 0.063734,-0.13436 0,-0.0465 -0.2497696,-0.36346 -0.2635499,-0.33589 -0.2945558,-0.42547 -0.024116,-0.0706 -0.024116,-0.33762 0,-0.0654 0.00172,-0.19637 0.00172,-0.13263 0.00172,-0.19981 0,-0.0379 0.041341,-0.0379 0.055122,0 0.1619196,0.007 0.1085205,0.007 0.1636421,0.007 0.027561,0 0.027561,0.0362 0,0.0482 -0.00517,0.14469 -0.00517,0.0965 -0.00517,0.14469 0,0.21015 0.01378,0.31351 0.010335,0.0654 0.1877578,0.32556 0.1774225,0.2601 0.2187637,0.2601 0.029283,0 0.1860353,-0.25493 0.1567519,-0.25666 0.1670872,-0.31695 0.01378,-0.0861 0.01378,-0.31351 0,-0.0499 -0.010335,-0.14641 -0.010335,-0.0982 -0.010335,-0.14642 0,-0.0431 0.027561,-0.0431 0.055122,0 0.1653647,-0.007 0.1119657,-0.009 0.1670872,-0.009 0.051677,0 0.051677,0.41858 z"
         style="font-style:normal;font-variant:normal;font-weight:normal;font-stretch:normal;font-size:3.52778px;font-family:'Berlin Sans FB';-inkscape-font-specification:'Berlin Sans FB';fill:#e8617a;fill-opacity:1;stroke-width:0.264583"
         id="path887" />
      <path
         d="m 11.712876,120.59184 q 0,0.34796 -0.220486,0.60462 -0.230822,0.27044 -0.573609,0.27044 -0.213596,0 -0.373793,-0.13264 -0.07235,-0.0672 -0.144694,-0.13608 -0.01034,0.005 -0.01378,0.0276 -0.0017,0.0103 -0.0017,0.19292 l -0.0017,0.48576 q 0,0.0551 -0.03962,0.0551 -0.265273,0 -0.313504,-0.007 -0.039619,-0.005 -0.039619,-0.0448 0,-0.22049 0.00345,-0.66146 0.00345,-0.44097 0.00345,-0.66146 0,-0.4048 -0.051676,-0.75964 -0.00345,-0.0207 -0.00345,-0.0276 0,-0.0189 0.017225,-0.0241 0.065457,-0.003 0.191203,-0.019 0.16881,-0.031 0.189481,-0.031 0.02928,0 0.0379,0.10335 0.0052,0.0689 0.0086,0.13608 0,0.0138 0.01034,0.0276 0.01206,-0.007 0.02756,-0.0241 0.241157,-0.24633 0.487482,-0.24633 0.341064,0 0.575331,0.267 0.225654,0.25666 0.225654,0.60461 z m -0.403076,-0.007 q 0,-0.2067 -0.129192,-0.36346 -0.136081,-0.16708 -0.339342,-0.16708 -0.199815,0 -0.327284,0.17225 -0.117133,0.15503 -0.117133,0.36174 0,0.21015 0.120578,0.36518 0.132636,0.16708 0.33762,0.16708 0.19637,0 0.330729,-0.17397 0.124024,-0.16192 0.124024,-0.36174 z"
         style="font-style:normal;font-variant:normal;font-weight:normal;font-stretch:normal;font-size:3.52778px;font-family:'Berlin Sans FB';-inkscape-font-specification:'Berlin Sans FB';fill:#e8617a;fill-opacity:1;stroke-width:0.264583"
         id="path889" />
      <path
         d="m 13.654189,119.86148 q 0,0.007 -0.0052,0.031 -0.06718,0.39446 -0.06718,0.6804 0,0.0172 0.04306,0.77343 l 0.0017,0.0241 q 0.0017,0.05 -0.04651,0.05 -0.04651,0 -0.142972,0.0103 -0.09474,0.0121 -0.141249,0.0121 -0.03273,0 -0.04995,-0.12058 -0.01722,-0.12058 -0.03273,-0.12058 -0.01033,0 -0.09302,0.0672 -0.10163,0.0827 -0.18948,0.12575 -0.136081,0.0689 -0.272163,0.0689 -0.334174,0 -0.563273,-0.26699 -0.217041,-0.25494 -0.217041,-0.59428 0,-0.38241 0.218763,-0.63218 0.229099,-0.2601 0.602892,-0.2601 0.26355,0 0.459921,0.18259 0.02928,0.0345 0.09129,0.0999 0.0052,0.005 0.01034,0.005 0.01034,0 0.02928,-0.10852 0.01895,-0.10852 0.04823,-0.10852 0.04651,0 0.173978,0.0258 0.141249,0.031 0.141249,0.0551 z m -0.43925,0.72003 q 0,-0.21188 -0.125746,-0.36346 -0.132637,-0.16364 -0.339343,-0.16364 -0.206705,0 -0.344509,0.16192 -0.132637,0.15503 -0.132637,0.36518 0,0.20842 0.132637,0.36173 0.137804,0.1602 0.344509,0.1602 0.201539,0 0.33762,-0.16364 0.127469,-0.15331 0.127469,-0.35829 z"
         style="font-style:normal;font-variant:normal;font-weight:normal;font-stretch:normal;font-size:3.52778px;font-family:'Berlin Sans FB';-inkscape-font-specification:'Berlin Sans FB';fill:#e8617a;fill-opacity:1;stroke-width:0.264583"
         id="path891" />
      <path
         d="m 14.894424,121.10344 q 0,0.0379 -0.0069,0.10335 -0.0086,0.081 -0.01033,0.10508 -0.0017,0.031 -0.0052,0.0379 -0.0069,0.0121 -0.03273,0.0241 -0.141249,0.0672 -0.444417,0.0672 -0.403077,0 -0.403077,-0.36518 0,-0.14642 0.0069,-0.43925 0.0069,-0.29456 0.0069,-0.44097 0,-0.0706 -0.07062,-0.0758 -0.06373,0 -0.125746,-0.002 -0.03617,-0.009 -0.03617,-0.14125 0,-0.0499 0.0069,-0.10507 0.0052,-0.0413 0.05512,-0.05 0.04306,0 0.08441,-0.002 0.07924,-0.003 0.07924,-0.0706 0,-0.0689 -0.0052,-0.21015 -0.0034,-0.14125 -0.0034,-0.21187 0,-0.12575 0.04823,-0.12575 0.0155,0 0.323839,0.0534 0.03962,0.005 0.03962,0.0379 0,0.0758 -0.01206,0.22738 -0.01033,0.15158 -0.01033,0.22737 0,0.05 0.04651,0.05 h 0.413412 q 0.02928,0 0.02928,0.0207 0,0.0207 -0.0069,0.0672 -0.0052,0.0448 -0.0052,0.0672 0,0.0258 0.0017,0.0792 0.0017,0.0534 0.0017,0.0792 0,0.0327 -0.04823,0.0327 -0.0689,0 -0.208428,-0.009 -0.139527,-0.0103 -0.208428,-0.0103 -0.01378,0 -0.02067,0.0982 -0.0086,0.1223 -0.0086,0.34278 v 0.25666 q 0,0.14814 0.02756,0.20671 0.04134,0.0896 0.170532,0.0896 0.0534,0 0.156752,-0.0224 0.103353,-0.0241 0.153307,-0.0241 0.02067,0 0.02067,0.031 z"
         style="font-style:normal;font-variant:normal;font-weight:normal;font-stretch:normal;font-size:3.52778px;font-family:'Berlin Sans FB';-inkscape-font-specification:'Berlin Sans FB';fill:#e8617a;fill-opacity:1;stroke-width:0.264583"
         id="path893" />
    </g>
    <g
       aria-label=":^)"
       id="text840-6-7"
       style="font-style:normal;font-variant:normal;font-weight:bold;font-stretch:normal;font-size:3.52777px;line-height:1.25;font-family:Calibri;-inkscape-font-specification:'Calibri Bold';fill:#e8617a;fill-opacity:1;stroke:none;stroke-width:0.264583"
       inkscape:label="smiley">
      <path
         d="m 29.484368,120.07767 q 0,0.0723 -0.01206,0.12057 -0.01206,0.0482 -0.04134,0.0792 -0.02756,0.031 -0.07407,0.0448 -0.04651,0.0121 -0.117133,0.0121 -0.07062,0 -0.117133,-0.0121 -0.04651,-0.0138 -0.07579,-0.0448 -0.02756,-0.031 -0.0379,-0.0792 -0.01034,-0.0482 -0.01034,-0.12057 0,-0.0741 0.01034,-0.12403 0.01033,-0.0499 0.0379,-0.081 0.02928,-0.031 0.07579,-0.0448 0.04651,-0.0138 0.117133,-0.0138 0.07062,0 0.117133,0.0138 0.04651,0.0138 0.07407,0.0448 0.02928,0.031 0.04134,0.081 0.01206,0.05 0.01206,0.12403 z m 0,1.12482 q 0,0.0723 -0.01206,0.1223 -0.01206,0.0482 -0.04134,0.0792 -0.02756,0.031 -0.07407,0.0431 -0.04651,0.0138 -0.117133,0.0138 -0.07062,0 -0.117133,-0.0138 -0.04651,-0.0121 -0.07579,-0.0431 -0.02756,-0.031 -0.0379,-0.0792 -0.01034,-0.05 -0.01034,-0.1223 0,-0.0724 0.01034,-0.1223 0.01033,-0.0517 0.0379,-0.0827 0.02928,-0.031 0.07579,-0.0431 0.04651,-0.0138 0.117133,-0.0138 0.07062,0 0.117133,0.0138 0.04651,0.0121 0.07407,0.0431 0.02928,0.031 0.04134,0.0827 0.01206,0.0499 0.01206,0.1223 z"
         style="font-style:normal;font-variant:normal;font-weight:bold;font-stretch:normal;font-size:3.52777px;font-family:Calibri;-inkscape-font-specification:'Calibri Bold';fill:#e8617a;fill-opacity:1;stroke-width:0.264583"
         id="path878" />
      <path
         d="m 31.363663,120.41184 q 0.02239,0.0482 0.02756,0.0775 0.0052,0.0293 -0.01378,0.0448 -0.01723,0.0155 -0.06201,0.0207 -0.04306,0.003 -0.118855,0.003 -0.06718,0 -0.111966,-0.003 -0.04306,-0.005 -0.07235,-0.0138 -0.02756,-0.0103 -0.04306,-0.0241 -0.01378,-0.0155 -0.02239,-0.0362 l -0.380683,-0.93189 -0.0086,0.002 -0.36518,0.93017 q -0.0086,0.0207 -0.02412,0.0362 -0.01378,0.0138 -0.04134,0.0241 -0.02756,0.009 -0.07235,0.0138 -0.04306,0.003 -0.110243,0.003 -0.07579,0 -0.118855,-0.003 -0.04134,-0.005 -0.06029,-0.0207 -0.01722,-0.0155 -0.01206,-0.0448 0.0052,-0.0293 0.02756,-0.0775 l 0.496093,-1.12999 q 0.01033,-0.0224 0.03101,-0.0379 0.02067,-0.0172 0.05512,-0.0276 0.03617,-0.0121 0.08613,-0.0172 0.04995,-0.007 0.118856,-0.007 0.0689,0 0.118856,0.007 0.05168,0.005 0.08613,0.0172 0.03445,0.0103 0.05512,0.0276 0.02067,0.0155 0.03101,0.0379 z"
         style="font-style:normal;font-variant:normal;font-weight:bold;font-stretch:normal;font-size:3.52777px;font-family:Calibri;-inkscape-font-specification:'Calibri Bold';fill:#e8617a;fill-opacity:1;stroke-width:0.264583"
         id="path880" />
      <path
         d="m 32.366184,120.51175 q 0,0.19465 -0.02239,0.38413 -0.02239,0.18775 -0.0689,0.37379 -0.04479,0.18431 -0.113688,0.36518 -0.06718,0.18259 -0.160196,0.36173 -0.0052,0.0121 -0.01895,0.0207 -0.01206,0.0103 -0.03617,0.0155 -0.02239,0.007 -0.05684,0.0103 -0.03445,0.003 -0.08268,0.003 -0.07062,0 -0.110243,-0.007 -0.0379,-0.007 -0.05684,-0.0207 -0.01895,-0.0138 -0.01895,-0.0344 0,-0.0189 0.01034,-0.0465 0.142971,-0.33761 0.21704,-0.69418 0.07579,-0.35829 0.07579,-0.73553 0,-0.37551 -0.07407,-0.73208 -0.07407,-0.35829 -0.220486,-0.69418 -0.0086,-0.0224 -0.0069,-0.0413 0.0034,-0.019 0.02412,-0.031 0.02239,-0.0121 0.06029,-0.0172 0.03962,-0.007 0.103352,-0.007 0.0534,0 0.08785,0.003 0.03445,0.002 0.05684,0.009 0.02239,0.005 0.03101,0.0121 0.01034,0.007 0.0155,0.0155 0.179144,0.36174 0.272162,0.73208 0.09302,0.36863 0.09302,0.75448 z"
         style="font-style:normal;font-variant:normal;font-weight:bold;font-stretch:normal;font-size:3.52777px;font-family:Calibri;-inkscape-font-specification:'Calibri Bold';fill:#e8617a;fill-opacity:1;stroke-width:0.264583"
         id="path882" />
    </g>
    <circle
       style="fill:#00ff00;stroke-width:0.4895"
       id="path2113"
       cx="-36.461998"
       cy="16.224941"
       r="4.178" />
    <circle
       style="fill:#ff0000;stroke-width:0.648898"
       id="path2113-6"
       cx="-37.641499"
       cy="37.66354"
       r="5.5384998" />
  </g>
  <g
     inkscape:groupmode="layer"
     id="layer2"
     inkscape:label="components" />
</svg>
