<?xml version="1.0" encoding="UTF-8" standalone="no"?>
<svg
   xmlns:dc="http://purl.org/dc/elements/1.1/"
   xmlns:cc="http://creativecommons.org/ns#"
   xmlns:rdf="http://www.w3.org/1999/02/22-rdf-syntax-ns#"
   xmlns:svg="http://www.w3.org/2000/svg"
   xmlns="http://www.w3.org/2000/svg"
   xmlns:sodipodi="http://sodipodi.sourceforge.net/DTD/sodipodi-0.dtd"
   xmlns:inkscape="http://www.inkscape.org/namespaces/inkscape"
   width="5.0799999mm"
   height="5.0799999mm"
   viewBox="0 0 5.0799999 5.0799999"
   version="1.1"
   id="svg1422"
   inkscape:version="1.0.1 (3bc2e813f5, 2020-09-07)"
   sodipodi:docname="A.svg">
  <defs
     id="defs1416" />
  <sodipodi:namedview
     id="base"
     pagecolor="#ffffff"
     bordercolor="#666666"
     borderopacity="1.0"
     inkscape:pageopacity="0.0"
     inkscape:pageshadow="2"
     inkscape:zoom="22.4"
     inkscape:cx="10.523063"
     inkscape:cy="11.305036"
     inkscape:document-units="mm"
     inkscape:current-layer="layer1"
     inkscape:document-rotation="0"
     showgrid="true"
     inkscape:snap-object-midpoints="true"
     inkscape:snap-center="true"
     inkscape:snap-page="true"
     inkscape:window-width="1827"
     inkscape:window-height="1051"
     inkscape:window-x="-9"
     inkscape:window-y="-9"
     inkscape:window-maximized="1">
    <inkscape:grid
       type="xygrid"
       id="grid2060"
       units="mm"
       spacingx="0.63499999"
       spacingy="0.63499999" />
  </sodipodi:namedview>
  <metadata
     id="metadata1419">
    <rdf:RDF>
      <cc:Work
         rdf:about="">
        <dc:format>image/svg+xml</dc:format>
        <dc:type
           rdf:resource="http://purl.org/dc/dcmitype/StillImage" />
        <dc:title />
      </cc:Work>
    </rdf:RDF>
  </metadata>
  <g
     inkscape:label="Layer 1"
     inkscape:groupmode="layer"
     id="layer1">
    <rect
       style="fill:#e6e6e6;fill-opacity:1;stroke:#000000;stroke-width:0.264583"
       id="rect1497"
       width="5.0799994"
       height="5.0799994"
       x="0"
       y="0"
       sodipodi:insensitive="true"
       inkscape:label="main" />
    <g
       aria-label="a"
       id="text13"
       style="font-size:3.88056px;line-height:1.25;font-family:sans-serif;stroke-width:0.264583">
      <path
         d="M 3.4390848,3.5944588 H 3.0847564 V 3.3689771 q -0.04737,0.032212 -0.1288468,0.090951 -0.079582,0.056844 -0.1553739,0.090951 -0.089056,0.043581 -0.2046389,0.072003 -0.1155831,0.030317 -0.2709571,0.030317 -0.2861155,0 -0.48507,-0.1894805 -0.1989545,-0.1894805 -0.1989545,-0.4831752 0,-0.2406402 0.1023195,-0.3884349 Q 1.8474489,2.4424176 2.0388242,2.3571514 2.2320943,2.2718852 2.5030513,2.2415683 2.7740084,2.2112514 3.0847564,2.196093 V 2.141144 q 0,-0.1212675 -0.043581,-0.2008493 Q 2.9994901,1.8607126 2.9199083,1.8152373 2.8441162,1.7716567 2.7380071,1.7564983 2.631898,1.7413399 2.516315,1.7413399 q -0.1402156,0 -0.3126428,0.037896 Q 2.031245,1.8152373 1.8474489,1.885345 H 1.8285009 V 1.5234373 q 0.1042142,-0.028422 0.3012739,-0.062529 0.1970597,-0.034106 0.388435,-0.034106 0.2235869,0 0.3884349,0.037896 0.1667428,0.036001 0.2880103,0.1250571 0.1193727,0.087161 0.1819013,0.2254818 0.062528,0.1383207 0.062528,0.3429596 z M 3.0847564,3.0733875 V 2.4841033 q -0.1629532,0.00947 -0.3846454,0.028422 -0.2197973,0.018948 -0.348644,0.054949 -0.1534792,0.043581 -0.2482195,0.1364259 -0.09474,0.090951 -0.09474,0.2520091 0,0.1819012 0.1098987,0.2747466 0.1098986,0.090951 0.3353804,0.090951 0.1875857,0 0.3429596,-0.072002 Q 2.95212,3.175707 3.0847564,3.0733875 Z"
         style="stroke-width:0.264583"
         id="path15" />
    </g>
  </g>
</svg>
