<?xml version="1.0" encoding="UTF-8" standalone="no"?>
<svg
   xmlns:dc="http://purl.org/dc/elements/1.1/"
   xmlns:cc="http://creativecommons.org/ns#"
   xmlns:rdf="http://www.w3.org/1999/02/22-rdf-syntax-ns#"
   xmlns:svg="http://www.w3.org/2000/svg"
   xmlns="http://www.w3.org/2000/svg"
   xmlns:sodipodi="http://sodipodi.sourceforge.net/DTD/sodipodi-0.dtd"
   xmlns:inkscape="http://www.inkscape.org/namespaces/inkscape"
   width="5.0799999mm"
   height="5.0799999mm"
   viewBox="0 0 5.0799999 5.0799999"
   version="1.1"
   id="svg1422"
   inkscape:version="1.0.1 (3bc2e813f5, 2020-09-07)"
   sodipodi:docname="B.svg">
  <defs
     id="defs1416" />
  <sodipodi:namedview
     id="base"
     pagecolor="#ffffff"
     bordercolor="#666666"
     borderopacity="1.0"
     inkscape:pageopacity="0.0"
     inkscape:pageshadow="2"
     inkscape:zoom="22.4"
     inkscape:cx="4.9427059"
     inkscape:cy="10.813965"
     inkscape:document-units="mm"
     inkscape:current-layer="text2108"
     inkscape:document-rotation="0"
     showgrid="true"
     inkscape:snap-object-midpoints="true"
     inkscape:snap-center="true"
     inkscape:snap-page="true"
     inkscape:window-width="1827"
     inkscape:window-height="1051"
     inkscape:window-x="-9"
     inkscape:window-y="-9"
     inkscape:window-maximized="1"
     inkscape:object-nodes="false">
    <inkscape:grid
       type="xygrid"
       id="grid2060"
       units="mm"
       spacingx="0.63499999"
       spacingy="0.63499999" />
  </sodipodi:namedview>
  <metadata
     id="metadata1419">
    <rdf:RDF>
      <cc:Work
         rdf:about="">
        <dc:format>image/svg+xml</dc:format>
        <dc:type
           rdf:resource="http://purl.org/dc/dcmitype/StillImage" />
        <dc:title />
      </cc:Work>
    </rdf:RDF>
  </metadata>
  <g
     inkscape:label="Layer 1"
     inkscape:groupmode="layer"
     id="layer1">
    <rect
       style="fill:#e6e6e6;fill-opacity:1;stroke:#000000;stroke-width:0.264583"
       id="rect1497"
       width="5.0799994"
       height="5.0799994"
       x="0"
       y="0"
       sodipodi:insensitive="true"
       inkscape:label="main" />
    <g
       aria-label="A"
       id="text2108"
       style="font-size:3.88056px;line-height:1.25;font-family:sans-serif;stroke-width:0.264583">
      <g
         aria-label="b"
         id="text14"
         style="font-size:3.88056px;line-height:1.25;font-family:sans-serif;stroke-width:0.0700042">
        <path
           d="m 3.4712965,2.9104342 q 0,0.2652726 -0.075792,0.4774908 Q 3.3216069,3.6001431 3.194655,3.7441482 3.0601239,3.8938378 2.8990655,3.96963 2.7380071,4.0435274 2.544737,4.0435274 q -0.1800064,0 -0.3145376,-0.043581 Q 2.0956683,3.9582612 1.9649268,3.8862586 l -0.022738,0.09853 H 1.6087035 V 1.0364724 H 1.9649268 V 2.0899838 Q 2.1146163,1.9668215 2.283254,1.8891345 q 0.1686376,-0.079582 0.3789609,-0.079582 0.3751713,0 0.591179,0.2880103 0.2179026,0.2880103 0.2179026,0.8128714 z m -0.3675921,0.00947 q 0,-0.3789609 -0.1250571,-0.5741258 -0.1250571,-0.1970597 -0.4035934,-0.1970597 -0.155374,0 -0.3145376,0.068213 -0.1591636,0.066318 -0.2955895,0.1724272 v 1.212675 q 0.1515844,0.068213 0.2595882,0.09474 0.1098987,0.026527 0.2482194,0.026527 0.2955895,0 0.4623324,-0.1932701 0.1686376,-0.1951649 0.1686376,-0.6101266 z"
           style="stroke-width:0.0700042"
           id="path16" />
      </g>
    </g>
  </g>
</svg>
