<?xml version="1.0" encoding="UTF-8" standalone="no"?>
<svg
   xmlns:dc="http://purl.org/dc/elements/1.1/"
   xmlns:cc="http://creativecommons.org/ns#"
   xmlns:rdf="http://www.w3.org/1999/02/22-rdf-syntax-ns#"
   xmlns:svg="http://www.w3.org/2000/svg"
   xmlns="http://www.w3.org/2000/svg"
   xmlns:sodipodi="http://sodipodi.sourceforge.net/DTD/sodipodi-0.dtd"
   xmlns:inkscape="http://www.inkscape.org/namespaces/inkscape"
   width="13.6mm"
   height="5.0799999mm"
   viewBox="0 0 13.6 5.0799999"
   version="1.1"
   id="svg1422"
   inkscape:version="1.0.1 (3bc2e813f5, 2020-09-07)"
   sodipodi:docname="Clear.svg">
  <defs
     id="defs1416" />
  <sodipodi:namedview
     id="base"
     pagecolor="#ffffff"
     bordercolor="#666666"
     borderopacity="1.0"
     inkscape:pageopacity="0.0"
     inkscape:pageshadow="2"
     inkscape:zoom="15.839192"
     inkscape:cx="26.677223"
     inkscape:cy="9.2779778"
     inkscape:document-units="mm"
     inkscape:current-layer="layer1"
     inkscape:document-rotation="0"
     showgrid="true"
     inkscape:snap-object-midpoints="true"
     inkscape:snap-center="true"
     inkscape:snap-page="true"
     inkscape:window-width="1827"
     inkscape:window-height="1051"
     inkscape:window-x="-9"
     inkscape:window-y="-9"
     inkscape:window-maximized="1"
     inkscape:snap-grids="false">
    <inkscape:grid
       type="xygrid"
       id="grid2060"
       units="mm"
       spacingx="0.63499999"
       spacingy="0.63499999" />
  </sodipodi:namedview>
  <metadata
     id="metadata1419">
    <rdf:RDF>
      <cc:Work
         rdf:about="">
        <dc:format>image/svg+xml</dc:format>
        <dc:type
           rdf:resource="http://purl.org/dc/dcmitype/StillImage" />
        <dc:title />
      </cc:Work>
    </rdf:RDF>
  </metadata>
  <g
     inkscape:label="Layer 1"
     inkscape:groupmode="layer"
     id="layer1">
    <rect
       style="fill:#e6e6e6;fill-opacity:1;stroke:#000000;stroke-width:0.262;stroke-miterlimit:4;stroke-dasharray:none"
       id="rect1497"
       width="13.6"
       height="5.0799994"
       x="0"
       y="0"
       inkscape:label="main" />
    <g
       aria-label="clear"
       id="text225"
       style="font-size:3.88056px;line-height:1.25;font-family:sans-serif;stroke-width:0.264583">
      <path
         d="m 4.1011071,3.8521521 q -0.1781116,0.085266 -0.33917,0.1326363 -0.1591636,0.04737 -0.3391701,0.04737 -0.2292713,0 -0.4206466,-0.066318 Q 2.8107451,3.8976274 2.6743192,3.7612015 2.5359985,3.6247755 2.4602063,3.416347 2.3844141,3.2079185 2.3844141,2.9293822 q 0,-0.5191764 0.2842207,-0.814766 0.2861155,-0.2955895 0.7541322,-0.2955895 0.1819013,0 0.3562233,0.05116 0.1762169,0.05116 0.3221168,0.1250571 V 2.3912577 H 4.0821591 Q 3.9192059,2.2643058 3.7448838,2.1960928 3.5724566,2.1278799 3.4076086,2.1278799 q -0.3031687,0 -0.4793856,0.2046389 -0.174322,0.2027441 -0.174322,0.5968634 0,0.3827506 0.1705324,0.5892843 0.1724272,0.2046389 0.4831752,0.2046389 0.1080039,0 0.2197974,-0.028422 0.1117934,-0.028422 0.2008492,-0.073897 0.077687,-0.039791 0.1459,-0.083371 0.068213,-0.045475 0.1080039,-0.077687 h 0.018948 z"
         style="stroke-width:0.264583"
         id="path227" />
      <path
         d="M 4.917768,3.9847884 H 4.5615447 V 1.0364724 H 4.917768 Z"
         style="stroke-width:0.264583"
         id="path229" />
      <path
         d="M 7.3942778,2.9634887 H 5.8348536 q 0,0.1951649 0.058739,0.3410648 0.058739,0.1440052 0.1610584,0.2368506 0.09853,0.090951 0.2330609,0.136426 0.136426,0.045475 0.2993792,0.045475 0.2160077,0 0.4339102,-0.085266 0.2197974,-0.087161 0.3126428,-0.1705325 h 0.018948 v 0.388435 Q 7.1725857,3.9317339 6.985,3.9828936 q -0.1875856,0.05116 -0.3941193,0.05116 -0.5267557,0 -0.8223452,-0.2842207 -0.2955896,-0.2861155 -0.2955896,-0.8109763 0,-0.5191765 0.2823259,-0.8242401 0.2842207,-0.3050635 0.7465531,-0.3050635 0.4282258,0 0.659392,0.2501142 0.2330609,0.2501142 0.2330609,0.7105517 z M 7.0475286,2.6906368 Q 7.0456338,2.4102058 6.9054182,2.2567266 6.7670975,2.1032474 6.4828768,2.1032474 q -0.2861155,0 -0.4566479,0.1686376 -0.1686376,0.1686376 -0.1913753,0.4187518 z"
         style="stroke-width:0.264583"
         id="path231" />
      <path
         d="M 9.5789876,3.9847884 H 9.2246592 V 3.7593067 q -0.04737,0.032212 -0.1288467,0.090951 -0.079582,0.056844 -0.155374,0.090951 -0.089056,0.04358 -0.2046389,0.072003 -0.1155831,0.030317 -0.2709571,0.030317 -0.2861155,0 -0.48507,-0.1894805 Q 7.780818,3.6645664 7.780818,3.3708717 q 0,-0.2406402 0.1023195,-0.3884349 Q 7.9873517,2.8327472 8.178727,2.747481 8.3719971,2.6622148 8.6429542,2.6318979 8.9139112,2.601581 9.2246592,2.5864226 v -0.054949 q 0,-0.1212675 -0.04358,-0.2008493 Q 9.139393,2.2510422 9.0598112,2.2055669 8.984019,2.1619863 8.8779099,2.1468279 8.7718009,2.1316695 8.6562178,2.1316695 q -0.1402156,0 -0.3126428,0.037896 -0.1724272,0.036001 -0.3562233,0.106109 H 7.9684037 V 1.9137669 q 0.1042143,-0.028422 0.3012739,-0.062528 0.1970597,-0.034107 0.388435,-0.034107 0.2235869,0 0.3884349,0.037896 0.1667429,0.036001 0.2880103,0.1250571 0.1193727,0.087161 0.1819013,0.2254818 0.062528,0.1383207 0.062528,0.3429596 z M 9.2246592,3.4637171 V 2.8744329 q -0.1629532,0.00947 -0.3846454,0.028422 -0.2197973,0.018948 -0.348644,0.054949 -0.1534792,0.043581 -0.2482194,0.1364259 -0.09474,0.090951 -0.09474,0.2520091 0,0.1819012 0.1098987,0.2747466 0.1098987,0.090951 0.3353804,0.090951 0.1875857,0 0.3429597,-0.072003 0.155374,-0.073897 0.28801,-0.1762164 z"
         style="stroke-width:0.264583"
         id="path233" />
      <path
         d="m 11.585586,2.2567266 h -0.01895 q -0.07958,-0.018948 -0.155374,-0.026527 -0.0739,-0.00947 -0.176217,-0.00947 -0.164848,0 -0.318327,0.073897 -0.153479,0.072002 -0.29559,0.1875856 V 3.9847884 H 10.264907 V 1.8682916 h 0.356223 v 0.3126428 q 0.212218,-0.1705324 0.373277,-0.2406402 0.162953,-0.072003 0.331591,-0.072003 0.09285,0 0.134531,0.00568 0.04169,0.00379 0.125057,0.017053 z"
         style="stroke-width:0.264583"
         id="path235" />
    </g>
  </g>
</svg>
