<?xml version="1.0" encoding="UTF-8" standalone="no"?>
<svg
   xmlns:dc="http://purl.org/dc/elements/1.1/"
   xmlns:cc="http://creativecommons.org/ns#"
   xmlns:rdf="http://www.w3.org/1999/02/22-rdf-syntax-ns#"
   xmlns:svg="http://www.w3.org/2000/svg"
   xmlns="http://www.w3.org/2000/svg"
   xmlns:sodipodi="http://sodipodi.sourceforge.net/DTD/sodipodi-0.dtd"
   xmlns:inkscape="http://www.inkscape.org/namespaces/inkscape"
   width="8.3559999mm"
   height="8.3559999mm"
   viewBox="0 0 8.3559999 8.3559999"
   version="1.1"
   id="svg933"
   inkscape:version="1.0.1 (3bc2e813f5, 2020-09-07)"
   sodipodi:docname="on.svg">
  <defs
     id="defs927" />
  <sodipodi:namedview
     id="base"
     pagecolor="#ffffff"
     bordercolor="#666666"
     borderopacity="1.0"
     inkscape:pageopacity="0.0"
     inkscape:pageshadow="2"
     inkscape:zoom="10.372053"
     inkscape:cx="21.748399"
     inkscape:cy="23.95129"
     inkscape:document-units="mm"
     inkscape:current-layer="layer1"
     inkscape:document-rotation="0"
     showgrid="true"
     inkscape:window-width="1858"
     inkscape:window-height="1057"
     inkscape:window-x="-8"
     inkscape:window-y="-8"
     inkscape:window-maximized="1"
     inkscape:snap-center="true"
     inkscape:object-nodes="false">
    <inkscape:grid
       type="xygrid"
       id="grid1496"
       originx="4.178"
       originy="4.178"
       units="mm"
       spacingx="0.52225"
       spacingy="0.52225" />
  </sodipodi:namedview>
  <metadata
     id="metadata930">
    <rdf:RDF>
      <cc:Work
         rdf:about="">
        <dc:format>image/svg+xml</dc:format>
        <dc:type
           rdf:resource="http://purl.org/dc/dcmitype/StillImage" />
        <dc:title />
      </cc:Work>
    </rdf:RDF>
  </metadata>
  <g
     inkscape:label="Layer 1"
     inkscape:groupmode="layer"
     id="layer1">
    <circle
       style="fill:#000000;stroke-width:0.264583"
       id="path1498"
       cx="4.178"
       cy="4.178"
       r="4.178" />
    <circle
       style="fill:#e8617a;stroke-width:0.215676"
       id="path1500"
       cx="4.178"
       cy="4.178"
       r="2.98" />
    <g
       aria-label=":^)"
       id="text840-6-7"
       style="font-style:normal;font-variant:normal;font-weight:bold;font-stretch:normal;font-size:3.52777px;line-height:1.25;font-family:Calibri;-inkscape-font-specification:'Calibri Bold';fill:#000000;fill-opacity:1;stroke:none;stroke-width:0.264583"
       inkscape:label="smiley"
       transform="rotate(90,75.59897,49.094576)">
      <path
         d="m 29.484368,120.07767 q 0,0.0723 -0.01206,0.12057 -0.01206,0.0482 -0.04134,0.0792 -0.02756,0.031 -0.07407,0.0448 -0.04651,0.0121 -0.117133,0.0121 -0.07062,0 -0.117133,-0.0121 -0.04651,-0.0138 -0.07579,-0.0448 -0.02756,-0.031 -0.0379,-0.0792 -0.01034,-0.0482 -0.01034,-0.12057 0,-0.0741 0.01034,-0.12403 0.01033,-0.0499 0.0379,-0.081 0.02928,-0.031 0.07579,-0.0448 0.04651,-0.0138 0.117133,-0.0138 0.07062,0 0.117133,0.0138 0.04651,0.0138 0.07407,0.0448 0.02928,0.031 0.04134,0.081 0.01206,0.05 0.01206,0.12403 z m 0,1.12482 q 0,0.0723 -0.01206,0.1223 -0.01206,0.0482 -0.04134,0.0792 -0.02756,0.031 -0.07407,0.0431 -0.04651,0.0138 -0.117133,0.0138 -0.07062,0 -0.117133,-0.0138 -0.04651,-0.0121 -0.07579,-0.0431 -0.02756,-0.031 -0.0379,-0.0792 -0.01034,-0.05 -0.01034,-0.1223 0,-0.0724 0.01034,-0.1223 0.01033,-0.0517 0.0379,-0.0827 0.02928,-0.031 0.07579,-0.0431 0.04651,-0.0138 0.117133,-0.0138 0.07062,0 0.117133,0.0138 0.04651,0.0121 0.07407,0.0431 0.02928,0.031 0.04134,0.0827 0.01206,0.0499 0.01206,0.1223 z"
         style="font-style:normal;font-variant:normal;font-weight:bold;font-stretch:normal;font-size:3.52777px;font-family:Calibri;-inkscape-font-specification:'Calibri Bold';fill:#000000;fill-opacity:1;stroke-width:0.264583"
         id="path878" />
      <path
         d="m 31.363663,120.41184 q 0.02239,0.0482 0.02756,0.0775 0.0052,0.0293 -0.01378,0.0448 -0.01723,0.0155 -0.06201,0.0207 -0.04306,0.003 -0.118855,0.003 -0.06718,0 -0.111966,-0.003 -0.04306,-0.005 -0.07235,-0.0138 -0.02756,-0.0103 -0.04306,-0.0241 -0.01378,-0.0155 -0.02239,-0.0362 l -0.380683,-0.93189 -0.0086,0.002 -0.36518,0.93017 q -0.0086,0.0207 -0.02412,0.0362 -0.01378,0.0138 -0.04134,0.0241 -0.02756,0.009 -0.07235,0.0138 -0.04306,0.003 -0.110243,0.003 -0.07579,0 -0.118855,-0.003 -0.04134,-0.005 -0.06029,-0.0207 -0.01722,-0.0155 -0.01206,-0.0448 0.0052,-0.0293 0.02756,-0.0775 l 0.496093,-1.12999 q 0.01033,-0.0224 0.03101,-0.0379 0.02067,-0.0172 0.05512,-0.0276 0.03617,-0.0121 0.08613,-0.0172 0.04995,-0.007 0.118856,-0.007 0.0689,0 0.118856,0.007 0.05168,0.005 0.08613,0.0172 0.03445,0.0103 0.05512,0.0276 0.02067,0.0155 0.03101,0.0379 z"
         style="font-style:normal;font-variant:normal;font-weight:bold;font-stretch:normal;font-size:3.52777px;font-family:Calibri;-inkscape-font-specification:'Calibri Bold';fill:#000000;fill-opacity:1;stroke-width:0.264583"
         id="path880" />
      <path
         d="m 32.366184,120.51175 q 0,0.19465 -0.02239,0.38413 -0.02239,0.18775 -0.0689,0.37379 -0.04479,0.18431 -0.113688,0.36518 -0.06718,0.18259 -0.160196,0.36173 -0.0052,0.0121 -0.01895,0.0207 -0.01206,0.0103 -0.03617,0.0155 -0.02239,0.007 -0.05684,0.0103 -0.03445,0.003 -0.08268,0.003 -0.07062,0 -0.110243,-0.007 -0.0379,-0.007 -0.05684,-0.0207 -0.01895,-0.0138 -0.01895,-0.0344 0,-0.0189 0.01034,-0.0465 0.142971,-0.33761 0.21704,-0.69418 0.07579,-0.35829 0.07579,-0.73553 0,-0.37551 -0.07407,-0.73208 -0.07407,-0.35829 -0.220486,-0.69418 -0.0086,-0.0224 -0.0069,-0.0413 0.0034,-0.019 0.02412,-0.031 0.02239,-0.0121 0.06029,-0.0172 0.03962,-0.007 0.103352,-0.007 0.0534,0 0.08785,0.003 0.03445,0.002 0.05684,0.009 0.02239,0.005 0.03101,0.0121 0.01034,0.007 0.0155,0.0155 0.179144,0.36174 0.272162,0.73208 0.09302,0.36863 0.09302,0.75448 z"
         style="font-style:normal;font-variant:normal;font-weight:bold;font-stretch:normal;font-size:3.52777px;font-family:Calibri;-inkscape-font-specification:'Calibri Bold';fill:#000000;fill-opacity:1;stroke-width:0.264583"
         id="path882" />
    </g>
  </g>
</svg>
